<svg xmlns="http://www.w3.org/2000/svg" viewBox="0 0 109.14 774.21"><defs><style>.cls-1,.cls-2{fill:#78c8cf;}.cls-1{stroke:#fff;stroke-miterlimit:10;}.cls-3{fill:#fff;}</style></defs><title>Fichier 3</title><g id="Calque_2" data-name="Calque 2"><g id="Calque_1-2" data-name="Calque 1"><g id="Calque_2-2" data-name="Calque 2"><g id="Calque_1-2-2" data-name="Calque 1-2"><g id="Calque_2-2-2" data-name="Calque 2-2"><g id="Calque_1-2-2-2" data-name="Calque 1-2-2"><g id="Calque_1-2-2-2-2" data-name="Calque 1-2-2-2"><path class="cls-1" d="M24.84,361.3l-.18-.1A3.05,3.05,0,0,1,23,357.26a3.09,3.09,0,0,1,3.77-1.73,3,3,0,0,1,1.85,1.71,2.92,2.92,0,0,1,0,2.32A3,3,0,0,1,24.84,361.3Zm3.53-8.3-.24-.09a3,3,0,0,1-1.62-1.63,3.31,3.31,0,0,1,0-2.32,3,3,0,0,1,3.71-1.72,3.1,3.1,0,0,1,1.88,4v0h0A3,3,0,0,1,28.37,353Zm3.52-8.32-.23-.09A2.91,2.91,0,0,1,30,342.8a3.4,3.4,0,0,1,0-2.27,3.07,3.07,0,0,1,3.72-1.72,3.31,3.31,0,0,1,1.88,1.72,3,3,0,0,1-1.6,3.92h0a2.87,2.87,0,0,1-2,.13Zm3.52-8.35h-.18a3,3,0,1,1,2.09-5.7,3.24,3.24,0,0,1,1.86,1.7,2.92,2.92,0,0,1,0,2.32,3.14,3.14,0,0,1-3.78,1.71ZM39,327.92l-.24-.09a3,3,0,0,1-1.61-3.93h0v-.07h0a3,3,0,0,1,5.56,0,2.87,2.87,0,0,1,0,2.33A3.12,3.12,0,0,1,39,327.91Zm3.47-8.32-.27-.07a3,3,0,0,1-1.67-3.9v-.1h0a3,3,0,1,1,5.83,1.63h0a4,4,0,0,1-.27.64,3,3,0,0,1-3.71,1.8ZM46,311.25l-.19-.09a3,3,0,0,1-1.67-1.63,2.84,2.84,0,0,1,0-2.32,3,3,0,1,1,1.86,3.9Z"/><path class="cls-1" d="M29.76,396.66a3,3,0,0,1-.61-5.47,2.68,2.68,0,0,1,2.27-.28h0a3,3,0,0,1,2.18,3.62,2.79,2.79,0,0,1-1.39,1.81,3.28,3.28,0,0,1-2.32.33l-.14-.05ZM32,387.84A3.1,3.1,0,0,1,30.1,384a2.87,2.87,0,0,1,1.35-1.63,2.76,2.76,0,0,1,2.26-.27h0a3,3,0,0,1,2.18,3.63,3,3,0,0,1-1.43,1.89,3.28,3.28,0,0,1-2.32.33.88.88,0,0,1-.19-.1Zm2.36-8.75a3,3,0,0,1-2-3.74h0a3.07,3.07,0,0,1,3.78-2h0a3.05,3.05,0,1,1-1.58,5.9h0l-.19-.1Zm2.37-8.72a3,3,0,0,1-2-3.63,3,3,0,0,1,1.39-1.86,3,3,0,0,1,2.32-.32h0a3,3,0,1,1-1.58,5.85h0Zm2.32-8.77a3,3,0,0,1-1.94-3.78h0a3,3,0,0,1,3.66-2,3.07,3.07,0,0,1,2.3,3.68h0a2.8,2.8,0,0,1-1.52,1.9,2.94,2.94,0,0,1-2.32.28h-.14Zm2.32-8.83A3,3,0,0,1,39.42,349h0a3,3,0,0,1,1.4-1.71,2.72,2.72,0,0,1,2.27-.33,3,3,0,0,1,2.2,3.62v.05h0a3.23,3.23,0,0,1-1.41,1.91,3.16,3.16,0,0,1-2.27.33l-.19-.1ZM43.69,344a3.06,3.06,0,0,1-1.89-3.85,3,3,0,0,1,3.61-1.9h0a3,3,0,0,1,2.15,3.65v.1h0a2.77,2.77,0,0,1-1.4,1.82,3.21,3.21,0,0,1-2.31.32ZM46,335.24a3,3,0,0,1-2-3.71h0a3,3,0,0,1,3.7-2.08h0a3,3,0,0,1,2.12,3.67v.11a3.26,3.26,0,0,1-1.39,1.81,2.94,2.94,0,0,1-2.32.28l-.09-.05Zm2.33-8.77a3,3,0,0,1,1.7-5.82h0a3.07,3.07,0,0,1,2.14,3.71,3,3,0,0,1-3.66,2.14h-.23Z"/><path class="cls-1" d="M72.5,388.35a3.12,3.12,0,0,1-2-2.09,3,3,0,0,1,2.09-3.66h0a3,3,0,0,1,3.78,1.92h0a3,3,0,0,1-.37,2.6,2.75,2.75,0,0,1-3.48,1.26Zm-2.27-8.77a3.12,3.12,0,0,1-2-2.09,3,3,0,1,1,5.8-1.71V376a2.83,2.83,0,0,1-.33,2.32,3,3,0,0,1-1.85,1.39,3,3,0,0,1-1.62-.09ZM68,370.81a3.12,3.12,0,0,1-2-2.09,3,3,0,0,1,2.08-3.7h0a3,3,0,1,1,1.51,5.89h0a3.34,3.34,0,0,1-1.63-.09ZM65.68,362a3.08,3.08,0,0,1-1.85-3.91,3,3,0,0,1,2-1.89,3.05,3.05,0,0,1,3.71,2.17A3,3,0,0,1,67.41,362h0a3.1,3.1,0,0,1-1.76,0Zm-2.32-8.77a3,3,0,0,1-1.93-3.78h0v-.05h0a1.11,1.11,0,0,1,.28-.55,2.93,2.93,0,0,1,1.85-1.39,3,3,0,0,1,3.75,2v0A3,3,0,0,1,67,352a3.2,3.2,0,0,1-1.85,1.39,3.54,3.54,0,0,1-1.77-.09Zm-2.27-8.77a3,3,0,0,1-2-2.14,2.79,2.79,0,0,1,.33-2.27,2.91,2.91,0,0,1,1.85-1.4A3,3,0,0,1,65,340.7s0,.05,0,.08v.05a2.8,2.8,0,0,1-.33,2.27,2.94,2.94,0,0,1-1.9,1.43,3.14,3.14,0,0,1-1.72,0Zm-2.27-8.77a3.16,3.16,0,0,1-2-2.1,3,3,0,0,1,2.1-3.69l.08,0a3.08,3.08,0,0,1,3.66,2.18,2.76,2.76,0,0,1-.32,2.27,3.19,3.19,0,0,1-3.55,1.39Zm-2.32-8.83a3,3,0,0,1-1.92-3.72v-.06c.1-.22.19-.41.28-.65a2.86,2.86,0,0,1,1.8-1.39,3,3,0,0,1,3.74,2v.06a3.08,3.08,0,0,1-.36,2.49,3,3,0,0,1-3.6,1.28Zm-2.27-8.77a3.1,3.1,0,0,1-2-2.13,3,3,0,0,1,2.13-3.67h0a3.11,3.11,0,0,1,3.69,2.24,3,3,0,0,1-2.15,3.65l0,0a3.35,3.35,0,0,1-1.72-.11Z"/><path class="cls-1" d="M82.15,370.72a2.91,2.91,0,0,1-1.86-1.81,3.1,3.1,0,0,1,0-2.32,3,3,0,0,1,5.56.14,3.1,3.1,0,0,1,0,2.32A3,3,0,0,1,82.15,370.72Zm-3.25-8.5a3,3,0,0,1-1.9-3.79h0a3,3,0,0,1,1.8-1.87,3.11,3.11,0,0,1,3.9,1.76,3,3,0,0,1-1.7,3.86h0A3,3,0,0,1,78.9,362.22Zm-3.2-8.44A3,3,0,0,1,73.78,350h0a2.8,2.8,0,0,1,1.82-1.85,3.09,3.09,0,0,1,3.89,4.08,3,3,0,0,1-1.71,1.57,3.77,3.77,0,0,1-2,0Zm-3.25-8.49a3.26,3.26,0,0,1-1.9-1.76,3.18,3.18,0,0,1,.09-2.37,3,3,0,0,1,3.92-1.55h.07a2.9,2.9,0,0,1,1.58,1.66,3,3,0,0,1-1.69,3.89h0a2.76,2.76,0,0,1-2,0ZM69.2,336.8a2.92,2.92,0,0,1-1.86-1.8,3,3,0,1,1,5.59.17,3.13,3.13,0,0,1-3.76,1.63ZM66,328.35a2.94,2.94,0,0,1-1.9-1.82,3,3,0,0,1,5.4-2.62,2.87,2.87,0,0,1,.17.44,3,3,0,0,1-1.67,3.9h0a2.87,2.87,0,0,1-2,0Zm-3.24-8.49a2.91,2.91,0,0,1-1.86-1.81,3,3,0,1,1,5.66-2.13,3.1,3.1,0,0,1,0,2.32,2.85,2.85,0,0,1-1.71,1.57A3.12,3.12,0,0,1,62.76,319.86Zm-3.25-8.5a2.86,2.86,0,0,1-1.88-1.83,3,3,0,1,1,5.53-2.46c.05.12.1.25.14.38a3.28,3.28,0,0,1,0,2.27,3,3,0,0,1-1.71,1.57,2.87,2.87,0,0,1-2,0Z"/><path class="cls-1" d="M54.12,424.13A3.12,3.12,0,0,1,52,421.3a3,3,0,0,1,2.88-3.06H55a3,3,0,0,1,.16,6H55a2.8,2.8,0,0,1-1-.1ZM54,415.05a3.11,3.11,0,0,1-2.09-2.82,3,3,0,0,1,2.93-3h0a3,3,0,1,1,.1,6h0a6.86,6.86,0,0,1-1-.22ZM53.81,406a3.1,3.1,0,0,1-2.08-2.78,2.92,2.92,0,0,1,2.75-3.1h.2a3,3,0,1,1,.12,6h0a2.86,2.86,0,0,1-1-.19Zm-.18-9.07a3,3,0,0,1-1.93-3.78h0v0h0a3,3,0,1,1,2.92,4.06h-.07a8.37,8.37,0,0,1-1-.18Zm-.19-9.07a3.1,3.1,0,0,1-2.08-2.78,3,3,0,0,1,.83-2.18,2.79,2.79,0,0,1,2.14-.93,3.1,3.1,0,0,1,3.11,3,3,3,0,0,1-2.84,3h-.14a4.87,4.87,0,0,1-1-.17Zm-.13-9.08a3.12,3.12,0,0,1-2.1-2.83,3,3,0,1,1,5.16,2,3.3,3.3,0,0,1-2.1.93,4.78,4.78,0,0,1-1-.1Zm-.19-9.07a3,3,0,1,1,1,.14h0A4.82,4.82,0,0,1,53.12,369.71ZM53,360.62a3.12,3.12,0,0,1-2.09-2.84,3,3,0,0,1,2.92-3h.06a3,3,0,1,1,.15,6,8.37,8.37,0,0,1-1-.18Zm-.23-9.09a3,3,0,0,1,.89-5.87,3.08,3.08,0,0,1,3.1,3,3,3,0,0,1-2.94,3h-.06a4.22,4.22,0,0,1-1-.13Zm-.19-9a3.13,3.13,0,0,1-2.08-2.84,3,3,0,0,1,2.88-3.06h.09a3,3,0,0,1,.32,6.05h-.18c-.34-.05-.67-.11-1-.19Z"/><path class="cls-1" d="M47.93,300l10.9.1,16.4-16.2,27,27.3.3-43.4-21.6-21.93s11-21.6,11.3-70.5S54.71,93.84,54.71,93.84s-38.3,32.3-38.6,81.2,10.4,70.6,10.4,70.6l-21.8,21.6-.3,43.4,27.3-27L47.91,300ZM32.43,175.1a21.7,21.7,0,1,1,21.63,21.77h0A21.76,21.76,0,0,1,32.43,175.1Z"/><path class="cls-1" d="M88.13,80.64a49.14,49.14,0,0,0,4.61-3.2A43.37,43.37,0,0,0,39,9.37a44.37,44.37,0,0,0-4.51,4.16A52.64,52.64,0,0,1,90.15,63v0h0A53.65,53.65,0,0,1,88.13,80.64Z"/><polygon class="cls-2" points="9.48 40.27 12.78 51.08 5.78 59.88 17.08 60.08 23.28 69.38 26.88 58.77 37.78 55.66 28.78 48.98 29.18 37.66 19.98 44.16 9.48 40.27"/><path class="cls-3" d="M23.43,70.53l-6.62-9.92-12-.22L12.27,51,8.71,39.46l11.2,4.16,9.8-6.93-.42,12.05,9.6,7.15-11.62,3.3ZM6.8,59.4l10.55.19,5.78,8.67,3.36-9.89,10.18-2.84-8.4-6.25.37-10.56-8.59,6.07-9.8-3.64,3.08,10.09Z"/><polygon class="cls-2" points="10.43 102.22 12.43 96.53 18.23 94.94 13.33 91.22 13.63 85.22 8.63 88.72 3.03 86.64 4.83 92.44 1.03 97.14 7.13 97.22 10.43 102.22"/><path class="cls-3" d="M10.57,103.35,6.86,97.73,0,97.62l4.28-5.29-2-6.52,6.31,2.37,5.62-3.94L13.88,91l5.49,4.15L12.85,97Zm-8.5-6.7,5.34.09,2.89,4.38,1.75-5,5.07-1.4-4.3-3.19.26-5.25-4.38,3L3.81,87.46l1.58,5.07Z"/><path class="cls-3" d="M83.43,188.74h-1c-2-7.2-1.4-19.7,1.6-30.8a107.32,107.32,0,0,1,10.9-25.6c-30.6-20.5-33.8-53.3-38-65a5.09,5.09,0,0,0,2-4.1,5.53,5.53,0,0,0-4.6-5.4V63h0v5.6l.2,66.6a9.49,9.49,0,0,1-.85,18.94,9.5,9.5,0,0,1-1-18.94l-.2-66.6V63h0V57.8A5.32,5.32,0,0,0,48,63.2a5.5,5.5,0,0,0,2,4.1c-4.1,11.7-7,44.5-37.6,65a113.24,113.24,0,0,1,11.1,25.9c3,10.9,3.6,23.5,1.8,30.6h-1a3.68,3.68,0,0,0-3.6,3.7v.1a3.51,3.51,0,0,0,3.4,3.6h.2l59.1-.2h0a3.65,3.65,0,0,0,0-7.3Z"/><path class="cls-2" d="M24.23,197.3H24.1a4.57,4.57,0,0,1-4.43-4.69h0v-.08a4.75,4.75,0,0,1,4.64-4.77h.18c1.55-7.22.75-19.31-2-29.25a112.71,112.71,0,0,0-11-25.64L11,132l.83-.56C36.73,114.76,43,89.85,46.82,75c.71-2.84,1.34-5.33,2-7.33A6.51,6.51,0,0,1,47,63.26a6.35,6.35,0,0,1,5.4-6.47l.9-.14v-.12h.33l.92.16A6.63,6.63,0,0,1,60,63.22a6.23,6.23,0,0,1-1.83,4.44c.67,2,1.32,4.49,2.07,7.33,3.88,14.88,10.39,39.78,35.29,56.46l.83.56-.51.87a106.14,106.14,0,0,0-10.79,25.34c-2.8,10.36-3.51,22.28-1.8,29.45h.18a4.72,4.72,0,0,1,0,9.43Zm.1-7.4a2.61,2.61,0,0,0-2.53,2.63v.11a2.41,2.41,0,0,0,2.32,2.51h.21l59.1-.2a2.59,2.59,0,0,0,0-5.17H81.62l-.21-.78c-2.09-7.48-1.41-20.1,1.59-31.35a108.5,108.5,0,0,1,10.5-25C68.63,115.53,62.1,90.53,58.17,75.53c-.81-3.12-1.52-5.82-2.24-7.83l-.26-.7.62-.48a4.11,4.11,0,0,0,1.58-3.24,4.46,4.46,0,0,0-2.47-4v9.34l.2,65.67a10.47,10.47,0,1,1-3.92,0l-.2-65.68V59.28a4.23,4.23,0,0,0-2.37,3.93,4.35,4.35,0,0,0,1.6,3.32l.58.47-.25.71c-.7,2-1.38,4.69-2.17,7.81-3.79,15-10.12,40-35,57.16A115.17,115.17,0,0,1,24.58,158c3,10.82,3.72,23.63,1.81,31.16l-.21.8ZM53.6,136.22l-.75.08a8.43,8.43,0,1,0,9.32,8.43,8.54,8.54,0,0,0-7.74-8.43Z"/></g></g></g></g></g><path class="cls-2" d="M67.82,463.27l-.5,2.32-2.3-.4a11.16,11.16,0,0,1-1.45,2.86,12.25,12.25,0,0,1-2.29,2.45l1.52,2.62-2,1.64-1.65-2.9A12.81,12.81,0,0,1,56,473.05a16,16,0,0,1-3.6.4l-.66,3.13-2.46-.46.76-2.95a9.63,9.63,0,0,1-2.53-.83,9.39,9.39,0,0,1-2.2-1.54l-2.48,2.13-1.56-1.66,2.69-2a13.55,13.55,0,0,1-1.14-1.94,21.48,21.48,0,0,1-.93-2.27l-2.68.56-.6-1.94,2.94-.56a9.68,9.68,0,0,1-.18-1c0-.35,0-.69,0-1l1.71-.39a8.87,8.87,0,0,0,3.34,5.57,9.55,9.55,0,0,0,6.16,2.2,6.69,6.69,0,0,0,5-2.07,7,7,0,0,0,2-5.08q0-4.45-2.61-6.73c-1.73-1.52-4.35-2.33-7.83-2.42l12.06-13.85-17.87,3.21-1.74-8.73L65.24,434l1.57,3.66L56.19,450a13.49,13.49,0,0,1,1.66.09,6.16,6.16,0,0,1,1.21.26l1.76-2.11,1.75,1.41-1.52,1.61a8.49,8.49,0,0,1,1.76,1.53,9.7,9.7,0,0,1,1.39,2.1l2.54-1.31.85,1.73L65,456.81a17.93,17.93,0,0,1,.63,3.28,11.41,11.41,0,0,1-.1,2.83Z"/><path class="cls-2" d="M66.76,522.65,41.1,521a41,41,0,0,1,1.47-5.7,34.09,34.09,0,0,1,2.18-5.07,37.38,37.38,0,0,1,2.75-4.29q1.68-2.3,3.93-4.84a27.15,27.15,0,0,0,4.26-6.2,13.27,13.27,0,0,0,1.41-5.69,4.43,4.43,0,0,0-.4-1.86,4.78,4.78,0,0,0-1.21-1.56,5.24,5.24,0,0,0-1.6-1,5.55,5.55,0,0,0-1.93-.34,8.52,8.52,0,0,0-2.44.33,6.57,6.57,0,0,0-2,1,4.68,4.68,0,0,0-1.48,1.73,5.15,5.15,0,0,0-.49,2.3,4.22,4.22,0,0,0,.17,1.24,4.47,4.47,0,0,0,.45,1.07,2.46,2.46,0,0,0,.85.92,2.27,2.27,0,0,0,1.09.28,2.65,2.65,0,0,0,1.89-.6,2.35,2.35,0,0,0,.63-1.79,3,3,0,0,0-.08-.64,5.83,5.83,0,0,0-.22-.72,3.75,3.75,0,0,1,2,1.21,3.24,3.24,0,0,1,.67,2.12,3.5,3.5,0,0,1-.44,1.75A3.83,3.83,0,0,1,51.3,496a6,6,0,0,1-1.63.7,7.79,7.79,0,0,1-1.9.23,5.61,5.61,0,0,1-4.25-1.69,6,6,0,0,1-1.64-4.34,7.63,7.63,0,0,1,.89-3.67,8,8,0,0,1,2.63-2.82,10.78,10.78,0,0,1,3.37-1.55,15.6,15.6,0,0,1,3.95-.49,15.85,15.85,0,0,1,4.82.68,10.23,10.23,0,0,1,3.64,2,9,9,0,0,1,2.48,3.52,12.73,12.73,0,0,1,.83,4.74,8.94,8.94,0,0,1-1,4,17.58,17.58,0,0,1-3,4.13q-2,1.79-4,3.54t-4,3.56a30.08,30.08,0,0,0-3.79,4.11,12.53,12.53,0,0,0-2,3.71l18.39-3.49ZM57.55,501a1.71,1.71,0,0,0-.42-1.26,1.68,1.68,0,0,0-1.26-.42,1.62,1.62,0,0,0-1.2.42,1.67,1.67,0,0,0,1.2,2.93A1.47,1.47,0,0,0,57.55,501Zm3.9-4.3a2.16,2.16,0,0,0-.61-1.53,2.08,2.08,0,0,0-3,0,2.07,2.07,0,0,0-.64,1.53,2,2,0,0,0,.64,1.52,2.08,2.08,0,0,0,3,0A2.14,2.14,0,0,0,61.45,496.66Zm1.08-5.27a1.7,1.7,0,0,0-.43-1.23,1.66,1.66,0,0,0-1.25-.43,1.61,1.61,0,0,0-1.22.43,1.74,1.74,0,0,0-.41,1.23,1.44,1.44,0,0,0,1.63,1.66,1.74,1.74,0,0,0,1.25-.4A1.65,1.65,0,0,0,62.53,491.39Z"/><path class="cls-2" d="M58.55,532.13l-1.77,39.92-5,.72-2.87-34-3.67,1-1.18-3.71ZM56,542.77l-2.3-.28a66.65,66.65,0,0,0-1.29,6.66,35.7,35.7,0,0,0-.38,5.61L52,556l1.24-.49a41.21,41.21,0,0,1,.87-6.53A41.89,41.89,0,0,1,56,542.77Z"/><path class="cls-2" d="M37.69,615.21,54,586.48l16.26,28.73L54,605.62Z"/><path class="cls-2" d="M68.77,647.55l-8.17,1,.16-10.28a8.41,8.41,0,0,0-.43-3.29,1.5,1.5,0,0,0-1.41-1.1,1.62,1.62,0,0,0-1.18.72,9.69,9.69,0,0,0-1.24,2.17,18.26,18.26,0,0,0-.75,2c-.2.67-.39,1.34-.55,2-.06-.57-.13-1.15-.21-1.72l-.21-1.73a12.11,12.11,0,0,0-.45-1.88,5.55,5.55,0,0,0-.65-1.36A3.22,3.22,0,0,0,52.46,633a3.6,3.6,0,0,0-1.69-.37,3.45,3.45,0,0,0-2.48,1.08,8.83,8.83,0,0,0-1.91,3.25l.21,10.84-7.23-.52,2.44-19.75,4.18.67.21,4.19A9,9,0,0,1,48.72,630a5.34,5.34,0,0,1,2.79-.79,5.5,5.5,0,0,1,2.47.55,4.85,4.85,0,0,1,1.85,1.68,8.75,8.75,0,0,1,2.27-1.87,4.66,4.66,0,0,1,2.28-.62,4.23,4.23,0,0,1,2.36.7,7,7,0,0,1,2,2.09,11.54,11.54,0,0,1,1.17,2.33,19.21,19.21,0,0,1,.83,2.8l-2.54.73.3,1.6,2.61-.55.2,1.75-2.55.43.36,1.76,2.69-.45.32,1.77-2.87.15.26,1.86,2.87-.31Zm-11.06-3a2.63,2.63,0,0,1-.75,1.9,2.53,2.53,0,0,1-1.88.77,2.58,2.58,0,0,1-1.87-.77,2.73,2.73,0,0,1,0-3.8,2.58,2.58,0,0,1,1.87-.77,2.53,2.53,0,0,1,1.88.77A2.62,2.62,0,0,1,57.71,644.54Z"/><path class="cls-2" d="M64.9,674.11,64,675c-.27.26-.5.48-.7.64l1.5,2.28-1.4.83-1.52-1.91a10.25,10.25,0,0,1-1.7.82,8.12,8.12,0,0,1-1.93.46l0,2.41-1.8-.12.16-2.23a10.63,10.63,0,0,1-2-.19,15.76,15.76,0,0,1-2.18-.58l-1.12,2.45-1.81-1,1.23-2.29a9.75,9.75,0,0,1-1.8-1.28,9,9,0,0,1-1.43-1.64l-2.14,1.39-.9-1.45,2.34-1.25a11.21,11.21,0,0,1-.72-2,12.22,12.22,0,0,1-.34-2.11l-2.14.55L43,667l2.76-.63a12.83,12.83,0,0,1,.34-2.06,7.68,7.68,0,0,1,.62-1.64l-1.94-1.18.92-1.55,1.9,1.35a8.17,8.17,0,0,1,2.35-2l-1.65-2.43,1.81-.89,1.32,2.59c.42-.14.81-.25,1.16-.33s.65-.14.92-.18l.54-2.68,1.42.45-.36,2.13a5.42,5.42,0,0,1,1.52.2,5.64,5.64,0,0,1,1.38.61l2-2,1.13,1-1.89,2.09a5.49,5.49,0,0,1,.83,1,8.83,8.83,0,0,1,.68,1.34l2.34-.8.4,1.51-2.26.8c.1.3.19.63.27,1s.14.74.21,1.15l-9.31,1.65v.23a12,12,0,0,0,.31,2.8,9.7,9.7,0,0,0,1,2.5,5.62,5.62,0,0,0,1.82,2.11,4.18,4.18,0,0,0,2.38.7,6.52,6.52,0,0,0,2.86-.73,14.23,14.23,0,0,0,3.18-2.25Zm-8.19-10a1.78,1.78,0,0,0-.65-1.34,2.57,2.57,0,0,0-1.63-.45,4.07,4.07,0,0,0-2.42.79,3.88,3.88,0,0,0-1.52,2Z"/><path class="cls-2" d="M64.79,702.84l-7.71,1.4q.16-6.24.22-8.52t.06-2.85a5.4,5.4,0,0,0-.6-2.85,2,2,0,0,0-1.82-.95,3.79,3.79,0,0,0-2.39,1,14.12,14.12,0,0,0-2.62,3.15l-.58,10.57-3.62.5-2.14-18.72,6.84-1.47-.3,5.88a11.55,11.55,0,0,1,3.15-3,6.44,6.44,0,0,1,3.48-1,4.89,4.89,0,0,1,3.93,1.83A12.46,12.46,0,0,1,63,693.31Zm-3.31-8a1.32,1.32,0,0,0-.32-1,1.27,1.27,0,0,0-1-.34,1.17,1.17,0,0,0-1.3,1.31,1.38,1.38,0,0,0,.33,1,1.29,1.29,0,0,0,1,.34,1.24,1.24,0,0,0,1-.34A1.38,1.38,0,0,0,61.48,694.84Zm.74,5a1.54,1.54,0,0,0-.5-1.17,1.62,1.62,0,0,0-1.16-.48,1.69,1.69,0,0,0-1.25.42,1.71,1.71,0,0,0-.41,1.23,1.75,1.75,0,0,0,.41,1.26,1.69,1.69,0,0,0,1.25.42,1.62,1.62,0,0,0,1.16-.48A1.57,1.57,0,0,0,62.22,699.82Z"/><path class="cls-2" d="M63.51,733l-6.64-.91.56-4.78a11.66,11.66,0,0,1-3.23,3.4,6.58,6.58,0,0,1-3.66,1.12A5,5,0,0,1,46.59,730a12,12,0,0,1-2.24-5.47l1.58-.41-.1-1.45-1.74.51-.34-1.88,1.76-.51-.1-1.34-1.94.45-.4-2,2-.44-.2-1.41-2.08.41-.28-1.58,7.63-1.35q-.1,5-.15,7.63c0,1.73-.05,2.64-.05,2.72a8.37,8.37,0,0,0,.6,3.62,1.92,1.92,0,0,0,1.8,1.2A4,4,0,0,0,55,727.36a16.2,16.2,0,0,0,2.85-3.78L59,714.05l3.66-.21Zm-7.26-17.47a40.88,40.88,0,0,0-1.89,4.78,34.37,34.37,0,0,0-1.17,4.86l-1.62-.7a47.82,47.82,0,0,1,1.82-5.31,34.78,34.78,0,0,1,2.26-4.53Z"/><path class="cls-2" d="M37.67,774.21l16.25-28.73,16.26,28.73-16.26-9.59Z"/></g></g></svg>