<?xml version="1.0" encoding="utf-8"?>
<!-- Generator: Adobe Illustrator 22.1.0, SVG Export Plug-In . SVG Version: 6.00 Build 0)  -->
<svg version="1.1" id="Calque_1" xmlns="http://www.w3.org/2000/svg" xmlns:xlink="http://www.w3.org/1999/xlink" x="0px" y="0px"
	 viewBox="0 0 133 194" style="enable-background:new 0 0 133 194;" xml:space="preserve">
<style type="text/css">
	.st0{fill:#BEB0D3;}
	.st1{fill:#5C473C;}
	.st2{fill:#664F4B;}
	.st3{fill:#C8999D;}
	.st4{fill:#C09195;}
	.st5{fill:#BC8A8B;}
	.st6{fill:#C59494;}
	.st7{fill:#BE928D;}
	.st8{fill:#BB9994;}
	.st9{fill:none;}
	.st10{fill:#D7A7AB;}
	.st11{fill:#BB8F8E;}
	.st12{fill:#BF9796;}
	.st13{fill:#C79999;}
	.st14{fill:#D7CEC4;}
	.st15{fill:#AB8784;}
	.st16{fill:#D3A09E;}
	.st17{fill:#C2938D;}
	.st18{fill:#9C7674;}
	.st19{fill:#826166;}
	.st20{fill:#8E6164;}
	.st21{fill:#987979;}
	.st22{fill:#714749;}
	.st23{fill:#B1A3C6;}
	.st24{fill:#927278;}
	.st25{fill:#867596;}
	.st26{fill:#9F8CAB;}
	.st27{fill:#B39DB9;}
	.st28{fill:#9F7A79;}
	.st29{fill:#896A62;}
	.st30{fill:#A07C73;}
	.st31{fill:#94726F;}
	.st32{fill:#AD827C;}
	.st33{fill:#B4B9DD;}
	.st34{fill:#B4B2D7;}
	.st35{fill:#C09FB0;}
	.st36{fill:#977672;}
	.st37{fill:#A78387;}
	.st38{fill:#BF989A;}
	.st39{fill:#BD8C8C;}
	.st40{fill:#CD9B9B;}
	.st41{fill:#D29C9D;}
	.st42{fill:#C39292;}
	.st43{fill:#E3B2B6;}
	.st44{fill:#CA989B;}
	.st45{fill:#986B72;}
	.st46{fill:#E2B4B5;}
	.st47{fill:#997975;}
	.st48{fill:#AA9AB6;}
	.st49{fill:#968DB5;}
	.st50{fill:#C6AFC8;}
	.st51{fill:#C7BFDE;}
	.st52{fill:#C2ACCC;}
	.st53{fill:#9B93B9;}
	.st54{fill:#ACA9D2;}
	.st55{fill:#C39094;}
	.st56{fill:#5D4541;}
	.st57{fill:#CD9A99;}
	.st58{fill:#9A7A71;}
	.st59{fill:#AB8881;}
	.st60{fill:#946468;}
	.st61{fill:#936365;}
	.st62{fill:#564945;}
	.st63{fill:#4B3D3A;}
	.st64{fill:#8C6160;}
	.st65{fill:#AE8A85;}
	.st66{fill:#867571;}
	.st67{fill:#866961;}
	.st68{fill:#92696B;}
	.st69{fill:#4B3A35;}
	.st70{fill:#7B625B;}
	.st71{fill:#AA8E86;}
	.st72{fill:#8C7064;}
	.st73{fill:#8D5D61;}
	.st74{fill:#8E6564;}
	.st75{fill:#AE808A;}
	.st76{fill:#B98D96;}
	.st77{fill:#97746C;}
	.st78{fill:#262424;}
	.st79{fill:#886A5E;}
	.st80{fill:#3F3433;}
	.st81{fill:#352D2C;}
	.st82{fill:#7D6F65;}
	.st83{fill:#7B6D5F;}
	.st84{fill:#81716A;}
	.st85{fill:#66564E;}
	.st86{fill:#524641;}
	.st87{fill:#5A4E43;}
	.st88{fill:#574137;}
	.st89{fill:#463936;}
	.st90{fill:#2A2727;}
	.st91{fill:#272625;}
	.st92{fill:#C9A99D;}
	.st93{fill:#BE9A96;}
	.st94{fill:#C89D98;}
	.st95{fill:#AF9286;}
	.st96{fill:#A48178;}
	.st97{fill:#2E292C;}
	.st98{fill:#806A67;}
	.st99{fill:#D69BA7;}
	.st100{fill:#9D6A70;}
	.st101{fill:#B79794;}
	.st102{fill:#8C625D;}
	.st103{fill:#6C575A;}
	.st104{fill:#594948;}
	.st105{fill:#584F58;}
	.st106{fill:#544446;}
	.st107{fill:#76676A;}
	.st108{fill:#6F5F5A;}
	.st109{fill:#69524C;}
	.st110{fill:#7D645D;}
	.st111{fill:#CF9897;}
	.st112{fill:#AC867D;}
	.st113{fill:#604D4E;}
	.st114{fill:#D6A7AD;}
	.st115{fill:#C7A4AF;}
	.st116{fill:#BB9690;}
	.st117{fill:#DDACAF;}
	.st118{fill:#D8ACA8;}
	.st119{fill:#8A6362;}
	.st120{fill:#D3A3A3;}
	.st121{fill:#B48B85;}
	.st122{fill:#B8908B;}
	.st123{fill:#B38A84;}
	.st124{fill:#B68D8A;}
	.st125{fill:#947673;}
	.st126{fill:#DEA7AB;}
	.st127{fill:#D6A4A7;}
	.st128{fill:#C69795;}
	.st129{fill:#755D5D;}
	.st130{fill:#AE7D81;}
	.st131{fill:#CF9B9C;}
	.st132{fill:#746873;}
	.st133{fill:#816A79;}
	.st134{fill:#9B8BA9;}
	.st135{fill:#665F85;}
	.st136{fill:#888BC1;}
	.st137{fill:#372A2C;}
	.st138{fill:#BD8F93;}
	.st139{fill:#FFFFFF;}
</style>
<g>
	<rect x="-0.6" y="-0.6" class="st0" width="133.4" height="180"/>
	<path class="st1" d="M31.9,88.7"/>
	<polyline class="st2" points="30.5,94.1 31,86.3 31.2,90.1 34.4,109.7 29,94.9 	"/>
	<polygon class="st3" points="44.6,110.1 47.9,107.9 56.9,99.9 59.5,102.8 70.3,106.8 67.1,111.5 51.2,112.4 50,112.6 45,113.3 	"/>
	<polygon class="st4" points="70.3,106.8 80.3,100.8 87.2,111 73.2,111 69.8,111.7 67.2,111.4 68.2,109.4 	"/>
	<polygon class="st5" points="80.8,98.1 96.7,111.1 100.4,105.4 101.9,100.7 101.9,91.2 101.1,91.2 95,95.9 87.4,97 80.8,96.7 	"/>
	<polyline class="st6" points="80.1,100.7 87.4,111.2 96.8,111 80.8,98.1 80.1,100.7 	"/>
	<polyline class="st7" points="96.8,110.8 85.5,110.8 76.8,117 84.7,129 96.8,110.8 	"/>
	<polyline class="st8" points="30.8,85.8 31.2,90.1 34.1,107.4 41.7,101.4 34.5,95.1 30.8,86.1 31.2,86.9 	"/>
	<polyline class="st9" points="44.2,101.7 51.8,100.7 43.9,110.4 45,113 57.3,100 56.9,99.2 45.3,101.7 	"/>
	<polyline class="st10" points="33.7,107.5 41,101.3 45.2,101.5 52.3,100.4 44.7,110.1 34.3,107.6 33.7,107.5 	"/>
	<polyline class="st11" points="35.9,113.9 34.1,107.4 44.6,110.1 35.9,113.9 	"/>
	<polygon class="st12" points="35.9,113.7 40.2,123.5 45.3,127.1 54.9,114.6 44.6,110.1 	"/>
	<polygon class="st13" points="54.7,114.8 64.2,118.4 45.3,127.1 	"/>
	<path class="st14" d="M86.1,80.4C86,79.7,90.3,80,90.3,80l2.2,4L89,84.4L86.1,80.4l2,1.1"/>
	<polygon class="st15" points="76.1,75.7 76.1,78.2 85.5,78.9 97.1,72.4 91.8,72.1 85.5,72.4 80.1,73.5 	"/>
	<polyline class="st16" points="75.1,88.9 77.9,93.8 82.3,96.7 83.4,89.4 75.1,88.9 75.1,88.9 	"/>
	<polyline class="st17" points="89.5,89.8 96.4,94.5 100.8,90.9 89.5,89.8 	"/>
	<polyline class="st18" points="56.6,135.8 62.7,139.4 75.4,138.4 84.1,129.3 81.9,136.9 70.7,145.2 60.5,145.2 56.6,142 
		56.6,135.8 	"/>
	<polygon class="st9" points="65.6,91.2 67.1,103.6 72.9,99.6 	"/>
	<path class="st19" d="M62.7,82.9c0.1,0-0.1,5.1,0,5.1h1.8l1.9-4h4.3l1.8,3.6l2.2-1.1L74,84.3l-0.2-2.9l1-2.5l1.6-0.7L76.2,76
		l-3.6,1.4l-3.3,1.8l-4.5,0.1l-4.3-1.4l-0.4,0.7l1.8,1.8l0.7,2.2"/>
	<polygon class="st20" points="62.7,88 62.3,89.4 60.5,94.9 61.6,95.9 64.5,88 	"/>
	<polyline class="st21" points="64.9,78.7 69.2,78.2 74.3,75.3 76.5,76.2 69.2,79.3 64.9,79.3 64.9,78.7 	"/>
	<polygon class="st22" points="76.5,91.2 75,91.6 72.5,87.6 74.7,86.5 	"/>
	<polygon class="st23" points="76.1,78.2 85.5,78.9 80.5,80.4 	"/>
	<polyline class="st24" points="80.1,82.9 74.7,86.5 74.9,87.4 75.7,89.1 80.4,84.8 80.3,83.1 	"/>
	<polygon class="st0" points="74.7,78.9 77.6,80.7 80.1,82.2 80.5,80.4 80.5,80.4 76.1,78.2 	"/>
	<polygon class="st25" points="77.6,84.8 80.2,83.3 80.2,82.2 77.6,80.7 	"/>
	<polygon class="st26" points="73.6,81.5 73.9,84.4 77.6,80.7 	"/>
	<polygon class="st23" points="77.6,80.7 73.6,81.5 74.7,78.9 	"/>
	<polygon class="st27" points="74.7,86.5 73.9,84.4 77.6,80.7 77.6,84.7 	"/>
	<polyline class="st28" points="82.3,84.4 84.1,89.4 75.8,89.1 82.3,82.9 	"/>
	<polyline class="st29" points="95.7,82.9 101.1,91.6 102.9,84.4 97.1,82.5 95.7,82.9 	"/>
	<polygon class="st30" points="89.7,84.7 88.8,87.2 94.6,88.3 98.2,86.8 95.7,82.9 90.3,84.5 	"/>
	<polygon class="st31" points="90,84.2 88.8,87.2 83.4,89.4 82.3,84.9 86.3,85.4 88.8,84.4 	"/>
	<polygon class="st32" points="88.8,87.3 94.2,87.6 89.5,89.8 83,89.4 	"/>
	<polyline class="st9" points="62.3,89.4 61.6,91.6 48.9,91.2 40.6,87.2 41.7,85.1 61.6,89.4 	"/>
	<polyline class="st9" points="48.3,91.1 41,99.8 36.6,95.6 48.3,91.1 	"/>
	<polygon class="st33" points="56.6,80.7 50.9,77.2 50.8,77.1 50.8,80.7 	"/>
	<polyline class="st9" points="62,80.7 62.7,82.9 62.7,86.2 58.7,86.2 61.6,80.7 	"/>
	<polygon class="st9" points="62.7,86.5 62.7,86.2 58.6,86.1 58,84.4 58,84.4 62,81.6 	"/>
	<polygon class="st34" points="58.4,82.5 61.2,80.4 56.6,80.7 56.6,85.8 	"/>
	<polyline class="st35" points="54.4,85.8 61.6,91.6 62.7,88.3 62.7,85.8 54.4,85.8 	"/>
	<polyline class="st9" points="41.5,84.8 37.1,94.6 34.9,87.3 39.7,85.1 41.5,84.8 	"/>
	<polygon class="st36" points="50.8,77.8 50.8,79.6 43.9,81.1 40.6,87.2 38.1,83.6 42.1,80 	"/>
	<polygon class="st37" points="47.1,85.4 44.2,85.8 42.1,87.3 58.7,89.1 54.4,85.8 52.7,86.3 48.6,86.5 	"/>
	<polygon class="st38" points="48.9,87.6 40.2,87.2 48.8,91.1 58.7,89.1 	"/>
	<polyline class="st39" points="71.8,86.2 70.3,96.7 72.9,99.6 76.5,94.1 71.8,85.8 71.8,86.2 72,85.9 	"/>
	<polygon class="st40" points="66.9,84 70.3,96.7 72,86.2 70.7,83.8 	"/>
	<polyline class="st41" points="61.6,95.9 64.2,88.3 66.3,84 67.1,84 70.3,96.7 61.6,95.9 	"/>
	<polyline class="st42" points="76.5,94.1 72.9,99.6 76.1,100.7 79,99.9 80.1,101 81.2,97.8 76.5,94.1 	"/>
	<polyline class="st43" points="67.1,96.3 70.3,96.7 70.3,101.7 66.3,101.7 67,96.5 	"/>
	<polyline class="st44" points="70.3,101.7 72.9,99.6 70.3,96.7 70.3,101.7 	"/>
	<path class="st45" d="M52.7,100l4.6-0.4l-9.1,8.3l-3.3,1.8L52.7,100"/>
	<polyline class="st46" points="36.3,95.6 41,99.9 48.6,91 36.3,95.6 	"/>
	<polyline class="st47" points="41.7,84.6 44.2,85.8 42.3,87.3 40.6,87.2 41.7,85.1 	"/>
	<polyline class="st48" points="59.1,78.9 60.2,80.7 56.6,80.7 59.1,78.9 	"/>
	<polyline class="st49" points="54.9,79.7 55,79.7 56.6,78.9 57.9,79.8 56.6,80.7 54.9,79.7 	"/>
	<polyline class="st50" points="50.8,77.1 54.7,77.5 52.5,78.2 50.8,77.1 	"/>
	<polygon class="st51" points="52.5,78.2 56.6,78.9 55,79.7 	"/>
	<polygon class="st52" points="56.6,78.9 54.9,77.5 54.7,77.5 52.6,78.2 	"/>
	<polyline class="st52" points="59.1,78.9 57.6,80 54.7,77.5 59.1,78.9 	"/>
	<polygon class="st53" points="57.3,86.2 58.7,86.2 61.3,80.4 58.4,82.5 56.6,85.8 	"/>
	<polygon class="st54" points="53.3,80.7 56.6,82.9 56.6,80.7 	"/>
	<polyline class="st37" points="51.1,80.7 53.3,83.3 50.4,82.5 50.8,80.7 	"/>
	<polygon class="st55" points="56.9,99.9 61.6,95.9 70.3,106.8 59.7,103.1 	"/>
	<path class="st56" d="M81.3,81.5l4.2-2.5c0,0,0.1,0,0.1-0.1l3.4-1.3l3.1-0.2l2.6-1.1l-1.8,2.9l2.8,3.6L92.1,84l-1.9-4l-4,0.4
		l-4.9,3.4L81.3,81.5z"/>
	<polygon class="st57" points="89.5,89.8 97.1,94.5 92.8,95.6 86.3,97 81.7,96.8 	"/>
	<polygon class="st58" points="94.2,77.1 96.4,72.8 85.5,78.9 	"/>
	<polyline class="st9" points="89.2,89.8 97.5,86.5 101.1,91.6 102.6,84.4 97.1,82.5 82.3,82.9 	"/>
	<polyline class="st9" points="75.9,75.8 73.6,80 73.8,84.9 75,88 76.3,91.1 77.8,93.6 82.1,96.5 87.5,96.5 96.6,94.3 100.6,90.7 
		102.8,82.4 102.4,76.9 99.1,72.6 93,71.8 84.3,73.3 75.9,75.8 	"/>
	<path class="st9" d="M34.3,79.5c-0.4,0,11.7-3.7,11.7-3.7l4.2,0.3l5.1,0.4l4.3,1.4l2.5,2.5l0.7,4.7l-3.1,10L56,98.5l-11,2.3
		l-4.3-1.1l-4.3-4l2.7-8.9l0.2-0.5l-7.2-2.5l0.4-2.2L34.3,79.5z"/>
	<path class="st9" d="M42.5,125.9l2.3,2.4l6.3,1.3l12.5,7.8l7.9-1.4h0.1l11.5-5.4l1.1-1.1l2.5-4l13.5-19.7l1.7-5.1l-0.7-9.5
		l-4.7,4.2l-3.3,1.4L86,97.5h-5l-0.7,3.3l-9.5,5.8h-1.6l-10.3-4l-1.8-3.3l-12,2.5l-3.6-0.4l-3.6-2.9l-3.3-3.3l-3.4-9.6l-1.1,8.3
		l2.2,8.3l4.2,13.2l3.3,7.2L42.5,125.9z"/>
	<path class="st59" d="M40.6,87.2c0,0-4.3,8.3-4.3,8.7c0,0.4-4.3-12.7-4.3-12.7L40.6,87.2z"/>
	<polygon class="st9" points="65.8,84.2 61.3,95.6 57.1,99.4 58.9,102.7 70.1,107 80.3,100.8 81,97.6 76.7,94.3 70.9,83.8 	"/>
	<polygon class="st60" points="58.2,101.4 61.6,101.4 67.2,105.2 66.3,105.4 59.8,103.2 	"/>
	<polygon class="st61" points="78.8,99.8 80.4,100.8 72.5,105.7 76.1,100.7 	"/>
	<polygon class="st62" points="75.2,75.1 84.3,71.5 97.8,70.6 105.8,70.9 106,74.4 104.2,75.8 103.5,73.3 99.5,72.6 92.8,72.4 
		84.3,73.3 76.5,76.2 74.5,75.5 	"/>
	<polygon class="st63" points="101.5,78.2 101.5,84 102.2,85.8 104.4,78.2 104.4,76.4 103.5,73.3 99.3,72.4 96.4,72.4 	"/>
	<polygon class="st64" points="76.5,91.2 77.9,93.4 82.1,96.5 87.5,96.5 86.1,97.6 80.8,97.8 76.5,94.1 75,91.6 	"/>
	<polygon class="st65" points="96.6,94.3 100.6,90.7 101.3,91.4 96.6,95.4 93.3,96.9 86.1,97.6 87.5,96.5 92.8,95.6 	"/>
	<polygon class="st66" points="28.3,78.2 31,77.8 33.2,77.5 35.2,79.6 34.1,81.1 33,84 30.1,84 28.8,82.5 27.6,80.7 	"/>
	<polygon class="st67" points="36.4,95.8 39,97.9 41.3,100.3 41.1,101.2 37.9,98.7 34.6,95.4 31.7,88.9 30.3,83.8 31.7,83.8 
		32.1,83.8 35.7,94 	"/>
	<path class="st68" d="M41.5,101.6l3.4,0.3c0.1,0,0.3,0,0.4,0l4.9-1l6-0.9h1.1l4.3-4l-1.1-1.1l-4,3.6l-6,1.3l-5.6,0.9l-1.8-0.4
		l-2.4-0.5l0.4,1.4L41.5,101.6z"/>
	<polygon class="st62" points="35.7,79.1 40.1,77.6 45.9,75.8 51.1,76.7 55.1,76.7 60.2,78.6 60.5,77.8 64.9,79.3 64.9,78.6 
		54.9,75.1 49.5,74.7 44,74.7 37.2,76.6 33.2,77.6 34.3,79.5 	"/>
	<polygon class="st69" points="30.6,94 30.3,93.6 29.2,92.5 29.7,83.3 30.3,83.8 31,86.3 	"/>
	<polygon class="st70" points="34.6,109.5 32.1,108.5 30.6,102.3 29.2,96.9 29.2,92.5 30.6,94 33.2,104.1 	"/>
	<polygon class="st71" points="36.8,72.9 47.7,68.9 60.2,71.3 60,69.7 53.8,67.1 46.2,67.5 	"/>
	<polygon class="st72" points="75,70.2 81,66.8 93.9,67.1 97.6,69.3 83.9,69.7 	"/>
	<polygon class="st73" points="50,112.6 55.3,112.1 55.6,113.5 55.2,113.5 	"/>
	<polygon class="st74" points="77.2,115.2 83.4,110.8 88.8,111.2 	"/>
	<polygon class="st75" points="55.3,112.1 67.2,111.4 69.8,111.7 73,111 83.4,110.8 80.3,113.2 74.9,114.6 70.5,114.3 66.3,114.1 
		55.6,113.5 	"/>
	<polygon class="st76" points="52.3,113.9 61.2,117.6 77,117.2 84.1,111.9 80.6,113 74.9,114.6 70.5,114.3 65.6,115.9 	"/>
	<polygon class="st77" points="90.8,106.8 87.2,110.4 88.3,106.8 	"/>
	<polygon class="st78" points="32.1,110.6 33.9,116.8 37.2,124 42.4,129.3 43.3,132.7 44,140 51.7,166.8 46.2,159.2 37.9,146.5 
		34.3,138.2 27.4,129.1 26.6,97.9 29.6,109.4 	"/>
	<polygon class="st79" points="55.6,43.9 41.9,54.1 37.9,64.2 36.4,70.8 35.3,68.6 30.6,78 36.8,57.7 31.9,59.7 39,53.7 	"/>
	<polygon class="st80" points="30.3,129.5 31,151.6 35.5,158.3 39.3,162.5 43.3,162.5 48.9,157.9 46.6,162.1 40.8,166.1 37.2,166.1 
		28.6,161.2 29.9,128 	"/>
	<polygon class="st81" points="28.6,162.3 36.8,169 41.9,170.4 46.6,166.4 41.9,167.5 38.4,165.9 28.6,160.8 	"/>
	<polygon class="st82" points="30,50.7 23.9,63.3 19,79.8 20.5,69.7 21.6,62.4 	"/>
	<polygon class="st83" points="29.3,48.3 22.2,61.5 30.1,51 	"/>
	<polygon class="st14" points="30.1,47.7 21.9,57.7 18.3,72.6 21.2,57.3 25.9,49.4 	"/>
	<polygon class="st14" points="32.1,45.8 26.1,49.2 28.8,48.7 	"/>
	<polygon class="st84" points="21.6,72.9 21.6,74 21.2,90.3 20.9,97.6 18,107.4 14,121.1 13.2,125.8 15.8,133.8 17.4,146 
		16.9,130.6 14.7,124 17.8,112.6 21.8,99.6 23.7,63.9 21.3,71.7 	"/>
	<polygon class="st85" points="33.2,44.7 40.4,34.5 49.5,29.4 52.7,23.6 60.4,19.7 56,24.7 55.3,26.9 55.6,43.9 39,53.7 33.2,59.5 
		23.7,63.5 28.5,53 30,50.7 29.2,48.3 	"/>
	<polygon class="st86" points="17.8,149.6 17,140 16.7,130.7 14.5,124.2 17,113.9 21.1,98.4 23.6,63.3 37,57.5 30.8,78 28.3,78.4 
		27.9,80.9 29,82.7 29.9,83.6 29.4,92.9 29.4,97.2 30.1,128.4 29.3,152.4 28.6,162.6 	"/>
	<polygon class="st87" points="56,44.7 72.9,71.3 66.2,47.2 83,66.8 80.3,61 84.6,64.2 78.5,51.2 93,67.1 95,69.4 96.4,70.7 
		106.1,71.1 105.1,57.3 96.6,42.9 77.8,24.4 69.4,20 61.4,18.9 60.4,19.7 56,24 55.3,26.9 55.6,43.9 	"/>
	<polyline class="st1" points="104,83.8 104.4,76.6 104,75.7 105.8,74.4 104.9,57.1 106.2,58.4 110.6,74.4 111.6,86.3 111.3,95.4 
		110.6,101 104.8,122.8 92.4,135.1 95,124.8 94.6,120.1 99,110.6 101.1,101.9 101.1,91.4 102.9,87.6 103.7,86 	"/>
	<polygon class="st88" points="110.4,103.7 114,115 116.2,127.3 114,137.4 111.8,146.9 100,153.2 108.6,145.1 111.8,133.5 
		104.6,122.6 104.6,122.6 110.6,100.7 	"/>
	<polygon class="st89" points="95.5,133.1 92.6,146.1 91.5,150.9 97.3,151.6 98,155.6 100.2,154.1 100.6,152.7 108.6,145.1 
		111.8,133.5 104.6,122.6 101.9,125.4 95.9,131.6 	"/>
	<polygon class="st90" points="84.1,129.3 90.8,125.5 93,126.9 94.8,126.3 92.6,134.9 95.9,131.5 91.5,150.9 73.8,153.4 81.9,136.9 
			"/>
	<polygon class="st91" points="61.4,194.6 73.8,153.4 91.5,150.9 97.3,151.6 98,155.6 100.2,154.1 100.6,152.7 111.8,146.9 
		114.1,136.8 122,140 133.9,147.6 133.9,194.6 	"/>
	<polygon class="st78" points="15.1,134.2 -0.4,141.8 -0.4,194.6 58.2,194.6 54.1,165.3 48.8,158.1 46.6,162.1 40.8,166.1 
		37.9,166.1 41.9,167.5 46.6,166.4 41.9,170.4 36.8,169 28.1,161.7 18,149.8 16.5,138.9 15.8,134.2 15.4,132.7 	"/>
	<polygon class="st92" points="54.6,44.7 43.5,52.8 41.7,53.9 37.9,64.2 36.4,70.8 36.8,72.9 46.2,67.5 53.8,67.1 56.2,45 
		55.6,43.9 	"/>
	<polygon class="st93" points="60.2,71.3 59.3,76.6 54.9,75.1 44,74.7 33.2,77.6 30.6,78 35.3,68.6 36.4,70.8 36.8,72.9 47.7,68.9 	
		"/>
	<polygon class="st94" points="55.8,44.5 72.3,70.4 66,47 82.8,66.8 81,66.8 75.2,70 95,69.4 98.6,70.9 84,71.6 74.5,75.5 
		69.4,78.4 65.1,78.7 59.3,76.6 60,69.7 53.8,67.1 	"/>
	<polyline class="st95" points="78.3,50.6 92.6,66.7 93,67.1 82.8,66.8 80.1,60.8 84.6,64.2 78.8,52 78.8,52 78.8,52 	"/>
	<g>
		<polygon class="st96" points="98.8,111.4 94.8,120.1 90.8,125.5 84.1,129.3 85.7,126.9 96.6,111 100.4,105.4 99.1,110.6 		"/>
	</g>
	<polygon class="st97" points="34.3,133.5 36.8,137.1 40.4,145.4 48.8,158.1 45.7,160.8 43.3,162.5 39.3,162.5 35.7,158.8 31,151.6 
		30.1,128.2 	"/>
	<polyline class="st89" points="90.6,125.8 95,119.9 95.5,124.3 95,126.4 92.8,127.1 90.6,125.8 	"/>
	<polygon class="st98" points="80.4,84.6 85.9,85.8 92.2,83.9 86.4,84.9 82,84.5 	"/>
	<polygon class="st99" points="68.9,120.6 77.2,117 69.2,117.3 60.5,117.3 	"/>
	<path class="st76" d="M61.3,124.9"/>
	<polygon class="st100" points="63.7,113.9 70.7,114.2 66,115.9 52.6,114.1 50,112.6 	"/>
	<polygon class="st101" points="45,128.2 56.6,135.8 57.3,142.6 55.1,162.6 47.1,140.6 45.7,131.8 	"/>
	<polygon class="st102" points="61.4,194.6 55.3,162.5 46.8,139.8 58.2,194.6 	"/>
	<polygon class="st103" points="84.5,81.1 83.7,81.8 83,84.6 86.4,85 87.3,83.4 86.3,80.4 	"/>
	<polygon class="st104" points="89.1,80.4 89.7,82.7 90,84.3 86.6,85 86.3,85 86.4,81.1 86.3,80.4 	"/>
	<polygon class="st103" points="53.3,82.3 54.4,86 52.7,86.2 50.8,86.5 49.7,83.7 50,81.5 	"/>
	<polygon class="st105" points="47.5,82 46.8,85.4 48.6,86.5 50.8,86.5 51.5,83.7 50,81.5 	"/>
	<polygon class="st106" points="85.6,81.1 85,82.6 88.4,82.5 87.7,81 	"/>
	<polygon class="st106" points="85.8,84 85,82.6 88.4,82.5 87.5,84 	"/>
	<polyline class="st26" points="81,80.1 85.6,78.9 83.4,80.3 82.1,81 80.1,82.2 81,80.1 	"/>
	<polygon class="st107" points="80.4,84.7 81.4,83.7 81.3,81.5 80.1,82.2 	"/>
	<path class="st9" d="M80.5,80.4"/>
	<polygon class="st9" points="99.3,73.1 102.9,77.5 102.2,85.4 95.3,80 95.7,74.6 	"/>
	<polyline class="st108" points="104.4,78.2 102.9,77.5 102.6,84.4 101.1,91.6 104.4,85.1 104.4,77.8 	"/>
	<polygon class="st109" points="95.7,82.9 97.2,82.5 100.7,77.3 96.4,72.4 92.9,79.3 	"/>
	<polygon class="st110" points="101.5,84 97.1,82.5 100.8,77.1 101.5,78.2 	"/>
	<polygon class="st111" points="83.4,89.4 89.5,89.8 82.3,96.3 	"/>
	<polygon class="st112" points="89.2,89.8 100.8,90.9 97.9,86.2 	"/>
	<polygon class="st113" points="51.3,81.4 50.8,79.3 43.9,80.7 39.3,81.6 41.5,82.7 40.2,84 44.2,85.8 44.2,82.5 47.5,81.6 	"/>
	<polygon class="st114" points="48.6,91 41,99.9 45.3,101 56.6,98.5 	"/>
	<polygon class="st115" points="42.1,80 50.8,76.4 50.8,77.8 	"/>
	<polygon class="st93" points="42.1,80 38.4,84.4 34.8,79.3 46,75.7 50.8,76.4 	"/>
	<polygon class="st116" points="40.6,87.2 35.2,79.3 33.7,81.1 33,84 	"/>
	<polygon class="st117" points="61.6,91.6 48.3,91.1 56.6,98.5 60.5,94.9 	"/>
	<polygon class="st118" points="48.6,91 36.3,95.6 40.6,87.2 	"/>
	<polygon class="st119" points="40.2,123.5 45,128.2 62.3,139.4 75.8,138.4 84.1,129.3 75.8,136.9 62.7,137.6 45.7,126.8 	"/>
	<polygon class="st120" points="63.8,118.4 69.2,120.6 62.3,137.6 45.7,126.8 	"/>
	<polygon class="st121" points="55.9,158.1 66.3,169.9 61.4,194.6 55.1,161.9 55.9,157.7 	"/>
	<polygon class="st122" points="57.3,142.6 60.5,145.2 55.1,161.2 	"/>
	<polygon class="st123" points="60.5,145.2 66.3,169.9 55.9,158.1 	"/>
	<polygon class="st124" points="60.5,145.2 70.7,145.2 66.3,169.9 	"/>
	<polygon class="st125" points="82.1,136.8 61.4,194.6 70.7,145.2 	"/>
	<polygon class="st126" points="69.2,120.6 75.8,136.9 62.3,137.6 	"/>
	<polygon class="st127" points="69.6,120.3 77.2,117 75.8,136.9 69.2,120.6 	"/>
	<polygon class="st128" points="76.2,136.5 84.8,128.6 77.2,117 75.8,136.9 	"/>
	<path class="st9" d="M64.9,79.3"/>
	<polygon class="st129" points="85.7,78.9 90.4,78 93.7,77.2 91.8,78.2 	"/>
	<polygon class="st130" points="73,99.4 70.3,101.7 66.3,101.7 70.3,106.8 72.5,105.7 76.1,100.7 	"/>
	<polygon class="st131" points="61.6,95.9 66.3,101.7 67.1,96.3 	"/>
	<polygon class="st106" points="49.4,82.6 48.7,83.9 52,83.6 51,82.5 	"/>
	<polygon class="st106" points="49.5,85.6 48.7,83.9 52,83.6 51.3,85.4 	"/>
	<path class="st132" d="M50.4,83.5l-1,0.7l0.8,0.4h0.4l0.8-0.4"/>
	<polygon class="st14" points="46.7,82.7 47.5,82 46.8,85.4 44.2,85.8 	"/>
	<polygon class="st133" points="50.8,76.4 55.1,76.7 60.2,78.6 62,80.4 62.7,82.5 62.7,84 61.9,82.1 61.3,80.4 60.2,80.7 59.1,78.9 
		54.7,77.5 50.8,77.1 	"/>
	<polygon class="st134" points="61.3,80.4 62.7,84 62.7,86.3 58.7,86.2 	"/>
	<polygon class="st14" points="53.3,83.3 55.5,84 56.2,85.8 54.4,85.8 	"/>
	<polyline class="st135" points="51.1,80.7 54,83.3 53.3,83.3 56.6,82.9 56.6,85.8 56.2,85.8 55.4,84.1 53.3,83.3 	"/>
	<path class="st136" d="M51.1,80.7c0,0,1.8,0,2.2,0c0.2,0,3.3,2.2,3.3,2.2L54,83.3L51.1,80.7z"/>
	<polygon class="st137" points="29.4,100.7 29.4,109.4 31.9,110.4 33.7,116.6 37,123.9 42.4,129.3 43.9,140.2 49.2,158.7 
		53.3,164.1 47.5,141.5 45.3,128.6 40.6,123.5 35.9,113.9 34.8,109.7 29.4,96.7 	"/>
	<polygon class="st138" points="48.6,91.1 58.6,89.1 61.6,91.6 	"/>
	<polygon class="st98" points="56.6,85.8 48.6,87.2 44.2,85.8 48.6,86.5 54.7,85.8 	"/>
</g>
<polyline class="st139" points="50.8,84.2 50.3,84.7 49.9,83.6 "/>
<path class="st132" d="M86.7,81.9l1,0.7L86.9,83h-0.4l-0.8-0.4"/>
<polyline class="st139" points="86.3,82.4 86.7,83 87.1,81.9 "/>
<polygon class="st14" points="83.7,81.8 83.7,81.8 83,84.6 82.2,84.5 80.4,84.6 "/>
<polygon class="st37" points="44.2,82.5 47.5,81.6 51.3,81.4 47.3,82.2 44.2,85.8 "/>
<polygon class="st129" points="86.1,80.4 89.9,79.6 93.2,78.9 90.3,80 "/>
</svg>
