<svg xmlns="http://www.w3.org/2000/svg" viewBox="0 0 133.56 194.19"><defs><style>.cls-1{fill:#beb0d3;}.cls-2{fill:#664f4b;}.cls-3{fill:#c8999d;}.cls-4{fill:#c09195;}.cls-5{fill:#bc8a8b;}.cls-6{fill:#c59494;}.cls-7{fill:#be928d;}.cls-8{fill:#bb9994;}.cls-9{fill:none;}.cls-10{fill:#d7a7ab;}.cls-11{fill:#bb8f8e;}.cls-12{fill:#bf9796;}.cls-13{fill:#c79999;}.cls-14{fill:#6c5554;}.cls-15{fill:#ab8784;}.cls-16{fill:#d3a09e;}.cls-17{fill:#c2938d;}.cls-18{fill:#9c7674;}.cls-19{fill:#826166;}.cls-20{fill:#8e6164;}.cls-21{fill:#987979;}.cls-22{fill:#714749;}.cls-23{fill:#b1a3c6;}.cls-24{fill:#927278;}.cls-25{fill:#867596;}.cls-26{fill:#9f8cab;}.cls-27{fill:#b39db9;}.cls-28{fill:#9f7a79;}.cls-29{fill:#896a62;}.cls-30{fill:#a07c73;}.cls-31{fill:#94726f;}.cls-32{fill:#ad827c;}.cls-33{fill:#b4b9dd;}.cls-34{fill:#b4b2d7;}.cls-35{fill:#c09fb0;}.cls-36{fill:#977672;}.cls-37{fill:#a78387;}.cls-38{fill:#bf989a;}.cls-39{fill:#bd8c8c;}.cls-40{fill:#cd9b9b;}.cls-41{fill:#d29c9d;}.cls-42{fill:#c39292;}.cls-43{fill:#e3b2b6;}.cls-44{fill:#ca989b;}.cls-45{fill:#986b72;}.cls-46{fill:#e2b4b5;}.cls-47{fill:#997975;}.cls-48{fill:#aa9ab6;}.cls-49{fill:#968db5;}.cls-50{fill:#c6afc8;}.cls-51{fill:#c7bfde;}.cls-52{fill:#c2accc;}.cls-53{fill:#9b93b9;}.cls-54{fill:#aca9d2;}.cls-55{fill:#7678b0;}.cls-56{fill:#c39094;}.cls-57{fill:#5d4541;}.cls-58{fill:#cd9a99;}.cls-59{fill:#9a7a71;}.cls-60{fill:#ab8881;}.cls-61{fill:#946468;}.cls-62{fill:#936365;}.cls-63{fill:#564945;}.cls-64{fill:#4b3d3a;}.cls-65{fill:#8c6160;}.cls-66{fill:#ae8a85;}.cls-67{fill:#867571;}.cls-68{fill:#866961;}.cls-69{fill:#92696b;}.cls-70{fill:#4b3a35;}.cls-71{fill:#7b625b;}.cls-72{fill:#aa8e86;}.cls-73{fill:#8c7064;}.cls-74{fill:#8d5d61;}.cls-75{fill:#8e6564;}.cls-76{fill:#ae808a;}.cls-77{fill:#b98d96;}.cls-78{fill:#97746c;}.cls-79{fill:#262424;}.cls-80{fill:#886a5e;}.cls-81{fill:#3f3433;}.cls-82{fill:#352d2c;}.cls-83{fill:#7d6f65;}.cls-84{fill:#7b6d5f;}.cls-85{fill:#d7cec4;}.cls-86{fill:#81716a;}.cls-87{fill:#66564e;}.cls-88{fill:#524641;}.cls-89{fill:#5a4e43;}.cls-90{fill:#5c473c;}.cls-91{fill:#574137;}.cls-92{fill:#463936;}.cls-93{fill:#2a2727;}.cls-94{fill:#272625;}.cls-95{fill:#c9a99d;}.cls-96{fill:#947a78;}.cls-97{fill:#c89d98;}.cls-98{fill:#af9286;}.cls-99{fill:#a48178;}.cls-100{fill:#2e292c;}.cls-101{fill:#806a67;}.cls-102{fill:#d69ba7;}.cls-103{fill:#9d6a70;}.cls-104{fill:#b79794;}.cls-105{fill:#8c625d;}.cls-106{fill:#6c575a;}.cls-107{fill:#594948;}.cls-108{fill:#584f58;}.cls-109{fill:#544446;}.cls-110{fill:#685858;}.cls-111{fill:#726062;}.cls-112{fill:#76676a;}.cls-113{fill:#6f5f5a;}.cls-114{fill:#69524c;}.cls-115{fill:#7d645d;}.cls-116{fill:#cf9897;}.cls-117{fill:#ac867d;}.cls-118{fill:#604d4e;}.cls-119{fill:#d6a7ad;}.cls-120{fill:#c7a4af;}.cls-121{fill:#be9a96;}.cls-122{fill:#bb9690;}.cls-123{fill:#ddacaf;}.cls-124{fill:#d8aca8;}.cls-125{fill:#8a6362;}.cls-126{fill:#d3a3a3;}.cls-127{fill:#b48b85;}.cls-128{fill:#b8908b;}.cls-129{fill:#b38a84;}.cls-130{fill:#b68d8a;}.cls-131{fill:#947673;}.cls-132{fill:#dea7ab;}.cls-133{fill:#d6a4a7;}.cls-134{fill:#c69795;}.cls-135{fill:#775f5d;}.cls-136{fill:#755d5d;}.cls-137{fill:#ae7d81;}.cls-138{fill:#cf9b9c;}.cls-139{fill:#746873;}.cls-140{fill:#78696e;}.cls-141{fill:#816a79;}.cls-142{fill:#9b8ba9;}.cls-143{fill:#7e6f7c;}.cls-144{fill:#665f85;}.cls-145{fill:#888bc1;}.cls-146{fill:#372a2c;}.cls-147{fill:#bd8f93;}.cls-148{fill:#fff;}</style></defs><title>Fichier 1</title><g id="Calque_2" data-name="Calque 2"><g id="Calque_1-2" data-name="Calque 1"><rect class="cls-1" width="133.38" height="180.01"/><polyline class="cls-2" points="30.08 93.75 30.63 85.96 30.81 89.76 34.07 109.33 28.63 94.47"/><polygon class="cls-3" points="44.22 109.7 47.48 107.52 56.54 99.55 59.08 102.45 69.95 106.44 66.69 111.15 50.83 112.05 49.65 112.23 44.58 112.96 44.22 109.7"/><polygon class="cls-4" points="69.95 106.44 79.92 100.45 86.8 110.6 72.87 110.6 69.41 111.33 66.87 110.97 67.84 109.06 69.95 106.44"/><polygon class="cls-5" points="80.46 97.74 96.32 110.74 100.03 104.98 101.48 100.27 101.48 90.85 100.76 90.85 94.6 95.56 86.98 96.65 80.46 96.29 80.46 97.74"/><polyline class="cls-6" points="79.74 100.27 86.98 110.78 96.41 110.6 80.46 97.74 79.74 100.27"/><polyline class="cls-7" points="96.41 110.42 85.17 110.42 76.47 116.58 84.32 128.57 96.41 110.42"/><polyline class="cls-8" points="30.45 85.41 30.81 89.76 33.69 107.04 41.32 101 34.1 94.73 30.47 85.67 30.81 86.5"/><polyline class="cls-9" points="43.85 101.36 51.47 100.27 43.49 110.06 44.58 112.6 56.9 99.57 56.54 98.82 44.94 101.36"/><polyline class="cls-10" points="33.34 107.16 40.65 100.88 44.83 101.09 51.96 99.97 44.35 109.76 33.94 107.26 33.34 107.16"/><polyline class="cls-11" points="35.52 113.48 33.69 107.04 44.22 109.7 35.52 113.48"/><polygon class="cls-12" points="35.52 113.32 39.87 123.11 44.94 126.73 54.53 114.2 44.22 109.7 35.52 113.32 35.52 113.32"/><polygon class="cls-13" points="54.37 114.41 63.79 118.03 44.94 126.73 54.37 114.41"/><path class="cls-14" d="M87.71,80.7a14.29,14.29,0,0,1,2.17,0l2.18,2.9L88.62,84l-.91-3h0"/><polygon class="cls-15" points="75.75 75.27 75.75 77.8 85.17 78.53 96.77 72 91.38 71.73 85.17 72 79.74 73.09 75.75 75.27"/><polyline class="cls-16" points="74.69 88.53 77.56 93.39 81.91 96.29 83 88.99 74.69 88.53 74.69 88.53"/><polyline class="cls-17" points="89.16 89.4 96.05 94.11 100.4 90.49 89.16 89.4"/><polyline class="cls-18" points="56.18 135.43 62.34 139.06 75.03 137.97 83.72 128.91 81.55 136.52 70.31 144.85 60.16 144.85 56.18 141.59 56.18 135.43"/><polygon class="cls-9" points="65.24 90.85 66.69 103.17 72.49 99.19 65.24 90.85"/><path class="cls-19" d="M62.34,82.51c.06,0-.09,5.08,0,5.08h1.77l1.85-4h4.35l1.82,3.63,2.17-1.09L73.58,84l-.25-2.9,1-2.53,1.63-.73-.12-2.17L72.23,77,69,78.83l-4.46.06-4.35-1.45-.36.72L61.61,80l.73,2.17"/><polygon class="cls-20" points="62.34 87.59 61.98 89.04 60.16 94.47 61.25 95.56 64.11 87.59 62.34 87.59"/><polyline class="cls-21" points="64.51 78.28 68.86 77.8 73.94 74.9 76.47 75.63 68.86 78.89 64.51 78.89 64.51 78.28"/><polygon class="cls-22" points="76.11 90.85 74.66 91.21 72.13 87.23 74.3 86.14 76.11 90.85"/><polygon class="cls-23" points="75.75 77.8 85.17 78.53 80.1 79.98 75.75 77.8"/><polyline class="cls-24" points="79.74 82.51 74.3 86.14 74.55 87.01 75.31 88.75 80.02 84.4 79.84 82.94"/><polygon class="cls-1" points="74.3 78.53 77.2 80.34 79.74 81.79 80.1 79.98 80.1 79.98 75.75 77.8 74.3 78.53"/><polygon class="cls-25" points="77.2 84.4 79.84 82.94 79.8 81.8 77.2 80.34 77.2 84.4"/><polygon class="cls-26" points="73.21 81.06 73.58 83.96 77.2 80.34 73.21 81.06"/><polygon class="cls-23" points="77.2 80.34 73.21 81.06 74.3 78.53 77.2 80.34"/><polygon class="cls-27" points="74.3 86.14 73.58 83.96 77.2 80.34 77.2 84.33 74.3 86.14"/><polyline class="cls-28" points="82.27 82.51 83.72 89.04 75.39 88.68 81.91 82.51"/><polyline class="cls-29" points="94.96 82.15 100.76 91.21 102.57 83.96 96.77 82.15 94.96 82.15"/><polygon class="cls-30" points="89 83.96 88.07 86.86 93.87 87.59 97.5 85.78 94.96 82.15 89.16 83.96 89 83.96"/><polygon class="cls-31" points="89.16 83.96 88.44 86.86 83.36 89.04 82.27 84.69 85.9 85.05 88.44 83.96 89.16 83.96"/><polygon class="cls-32" points="88.38 86.88 93.87 87.23 89.16 89.4 83 89.04 88.38 86.88"/><polyline class="cls-9" points="61.98 89.04 61.25 91.21 48.57 90.85 40.23 86.86 41.32 84.69 61.25 89.04"/><polyline class="cls-9" points="47.92 90.69 40.58 99.39 36.24 95.2 47.92 90.69"/><polygon class="cls-33" points="56.18 80.34 50.51 76.8 50.38 76.72 50.38 80.34 56.18 80.34"/><polyline class="cls-9" points="61.62 80.34 62.34 82.51 62.34 85.78 58.35 85.78 61.25 80.34"/><polygon class="cls-9" points="62.34 86.14 62.34 85.78 58.25 85.72 57.61 83.99 57.61 83.99 61.58 81.17 62.34 86.14"/><polygon class="cls-34" points="57.99 82.15 60.88 79.98 56.18 80.34 56.18 85.41 57.99 82.15"/><polyline class="cls-35" points="54 85.41 61.25 91.21 62.34 87.95 62.34 85.41 54 85.41"/><polyline class="cls-9" points="41.08 84.41 36.73 94.25 34.5 86.89 39.29 84.69 41.08 84.41"/><polygon class="cls-36" points="50.38 77.44 50.38 79.25 43.49 80.7 40.23 86.86 37.69 83.24 41.68 79.61 50.38 77.44"/><polygon class="cls-37" points="46.76 85.05 43.85 85.41 41.68 86.86 58.35 88.68 54 85.41 52.55 86.14 48.2 86.14 46.76 85.05"/><polygon class="cls-38" points="48.57 87.23 39.87 86.86 48.45 90.69 58.35 88.68 48.57 87.23"/><polyline class="cls-39" points="71.4 85.78 69.95 96.27 72.49 99.19 76.11 93.75 71.4 85.41 71.4 85.78 71.67 85.55"/><polygon class="cls-40" points="66.51 83.6 69.95 96.29 71.62 85.78 70.37 83.43 66.51 83.6"/><polyline class="cls-41" points="61.25 95.56 63.79 87.95 65.96 83.6 66.69 83.6 69.95 96.29 61.25 95.56"/><polyline class="cls-42" points="76.11 93.75 72.49 99.19 75.75 100.27 78.65 99.55 79.74 100.64 80.82 97.37 76.11 93.75"/><polyline class="cls-43" points="66.69 95.92 69.95 96.29 69.95 101.36 65.96 101.36 66.67 96.11"/><polyline class="cls-44" points="69.95 101.36 72.49 99.19 69.95 96.29 69.95 101.36"/><path class="cls-45" d="M52.33,99.61l4.57-.42s-9.12,8.26-9.06,8.33-3.26,1.81-3.26,1.81l7.75-9.72"/><polyline class="cls-46" points="35.88 95.2 40.59 99.55 47.92 90.69 35.88 95.2"/><polyline class="cls-47" points="41.32 84.33 43.85 85.41 41.9 86.95 40.23 86.86 41.32 84.69"/><polyline class="cls-48" points="58.72 78.53 59.8 80.34 56.18 80.34 58.72 78.53"/><polyline class="cls-49" points="54.55 79.32 54.59 79.3 56.18 78.53 57.5 79.4 56.18 80.34 54.51 79.3"/><polyline class="cls-50" points="50.38 76.72 54.37 77.08 52.1 77.79 50.38 76.72"/><polygon class="cls-51" points="52.16 77.83 56.18 78.53 54.58 79.34 52.16 77.83"/><polygon class="cls-52" points="56.18 78.53 54.48 77.15 54.37 77.08 52.19 77.8 56.18 78.53"/><polyline class="cls-52" points="58.72 78.53 57.27 79.61 54.37 77.08 58.72 78.53"/><polygon class="cls-53" points="56.9 85.78 58.35 85.78 60.89 79.98 57.99 82.15 56.18 85.41 56.9 85.78"/><polygon class="cls-54" points="52.92 80.34 56.18 82.51 56.18 80.34 52.92 80.34"/><polyline class="cls-55" points="50.74 80.34 52.92 82.88 50.02 82.15 50.38 80.34"/><polygon class="cls-56" points="56.54 99.55 61.25 95.56 69.95 106.44 59.31 102.67 56.54 99.55"/><polygon class="cls-57" points="83 79.98 84.09 79.61 90.25 79.61 91.33 77.8 93.87 76.72 92.06 79.61 94.96 82.15 92.06 83.96 89.89 80.7 84.09 80.7 83.36 81.43 83 79.98"/><polygon class="cls-58" points="89.16 89.4 96.77 94.11 92.42 95.2 85.9 96.65 81.34 96.41 89.16 89.4"/><polygon class="cls-59" points="93.87 76.72 96.05 72.37 84.45 78.89 93.87 76.72"/><polyline class="cls-9" points="88.8 89.4 97.13 86.14 100.76 91.21 102.21 83.96 96.77 82.15 81.91 82.51"/><polyline class="cls-9" points="75.57 75.45 73.21 79.61 73.39 84.51 74.66 87.59 75.93 90.67 77.38 93.21 81.73 96.11 87.17 96.11 96.23 93.93 100.21 90.31 102.39 81.97 102.03 76.53 98.77 72.19 92.6 71.46 83.91 72.91 75.57 75.45"/><path class="cls-9" d="M33.89,79.07c-.36,0,11.74-3.67,11.74-3.67l4.21.35,5.07.42,4.35,1.45,2.54,2.54.72,4.71-3.08,10-3.71,3.35-11,2.26-4.35-1.08-4.35-4,2.71-8.88L39,86l-7.25-2.54.37-2.17Z"/><path class="cls-9" d="M42.12,125.56,44.4,128l6.34,1.27,12.51,7.79,7.9-1.44a.28.28,0,0,0,.13,0l11.54-5.41,1.08-1.08,2.54-4L100,105.42l1.68-5.1-.73-9.49L96.23,95,93,96.47l-7.25.72H80.64l-.72,3.26-9.51,5.81H68.83l-10.3-4L56.72,99l-12,2.53-3.62-.36-3.63-2.9L34.25,95l-3.44-9.61-1.09,8.34,2.17,8.34,4.17,13.22,3.26,7.25Z"/><path class="cls-60" d="M40.59,86.86s-4.71,8.34-4.71,8.7-4.35-12.68-4.35-12.68Z"/><polygon class="cls-9" points="65.42 83.78 60.89 95.2 56.72 99 58.53 102.27 69.77 106.62 79.92 100.45 80.64 97.19 76.29 93.93 70.49 83.42 65.42 83.78"/><polygon class="cls-61" points="57.87 101.06 61.25 101 66.87 104.8 65.96 104.98 59.44 102.81 57.87 101.06"/><polygon class="cls-62" points="78.47 99.37 80.04 100.42 72.13 105.35 75.75 100.27 78.47 99.37"/><polygon class="cls-63" points="74.84 74.72 83.91 71.1 97.38 70.18 105.47 70.55 105.65 74 103.84 75.45 103.11 72.91 99.13 72.19 92.42 72 83.91 72.91 75.57 75.45 74.12 75.08 74.84 74.72"/><polygon class="cls-64" points="101.12 77.8 101.12 83.6 101.84 85.41 104.02 77.8 104.02 75.99 103.11 72.91 98.95 72 96.05 72 101.12 77.8"/><polygon class="cls-65" points="76.11 90.85 77.56 93.03 81.73 96.11 87.17 96.11 85.72 97.19 80.46 97.37 76.11 93.75 74.66 91.21 76.11 90.85"/><polygon class="cls-66" points="96.23 93.93 100.21 90.31 100.94 91.03 96.23 95.02 92.97 96.47 85.72 97.19 87.17 96.11 92.42 95.2 96.23 93.93"/><polygon class="cls-67" points="27.91 77.8 30.63 77.44 32.8 77.08 34.79 79.25 33.71 80.7 32.62 83.6 29.72 83.6 28.45 82.15 27.18 80.34 27.91 77.8"/><polygon class="cls-68" points="36.06 95.38 38.6 97.56 40.96 99.91 40.77 100.82 37.51 98.28 34.25 95.02 31.35 88.49 29.9 83.42 31.35 83.42 31.71 83.42 35.34 93.57 36.06 95.38"/><path class="cls-69" d="M41.14,101.18l3.42.34a1,1,0,0,0,.39,0l4.89-1,6-.9H56.9l4.35-4-1.09-1.09-4,3.63-6,1.27-5.62.9-1.81-.36-2.36-.54.36,1.45Z"/><polygon class="cls-63" points="35.34 78.71 39.69 77.26 45.49 75.45 50.74 76.35 54.73 76.35 59.8 78.17 60.16 77.44 64.51 78.89 64.51 78.17 54.55 74.72 49.11 74.36 43.67 74.36 36.79 76.17 32.8 77.26 33.89 79.07 35.34 78.71"/><polygon class="cls-70" points="30.26 93.57 29.9 93.21 28.81 92.12 29.28 82.95 29.9 83.42 30.63 85.96 30.26 93.57"/><polygon class="cls-71" points="34.25 109.15 31.71 108.07 30.26 101.91 28.81 96.47 28.81 92.12 30.26 93.57 32.8 103.72 34.25 109.15"/><polygon class="cls-72" points="36.42 72.55 47.3 68.56 59.8 70.92 59.62 69.28 53.46 66.75 45.85 67.11 36.42 72.55"/><polygon class="cls-73" points="74.66 69.83 80.64 66.39 93.55 66.74 97.18 68.92 83.54 69.28 74.66 69.83"/><polygon class="cls-74" points="49.65 112.23 54.91 111.69 55.27 113.14 54.8 113.06 49.65 112.23"/><polygon class="cls-75" points="76.84 114.77 83 110.42 88.44 110.78 76.84 114.77"/><polygon class="cls-76" points="54.91 111.69 66.87 110.97 69.41 111.33 72.67 110.6 83 110.42 79.92 112.78 74.48 114.23 70.13 113.86 65.96 113.68 55.27 113.14 54.91 111.69"/><polygon class="cls-77" points="51.95 113.47 60.83 117.25 76.66 116.77 83.72 111.51 80.2 112.6 74.48 114.23 70.13 113.86 65.24 115.5 51.95 113.47"/><polygon class="cls-78" points="90.43 106.44 86.8 110.06 87.89 106.44 90.43 106.44"/><polygon class="cls-79" points="31.71 110.24 33.53 116.4 36.79 123.65 42.04 128.91 42.95 132.35 43.67 139.6 51.28 166.42 45.85 158.81 37.51 146.12 33.89 137.79 27 128.72 26.28 97.56 29.19 108.98 31.71 110.24"/><polygon class="cls-80" points="55.27 43.55 41.5 53.7 37.51 63.85 36.06 70.37 34.98 68.2 30.26 77.62 36.42 57.33 31.53 59.32 38.6 53.34 55.27 43.55"/><polygon class="cls-81" points="29.9 129.09 30.63 151.2 35.16 157.9 38.96 162.07 42.95 162.07 48.57 157.54 46.21 161.71 40.41 165.69 36.79 165.69 28.27 160.8 29.54 127.64 29.9 129.09"/><polygon class="cls-82" points="28.27 161.89 36.42 168.59 41.5 170.04 46.21 166.06 41.5 167.14 38.06 165.51 28.27 160.44 28.27 161.89"/><polygon class="cls-83" points="29.62 50.3 23.56 62.94 18.67 79.43 20.11 69.28 21.2 62.04 29.62 50.3"/><polygon class="cls-84" points="28.95 47.92 21.8 61.07 29.72 50.62 28.95 47.92"/><polygon class="cls-85" points="29.72 47.36 21.57 57.33 17.94 72.19 20.84 56.96 25.55 48.99 29.72 47.36"/><polygon class="cls-85" points="31.71 45.36 25.73 48.81 28.45 48.26 31.71 45.36"/><polygon class="cls-86" points="21.2 72.55 21.18 73.63 20.84 89.94 20.48 97.19 17.58 106.98 13.59 120.75 12.87 125.46 15.4 133.44 17.04 145.58 16.49 130.18 14.32 123.65 17.4 112.23 21.38 99.19 23.38 63.49 20.89 71.29 21.2 72.55"/><polygon class="cls-87" points="32.8 44.28 40.05 34.13 49.11 29.05 52.37 23.25 59.98 19.27 55.63 24.34 54.91 26.52 55.27 43.55 38.6 53.34 32.8 59.14 23.38 63.12 28.09 52.61 29.59 50.34 28.81 47.94 32.8 44.28"/><polygon class="cls-88" points="17.4 149.2 16.67 139.6 16.31 130.36 14.13 123.83 16.67 113.5 20.68 98.05 23.2 62.94 36.61 57.14 30.45 77.62 27.91 77.98 27.55 80.52 28.63 82.33 29.54 83.24 29 92.48 29 96.83 29.71 128 28.92 152.04 28.27 162.25 17.4 149.2"/><polygon class="cls-89" points="55.63 44.28 72.49 70.92 65.78 46.81 82.64 66.45 79.92 60.59 84.27 63.85 78.11 50.8 92.6 66.75 96.95 68.92 97.9 70.38 105.71 70.68 104.76 56.9 96.23 42.47 77.38 23.98 69.05 19.63 61.07 18.54 59.98 19.27 55.63 23.62 54.91 26.52 55.27 43.55 55.63 44.28"/><polyline class="cls-90" points="103.66 83.42 104.02 76.17 103.66 75.27 105.47 74 104.57 56.67 105.83 58.05 110.18 74 111.27 85.96 110.91 95.02 110.18 100.64 104.38 122.38 92.06 134.71 94.6 124.38 94.23 119.66 98.58 110.24 100.76 101.54 100.76 91.03 102.56 87.17 103.3 85.59"/><polygon class="cls-91" points="110 103.35 113.63 114.59 115.8 126.91 113.63 137.06 111.45 146.49 99.67 152.83 108.19 144.67 111.45 133.07 104.2 122.2 104.2 122.2 110.2 100.34 110 103.35"/><polygon class="cls-92" points="95.14 132.71 92.24 145.76 91.15 150.47 96.95 151.2 97.68 155.18 99.85 153.73 100.21 152.28 108.19 144.67 111.45 133.07 104.2 122.2 101.5 124.99 95.5 131.26 95.14 132.71"/><polygon class="cls-93" points="83.72 128.91 90.43 125.1 92.6 126.55 94.39 125.95 92.24 134.52 95.51 131.15 91.15 150.47 73.39 153.01 81.55 136.52 83.72 128.91"/><polygon class="cls-94" points="61.07 194.19 73.39 153.01 91.15 150.47 96.95 151.2 97.68 155.18 99.85 153.73 100.21 152.28 111.45 146.49 113.76 136.42 121.6 139.6 133.56 147.21 133.56 194.19 61.07 194.19"/><polygon class="cls-79" points="14.68 133.8 0.18 141.41 0.18 194.19 57.81 194.19 53.7 164.91 48.39 157.72 46.21 161.71 40.41 165.69 37.51 165.69 41.5 167.14 46.21 166.06 41.5 170.04 36.42 168.59 27.73 161.34 17.58 149.38 16.16 138.51 15.47 133.8 15.06 132.36 14.68 133.8"/><polygon class="cls-95" points="54.19 44.28 43.13 52.43 41.32 53.52 37.51 63.85 36.06 70.37 36.42 72.55 45.85 67.11 53.46 66.75 55.86 44.64 55.27 43.55 54.19 44.28"/><polygon class="cls-96" points="59.8 70.92 58.9 76.17 54.55 74.72 43.67 74.36 32.8 77.26 30.26 77.62 34.98 68.2 36.06 70.37 36.42 72.55 47.3 68.56 59.8 70.92"/><polygon class="cls-97" points="55.45 44.1 71.96 69.98 65.6 46.63 82.45 66.39 80.64 66.39 74.84 69.65 96.95 68.92 98.22 70.55 83.66 71.19 74.12 75.08 69.05 77.98 64.69 78.35 58.9 76.17 59.62 69.28 53.4 66.75 55.45 44.1"/><polyline class="cls-98" points="77.92 50.26 92.24 66.35 92.6 66.75 82.45 66.39 79.74 60.41 84.27 63.85 78.47 51.57 78.47 51.57 78.47 51.57"/><polygon class="cls-99" points="98.4 110.97 94.42 119.66 90.43 125.1 83.72 128.91 85.35 126.55 96.23 110.6 100.03 104.98 98.77 110.24 98.4 110.97"/><polygon class="cls-100" points="33.89 133.07 36.42 136.7 40.05 145.03 48.39 157.72 45.3 160.44 42.95 162.07 38.96 162.07 35.34 158.44 30.63 151.2 29.72 127.82 33.89 133.07"/><polyline class="cls-92" points="90.25 125.43 94.6 119.48 95.11 123.92 94.6 126.01 92.42 126.73 90.25 125.43"/><polygon class="cls-101" points="82.27 84.87 85.54 85.41 88.8 83.96 85.17 84.69 81.91 83.96 82.27 84.87"/><polygon class="cls-102" points="68.5 120.21 76.84 116.58 68.86 116.95 60.16 116.95 68.5 120.21"/><polygon class="cls-103" points="63.32 113.53 70.31 113.86 65.6 115.5 52.19 113.68 49.65 112.23 63.32 113.53"/><polygon class="cls-104" points="44.58 127.82 56.18 135.43 56.9 142.32 54.73 162.25 46.69 140.18 45.3 131.44 44.58 127.82"/><polygon class="cls-105" points="61.07 194.19 54.91 162.13 46.39 139.42 57.81 194.19 61.07 194.19"/><polygon class="cls-106" points="83 79.98 81.91 82.51 81.95 84.06 85.17 84.69 86.26 82.88 85.54 80.7 83 79.98"/><polygon class="cls-107" points="87.71 80.7 88.07 82.24 88.74 84 85.17 84.69 83.17 84.3 83.36 81.43 85.54 80.7 87.71 80.7"/><polygon class="cls-106" points="52.92 81.88 54 85.59 52.55 86.14 50.38 86.14 49.29 83.33 50.02 81.15 52.92 81.88"/><polygon class="cls-108" points="48.57 81.15 46.39 85.05 48.2 86.14 50.38 86.14 51.13 83.36 50.02 81.15 48.57 81.15"/><polygon class="cls-109" points="83.94 81.79 83.72 82.77 86.62 82.77 86.09 81.53 83.94 81.79"/><polygon class="cls-109" points="84.45 84.22 83.72 82.77 86.62 82.77 85.9 84.22 84.45 84.22"/><polygon class="cls-110" points="86.08 82.63 85.36 83.54 84.63 83.54 83.91 82.77 84.99 82.09 86.08 82.63"/><polyline class="cls-111" points="80.1 79.98 85.17 78.53 83.12 79.89 83 79.98 83.17 80.65 79.74 81.79 80.1 79.98"/><polygon class="cls-112" points="80.02 84.3 81.91 82.51 83.17 80.65 79.74 81.79 80.02 84.3"/><polygon class="cls-9" points="98.95 72.73 102.57 77.08 101.84 85.05 94.96 79.61 95.34 74.26 98.95 72.73"/><polyline class="cls-113" points="104.02 77.8 102.57 77.08 102.21 83.96 100.76 91.21 104.02 84.69 104.02 77.44"/><polygon class="cls-114" points="94.6 82.15 96.85 82.15 100.33 76.89 96.05 72 92.06 79.61 94.6 82.15"/><polygon class="cls-115" points="101.12 83.6 96.77 82.15 100.4 76.72 101.12 77.8 101.12 83.6"/><polygon class="cls-116" points="83 89.04 89.16 89.4 81.91 95.92 83 89.04"/><polygon class="cls-117" points="88.8 89.4 100.4 90.49 97.5 85.78 88.8 89.4"/><polygon class="cls-118" points="50.38 80.34 50.38 78.89 43.49 80.34 41.32 82.15 39.14 83.24 40.59 83.96 43.85 85.41 43.85 82.15 50.02 82.15 50.38 80.34"/><polygon class="cls-119" points="47.92 90.69 40.59 99.55 44.94 100.64 56.18 98.1 47.92 90.69"/><polygon class="cls-120" points="41.68 79.61 50.38 75.99 50.38 77.44 41.68 79.61"/><polygon class="cls-121" points="41.68 79.61 38.06 83.96 34.43 78.89 45.67 75.27 50.38 75.99 41.68 79.61"/><polygon class="cls-122" points="40.23 86.86 34.79 78.89 33.34 80.7 32.62 83.6 40.23 86.86"/><polygon class="cls-123" points="61.25 91.21 47.92 90.69 56.18 98.1 60.16 94.47 61.25 91.21"/><polygon class="cls-124" points="48.28 90.64 35.88 95.2 40.23 86.86 48.28 90.64"/><polygon class="cls-125" points="39.87 123.11 44.58 127.82 61.98 139.06 75.39 137.97 83.72 128.91 75.39 136.52 62.34 137.24 45.3 126.37 39.87 123.11"/><polygon class="cls-126" points="63.43 118.03 68.86 120.21 61.98 137.24 45.3 126.37 63.43 118.03"/><polygon class="cls-127" points="55.49 157.72 65.96 169.5 61.07 194.19 54.73 161.53 55.53 157.27 55.49 157.72"/><polygon class="cls-128" points="56.9 142.19 60.16 144.85 54.73 160.8 56.9 142.19"/><polygon class="cls-129" points="60.16 144.85 65.96 169.5 55.49 157.72 60.16 144.85"/><polygon class="cls-130" points="60.16 144.85 70.31 144.85 65.96 169.5 60.16 144.85"/><polygon class="cls-131" points="81.69 136.42 61.07 194.19 70.31 144.85 81.69 136.42"/><polygon class="cls-132" points="68.86 120.21 75.39 136.52 61.98 137.24 68.86 120.21"/><polygon class="cls-133" points="69.25 119.88 76.84 116.58 75.39 136.52 68.86 120.21 69.25 119.88"/><polygon class="cls-134" points="75.86 136.08 84.45 128.18 76.84 116.58 75.39 136.52 75.86 136.08"/><polygon class="cls-135" points="90.25 77.44 84.9 78.71 83 79.98 90.25 77.44"/><polygon class="cls-136" points="83.72 79.61 89.89 77.57 93.87 76.72 91.33 77.8 90.25 79.61 83.72 79.61"/><polygon class="cls-137" points="72.58 99.05 69.95 101.36 65.96 101.36 69.95 106.44 72.13 105.35 75.75 100.27 72.58 99.05"/><polygon class="cls-138" points="61.25 95.56 65.96 101.36 66.69 95.92 61.25 95.56"/><polygon class="cls-109" points="49.29 81.88 48.57 83.14 51.65 83.24 50.74 81.88 49.29 81.88"/><polygon class="cls-109" points="49.29 85.41 48.57 83.14 51.65 83.24 50.74 85.41 49.29 85.41"/><path class="cls-139" d="M50,83.09l-1,.74.8.45h.35l.76-.45"/><polygon class="cls-140" points="43.85 82.15 48.57 81.15 46.39 85.05 43.73 85.51 43.85 82.51 43.85 82.15"/><polygon class="cls-141" points="50.38 75.99 54.73 76.35 59.8 78.17 61.65 79.98 62.34 82.15 62.34 83.6 61.53 81.75 60.89 79.98 59.8 80.34 58.72 78.53 54.37 77.08 50.38 76.72 50.38 75.99"/><polygon class="cls-142" points="60.89 79.98 62.34 83.6 62.34 85.88 58.35 85.78 60.89 79.98"/><polygon class="cls-143" points="52.92 82.88 55.09 83.6 55.82 85.41 54 85.41 52.92 82.88"/><polyline class="cls-144" points="50.74 80.34 53.64 82.88 52.92 82.88 56.18 82.51 56.18 85.41 55.82 85.41 55.03 83.76 52.92 82.88"/><path class="cls-145" d="M50.74,80.34h2.18c.17,0,3.26,2.17,3.26,2.17l-2.54.37Z"/><polygon class="cls-146" points="29 100.27 29 108.97 31.53 110.06 33.34 116.22 36.61 123.47 42.04 128.91 43.49 139.78 48.82 158.31 52.92 163.72 47.12 141.12 44.94 128.18 40.23 123.11 35.52 113.48 34.43 109.33 29 96.29 29 100.27"/><polygon class="cls-147" points="48.24 90.69 58.23 88.67 61.25 91.21 48.24 90.69"/><polyline class="cls-148" points="50.41 83.64 49.94 84.19 49.58 83.13"/><polyline class="cls-148" points="84.76 82.5 85.23 83.05 85.59 81.98"/><polygon class="cls-143" points="81.91 82.51 81.95 84.06 80.02 84.22 81.91 82.51"/></g></g></svg>