<?xml version="1.0" encoding="utf-8"?>
<!-- Generator: Adobe Illustrator 22.1.0, SVG Export Plug-In . SVG Version: 6.00 Build 0)  -->
<svg version="1.1" id="Calque_1" xmlns="http://www.w3.org/2000/svg" xmlns:xlink="http://www.w3.org/1999/xlink" x="0px" y="0px"
	 viewBox="0 0 371.1 541.4" style="enable-background:new 0 0 371.1 541.4;" xml:space="preserve">
<style type="text/css">
	.st0{fill:none;}
	.st1{fill:none;stroke:#CB4F24;stroke-width:2;stroke-miterlimit:10;}
	.st2{fill:#92869B;}
	.st3{fill:url(#SVGID_1_);stroke:url(#SVGID_2_);stroke-width:1.1747;stroke-miterlimit:10;}
	.st4{fill:#E7C7BE;}
	.st5{fill:#FFFFFF;}
	.st6{fill:url(#SVGID_3_);}
	.st7{fill:#81684B;}
	.st8{fill:#3F2000;}
	.st9{fill:#746254;}
	.st10{fill:#AE927E;}
	.st11{fill:#C2938A;}
	.st12{fill:#8F705C;}
	.st13{fill:url(#SVGID_4_);}
	.st14{fill:#EDD7D1;}
	.st15{opacity:0.4;fill:#AE927E;enable-background:new    ;}
</style>
<pattern  y="541.4" width="425.4" height="115.7" patternUnits="userSpaceOnUse" id="Nouveau_motif" viewBox="332.6 -126 425.4 115.7" style="overflow:visible;">
	<g>
		<rect x="332.6" y="-126" class="st0" width="425.4" height="115.7"/>
		<rect x="332.6" y="-126" class="st0" width="425.4" height="115.7"/>
		<path class="st1" d="M425.4-135.7c178.9-3.7,257,2.5,291.8,10.4c16.2,3.8,32.7,6.3,49.3,7.6c28.1,2.1,56.4,0.7,84.1-4.3"/>
		<path class="st1" d="M0-135.7c178.9-3.7,257,2.5,291.8,10.4c16.2,3.8,32.7,6.3,49.3,7.6c28.1,2.1,56.4,0.7,84.1-4.3"/>
		<path class="st1" d="M425.4-112.5c178.9-3.7,257,2.5,291.8,10.4c16.2,3.8,32.7,6.3,49.3,7.6c28.1,2.1,56.4,0.7,84.1-4.3"/>
		<path class="st1" d="M0-112.5c178.9-3.7,257,2.5,291.8,10.4c16.2,3.8,32.7,6.3,49.3,7.6c28.1,2.1,56.4,0.7,84.1-4.3"/>
		<path class="st1" d="M425.4-89.4c178.9-3.7,257,2.5,291.8,10.4c16.2,3.8,32.7,6.3,49.3,7.6c28.1,2.1,56.4,0.7,84.1-4.3"/>
		<path class="st1" d="M0-89.4c178.9-3.7,257,2.5,291.8,10.4c16.2,3.8,32.7,6.3,49.3,7.6c28.1,2.1,56.4,0.7,84.1-4.3"/>
		<path class="st1" d="M425.4-66.3c178.9-3.7,257,2.5,291.8,10.4c16.2,3.8,32.7,6.3,49.3,7.6c28.1,2.1,56.4,0.7,84.1-4.2"/>
		<path class="st1" d="M0-66.3c178.9-3.7,257,2.5,291.8,10.4c16.2,3.8,32.7,6.3,49.3,7.6c28.1,2.1,56.4,0.7,84.1-4.3"/>
		<path class="st1" d="M425.4-43.1c178.9-3.7,257,2.5,291.8,10.4c16.2,3.8,32.7,6.3,49.3,7.6c28.1,2.1,56.4,0.7,84.1-4.3"/>
		<path class="st1" d="M0-43.1c178.9-3.7,257,2.5,291.8,10.4c16.2,3.8,32.7,6.3,49.3,7.6c28.1,2.1,56.4,0.7,84.1-4.3"/>
		<path class="st1" d="M425.4-20c178.9-3.7,257,2.5,291.8,10.4c16.2,3.8,32.7,6.3,49.3,7.6c28.1,2.1,56.4,0.7,84.1-4.3"/>
		<path class="st1" d="M0-20c178.9-3.7,257,2.5,291.8,10.4C308-5.7,324.5-3.2,341.1-2c28.1,2.1,56.4,0.7,84.1-4.3"/>
	</g>
</pattern>
<pattern  y="541.4" width="35.4" height="35.4" patternUnits="userSpaceOnUse" id="rond_pop" viewBox="1 -38.5 35.4 35.4" style="overflow:visible;">
	<g>
		<rect x="1" y="-38.5" class="st0" width="35.4" height="35.4"/>
		<rect x="1" y="-38.5" class="st0" width="35.4" height="35.4"/>
		<circle class="st2" cx="29.6" cy="-38.4" r="3"/>
		<circle class="st2" cx="11.9" cy="-38.4" r="3"/>
		<circle class="st2" cx="38.4" cy="-20.7" r="3"/>
		<circle class="st2" cx="20.7" cy="-20.7" r="3"/>
		<circle class="st2" cx="3" cy="-20.7" r="3"/>
		<circle class="st2" cx="29.6" cy="-3" r="3"/>
		<circle class="st2" cx="11.9" cy="-3" r="3"/>
	</g>
</pattern>
<pattern  y="541.4" width="35.4" height="35.4" patternUnits="userSpaceOnUse" id="rond_pop-3" viewBox="1 -38.5 35.4 35.4" style="overflow:visible;">
	<g>
		<rect x="1" y="-38.5" class="st0" width="35.4" height="35.4"/>
		<rect x="1" y="-38.5" class="st0" width="35.4" height="35.4"/>
		<circle class="st2" cx="29.6" cy="-38.4" r="3"/>
		<circle class="st2" cx="11.9" cy="-38.4" r="3"/>
		<circle class="st2" cx="38.4" cy="-20.7" r="3"/>
		<circle class="st2" cx="20.7" cy="-20.7" r="3"/>
		<circle class="st2" cx="3" cy="-20.7" r="3"/>
		<circle class="st2" cx="29.6" cy="-3" r="3"/>
		<circle class="st2" cx="11.9" cy="-3" r="3"/>
	</g>
</pattern>
<title>Fichier 2</title>
<g>
	<g id="Calque_2_1_">
		<g id="Calque_1-2">
			<g>
				<pattern  id="SVGID_1_" xlink:href="#rond_pop" patternTransform="matrix(1.06 0 0 -1.2174 521.3655 -17854.4141)">
				</pattern>
				<pattern  id="SVGID_2_" xlink:href="#rond_pop-3" patternTransform="matrix(1.06 0 0 -1.2174 506.3856 -17816.7715)">
				</pattern>
				<rect x="0.5" y="-27.4" class="st3" width="370" height="535.2"/>
			</g>
			<polygon class="st4" points="101.5,369 114.4,344.8 253,363.9 238.1,488.6 230.1,542.4 125.2,542.4 101.5,372.1 			"/>
			<path class="st5" d="M350,410.2l-84.9-43.5l-25.7-14.2l-6,17.3l-61.2,171.6h-11.3c0,0-34.7-179-38.4-181.2
				c-8.7-5.1-11.5-12.3-11.5-12.3L5.1,402.2l-3.8,1.9c0,14.7,0,137.3,0,137.3H369V419.9L350,410.2z"/>
			<pattern  id="SVGID_3_" xlink:href="#Nouveau_motif" patternTransform="matrix(0.27 0 0 -0.27 -5559.7568 -10035.2617)">
			</pattern>
			<path class="st6" d="M350.1,414.5L265.2,371l-25.7-14.2l-6,17.3l-61.3,171.6h-11.3c0,0-34.3-179.1-38.1-181.4
				c-7-4.3-11.8-12.1-11.8-12.1L5.2,406.5l-3.8,1.9v137.3H371l-1-121.5L350.1,414.5z"/>
			<g>
				
					<image style="overflow:visible;opacity:0.5;" width="247" height="313" xlink:href="FA0F763B.png"  transform="matrix(1 0 0 1 64 102.3894)">
				</image>
				<g>
					<path class="st4" d="M94.1,312.3c1.5,4.9,12.2,33.8,21.5,42.5s23.5,13.8,28.8,16.9c7.7,4.4,25.3,17.5,32.1,19.7
						c7,2.2,23.5,2.3,28.1,1c14.9-4.3,23.4-17.8,27.9-21c3.1-2.2,11.6-9,17.6-13.8c3-2.4,18-30.1,21.3-37s13.3-43.6,15-48.7
						c2.4-7.6,5.2-59.4-3.3-83c-10.4-28.9-49.3-67.6-79.8-74.4c-26.6-5.9-66.1-7.7-87.5,24C97,166.3,83,207.2,80.8,216.6
						c-2.9,12.5-9.3,40.5-7.4,49.8s-2.2,14-1.1,16.4C73.6,285.7,84.5,312,94.1,312.3z"/>
				</g>
			</g>
			<path class="st7" d="M87.7,360.7l23-12.3c0,0-3.8-6.8-5.8-11.1c-3.8-8.1-10.7-25-10.7-25c-2.3,8.5-2.6,17.6-3.8,26.3
				C88.8,348.4,87.7,360.7,87.7,360.7z"/>
			<path class="st7" d="M247.6,359.9l3-3.4l6.7-11.2c0,0,5.4,13.1,5.9,23.5L247.6,359.9z"/>
			<path class="st8" d="M131.9,243.7c0,4.1,3.3,5,7.4,5s7.4-0.9,7.4-5c-0.2-4.1-3.6-7.3-7.7-7.2C135.1,236.6,132,239.8,131.9,243.7z
				"/>
			<path class="st9" d="M259.1,233.6c0,0-9.5-9.8-16.4-9.8c-3,0.3-5.9,1.1-8.7,2.2c-1,0.5-4.6,2.2-6.6,3.3c-6.8,3.6-12.6,8.7-17,15
				c0,0,18.1-28.1,57.4,1.4C269.1,246.6,259.1,233.6,259.1,233.6z"/>
			<path class="st9" d="M117.7,234.7c0,0,9.5-9.8,16.4-9.8c3,0.3,5.9,1.1,8.7,2.2c1,0.5,4.6,2.2,6.6,3.3c6.8,3.6,12.6,8.7,17,15
				c0,0-18.1-28.1-57.4,1.4C107.7,247.6,117.7,234.7,117.7,234.7z"/>
			<path class="st8" d="M243.4,241.8c0,4.1-3.3,5-7.4,5s-7.4-0.9-7.4-5c0.2-4.1,3.6-7.3,7.7-7.2
				C240.1,234.8,243.2,237.9,243.4,241.8z"/>
			<path class="st10" d="M101.4,218.7c0,0,14.1-12.2,34.2-11.4c2.1,0.1,4.9,1,8,1.3c4.8,0.4,18.2,6,20.5,8.6s-12.8-2.2-16.6-3.1
				C143.5,213.1,119.6,207.7,101.4,218.7L101.4,218.7z"/>
			<path class="st10" d="M274.9,210.5c-10.8-5.3-22.9-7.3-34.8-5.9c-2.1,0.3-4.9,1.2-7.9,1.7c-4.8,0.8-17.7,6.3-19.9,8.5
				s12.6-2.8,16.3-3.9C232.5,209.8,256,203.4,274.9,210.5L274.9,210.5z"/>
			<path class="st11" d="M144.2,321.2c0,0,40.8,8.5,47.2,8.5s21.9-5.5,21.9-5.5l17.5-4.8c0,0-22,15.1-25.6,17.2
				c-4.1,2.5-9.2,2.9-15.7,3.2c-4.8,0.2-11.1-1.8-11.1-1.8L144.2,321.2z"/>
			<path class="st11" d="M142.8,320.7l39.6-1.5l9.7,0.7l15.3-1.8l31.2-0.4c0,0-20.2,5.1-24.6,6.8s-15.9,1.7-15.9,1.7l-19.9,1
				l-12.3-1.1C162.2,325.8,142.8,320.7,142.8,320.7z"/>
			<path class="st12" d="M193,66.4c22.3-4.6,47.8,6.3,69.9,27.2c21.6,20.4,29.7,91.9,54.5,63.4c1.8-2-12.4,89.7-13.5,92.4
				c-3.6,9.2-19.7,48.6,13.5,25.3c0.5-0.3-9.9,15.5-14.4,23.8c-4.5,8.2-5.6,13.6-4.6,19.2c0.7,4,5.5,8.7,15.9,0
				c0.4-0.3-14.8,32.8-17.5,47.5s6,37.6,24.7,9.1c2.5-3.8-11.7,25.7-17.5,37.4c-6.2,12.5-11.3,19.2-22.6,32.8
				c-15.2,18.3-48.5,29.4-48.3,29.4c2.4,0.1,20.2-46.2,25-68.7c4.8-22.5-5.6-52.6-5.6-52.6s27.3-38.2,28.4-88.5
				c13.4-53.2-16-85.7-16-85.7s-11.1-39.8,4.1-22.6c45.3,50.9,76.1,36.2,74,37.4c-28.2,15.5-61.7,22.6-129.7-46.1l61,60.3
				c0,0-95.8-64.9-95.8-67.8c0-2.9,63,64.5,63,64.5l-98-55c0,0-6.2,22.6-45.3,57.7c-48.7,43.7-67.9,46.4-67.9,46.4
				S167.3,106,120,128.7c51.4-53.2-11.3,61.1-11.3,61.1c-1.6,7-14.8,59-23.7,66.8c-5.1,4.5-18.3,12.8-4,41.5
				c4.4,8.7,13.1,14.2,13.1,14.2s2.7,61.9,2.8,70.4c6.5,107.5,28.8,79.3,28.8,79.3s-11,21.1-29.1,15.5c-7-2.6-25.4-17.6-41.8-40.5
				c-4.6-6.5-37.4-65.9-33.6-59.1c17.1,30.7,30.5-12.4,30.9-26c0.6-19.8-25.7-34-25.7-34c16.8,10.6,11-31.7,6.6-37.1
				c0.3,4.5,19.4,35,16.4-9.8c-2.8-41.5,3.8-54.9,3.8-54.9l-27.8-15c16.4,0,18.3-3.1,38.1-57.4c5.2-14.3,15.5-27.2,24.7-35.1
				c17.7-15.2,45.3-18.1,45.3-18.1S154.9,74.3,193,66.4z"/>
			
				<linearGradient id="SVGID_4_" gradientUnits="userSpaceOnUse" x1="313.3608" y1="402.3982" x2="102.4308" y2="385.9182" gradientTransform="matrix(1 7.000000e-02 7.000000e-02 -1 -38.4967 628.0485)">
				<stop  offset="2.000000e-02" style="stop-color:#547AA3"/>
				<stop  offset="7.000000e-02" style="stop-color:#707685"/>
				<stop  offset="0.16" style="stop-color:#997058"/>
				<stop  offset="0.24" style="stop-color:#B76C37"/>
				<stop  offset="0.3" style="stop-color:#C96923"/>
				<stop  offset="0.34" style="stop-color:#D0681C"/>
				<stop  offset="0.38" style="stop-color:#CD681F"/>
				<stop  offset="0.4" style="stop-color:#C36A29"/>
				<stop  offset="0.42" style="stop-color:#B26B3A"/>
				<stop  offset="0.45" style="stop-color:#9B6E51"/>
				<stop  offset="0.47" style="stop-color:#7C7270"/>
				<stop  offset="0.49" style="stop-color:#587694"/>
				<stop  offset="0.5" style="stop-color:#3E79AE"/>
				<stop  offset="0.52" style="stop-color:#657487"/>
				<stop  offset="0.54" style="stop-color:#867166"/>
				<stop  offset="0.57" style="stop-color:#A16D4B"/>
				<stop  offset="0.59" style="stop-color:#B66B36"/>
				<stop  offset="0.62" style="stop-color:#C56927"/>
				<stop  offset="0.66" style="stop-color:#CD681F"/>
				<stop  offset="0.71" style="stop-color:#D0681C"/>
				<stop  offset="0.73" style="stop-color:#CB6922"/>
				<stop  offset="0.77" style="stop-color:#BE6C33"/>
				<stop  offset="0.8" style="stop-color:#A87250"/>
				<stop  offset="0.85" style="stop-color:#8B7977"/>
				<stop  offset="0.86" style="stop-color:#817B83"/>
				<stop  offset="0.86" style="stop-color:#887A7B"/>
				<stop  offset="0.87" style="stop-color:#9D7663"/>
				<stop  offset="0.88" style="stop-color:#AC7351"/>
				<stop  offset="0.89" style="stop-color:#B87144"/>
				<stop  offset="0.91" style="stop-color:#BE703C"/>
				<stop  offset="0.94" style="stop-color:#C0703A"/>
				<stop  offset="0.98" style="stop-color:#48748C"/>
				<stop  offset="1" style="stop-color:#0077BD"/>
			</linearGradient>
			<path class="st13" d="M298.4,214.1c0,0-6.6,0.3-9.5,0.1s-6.5-3.1-10.7-4s-18.2-1.2-32.9,0s-23,5.4-28.6,7.3s-18.7,10.2-19.7,10.6
				s-11,0.4-14.1-0.6c-2.9-1-14.4-8.3-18.3-10.1s-16-5.6-34.7-4.9C113.6,213,95.5,219,94,220s-8.7-0.6-8.7-0.6l-3.8,12.9l7.5,2.7
				c0,0-1.2,4.6-0.8,6.4s3.4,12.9,5.8,18.1c2.7,5.7,7.3,17.6,13.5,21.8c3.1,2.1,10.4,5.5,14.6,5.9c7.7,0.5,15.5,0.2,23.1-0.9
				c7.4-1.3,15.6-3.9,18.2-5.8c2.2-1.6,6.4-5.2,7.9-8.4c1.2-2.4,6.3-14.3,9.3-21c3-6.7,5.5-9.1,7.8-10.1c2.7-1,5.6-0.9,8.2,0.3
				c2.8,1.4,5.4,8.9,6.2,11.4c0.9,2.7,7.1,17.9,10.5,21.4c3.9,3.9,13,8.3,19.1,9.7c6.3,1.5,16.3,1.4,26.1-0.9
				c6.8-1.7,13.2-4.8,18.8-9c1.9-1.7,10.4-13.2,13-20.7c2-5.5,4.2-25.6,4.2-25.6l2.8-4.3c0,0,2.4-2.5,2.5-4S298.4,214.1,298.4,214.1
				z M174.7,251.8c-1.9,8.6-7.1,19-11.2,22.8c-4.1,3.8-15.1,8.2-23,8.8c-5.5,0.6-11.1,0.5-16.6-0.2c-5.6-0.6-10.3-2-13.3-4
				s-7.6-9.3-9.8-13.8c-2-4-6.8-13.9-7.6-22.3s0.3-11.2,0.8-12.1c0.8-1.9,1.8-3.8,3.1-5.4c1.6-1.8,11.8-7,34.1-8.2
				c17.4-0.9,29.1,3.7,29.1,3.7s10,5.3,12.8,8.9C174.9,232.4,176.6,243.2,174.7,251.8z M278.6,265.6c-7.6,8.7-14.6,12.8-24.6,14
				c-10,1.2-19.9,1.7-27-1.9c-7.1-3.6-11.5-6.1-14.9-14.8c-3.4-8.7-5.6-19.9-5.4-24.8c0.3-5.7,1.7-8.8,2.7-10.4s15.1-13,37.8-13.6
				c23.5-0.6,33.5,3.2,35.8,6s5.1,7.1,5.2,12.8S286.1,257.1,278.6,265.6z"/>
			<polygon class="st14" points="192.7,262.4 192.2,301 210.4,295.9 			"/>
			<polygon class="st15" points="192.7,262.4 192.2,301 173.6,295.9 			"/>
			<path class="st12" d="M72.3,240.2c0,0,4.4,31.7,18.6,49.2c0,0-30.6-13.1-30.6-28.4S72.3,240.2,72.3,240.2z"/>
			<path class="st12" d="M50.5,240.2c0,0-1.1,27.3-12,38.2l23-29.5L50.5,240.2z"/>
			<path class="st12" d="M302.8,234.7c0,0,0,19.7,26.2,15.3c0,0-19.7,9.8-26.2,1.1C299,246.3,299,239.5,302.8,234.7z"/>
		</g>
	</g>
</g>
</svg>
