<svg xmlns="http://www.w3.org/2000/svg" viewBox="0 0 109.14 425.15"><defs><style>.cls-1,.cls-2{fill:#78c8cf;}.cls-1{stroke:#fff;stroke-miterlimit:10;}.cls-3{fill:#fff;}</style></defs><title>Calque 2</title><g id="Calque_2" data-name="Calque 2"><g id="Calque_1-2" data-name="Calque 1"><g id="Calque_2-2" data-name="Calque 2"><g id="Calque_1-2-2" data-name="Calque 1-2"><g id="Calque_1-2-2-2" data-name="Calque 1-2-2"><path class="cls-1" d="M24.84,361.3l-.18-.1A3.05,3.05,0,0,1,23,357.26a3.09,3.09,0,0,1,3.77-1.73,3,3,0,0,1,1.85,1.71,2.92,2.92,0,0,1,0,2.32A3,3,0,0,1,24.84,361.3ZM28.37,353l-.24-.09a3,3,0,0,1-1.62-1.63,3.31,3.31,0,0,1,0-2.32,3,3,0,0,1,3.71-1.72,3.11,3.11,0,0,1,1.87,4h0A3,3,0,0,1,28.37,353Zm3.52-8.32-.23-.09A2.91,2.91,0,0,1,30,342.8a3.4,3.4,0,0,1,0-2.27,3.07,3.07,0,0,1,3.72-1.72,3.34,3.34,0,0,1,1.88,1.72A3,3,0,0,1,34,344.45l0,0h0a2.82,2.82,0,0,1-2,.13Zm3.52-8.35-.18,0a3,3,0,0,1,2.09-5.7,3.24,3.24,0,0,1,1.86,1.7,2.92,2.92,0,0,1,0,2.32,3.14,3.14,0,0,1-3.78,1.71ZM39,327.92l-.24-.09a3,3,0,0,1-1.61-3.93l0-.07h0a3,3,0,0,1,3.71-1.67,3,3,0,0,1,1.85,1.71,2.87,2.87,0,0,1,0,2.33A3.12,3.12,0,0,1,39,327.91Zm3.47-8.32-.27-.07a3,3,0,0,1-1.67-3.9,1,1,0,0,1,0-.1h0a3,3,0,1,1,5.83,1.63h0a4,4,0,0,1-.27.64,3,3,0,0,1-3.71,1.8ZM46,311.25l-.19-.09a3,3,0,0,1-1.67-1.63,2.84,2.84,0,0,1,0-2.32,3,3,0,1,1,1.86,3.9Z"/><path class="cls-1" d="M29.76,396.66a3,3,0,0,1-.61-5.47,2.71,2.71,0,0,1,2.27-.28h0a3,3,0,0,1,2.18,3.62,2.79,2.79,0,0,1-1.39,1.81,3.23,3.23,0,0,1-2.32.33l-.14-.05ZM32,387.84A3.09,3.09,0,0,1,30.1,384a2.87,2.87,0,0,1,1.35-1.63,2.8,2.8,0,0,1,2.26-.27h0a3,3,0,0,1,2.18,3.63,3,3,0,0,1-1.43,1.89,3.23,3.23,0,0,1-2.32.33s-.13-.05-.19-.1Zm2.36-8.75a3,3,0,0,1-2-3.74h0a3.07,3.07,0,0,1,3.78-2h0a3.05,3.05,0,1,1-1.58,5.9h0l-.19-.1Zm2.37-8.72a3,3,0,0,1-2-3.63,3,3,0,0,1,1.39-1.86,3.08,3.08,0,0,1,2.32-.32h0a3,3,0,1,1-1.58,5.85h0Zm2.32-8.77a3,3,0,0,1-1.94-3.78h0a3,3,0,0,1,3.66-2,3.07,3.07,0,0,1,2.3,3.69v0a2.8,2.8,0,0,1-1.52,1.9,2.94,2.94,0,0,1-2.32.28h-.14Zm2.32-8.83A3,3,0,0,1,39.42,349h0a3,3,0,0,1,1.4-1.71,2.72,2.72,0,0,1,2.27-.33,3,3,0,0,1,2.2,3.62v.05h0a3.23,3.23,0,0,1-1.41,1.91,3.11,3.11,0,0,1-2.27.33l-.19-.1ZM43.69,344a3.06,3.06,0,0,1-1.89-3.85,3,3,0,0,1,3.61-1.9h0a3,3,0,0,1,2.15,3.65V342h0a2.77,2.77,0,0,1-1.4,1.82,3.16,3.16,0,0,1-2.31.32ZM46,335.24a3,3,0,0,1-2-3.71h0a3,3,0,0,1,3.71-2.07l0,0h0a3,3,0,0,1,2.12,3.67v.11a3.22,3.22,0,0,1-1.39,1.81,2.94,2.94,0,0,1-2.32.28l-.09-.05Zm2.33-8.77a3,3,0,0,1,1.7-5.82h0a3.07,3.07,0,0,1,2.14,3.71,3,3,0,0,1-3.66,2.14h-.23Z"/><path class="cls-1" d="M72.5,388.35a3.12,3.12,0,0,1-2-2.09,3,3,0,0,1,2.09-3.66h0a3,3,0,0,1,3.78,1.93,3,3,0,0,1-.37,2.6,2.75,2.75,0,0,1-3.48,1.26Zm-2.27-8.77a3.12,3.12,0,0,1-2-2.09,3,3,0,1,1,5.8-1.71V376a2.84,2.84,0,0,1-.33,2.32,3,3,0,0,1-1.85,1.39,2.88,2.88,0,0,1-1.62-.09ZM68,370.81a3.1,3.1,0,0,1-2-2.09,3,3,0,0,1,2.09-3.7h0a3,3,0,1,1,1.51,5.89h0a3.22,3.22,0,0,1-1.63-.09ZM65.68,362a3.08,3.08,0,0,1-1.85-3.91,3,3,0,0,1,2-1.89,3.06,3.06,0,0,1,3.71,2.17A3,3,0,0,1,67.41,362h0a3,3,0,0,1-1.76,0Zm-2.32-8.77a3,3,0,0,1-1.93-3.78l0-.05h0a1.11,1.11,0,0,1,.28-.55,2.93,2.93,0,0,1,1.85-1.39,3,3,0,0,1,3.76,2A3,3,0,0,1,67,352a3.16,3.16,0,0,1-1.85,1.39,3.43,3.43,0,0,1-1.77-.09Zm-2.27-8.77a3,3,0,0,1-2-2.14,2.79,2.79,0,0,1,.33-2.27,2.94,2.94,0,0,1,1.85-1.4A3,3,0,0,1,65,340.78v.05a2.8,2.8,0,0,1-.33,2.27,2.94,2.94,0,0,1-1.9,1.43,3.14,3.14,0,0,1-1.72,0Zm-2.27-8.77a3.14,3.14,0,0,1-2-2.1A3,3,0,0,1,59,329.88a3.09,3.09,0,0,1,3.66,2.18,2.76,2.76,0,0,1-.32,2.27,3.18,3.18,0,0,1-3.55,1.39Zm-2.32-8.83a3,3,0,0,1-1.92-3.72v-.06c.1-.22.19-.41.28-.65a2.89,2.89,0,0,1,1.8-1.39,3,3,0,0,1,3.74,2l0,.06a3.08,3.08,0,0,1-.36,2.49,3,3,0,0,1-3.6,1.28Zm-2.27-8.77a3.08,3.08,0,0,1-2-2.13,3,3,0,0,1,2.14-3.67h0a3.11,3.11,0,0,1,3.69,2.24,3,3,0,0,1-2.19,3.67,3.25,3.25,0,0,1-1.72-.11Z"/><path class="cls-1" d="M82.15,370.72a2.91,2.91,0,0,1-1.86-1.81,3.1,3.1,0,0,1,0-2.32,3,3,0,0,1,5.56.14,3.1,3.1,0,0,1,0,2.32A3,3,0,0,1,82.15,370.72Zm-3.25-8.5A3,3,0,0,1,77,358.43v0h0a3,3,0,0,1,1.8-1.87,3.11,3.11,0,0,1,3.9,1.76A3,3,0,0,1,81,362.18h0A3,3,0,0,1,78.9,362.22Zm-3.2-8.44A3,3,0,0,1,73.78,350h0a2.85,2.85,0,0,1,1.82-1.85,3.09,3.09,0,0,1,3.89,4.08,3,3,0,0,1-1.71,1.57,3.77,3.77,0,0,1-2,0Zm-3.25-8.49a3.26,3.26,0,0,1-1.9-1.76,3.18,3.18,0,0,1,.09-2.37,3,3,0,0,1,3.92-1.55h.07a2.9,2.9,0,0,1,1.58,1.66,3,3,0,0,1-1.69,3.89h0a2.71,2.71,0,0,1-2,.05ZM69.2,336.8A2.91,2.91,0,0,1,67.34,335,3,3,0,0,1,73,333.07a3,3,0,0,1-.07,2.1,3.11,3.11,0,0,1-3.76,1.63ZM66,328.35a2.92,2.92,0,0,1-1.9-1.82,3,3,0,1,1,5.57-2.18,3,3,0,0,1-1.67,3.9h0a2.87,2.87,0,0,1-2,0Zm-3.24-8.49a2.91,2.91,0,0,1-1.86-1.81,3,3,0,1,1,5.66-2.13,3.06,3.06,0,0,1,0,2.32,2.85,2.85,0,0,1-1.71,1.57,3.06,3.06,0,0,1-2.09.05Zm-3.25-8.5a2.86,2.86,0,0,1-1.88-1.83,3,3,0,1,1,5.53-2.46c.05.12.1.25.14.38a3.28,3.28,0,0,1,0,2.27,3,3,0,0,1-1.71,1.57,2.87,2.87,0,0,1-2,0Z"/><path class="cls-1" d="M54.12,424.13A3.11,3.11,0,0,1,52,421.3a3,3,0,0,1,2.88-3.06H55a3,3,0,0,1,.16,6H55a2.59,2.59,0,0,1-1-.1ZM54,415.05a3.1,3.1,0,0,1-2.09-2.82,3,3,0,0,1,2.93-3h0a3,3,0,0,1,.1,6h0a5.57,5.57,0,0,1-1-.22ZM53.81,406a3.08,3.08,0,0,1-2.08-2.78,2.93,2.93,0,0,1,2.77-3.1h.18a3,3,0,0,1,.12,6h0a2.65,2.65,0,0,1-1-.19Zm-.18-9.07a3,3,0,0,1-1.93-3.78l0-.05h0a3,3,0,0,1,5.85,1,3,3,0,0,1-3,3.07h0a8.37,8.37,0,0,1-1-.18Zm-.19-9.07a3.1,3.1,0,0,1-2.08-2.78,3,3,0,0,1,.83-2.18,2.83,2.83,0,0,1,2.14-.93,3.11,3.11,0,0,1,3.11,3A3,3,0,0,1,54.6,388h-.14a4.61,4.61,0,0,1-1-.17Zm-.13-9.08a3.12,3.12,0,0,1-2.1-2.83,3,3,0,1,1,5.16,2,3.25,3.25,0,0,1-2.1.93,4,4,0,0,1-1-.1Zm-.19-9.07a3,3,0,1,1,1,.14h0a4.4,4.4,0,0,1-1-.14ZM53,360.62a3.12,3.12,0,0,1-2.09-2.84,3,3,0,0,1,2.92-3h.06a3,3,0,1,1,.15,6,8.37,8.37,0,0,1-1-.18Zm-.23-9.09a3,3,0,0,1,.89-5.87,3.09,3.09,0,0,1,3.1,3,3,3,0,0,1-2.94,3h-.06a3.76,3.76,0,0,1-1-.13Zm-.19-9a3.13,3.13,0,0,1-2.08-2.84,3,3,0,0,1,2.88-3.06h.09a3,3,0,0,1,.32,6.05h-.18c-.34-.05-.67-.11-1-.19Z"/><path class="cls-1" d="M47.93,300l10.9.1,16.4-16.2,27,27.3.3-43.4-21.6-21.93s11-21.6,11.3-70.5S54.71,93.84,54.71,93.84s-38.3,32.3-38.6,81.2,10.4,70.6,10.4,70.6l-21.8,21.6-.3,43.4,27.3-27L47.91,300Zm-15.5-124.9a21.7,21.7,0,1,1,21.63,21.77h0a21.76,21.76,0,0,1-21.63-21.77Z"/><path class="cls-1" d="M88.13,80.64a49.14,49.14,0,0,0,4.61-3.2A43.37,43.37,0,0,0,39,9.37a45.45,45.45,0,0,0-4.51,4.16A52.65,52.65,0,0,1,90.15,63h0A53.62,53.62,0,0,1,88.13,80.64Z"/><polygon class="cls-2" points="9.48 40.27 12.78 51.08 5.78 59.88 17.08 60.08 23.28 69.38 26.88 58.77 37.78 55.67 28.78 48.98 29.18 37.67 19.98 44.17 9.48 40.27"/><path class="cls-3" d="M23.43,70.53l-6.62-9.92-12-.22L12.27,51,8.71,39.46l11.2,4.16,9.8-6.93-.42,12.05,9.6,7.15-11.62,3.3ZM6.8,59.4l10.55.19,5.78,8.67,3.36-9.89,10.18-2.84-8.4-6.25.37-10.56-8.59,6.07-9.8-3.64,3.08,10.09Z"/><polygon class="cls-2" points="10.43 102.23 12.43 96.53 18.23 94.94 13.33 91.23 13.63 85.23 8.63 88.73 3.03 86.64 4.83 92.44 1.03 97.14 7.13 97.23 10.43 102.23"/><path class="cls-3" d="M10.57,103.35,6.86,97.73,0,97.62l4.28-5.29-2-6.52,6.31,2.37,5.62-3.94L13.88,91l5.49,4.15L12.85,97Zm-8.5-6.7,5.34.09,2.89,4.38,1.75-5,5.07-1.4-4.3-3.19.26-5.25-4.38,3L3.81,87.46l1.58,5.07Z"/><path class="cls-3" d="M83.43,188.74h-1c-2-7.2-1.4-19.7,1.6-30.8a107.32,107.32,0,0,1,10.9-25.6c-30.6-20.5-33.8-53.3-38-65a5.09,5.09,0,0,0,2-4.1,5.54,5.54,0,0,0-4.6-5.4V63h0v5.6l.2,66.6a9.6,9.6,0,0,1,8.7,9.5,9.5,9.5,0,1,1-10.5-9.5l-.2-66.6V63h0v-5.2a5.32,5.32,0,0,0-4.5,5.4,5.49,5.49,0,0,0,2,4.1c-4.1,11.7-7,44.5-37.6,65a113.24,113.24,0,0,1,11.1,25.9c3,10.9,3.6,23.5,1.8,30.6h-1a3.68,3.68,0,0,0-3.6,3.7v.1a3.51,3.51,0,0,0,3.4,3.6h.2l59.1-.2h0a3.65,3.65,0,0,0,0-7.3Z"/><path class="cls-2" d="M24.23,197.3H24.1a4.57,4.57,0,0,1-4.43-4.69h0v-.08a4.75,4.75,0,0,1,4.64-4.77h.18c1.55-7.22.75-19.31-2-29.25a112.9,112.9,0,0,0-11-25.64L11,132l.83-.56C36.73,114.76,43,89.85,46.82,75c.71-2.84,1.34-5.33,2-7.33A6.49,6.49,0,0,1,47,63.26a6.36,6.36,0,0,1,5.4-6.47l.9-.14v-.12h.33l.92.16A6.63,6.63,0,0,1,60,63.22a6.23,6.23,0,0,1-1.83,4.44c.67,2,1.32,4.49,2.07,7.33,3.88,14.88,10.39,39.78,35.29,56.46l.83.56-.51.87a106.14,106.14,0,0,0-10.79,25.34c-2.8,10.36-3.51,22.28-1.8,29.45h.18a4.72,4.72,0,0,1,0,9.43Zm.1-7.4a2.61,2.61,0,0,0-2.53,2.63v.11a2.42,2.42,0,0,0,2.33,2.52h.2l59.1-.2a2.59,2.59,0,0,0,0-5.17H81.62l-.21-.78C79.32,181.53,80,168.91,83,157.66a108.5,108.5,0,0,1,10.5-25C68.63,115.53,62.1,90.53,58.17,75.53c-.81-3.12-1.52-5.82-2.24-7.83L55.67,67l.62-.48a4.08,4.08,0,0,0,1.58-3.24,4.47,4.47,0,0,0-2.47-4v9.34l.2,65.67a10.47,10.47,0,1,1-3.92,0l-.2-65.68V59.28a4.23,4.23,0,0,0-2.37,3.93,4.34,4.34,0,0,0,1.6,3.32l.58.47-.25.71c-.7,2-1.38,4.69-2.17,7.81-3.79,15-10.12,40-35,57.16A115.34,115.34,0,0,1,24.58,158c3,10.82,3.72,23.63,1.81,31.16l-.21.8ZM53.6,136.22l-.75.08a8.43,8.43,0,1,0,9.32,8.43,8.54,8.54,0,0,0-7.74-8.43Z"/></g></g></g></g></g></svg>