<svg xmlns="http://www.w3.org/2000/svg" xmlns:xlink="http://www.w3.org/1999/xlink" viewBox="0 0 290 541.35"><defs><style>.cls-1{fill:none;}.cls-2{fill:#fff;}.cls-3{fill:#78c8cf;}.cls-4{clip-path:url(#clip-path);}.cls-5{clip-path:url(#clip-path-2);}</style><clipPath id="clip-path" transform="translate(-3.62)"><rect class="cls-1" y="262.39" width="289" height="277"/></clipPath><clipPath id="clip-path-2" transform="translate(-3.62)"><rect class="cls-1" x="4.62" y="263.35" width="289" height="277"/></clipPath></defs><title>Fichier 2</title><g id="Calque_2" data-name="Calque 2"><g id="Calque_1-2" data-name="Calque 1"><path class="cls-2" d="M293.62,0H4.62V264.7h289Z" transform="translate(-3.62)"/><path class="cls-3" d="M205.74,303.84c7.36,4.82,20.38,9.91,32.84,9.91,18.11,0,26.6-9.05,26.6-20.38,0-11.89-7.07-18.4-25.47-25.19-24.63-8.78-36.24-22.36-36.24-38.78,0-22.08,17.84-40.19,47.28-40.19,13.87,0,26,4,33.68,8.49l-6.23,18.12a53.16,53.16,0,0,0-28-7.93c-14.72,0-22.93,8.49-22.93,18.68,0,11.32,8.21,16.41,26,23.21,23.78,9.06,36,20.94,36,41.32,0,24.07-18.68,41-51.23,41-15,0-28.87-3.68-38.5-9.34Z" transform="translate(-3.62)"/><path class="cls-3" d="M292.62,263.75H3.62v277.6h289Z" transform="translate(-3.62)"/><g class="cls-4"><path class="cls-2" d="M205.5,303.56c7.36,4.81,20.38,9.91,32.83,9.91,18.12,0,26.61-9.06,26.61-20.38,0-11.89-7.08-18.4-25.48-25.2-24.62-8.77-36.23-22.36-36.23-38.78,0-22.08,17.83-40.19,47.27-40.19,13.87,0,26.05,4,33.69,8.49L278,215.53a53.25,53.25,0,0,0-28-7.93c-14.72,0-22.93,8.5-22.93,18.68,0,11.33,8.21,16.42,26,23.21,23.78,9.06,35.95,20.95,35.95,41.33,0,24.06-18.68,41.05-51.23,41.05-15,0-28.88-3.68-38.5-9.35Z" transform="translate(-3.62)"/></g><path class="cls-3" d="M96,277.39c-12.2-3.2-24.09-6.81-34.62-10.44a17.45,17.45,0,0,0-5.5-1.34c-21.43-.8-39.8-16.56-39.8-45.69s17.69-47.56,42.07-47.56,40.47,19,40.47,45.7c0,23.16-10.72,38-25.73,43.26v.54c9,2.27,18.76,4.43,26.4,5.77Zm-9.65-58.81c0-18.06-9.38-36.71-28.6-36.71-19.69,0-29.34,18.23-29.2,37.78,0,19.17,10.53,36.45,28.73,36.45C75.87,256.1,86.32,239.22,86.32,218.58Z" transform="translate(-3.62)"/><g class="cls-5"><path class="cls-2" d="M94.61,276.89c-12.11-3.2-23.92-6.79-34.39-10.38a17.08,17.08,0,0,0-5.45-1.33c-21.29-.81-39.53-16.45-39.53-45.37s17.57-47.25,41.86-47.25,40.17,18.93,40.17,45.38c0,23-10.64,37.79-25.55,43v.52c9,2.28,18.63,4.4,26.21,5.73ZM85,218.4C85,200.46,75.71,182,56.62,182c-19.55,0-29.14,18.09-29,37.53-.14,19,10.37,36.19,28.4,36.19C74.65,255.78,85,239,85,218.4Z" transform="translate(-3.62)"/><path class="cls-2" d="M138.84,207.79c.09,2.67-1.87,4.81-5,4.81a4.65,4.65,0,0,1-4.71-4.59v-.22a4.76,4.76,0,0,1,4.63-4.89,1.13,1.13,0,0,1,.26,0,4.64,4.64,0,0,1,4.82,4.47A2.94,2.94,0,0,1,138.84,207.79ZM130.11,263V219.9H138V263Z" transform="translate(-3.62)"/></g><path class="cls-3" d="M158.5,247.57c0,6.7.14,12.6.55,17.69H148.6l-.68-10.54h-.25a24.42,24.42,0,0,1-21.45,12c-10.18,0-22.37-5.63-22.37-28.4v-38h11.78v35.92c0,12.31,3.75,20.62,14.47,20.62a17,17,0,0,0,15.55-10.72,17.44,17.44,0,0,0,1.07-6v-39.8H158.5Z" transform="translate(-3.62)"/><path class="cls-3" d="M186.86,182.2c.14,4-2.81,7.22-7.52,7.22a7,7,0,0,1-7.11-6.89v-.33a7.2,7.2,0,0,1,7-7.38h.35a7,7,0,0,1,7.28,6.71C186.88,181.75,186.87,182,186.86,182.2Zm-13.12,83.06V200.41H185.6v64.85Z" transform="translate(-3.62)"/><path class="cls-2" d="M107.82,294.64a11.46,11.46,0,0,0,5.82,1.76c3.21,0,4.72-1.61,4.72-3.62s-1.26-3.26-4.52-4.47c-4.37-1.55-6.42-4-6.42-6.87,0-3.93,3.16-7.14,8.38-7.14a12.17,12.17,0,0,1,6,1.5L120.7,279a9.3,9.3,0,0,0-5-1.42c-2.61,0-4.07,1.52-4.07,3.32,0,2,1.46,2.92,4.62,4.12,4.22,1.61,6.38,3.72,6.38,7.33,0,4.27-3.32,7.29-9.09,7.29a13.79,13.79,0,0,1-6.83-1.67Z" transform="translate(-3.62)"/><path class="cls-2" d="M146.89,292.52c0,2.51,0,4.72.2,6.63h-3.92l-.25-4h-.1a9.16,9.16,0,0,1-8,4.52c-3.82,0-8.39-2.11-8.39-10.64V274.85h4.42V288.3c0,4.62,1.41,7.73,5.42,7.73a6.4,6.4,0,0,0,5.83-4,6.49,6.49,0,0,0,.4-2.26V274.85h4.42Z" transform="translate(-3.62)"/><path class="cls-2" d="M157.39,268a2.74,2.74,0,0,1-5.47,0,2.69,2.69,0,0,1,2.62-2.76h.14a2.62,2.62,0,0,1,2.71,2.52A1,1,0,0,1,157.39,268Zm-4.92,31.15V274.85h4.42v24.32Z" transform="translate(-3.62)"/><path class="cls-2" d="M161.85,294.63a11.66,11.66,0,0,0,5.82,1.76c3.21,0,4.72-1.61,4.72-3.62s-1.26-3.26-4.52-4.47c-4.37-1.55-6.42-4-6.42-6.87,0-3.92,3.16-7.13,8.38-7.13a12.12,12.12,0,0,1,6,1.5l-1.1,3.22a9.41,9.41,0,0,0-5-1.41c-2.61,0-4.07,1.51-4.07,3.31,0,2,1.46,2.92,4.62,4.12,4.22,1.61,6.38,3.72,6.38,7.33,0,4.27-3.32,7.28-9.09,7.28a13.79,13.79,0,0,1-6.83-1.7Z" transform="translate(-3.62)"/><path class="cls-2" d="M190.81,284v3.26h-12.4V284Z" transform="translate(-3.62)"/><path class="cls-2" d="M188.3,306.18a7.16,7.16,0,0,0,4.82-1.86c1.21-1.41,1.66-3.32,1.66-9.14V274.85h4.46v22c0,4.72-.75,7.78-2.91,10a11.2,11.2,0,0,1-7.53,2.76ZM199.7,268a2.58,2.58,0,0,1-2.46,2.71h-.3a2.63,2.63,0,0,1-2.71-2.55V268a2.69,2.69,0,0,1,2.64-2.76H197a2.6,2.6,0,0,1,2.66,2.55V268Z" transform="translate(-3.62)"/><path class="cls-2" d="M206.78,287.8c.1,6,3.92,8.44,8.33,8.44a16.05,16.05,0,0,0,6.73-1.29l.75,3.16a19.65,19.65,0,0,1-8.08,1.51c-7.48,0-12-4.92-12-12.25s4.32-13.1,11.4-13.1c7.93,0,10,7,10,11.44a17.68,17.68,0,0,1-.15,2.06Zm13-3.16c0-2.81-1.15-7.18-6.12-7.18-4.47,0-6.43,4.12-6.78,7.18Z" transform="translate(-3.62)"/><path class="cls-2" d="M196.55,362.3c-8.58,0-14.67-6.64-14.67-14.94a14.85,14.85,0,0,1,14.46-15.21h.76c9.13,0,14.94,6.64,14.94,15.21.27,8.3-5.81,14.94-15.49,14.94" transform="translate(-3.62)"/></g></g></svg>