<svg xmlns="http://www.w3.org/2000/svg" viewBox="0 0 79.28 87.57"><defs><style>.cls-1{fill:#fff;}</style></defs><title>Fichier 3</title><g id="Calque_2" data-name="Calque 2"><g id="Calque_1-2" data-name="Calque 1"><path class="cls-1" d="M51.29,87.57h0A27.78,27.78,0,0,1,24,61.32.72.72,0,0,1,24,61l.07-11,.13-18.21,0-4.82-6.54,0a.59.59,0,0,1-.52-.31.6.6,0,0,1-.08-.29.56.56,0,0,1,.09-.31L33,.29A.61.61,0,0,1,33.5,0,.6.6,0,0,1,34,.29L49.48,26.23a.61.61,0,0,1,0,.61.6.6,0,0,1-.52.3l-6.54-.05,0,4.82-.12,18.21-.07,9.6a9.28,9.28,0,0,0,9.38,9.64,9.59,9.59,0,1,0,0-19.17l-6.77,0,.13-18.21,7.73.05.13,0a27.79,27.79,0,0,1-1.18,55.56h-.3Z"/><path class="cls-1" d="M21.7,31.77,21.58,50,1,49.84a1,1,0,0,1-1-1l.11-16.2a1,1,0,0,1,1-1Z"/></g></g></svg>