<svg xmlns="http://www.w3.org/2000/svg" viewBox="0 0 100.99 513.05"><defs><style>.cls-1,.cls-2{fill:#78c8cf;}.cls-2{stroke:#fff;stroke-miterlimit:10;}.cls-3{fill:#fff;}</style></defs><title>Fichier 3</title><g id="Calque_2" data-name="Calque 2"><g id="Calque_1-2" data-name="Calque 1"><circle class="cls-1" cx="50.5" cy="50.5" r="50.5"/><g id="Calque_2-2-2" data-name="Calque 2-2-2"><g id="Calque_1-2-2-2" data-name="Calque 1-2-2-2"><g id="Calque_1-2-2-2-2" data-name="Calque 1-2-2-2-2"><path class="cls-2" d="M22.6,449.6l-.18-.1a3,3,0,0,1-1.66-3.94,3.08,3.08,0,0,1,3.77-1.73,3,3,0,0,1,1.85,1.71,2.92,2.92,0,0,1,0,2.32A3,3,0,0,1,22.6,449.6Zm3.53-8.3-.24-.09a3,3,0,0,1-1.62-1.63,3.31,3.31,0,0,1,0-2.32A3,3,0,0,1,28,435.54a3.1,3.1,0,0,1,1.89,3.95v.05h0A3,3,0,0,1,26.13,441.3ZM29.65,433l-.23-.09a2.91,2.91,0,0,1-1.66-1.79,3.4,3.4,0,0,1,0-2.27,3.07,3.07,0,0,1,3.72-1.72,3.34,3.34,0,0,1,1.88,1.72,3,3,0,0,1-1.6,3.92h0a2.87,2.87,0,0,1-2,.13Zm3.52-8.35H33a3,3,0,1,1,2.09-5.7,3.24,3.24,0,0,1,1.86,1.7,2.92,2.92,0,0,1,0,2.32,3.15,3.15,0,0,1-3.78,1.71Zm3.59-8.41-.24-.09a3,3,0,0,1-1.62-3.93h0v-.07h0a3,3,0,0,1,3.9-1.65,3,3,0,0,1,1.66,1.65,3,3,0,0,1,0,2.33,3.13,3.13,0,0,1-3.71,1.75Zm3.47-8.32-.27-.07a3,3,0,0,1-1.67-3.9v-.1h0a3,3,0,1,1,5.83,1.63h0c-.08.22-.17.43-.27.64a3,3,0,0,1-3.71,1.8Zm3.53-8.35-.19-.09a3,3,0,0,1-1.67-1.63,2.84,2.84,0,0,1,0-2.32,3,3,0,1,1,1.86,3.9Z"/><path class="cls-2" d="M27.52,485a3,3,0,0,1-.61-5.47,2.67,2.67,0,0,1,2.27-.28h0a3,3,0,0,1,2.18,3.62A2.82,2.82,0,0,1,30,484.64a3.3,3.3,0,0,1-2.32.33l-.14-.05Zm2.24-8.82a3.1,3.1,0,0,1-1.9-3.84,2.8,2.8,0,0,1,1.35-1.63,2.75,2.75,0,0,1,2.26-.27h0a3,3,0,0,1,.75,5.52,3.3,3.3,0,0,1-2.32.33.85.85,0,0,1-.19-.1Zm2.36-8.75a3,3,0,0,1-2-3.74h0a3.06,3.06,0,0,1,3.78-2h0a3.05,3.05,0,1,1-1.58,5.9h0l-.19-.1Zm2.37-8.72a3,3,0,0,1,1.71-5.81h0a3,3,0,0,1-1.58,5.85h0Zm2.32-8.77a3,3,0,0,1-2-3.77h0a3,3,0,0,1,3.66-2,3.07,3.07,0,0,1,2.3,3.68h0a2.83,2.83,0,0,1-1.52,1.9A3,3,0,0,1,37,450h-.14Zm2.32-8.83a3,3,0,0,1-2-3.77h0a3,3,0,0,1,1.4-1.71,2.72,2.72,0,0,1,2.27-.33,3,3,0,0,1,2.2,3.62v.05h0a3.32,3.32,0,0,1-1.41,1.91,3.16,3.16,0,0,1-2.27.33l-.19-.1Zm2.32-8.77a3.05,3.05,0,0,1-1.89-3.85,3,3,0,0,1,3.61-1.9h0a3,3,0,0,1,2.15,3.65v.1h0a2.83,2.83,0,0,1-1.4,1.82,3.21,3.21,0,0,1-2.31.32Zm2.31-8.76a3,3,0,0,1-2-3.71h0a3,3,0,0,1,3.69-2.08h0a3,3,0,0,1,2.12,3.67v.11a3.3,3.3,0,0,1-1.39,1.81,3,3,0,0,1-2.32.28l-.09-.05Zm2.33-8.77a3,3,0,1,1,1.7-5.82h0a3.08,3.08,0,0,1,2.14,3.71,3,3,0,0,1-3.66,2.14H46Z"/><path class="cls-2" d="M70.26,476.65a3.12,3.12,0,0,1-2-2.09,3,3,0,0,1,2.09-3.66h0a3,3,0,0,1,3.78,1.92h0a3,3,0,0,1-.37,2.6,2.76,2.76,0,0,1-3.48,1.26ZM68,467.88a3.12,3.12,0,0,1-2-2.09,3,3,0,1,1,5.8-1.71v.22a2.83,2.83,0,0,1-.33,2.32A3,3,0,0,1,69.61,468a3,3,0,0,1-1.62-.09Zm-2.23-8.77a3.12,3.12,0,0,1-2-2.09,3,3,0,0,1,2.07-3.7h0a3,3,0,0,1,1.51,5.89h0a3.45,3.45,0,0,1-1.63-.09Zm-2.32-8.81a3.07,3.07,0,0,1-1.85-3.91,3,3,0,0,1,2-1.89,3.05,3.05,0,0,1,3.71,2.17,3,3,0,0,1-2.13,3.63h0a3.1,3.1,0,0,1-1.76,0Zm-2.32-8.77a3,3,0,0,1-1.94-3.78h0v-.05h0a1,1,0,0,1,.28-.55,2.9,2.9,0,0,1,1.85-1.39,3,3,0,0,1,3.74,2h0a3,3,0,0,1-.31,2.54,3.26,3.26,0,0,1-1.85,1.39,3.54,3.54,0,0,1-1.77-.09Zm-2.27-8.77a3,3,0,0,1-2-2.14,2.72,2.72,0,0,1,.33-2.27A2.89,2.89,0,0,1,59,427a3,3,0,0,1,3.72,2v.15a2.88,2.88,0,0,1-.33,2.27,3,3,0,0,1-1.9,1.43,3.14,3.14,0,0,1-1.72,0ZM56.58,424a3.16,3.16,0,0,1-2-2.1,3,3,0,0,1,2.09-3.69h.09a3.08,3.08,0,0,1,3.66,2.18,2.79,2.79,0,0,1-.32,2.27A3.19,3.19,0,0,1,56.55,424Zm-2.32-8.83a3,3,0,0,1-1.92-3.72v-.06c.1-.22.19-.41.28-.65a2.84,2.84,0,0,1,1.8-1.39,3,3,0,0,1,3.74,2v.06a3.12,3.12,0,0,1-.36,2.49,3,3,0,0,1-3.6,1.28ZM52,406.39a3.06,3.06,0,0,1-2-2.13,3,3,0,0,1,2.12-3.67h0a3.11,3.11,0,0,1,3.69,2.24,3,3,0,0,1-2.15,3.65h0a3.45,3.45,0,0,1-1.72-.11Z"/><path class="cls-2" d="M79.91,459a2.91,2.91,0,0,1-1.86-1.81,3.1,3.1,0,0,1,0-2.32A3,3,0,0,1,82,453.33a3,3,0,0,1,1.62,1.7,3.1,3.1,0,0,1,0,2.32A3,3,0,0,1,79.91,459Zm-3.25-8.5a3,3,0,0,1-1.9-3.79h0a3,3,0,0,1,1.8-1.87,3.11,3.11,0,0,1,3.9,1.76,3,3,0,0,1-1.7,3.86h0A3,3,0,0,1,76.66,450.52Zm-3.2-8.44a3,3,0,0,1-1.92-3.78h0a2.76,2.76,0,0,1,1.82-1.85,3.09,3.09,0,0,1,3.94,1.88,3.14,3.14,0,0,1,0,2.2,3,3,0,0,1-1.71,1.57,3.77,3.77,0,0,1-2,0Zm-3.25-8.49a3.26,3.26,0,0,1-1.9-1.76,3.14,3.14,0,0,1,.09-2.37,3,3,0,0,1,3.92-1.55h.07A2.9,2.9,0,0,1,74,429.57a3,3,0,0,1-1.69,3.89h0a2.76,2.76,0,0,1-2,0ZM67,425.1a2.9,2.9,0,0,1-1.86-1.8,3,3,0,1,1,5.59.17,3.13,3.13,0,0,1-3.76,1.63Zm-3.2-8.45a2.92,2.92,0,0,1-1.9-1.82,3,3,0,0,1,5.4-2.62h0c.06.14.12.29.17.44a3,3,0,0,1-1.67,3.9h0a2.87,2.87,0,0,1-2,0Zm-3.24-8.49a2.91,2.91,0,0,1-1.86-1.81,3,3,0,1,1,5.66-2.13,3.1,3.1,0,0,1,0,2.32,2.91,2.91,0,0,1-1.71,1.57,3.12,3.12,0,0,1-2.09.05Zm-3.25-8.5a2.84,2.84,0,0,1-1.88-1.83,3,3,0,1,1,5.53-2.46c0,.12.1.25.14.38a3.28,3.28,0,0,1,0,2.27,3,3,0,0,1-1.71,1.57,2.87,2.87,0,0,1-2,0Z"/><path class="cls-2" d="M51.88,512.43a3.11,3.11,0,0,1-2.12-2.83,3,3,0,0,1,2.88-3.06h.12a3,3,0,1,1,.16,6h-.16a2.8,2.8,0,0,1-1-.1Zm-.12-9.08a3.09,3.09,0,0,1-2.09-2.82,3,3,0,0,1,2.93-3h0a3,3,0,1,1,.1,6h0a6.59,6.59,0,0,1-1-.22Zm-.19-9.05a3.1,3.1,0,0,1-2.08-2.78,2.91,2.91,0,0,1,2.72-3.1h.23a3,3,0,1,1,.12,6h0a2.78,2.78,0,0,1-1-.19Zm-.18-9.07a3,3,0,0,1-1.94-3.78h0a3,3,0,1,1,2.92,4.06h-.07a8,8,0,0,1-1-.18Zm-.19-9.07a3.1,3.1,0,0,1-2.08-2.78A3,3,0,0,1,50,471.2a2.76,2.76,0,0,1,2.14-.93,3.1,3.1,0,0,1,3.11,3,3,3,0,0,1-2.84,3h-.14a4.75,4.75,0,0,1-1-.17Zm-.13-9.08a3.1,3.1,0,0,1-2.1-2.83,3,3,0,1,1,6-.16,3,3,0,0,1-.83,2.16,3.34,3.34,0,0,1-2.1.93,4.71,4.71,0,0,1-1-.1ZM50.88,458a3,3,0,1,1,1,.14h0A4.73,4.73,0,0,1,50.88,458Zm-.12-9.09a3.11,3.11,0,0,1-2.09-2.84,3,3,0,0,1,2.92-3h.06a3,3,0,0,1,.15,6,8,8,0,0,1-1-.18Zm-.23-9.09a3,3,0,0,1,.89-5.87,3.09,3.09,0,0,1,3.1,3,3,3,0,0,1-2.94,3h-.06a4.15,4.15,0,0,1-1-.13Zm-.19-9A3.11,3.11,0,0,1,48.26,428a3,3,0,0,1,2.88-3.06h.09a3,3,0,0,1,.32,6.05h-.18c-.34-.05-.67-.11-1-.19Z"/><path class="cls-2" d="M45.69,388.3l10.9.1L73,372.2l27,27.3.3-43.4-21.6-21.93s11-21.6,11.3-70.5-37.52-81.53-37.52-81.53-38.3,32.3-38.6,81.2,10.4,70.6,10.4,70.6l-21.8,21.6-.3,43.4,27.3-27,16.2,16.36ZM30.19,263.4a21.7,21.7,0,1,1,21.63,21.77h0A21.75,21.75,0,0,1,30.19,263.4Z"/><polygon class="cls-1" points="66.56 127.45 69.86 138.26 62.86 147.06 74.16 147.26 80.36 156.56 83.96 145.95 94.86 142.84 85.86 136.16 86.26 124.84 77.06 131.34 66.56 127.45"/><polygon class="cls-1" points="21.34 182.02 23.34 176.33 29.14 174.74 24.24 171.02 24.54 165.02 19.54 168.52 13.94 166.44 15.74 172.24 11.94 176.94 18.04 177.02 21.34 182.02"/><path class="cls-3" d="M81.19,277h-1c-2-7.2-1.4-19.7,1.6-30.8a106.92,106.92,0,0,1,10.9-25.6c-30.6-20.5-33.8-53.3-38-65a5.14,5.14,0,0,0,2-4.1,5.54,5.54,0,0,0-4.6-5.4v5.16h0v5.6l.2,66.6a9.37,9.37,0,1,1-1.85,0l-.2-66.6v-5.6h0v-5.2a5.31,5.31,0,0,0-4.48,5.4,5.49,5.49,0,0,0,2,4.1c-4.1,11.7-7,44.5-37.6,65a113.62,113.62,0,0,1,11.1,25.9c3,10.9,3.6,23.5,1.8,30.6h-1a3.67,3.67,0,0,0-3.6,3.7v.1a3.5,3.5,0,0,0,3.4,3.6h.2l59.1-.2h0a3.65,3.65,0,0,0,0-7.3Z"/><path class="cls-1" d="M22,285.6h-.13a4.57,4.57,0,0,1-4.43-4.69h0v-.08a4.74,4.74,0,0,1,4.64-4.77h.18c1.55-7.22.75-19.31-2-29.25a113.35,113.35,0,0,0-11-25.64l-.49-.87.83-.56c24.9-16.68,31.17-41.59,35-56.44.71-2.84,1.34-5.33,2-7.33a6.45,6.45,0,0,1-1.82-4.41,6.35,6.35,0,0,1,5.4-6.47l.9-.14v-.12h.33l.92.16a6.64,6.64,0,0,1,5.45,6.53A6.32,6.32,0,0,1,55.93,156c.67,2,1.32,4.49,2.07,7.33,3.88,14.88,10.39,39.78,35.29,56.46l.83.56-.51.87a105.73,105.73,0,0,0-10.79,25.34C80,256.88,79.31,268.8,81,276h.18a4.72,4.72,0,0,1,0,9.43Zm.1-7.4a2.6,2.6,0,0,0-2.53,2.63v.11a2.4,2.4,0,0,0,2.3,2.51h.23l59.1-.2a2.59,2.59,0,0,0,0-5.17H79.38l-.21-.78c-2.09-7.48-1.41-20.1,1.59-31.35a108.06,108.06,0,0,1,10.5-25c-24.87-17.12-31.4-42.12-35.33-57.12-.81-3.12-1.52-5.82-2.24-7.83l-.26-.7.62-.48a4.14,4.14,0,0,0,1.58-3.24,4.46,4.46,0,0,0-2.47-4v9.34l.2,65.67a10.48,10.48,0,1,1-3.92,0l-.2-65.68v-9.33a4.21,4.21,0,0,0-2.37,3.93,4.34,4.34,0,0,0,1.6,3.32l.58.47-.25.71c-.7,2-1.38,4.69-2.17,7.81-3.79,15-10.12,40-35,57.16A115.65,115.65,0,0,1,22.34,246.3c3,10.82,3.72,23.63,1.81,31.16l-.21.8Zm29.27-53.68-.75.08A8.43,8.43,0,1,0,59.93,233a8.54,8.54,0,0,0-7.74-8.43Z"/></g></g></g><path class="cls-3" d="M11.2,78.79,50,7.52,88.89,78.79,50,66Z"/></g></g></svg>