<svg xmlns="http://www.w3.org/2000/svg" viewBox="0 0 109.14 782.91"><defs><style>.cls-1,.cls-2{fill:#78c8cf;}.cls-1{stroke:#fff;stroke-miterlimit:10;}.cls-3{fill:#fff;}</style></defs><title>Fichier 4</title><g id="Calque_2" data-name="Calque 2"><g id="Calque_1-2" data-name="Calque 1"><g id="Calque_2-2" data-name="Calque 2"><g id="Calque_1-2-2" data-name="Calque 1-2"><g id="Calque_2-2-2" data-name="Calque 2-2"><g id="Calque_1-2-2-2" data-name="Calque 1-2-2"><g id="Calque_1-2-2-2-2" data-name="Calque 1-2-2-2"><path class="cls-1" d="M24.84,361.3l-.18-.1A3.05,3.05,0,0,1,23,357.26a3.09,3.09,0,0,1,3.77-1.73,3,3,0,0,1,1.85,1.71,2.92,2.92,0,0,1,0,2.32A3,3,0,0,1,24.84,361.3Zm3.53-8.3-.24-.09a3,3,0,0,1-1.62-1.63,3.31,3.31,0,0,1,0-2.32,3,3,0,0,1,3.71-1.72,3.1,3.1,0,0,1,1.88,4v0h0A3,3,0,0,1,28.37,353Zm3.52-8.32-.23-.09A2.91,2.91,0,0,1,30,342.8a3.4,3.4,0,0,1,0-2.27,3.07,3.07,0,0,1,3.72-1.72,3.31,3.31,0,0,1,1.88,1.72,3,3,0,0,1-1.6,3.92h0a2.87,2.87,0,0,1-2,.13Zm3.52-8.35h-.18a3,3,0,1,1,2.09-5.7,3.24,3.24,0,0,1,1.86,1.7,2.92,2.92,0,0,1,0,2.32,3.14,3.14,0,0,1-3.78,1.71ZM39,327.92l-.24-.09a3,3,0,0,1-1.61-3.93h0v-.07h0a3,3,0,0,1,5.56,0,2.87,2.87,0,0,1,0,2.33A3.12,3.12,0,0,1,39,327.91Zm3.47-8.32-.27-.07a3,3,0,0,1-1.67-3.9v-.1h0a3,3,0,1,1,5.83,1.63h0a4,4,0,0,1-.27.64,3,3,0,0,1-3.71,1.8ZM46,311.25l-.19-.09a3,3,0,0,1-1.67-1.63,2.84,2.84,0,0,1,0-2.32,3,3,0,1,1,1.86,3.9Z"/><path class="cls-1" d="M29.76,396.66a3,3,0,0,1-.61-5.47,2.68,2.68,0,0,1,2.27-.28h0a3,3,0,0,1,2.18,3.62,2.79,2.79,0,0,1-1.39,1.81,3.28,3.28,0,0,1-2.32.33l-.14-.05ZM32,387.84A3.1,3.1,0,0,1,30.1,384a2.87,2.87,0,0,1,1.35-1.63,2.76,2.76,0,0,1,2.26-.27h0a3,3,0,0,1,2.18,3.63,3,3,0,0,1-1.43,1.89,3.28,3.28,0,0,1-2.32.33.88.88,0,0,1-.19-.1Zm2.36-8.75a3,3,0,0,1-2-3.74h0a3.07,3.07,0,0,1,3.78-2h0a3.05,3.05,0,1,1-1.58,5.9h0l-.19-.1Zm2.37-8.72a3,3,0,0,1-2-3.63,3,3,0,0,1,1.39-1.86,3,3,0,0,1,2.32-.32h0a3,3,0,1,1-1.58,5.85h0Zm2.32-8.77a3,3,0,0,1-1.94-3.78h0a3,3,0,0,1,3.66-2,3.07,3.07,0,0,1,2.3,3.68h0a2.8,2.8,0,0,1-1.52,1.9,2.94,2.94,0,0,1-2.32.28h-.14Zm2.32-8.83A3,3,0,0,1,39.42,349h0a3,3,0,0,1,1.4-1.71,2.72,2.72,0,0,1,2.27-.33,3,3,0,0,1,2.2,3.62v.05h0a3.23,3.23,0,0,1-1.41,1.91,3.16,3.16,0,0,1-2.27.33l-.19-.1ZM43.69,344a3.06,3.06,0,0,1-1.89-3.85,3,3,0,0,1,3.61-1.9h0a3,3,0,0,1,2.15,3.65v.1h0a2.77,2.77,0,0,1-1.4,1.82,3.21,3.21,0,0,1-2.31.32ZM46,335.24a3,3,0,0,1-2-3.71h0a3,3,0,0,1,3.7-2.08h0a3,3,0,0,1,2.12,3.67v.11a3.26,3.26,0,0,1-1.39,1.81,2.94,2.94,0,0,1-2.32.28l-.09-.05Zm2.33-8.77a3,3,0,0,1,1.7-5.82h0a3.07,3.07,0,0,1,2.14,3.71,3,3,0,0,1-3.66,2.14h-.23Z"/><path class="cls-1" d="M72.5,388.35a3.12,3.12,0,0,1-2-2.09,3,3,0,0,1,2.09-3.66h0a3,3,0,0,1,3.78,1.92h0a3,3,0,0,1-.37,2.6,2.75,2.75,0,0,1-3.48,1.26Zm-2.27-8.77a3.12,3.12,0,0,1-2-2.09,3,3,0,1,1,5.8-1.71V376a2.83,2.83,0,0,1-.33,2.32,3,3,0,0,1-1.85,1.39,3,3,0,0,1-1.62-.09ZM68,370.81a3.12,3.12,0,0,1-2-2.09,3,3,0,0,1,2.08-3.7h0a3,3,0,1,1,1.51,5.89h0a3.34,3.34,0,0,1-1.63-.09ZM65.68,362a3.08,3.08,0,0,1-1.85-3.91,3,3,0,0,1,2-1.89,3.05,3.05,0,0,1,3.71,2.17A3,3,0,0,1,67.41,362h0a3.1,3.1,0,0,1-1.76,0Zm-2.32-8.77a3,3,0,0,1-1.93-3.78h0v-.05h0a1.11,1.11,0,0,1,.28-.55,2.93,2.93,0,0,1,1.85-1.39,3,3,0,0,1,3.75,2v0A3,3,0,0,1,67,352a3.2,3.2,0,0,1-1.85,1.39,3.54,3.54,0,0,1-1.77-.09Zm-2.27-8.77a3,3,0,0,1-2-2.14,2.79,2.79,0,0,1,.33-2.27,2.91,2.91,0,0,1,1.85-1.4A3,3,0,0,1,65,340.7s0,.05,0,.08v.05a2.8,2.8,0,0,1-.33,2.27,2.94,2.94,0,0,1-1.9,1.43,3.14,3.14,0,0,1-1.72,0Zm-2.27-8.77a3.16,3.16,0,0,1-2-2.1,3,3,0,0,1,2.1-3.69l.08,0a3.08,3.08,0,0,1,3.66,2.18,2.76,2.76,0,0,1-.32,2.27,3.19,3.19,0,0,1-3.55,1.39Zm-2.32-8.83a3,3,0,0,1-1.92-3.72v-.06c.1-.22.19-.41.28-.65a2.86,2.86,0,0,1,1.8-1.39,3,3,0,0,1,3.74,2v.06a3.08,3.08,0,0,1-.36,2.49,3,3,0,0,1-3.6,1.28Zm-2.27-8.77a3.1,3.1,0,0,1-2-2.13,3,3,0,0,1,2.13-3.67h0a3.11,3.11,0,0,1,3.69,2.24,3,3,0,0,1-2.15,3.65l0,0a3.35,3.35,0,0,1-1.72-.11Z"/><path class="cls-1" d="M82.15,370.72a2.91,2.91,0,0,1-1.86-1.81,3.1,3.1,0,0,1,0-2.32,3,3,0,0,1,5.56.14,3.1,3.1,0,0,1,0,2.32A3,3,0,0,1,82.15,370.72Zm-3.25-8.5a3,3,0,0,1-1.9-3.79h0a3,3,0,0,1,1.8-1.87,3.11,3.11,0,0,1,3.9,1.76,3,3,0,0,1-1.7,3.86h0A3,3,0,0,1,78.9,362.22Zm-3.2-8.44A3,3,0,0,1,73.78,350h0a2.8,2.8,0,0,1,1.82-1.85,3.09,3.09,0,0,1,3.89,4.08,3,3,0,0,1-1.71,1.57,3.77,3.77,0,0,1-2,0Zm-3.25-8.49a3.26,3.26,0,0,1-1.9-1.76,3.18,3.18,0,0,1,.09-2.37,3,3,0,0,1,3.92-1.55h.07a2.9,2.9,0,0,1,1.58,1.66,3,3,0,0,1-1.69,3.89h0a2.76,2.76,0,0,1-2,0ZM69.2,336.8a2.92,2.92,0,0,1-1.86-1.8,3,3,0,1,1,5.59.17,3.13,3.13,0,0,1-3.76,1.63ZM66,328.35a2.94,2.94,0,0,1-1.9-1.82,3,3,0,0,1,5.4-2.62,2.87,2.87,0,0,1,.17.44,3,3,0,0,1-1.67,3.9h0a2.87,2.87,0,0,1-2,0Zm-3.24-8.49a2.91,2.91,0,0,1-1.86-1.81,3,3,0,1,1,5.66-2.13,3.1,3.1,0,0,1,0,2.32,2.85,2.85,0,0,1-1.71,1.57A3.12,3.12,0,0,1,62.76,319.86Zm-3.25-8.5a2.86,2.86,0,0,1-1.88-1.83,3,3,0,1,1,5.53-2.46c.05.12.1.25.14.38a3.28,3.28,0,0,1,0,2.27,3,3,0,0,1-1.71,1.57,2.87,2.87,0,0,1-2,0Z"/><path class="cls-1" d="M54.12,424.13A3.12,3.12,0,0,1,52,421.3a3,3,0,0,1,2.88-3.06H55a3,3,0,0,1,.16,6H55a2.8,2.8,0,0,1-1-.1ZM54,415.05a3.11,3.11,0,0,1-2.09-2.82,3,3,0,0,1,2.93-3h0a3,3,0,1,1,.1,6h0a6.86,6.86,0,0,1-1-.22ZM53.81,406a3.1,3.1,0,0,1-2.08-2.78,2.92,2.92,0,0,1,2.75-3.1h.2a3,3,0,1,1,.12,6h0a2.86,2.86,0,0,1-1-.19Zm-.18-9.07a3,3,0,0,1-1.93-3.78h0v0h0a3,3,0,1,1,2.92,4.06h-.07a8.37,8.37,0,0,1-1-.18Zm-.19-9.07a3.1,3.1,0,0,1-2.08-2.78,3,3,0,0,1,.83-2.18,2.79,2.79,0,0,1,2.14-.93,3.1,3.1,0,0,1,3.11,3,3,3,0,0,1-2.84,3h-.14a4.87,4.87,0,0,1-1-.17Zm-.13-9.08a3.12,3.12,0,0,1-2.1-2.83,3,3,0,1,1,5.16,2,3.3,3.3,0,0,1-2.1.93,4.78,4.78,0,0,1-1-.1Zm-.19-9.07a3,3,0,1,1,1,.14h0A4.82,4.82,0,0,1,53.12,369.71ZM53,360.62a3.12,3.12,0,0,1-2.09-2.84,3,3,0,0,1,2.92-3h.06a3,3,0,1,1,.15,6,8.37,8.37,0,0,1-1-.18Zm-.23-9.09a3,3,0,0,1,.89-5.87,3.08,3.08,0,0,1,3.1,3,3,3,0,0,1-2.94,3h-.06a4.22,4.22,0,0,1-1-.13Zm-.19-9a3.13,3.13,0,0,1-2.08-2.84,3,3,0,0,1,2.88-3.06h.09a3,3,0,0,1,.32,6.05h-.18c-.34-.05-.67-.11-1-.19Z"/><path class="cls-1" d="M47.93,300l10.9.1,16.4-16.2,27,27.3.3-43.4-21.6-21.93s11-21.6,11.3-70.5S54.71,93.84,54.71,93.84s-38.3,32.3-38.6,81.2,10.4,70.6,10.4,70.6l-21.8,21.6-.3,43.4,27.3-27L47.91,300ZM32.43,175.1a21.7,21.7,0,1,1,21.63,21.77h0A21.76,21.76,0,0,1,32.43,175.1Z"/><path class="cls-1" d="M88.13,80.64a49.14,49.14,0,0,0,4.61-3.2A43.37,43.37,0,0,0,39,9.37a44.37,44.37,0,0,0-4.51,4.16A52.64,52.64,0,0,1,90.15,63v0h0A53.65,53.65,0,0,1,88.13,80.64Z"/><polygon class="cls-2" points="9.48 40.27 12.78 51.08 5.78 59.88 17.08 60.08 23.28 69.38 26.88 58.77 37.78 55.66 28.78 48.98 29.18 37.66 19.98 44.16 9.48 40.27"/><path class="cls-3" d="M23.43,70.53l-6.62-9.92-12-.22L12.27,51,8.71,39.46l11.2,4.16,9.8-6.93-.42,12.05,9.6,7.15-11.62,3.3ZM6.8,59.4l10.55.19,5.78,8.67,3.36-9.89,10.18-2.84-8.4-6.25.37-10.56-8.59,6.07-9.8-3.64,3.08,10.09Z"/><polygon class="cls-2" points="10.43 102.22 12.43 96.53 18.23 94.94 13.33 91.22 13.63 85.22 8.63 88.72 3.03 86.64 4.83 92.44 1.03 97.14 7.13 97.22 10.43 102.22"/><path class="cls-3" d="M10.57,103.35,6.86,97.73,0,97.62l4.28-5.29-2-6.52,6.31,2.37,5.62-3.94L13.88,91l5.49,4.15L12.85,97Zm-8.5-6.7,5.34.09,2.89,4.38,1.75-5,5.07-1.4-4.3-3.19.26-5.25-4.38,3L3.81,87.46l1.58,5.07Z"/><path class="cls-3" d="M83.43,188.74h-1c-2-7.2-1.4-19.7,1.6-30.8a107.32,107.32,0,0,1,10.9-25.6c-30.6-20.5-33.8-53.3-38-65a5.09,5.09,0,0,0,2-4.1,5.53,5.53,0,0,0-4.6-5.4V63h0v5.6l.2,66.6a9.49,9.49,0,0,1-.85,18.94,9.5,9.5,0,0,1-1-18.94l-.2-66.6V63h0V57.8A5.32,5.32,0,0,0,48,63.2a5.5,5.5,0,0,0,2,4.1c-4.1,11.7-7,44.5-37.6,65a113.24,113.24,0,0,1,11.1,25.9c3,10.9,3.6,23.5,1.8,30.6h-1a3.68,3.68,0,0,0-3.6,3.7v.1a3.51,3.51,0,0,0,3.4,3.6h.2l59.1-.2h0a3.65,3.65,0,0,0,0-7.3Z"/><path class="cls-2" d="M24.23,197.3H24.1a4.57,4.57,0,0,1-4.43-4.69h0v-.08a4.75,4.75,0,0,1,4.64-4.77h.18c1.55-7.22.75-19.31-2-29.25a112.71,112.71,0,0,0-11-25.64L11,132l.83-.56C36.73,114.76,43,89.85,46.82,75c.71-2.84,1.34-5.33,2-7.33A6.51,6.51,0,0,1,47,63.26a6.35,6.35,0,0,1,5.4-6.47l.9-.14v-.12h.33l.92.16A6.63,6.63,0,0,1,60,63.22a6.23,6.23,0,0,1-1.83,4.44c.67,2,1.32,4.49,2.07,7.33,3.88,14.88,10.39,39.78,35.29,56.46l.83.56-.51.87a106.14,106.14,0,0,0-10.79,25.34c-2.8,10.36-3.51,22.28-1.8,29.45h.18a4.72,4.72,0,0,1,0,9.43Zm.1-7.4a2.61,2.61,0,0,0-2.53,2.63v.11a2.41,2.41,0,0,0,2.32,2.51h.21l59.1-.2a2.59,2.59,0,0,0,0-5.17H81.62l-.21-.78c-2.09-7.48-1.41-20.1,1.59-31.35a108.5,108.5,0,0,1,10.5-25C68.63,115.53,62.1,90.53,58.17,75.53c-.81-3.12-1.52-5.82-2.24-7.83l-.26-.7.62-.48a4.11,4.11,0,0,0,1.58-3.24,4.46,4.46,0,0,0-2.47-4v9.34l.2,65.67a10.47,10.47,0,1,1-3.92,0l-.2-65.68V59.28a4.23,4.23,0,0,0-2.37,3.93,4.35,4.35,0,0,0,1.6,3.32l.58.47-.25.71c-.7,2-1.38,4.69-2.17,7.81-3.79,15-10.12,40-35,57.16A115.17,115.17,0,0,1,24.58,158c3,10.82,3.72,23.63,1.81,31.16l-.21.8ZM53.6,136.22l-.75.08a8.43,8.43,0,1,0,9.32,8.43,8.54,8.54,0,0,0-7.74-8.43Z"/></g></g></g></g></g><path class="cls-2" d="M21.76,385.54l31.85-56.27,31.84,56.27L53.61,366.75Z"/><path class="cls-2" d="M82.62,503.86l-16,1.86.32-75.13a16.58,16.58,0,0,0-.84-6.44A3,3,0,0,0,63.34,422,3.16,3.16,0,0,0,61,423.41a18.8,18.8,0,0,0-2.43,4.25,33.65,33.65,0,0,0-1.46,3.87c-.41,1.31-.77,57.62-1.08,59-.13-1.11-.27-57.24-.41-58.37s-.29-2.26-.42-3.37a23.76,23.76,0,0,0-.88-3.7,10.72,10.72,0,0,0-1.27-2.65,6.54,6.54,0,0,0-2.4-2.12,7.16,7.16,0,0,0-3.3-.72,6.79,6.79,0,0,0-4.86,2.12A17.19,17.19,0,0,0,38.79,428l.39,76.23-14.15-1,4.78-93.69L38,410.87l.4,8.2a18,18,0,0,1,5-4.58A10.88,10.88,0,0,1,53.67,414a9.57,9.57,0,0,1,3.62,3.28,17.11,17.11,0,0,1,4.43-3.66,9.29,9.29,0,0,1,4.47-1.22,8.32,8.32,0,0,1,4.63,1.38,13.61,13.61,0,0,1,3.88,4.1A23.7,23.7,0,0,1,77,422.47,39.32,39.32,0,0,1,78.62,428l-5,1.44.59,3.12,5.1-1.09.39,58.44-5,.84.71,3.44,5.25-.88.63,3.48-5.61.28.51,3.64,5.61-.6ZM61,498a5.14,5.14,0,0,1-1.47,3.72,4.87,4.87,0,0,1-3.67,1.52,4.94,4.94,0,0,1-3.66-1.52,5.32,5.32,0,0,1,0-7.43,5,5,0,0,1,3.66-1.51,4.89,4.89,0,0,1,3.67,1.51A5.1,5.1,0,0,1,61,498Z"/><path class="cls-2" d="M75.05,567.87l-1.77,1.78c-.52.52-1,.94-1.37,1.26l2.94,4.46L72.11,577l-3-3.75a19.45,19.45,0,0,1-3.34,1.62,16.66,16.66,0,0,1-3.76.89L62,580.49l-3.53-.24.32-4.36a20.55,20.55,0,0,1-3.85-.38,30.28,30.28,0,0,1-4.27-1.14l-2.19,4.8-3.53-2,2.39-4.48a19.71,19.71,0,0,1-3.51-2.5A17,17,0,0,1,41,567l-4.2,2.72L35,566.89l4.59-2.43c-.61-1.28-1.08-7.6-1.42-8.94s-.56-15.73-.66-17.14l-4.2,1.08-1.21-4.52,5.41-1.24a24.88,24.88,0,0,1,.66-4,14.81,14.81,0,0,1,1.22-3.2l-3.8-2.32,1.8-3,3.72,2.64a16.52,16.52,0,0,1,4.59-4L42.51,515,46,513.23l2.58,5.07c.84-.26,1.6-.48,2.28-.64s1.28-.28,1.8-.36l1.06-5.24,2.78.88-.7,4.16a11.09,11.09,0,0,1,3,.4,10.73,10.73,0,0,1,2.71,1.2l3.88-3.92,2.2,1.88-3.69,4.09a10.82,10.82,0,0,1,1.61,2,17.34,17.34,0,0,1,1.33,2.62l4.59-1.56.78,3-4.43,1.56a13.82,13.82,0,0,1,.53,1.93c.15.69.28,1.44.41,2.24L50.5,536.76v.44c0,1.94.21,16.77.61,18.49s1,8.35,1.86,9.89a11.15,11.15,0,0,0,3.57,4.14,8.27,8.27,0,0,0,4.66,1.37,12.88,12.88,0,0,0,5.6-1.43A28,28,0,0,0,73,565.25ZM59,529.22a3.6,3.6,0,0,0-1.27-2.64,5.06,5.06,0,0,0-3.2-.88,8,8,0,0,0-4.74,1.56,7.65,7.65,0,0,0-3,4Z"/><path class="cls-2" d="M74.83,639.15l-15.1,2.74c.21-8.16.35-31.73.43-34.7s.12-4.83.12-5.58A10.64,10.64,0,0,0,59.11,596a3.94,3.94,0,0,0-3.57-1.85,7.46,7.46,0,0,0-4.69,2.05,27.84,27.84,0,0,0-5.11,6.18l-1.14,38.7-7.1,1-4.19-54.67,13.41-2.88-.59,11.51a22.38,22.38,0,0,1,6.15-6,12.74,12.74,0,0,1,6.83-2,9.6,9.6,0,0,1,7.7,3.59q3,3.6,4.41,10.83Zm-6.47-33.68a2.66,2.66,0,0,0-.63-1.9,2.49,2.49,0,0,0-1.88-.66,2.54,2.54,0,0,0-1.9.66,2.62,2.62,0,0,0-.65,1.9,2.73,2.73,0,0,0,.65,2c.43.44,1.06,18.66,1.9,18.66s1.46-18.22,1.88-18.66A2.77,2.77,0,0,0,68.36,605.47Zm1.45,27.76a3.08,3.08,0,0,0-1-2.3,3.18,3.18,0,0,0-2.28-.94,3.3,3.3,0,0,0-2.45.82,3.35,3.35,0,0,0-.8,2.42,3.42,3.42,0,0,0,.8,2.46,3.34,3.34,0,0,0,2.45.82,3.18,3.18,0,0,0,2.28-.94A3.13,3.13,0,0,0,69.81,633.23Z"/><path class="cls-2" d="M72.33,705.12l-13-1.78L60.41,691a22.91,22.91,0,0,1-6.31,6.65c-2.25,1.46-4.64,5.2-7.18,5.2-3.13,0-5.71-4.19-7.72-6.56s-3.48-18.94-4.39-23.71l3.09-.8-.19-2.84-3.41,1-.67-3.67,3.45-1-.19-2.64-3.81.88-.78-4,4-.88-.39-2.75-4.08.8-.55-3.08,14.94-2.66q-.19,9.87-.3,15t-.09,5.31c0,3.18.39,18.54,1.17,20.1a3.76,3.76,0,0,0,3.53,2.34,7.93,7.93,0,0,0,5.21-2.48c1.81-1.66,3.66-17.12,5.57-20.41l2.12-18.66,7.17-.4ZM58.11,654.91a76.72,76.72,0,0,0-3.7,9.36,65.13,65.13,0,0,0-2.29,9.51l-3.18-1.36A95.63,95.63,0,0,1,52.51,662a65.63,65.63,0,0,1,4.43-8.88Z"/><path class="cls-2" d="M21.71,782.91l31.84-71.27L85.4,782.91,53.55,764.12Z"/></g></g></svg>