<svg xmlns="http://www.w3.org/2000/svg" xmlns:xlink="http://www.w3.org/1999/xlink" viewBox="0 0 289 1847.68"><defs><style>.cls-1{fill:none;}.cls-2{fill:#fff;}.cls-3{fill:#78c8cf;}.cls-4{clip-path:url(#clip-path);}.cls-5{clip-path:url(#clip-path-2);}</style><clipPath id="clip-path" transform="translate(-19.62)"><path class="cls-1" d="M289,788.72H0v1058H289Z"/></clipPath><clipPath id="clip-path-2" transform="translate(-19.62)"><path class="cls-1" d="M309.62,789.68h-289v1058h289Z"/></clipPath></defs><title>Fichier 2</title><g id="Calque_2" data-name="Calque 2"><g id="Calque_1-2" data-name="Calque 1"><path class="cls-2" d="M308.62,0h-289V790.7h289Z" transform="translate(-19.62)"/><path class="cls-3" d="M205.74,830.17c7.36,4.82,20.38,9.91,32.84,9.91,18.11,0,26.6-9.05,26.6-20.38,0-11.89-7.07-18.4-25.47-25.19-24.63-8.78-36.24-22.36-36.24-38.78,0-22.08,17.84-40.19,47.28-40.19,13.87,0,26,4,33.68,8.49l-6.23,18.12a53.24,53.24,0,0,0-28-7.93c-14.72,0-22.93,8.49-22.93,18.68,0,11.32,8.21,16.41,26,23.21,23.78,9.06,36,20.94,36,41.32,0,24.07-18.68,41.05-51.23,41.05-15,0-28.87-3.68-38.5-9.34Z" transform="translate(-19.62)"/><path class="cls-3" d="M308.62,789.68h-289v1058h289Z" transform="translate(-19.62)"/><g class="cls-4"><path class="cls-2" d="M205.5,829.89c7.36,4.81,20.38,9.91,32.83,9.91,18.12,0,26.61-9.06,26.61-20.38,0-11.89-7.08-18.4-25.48-25.2-24.62-8.77-36.23-22.36-36.23-38.78,0-22.08,17.83-40.19,47.27-40.19,13.87,0,26.05,4,33.69,8.49L278,741.86a53.27,53.27,0,0,0-28-7.93c-14.72,0-22.93,8.5-22.93,18.68,0,11.33,8.21,16.42,26,23.21,23.78,9.06,35.95,20.95,35.95,41.33,0,24.06-18.68,41.05-51.23,41.05-15,0-28.88-3.68-38.5-9.35Z" transform="translate(-19.62)"/></g><path class="cls-3" d="M90.81,797.22c-8.1-2.13-16-4.53-23-6.94a11.64,11.64,0,0,0-3.65-.89c-14.24-.53-26.44-11-26.44-30.35s11.75-31.6,27.95-31.6,26.88,12.64,26.88,30.36c0,15.39-7.12,25.27-17.09,28.74v.36c6,1.51,12.46,2.94,17.54,3.83ZM84.4,758.15c0-12-6.23-24.39-19-24.39-13.08,0-19.49,12.11-19.4,25.1C46,771.59,53,783.07,65.09,783.07,77.46,783.07,84.4,771.86,84.4,758.15Z" transform="translate(-19.62)"/><g class="cls-5"><path class="cls-2" d="M90.94,798.12c-8.1-2.14-16-4.54-23-6.94a11.44,11.44,0,0,0-3.65-.89c-14.24-.54-26.44-11-26.44-30.35s11.75-31.6,28-31.6S92.72,741,92.72,758.69c0,15.4-7.12,25.28-17.09,28.75v.35c6,1.52,12.46,2.94,17.53,3.83ZM84.53,759c0-12-6.23-24.38-19-24.38-13.08,0-19.49,12.1-19.4,25.1-.09,12.72,6.94,24.21,19,24.21C77.59,784,84.53,772.75,84.53,759Z" transform="translate(-19.62)"/><path class="cls-2" d="M136,777.56c0,4.45.09,8.36.36,11.75h-6.94l-.45-7h-.18a16.18,16.18,0,0,1-14.24,8c-6.76,0-14.86-3.74-14.86-18.87V746.23h7.83v23.85c0,8.19,2.49,13.71,9.61,13.71a11.34,11.34,0,0,0,10.33-7.12,11.59,11.59,0,0,0,.71-4V746.23H136Z" transform="translate(-19.62)"/><path class="cls-2" d="M154.84,734.12c.09,2.67-1.87,4.81-5,4.81a4.65,4.65,0,0,1-4.71-4.81,4.76,4.76,0,0,1,4.89-4.89A4.65,4.65,0,0,1,154.84,734.12Zm-8.73,55.19V746.23H154v43.08Z" transform="translate(-19.62)"/></g><path class="cls-3" d="M139,778.07c0,4.45.09,8.37.36,11.75h-6.94l-.45-7h-.17a16.22,16.22,0,0,1-14.25,8c-6.76,0-14.86-3.74-14.86-18.87V746.74h7.83V770.6c0,8.18,2.49,13.7,9.61,13.7a11.32,11.32,0,0,0,10.33-7.12,11.57,11.57,0,0,0,.71-4V746.74H139Z" transform="translate(-19.62)"/><path class="cls-3" d="M157.84,734.64c.09,2.67-1.87,4.8-5,4.8a4.65,4.65,0,0,1-4.72-4.8,4.78,4.78,0,0,1,4.89-4.9A4.65,4.65,0,0,1,157.84,734.64Zm-8.72,55.18V746.74H157v43.08Z" transform="translate(-19.62)"/><path class="cls-2" d="M106.59,813.68a11.58,11.58,0,0,0,5.82,1.76c3.21,0,4.72-1.61,4.72-3.62s-1.26-3.26-4.52-4.47c-4.37-1.55-6.42-4-6.42-6.87,0-3.92,3.16-7.13,8.38-7.13a12.13,12.13,0,0,1,6,1.5l-1.1,3.22a9.37,9.37,0,0,0-5-1.41c-2.61,0-4.07,1.51-4.07,3.31,0,2,1.46,2.92,4.62,4.12,4.22,1.61,6.38,3.72,6.38,7.33,0,4.27-3.32,7.28-9.09,7.28a13.81,13.81,0,0,1-6.83-1.66Z" transform="translate(-19.62)"/><path class="cls-2" d="M145.65,811.57c0,2.51,0,4.72.2,6.63h-3.92l-.25-4h-.1a9.15,9.15,0,0,1-8,4.52c-3.82,0-8.39-2.11-8.39-10.64V793.9h4.42v13.45c0,4.62,1.41,7.73,5.42,7.73a6.39,6.39,0,0,0,5.83-4,6.49,6.49,0,0,0,.4-2.26V793.9h4.42Z" transform="translate(-19.62)"/><path class="cls-2" d="M156.14,787.07a2.74,2.74,0,0,1-5.47,0,2.69,2.69,0,0,1,2.76-2.76A2.62,2.62,0,0,1,156.14,787.07Zm-4.92,31.13V793.9h4.42v24.3Z" transform="translate(-19.62)"/><path class="cls-2" d="M160.61,813.68a11.58,11.58,0,0,0,5.82,1.76c3.21,0,4.72-1.61,4.72-3.62s-1.26-3.26-4.52-4.47c-4.37-1.55-6.42-4-6.42-6.87,0-3.92,3.16-7.13,8.38-7.13a12.13,12.13,0,0,1,6,1.5l-1.1,3.22a9.37,9.37,0,0,0-5-1.41c-2.61,0-4.07,1.51-4.07,3.31,0,2,1.46,2.92,4.62,4.12,4.22,1.61,6.38,3.72,6.38,7.33,0,4.27-3.32,7.28-9.09,7.28A13.81,13.81,0,0,1,159.5,817Z" transform="translate(-19.62)"/><path class="cls-2" d="M189.57,803v3.26h-12.4V803Z" transform="translate(-19.62)"/><path class="cls-2" d="M187.06,825.23a7.16,7.16,0,0,0,4.82-1.86c1.21-1.41,1.66-3.32,1.66-9.14V793.9H198v22c0,4.72-.75,7.78-2.91,10a11.2,11.2,0,0,1-7.53,2.76Zm11.4-38.16a2.59,2.59,0,0,1-2.76,2.71,2.63,2.63,0,0,1-2.71-2.71,2.7,2.7,0,0,1,2.81-2.76A2.61,2.61,0,0,1,198.46,787.07Z" transform="translate(-19.62)"/><path class="cls-2" d="M205.54,806.85c.1,6,3.92,8.44,8.33,8.44A16,16,0,0,0,220.6,814l.75,3.16a19.49,19.49,0,0,1-8.08,1.51c-7.48,0-12-4.92-12-12.25s4.32-13.1,11.4-13.1c7.93,0,10,7,10,11.44a16.63,16.63,0,0,1-.15,2.06Zm13-3.16c0-2.81-1.15-7.18-6.12-7.18-4.47,0-6.43,4.12-6.78,7.18Z" transform="translate(-19.62)"/><path class="cls-2" d="M198.69,894.3c-8.58,0-14.67-6.64-14.67-14.94a14.84,14.84,0,0,1,15.22-15.21c9.13,0,14.94,6.64,14.94,15.21.27,8.3-5.81,14.94-15.49,14.94" transform="translate(-19.62)"/></g></g></svg>