<?xml version="1.0" encoding="utf-8"?>
<!-- Generator: Adobe Illustrator 22.1.0, SVG Export Plug-In . SVG Version: 6.00 Build 0)  -->
<svg version="1.1" id="Calque_1" xmlns="http://www.w3.org/2000/svg" xmlns:xlink="http://www.w3.org/1999/xlink" x="0px" y="0px"
	 viewBox="0 0 290.7 578.9" style="enable-background:new 0 0 290.7 578.9;" xml:space="preserve">
<style type="text/css">
	.st0{fill:#78C8CF;}
	.st1{fill:#2D3C43;}
	.st2{fill:#FFFFFF;}
	.st3{clip-path:url(#SVGID_2_);}
	.st4{clip-path:url(#SVGID_4_);}
	.st5{clip-path:url(#SVGID_6_);}
</style>
<g>
	<path class="st0" d="M-311.5,237.7c7.4,4.8,20.4,9.9,32.8,9.9c18.1,0,26.6-9.1,26.6-20.4c0-11.9-7.1-18.4-25.5-25.2
		c-24.6-8.8-36.2-22.4-36.2-38.8c0-22.1,17.8-40.2,47.3-40.2c13.9,0,26,4,33.7,8.5l-6.2,18.1c-5.4-3.4-15.3-7.9-28-7.9
		c-14.7,0-22.9,8.5-22.9,18.7c0,11.3,8.2,16.4,26,23.2c23.8,9.1,35.9,20.9,35.9,41.3c0,24.1-18.7,41-51.2,41
		c-15,0-28.9-3.7-38.5-9.3L-311.5,237.7z"/>
</g>
<rect x="-226.5" y="298.1" style="fill:none;" width="142" height="85.5"/>
<text transform="matrix(1 0 0 1 -226.5001 361.2985)" style="font-family:'MyriadPro-Regular'; font-size:89px; letter-spacing:-2;">?</text>
<title>so6print</title>
<polygon class="st1" points="-409.2,31.2 -382.8,26.2 -218.7,26.2 -218.7,188 -416,188 -416,33 "/>
<g>
	<path class="st2" d="M-356.4,473.6c7.4,4.8,20.4,9.9,32.8,9.9c18.1,0,26.6-9.1,26.6-20.4c0-11.9-7.1-18.4-25.5-25.2
		c-24.6-8.8-36.2-22.4-36.2-38.8c0-22.1,17.8-40.2,47.3-40.2c13.9,0,26,4,33.7,8.5l-6.2,18.1c-5.4-3.4-15.3-7.9-28-7.9
		c-14.7,0-22.9,8.5-22.9,18.7c0,11.3,8.2,16.4,26,23.2c23.8,9.1,35.9,20.9,35.9,41.3c0,24.1-18.7,41-51.2,41
		c-15,0-28.9-3.7-38.5-9.3L-356.4,473.6z"/>
</g>
<path class="st2" d="M-387.3,296.3c-8.1-2.1-16-4.5-23-6.9c-1.2-0.4-2.5-0.9-3.6-0.9c-14.2-0.5-26.4-11-26.4-30.4
	c0-19.2,11.7-31.6,27.9-31.6c16.3,0,26.9,12.6,26.9,30.4c0,15.4-7.1,25.3-17.1,28.7v0.4c6,1.5,12.5,2.9,17.5,3.8L-387.3,296.3z
	 M-393.7,257.2c0-12-6.2-24.4-19-24.4c-13.1,0-19.5,12.1-19.4,25.1c-0.1,12.7,6.9,24.2,19,24.2
	C-400.7,282.2-393.7,270.9-393.7,257.2z"/>
<path class="st2" d="M-342.3,275.7c0,4.5,0.1,8.4,0.4,11.7h-6.9l-0.4-7h-0.2c-2,3.5-6.6,8-14.2,8c-6.8,0-14.9-3.7-14.9-18.9v-25.2
	h7.8v23.9c0,8.2,2.5,13.7,9.6,13.7c5.3,0,8.9-3.6,10.3-7.1c0.4-1.2,0.7-2.6,0.7-4v-26.4h7.8V275.7z"/>
<path class="st2" d="M-323.4,232.3c0.1,2.7-1.9,4.8-5,4.8c-2.8,0-4.7-2.1-4.7-4.8c0-2.8,2-4.9,4.9-4.9
	C-325.3,227.4-323.4,229.6-323.4,232.3z M-332.2,287.5v-43.1h7.8v43.1H-332.2z"/>
<path class="st2" d="M-259.7,135.3c-18,0-32.2,8.9-39.8,22.6c-2.4-31.3-28.9-43.5-55.1-50.9c-27.8-7.7-55.4-10.6-55.4-25.3
	c0-12.7,13.4-16.5,24.1-16.5c15.5,0,31.7,5.5,30.9,23.2h49.7c-0.2-43.4-38.5-62.1-76.5-62.1c-11.5,0-22.9,1.7-40,7l0.1,105.1
	c9.9-0.6,14.1,0.7,17.9,1.8c27.6,8,54.8,11.2,54.8,28.1c0,14.4-15.6,19.8-30.5,19.8c-21.1,0-35.1-7.3-36.2-29.9v30.5h201.4
	c0.3-2.4,0.4-4.7,0.4-7.1C-213.7,155.4-232.7,135.3-259.7,135.3z M-243,188.8h-33.5c-0.3-2.4-0.4-4.7-0.4-7.1
	c0-11.1,4-24.5,17.1-24.5s17.4,13.4,17.4,24.5C-242.4,184.1-242.6,186.5-243,188.8z"/>
<path class="st2" d="M-181.6,153.6c0,6.2-1.4,11.1-4.2,14.9c-2.6,3.6-6.9,5.7-11.3,5.5c-3.5,0.1-6.8-1.4-9.1-4v18.7h-12.3v-55.3
	h11.7l0.3,3.7c2.2-2.9,5.7-4.6,9.4-4.5c4.5-0.2,8.8,1.9,11.4,5.5c2.7,3.7,4.1,8.6,4.1,15L-181.6,153.6L-181.6,153.6z M-194.1,152.8
	c0-7.1-2.1-10.6-6.2-10.7c-3,0-4.9,1-6,3.2V161c1,2.2,3.1,3.3,6,3.3c4,0,6-3.4,6.1-10.3L-194.1,152.8L-194.1,152.8z"/>
<path class="st2" d="M-157.3,143.3l-4.1-0.3c-3.9,0-6.4,1.3-7.6,3.7V172h-12.4v-40h11.7l0.5,5.2c2-3.9,5.1-5.8,8.7-5.8
	c1.2,0,2.3,0.1,3.4,0.5L-157.3,143.3z"/>
<path class="st2" d="M-129.1,131.8l0.5,4.7c2.7-3.7,6.5-5.4,11.4-5.4c4.1,0,7.2,1.3,9.3,3.8c2,2.5,3.1,6.2,3.2,11.2v25.8h-12.6
	v-25.2c0.1-1.6-0.3-3.2-1.3-4.5c-0.8-0.9-2.3-1.4-4.5-1.4c-2.2-0.1-4.3,1-5.4,2.9v28.2h-12.4v-40.1
	C-140.9,131.8-129.1,131.8-129.1,131.8z"/>
<path class="st2" d="M-85.7,121.3v10h6.5v8.6h-6.5v18.3c-0.1,1.1,0.2,2.2,0.8,3.1c0.9,0.7,2.1,1,3.2,0.9c1,0,2.1-0.1,3.1-0.2v8.9
	c-2.3,0.7-4.6,1-7,1c-4.2,0-7.4-1-9.5-3s-3.1-5.1-3.1-9.2v-19.9h-5.1v-8.6h5.1v-10h12.5V121.3z"/>
<path class="st2" d="M-156.3,121.6c0-1.7,0.7-3.3,1.9-4.4c1.4-1.2,3.2-1.8,5.1-1.7c1.8-0.1,3.6,0.5,5.1,1.7c2.4,2.1,2.6,5.8,0.5,8.2
	c-0.1,0.2-0.3,0.3-0.5,0.5c-1.4,1.2-3.2,1.8-5.1,1.7c-1.8,0.1-3.6-0.5-5.1-1.7C-155.6,124.9-156.3,123.3-156.3,121.6z M-143,171.9
	h-12.5v-40h12.5V171.9z"/>
<rect x="-424.3" y="291.3" style="fill:none;" width="227" height="80.5"/>
<text transform="matrix(1 0 0 1 -424.3 340.3288)"><tspan x="0" y="0" class="st2" style="font-family:'MyriadPro-Regular'; font-size:69px; letter-spacing:-2;">suis-</tspan><tspan x="117.9" y="0" class="st2" style="font-family:'MyriadPro-Regular'; font-size:69px; letter-spacing:-2;">je</tspan></text>
<rect x="-772.3" y="13" style="fill:none;" width="578.2" height="627.2"/>
<text transform="matrix(1 0 0 1 -772.3285 518.5145)" style="font-family:'MyriadPro-Regular'; font-size:712px; letter-spacing:-22;">?</text>
<rect x="-265.8" y="262.1" style="fill:none;" width="227" height="80.5"/>
<text transform="matrix(1 0 0 1 -265.8 311.0788)" style="font-family:'MyriadPro-Regular'; font-size:69px; letter-spacing:-2;">suis-je</text>
<rect x="-298.3" y="331.9" style="fill:none;" width="142" height="85.5"/>
<text transform="matrix(1 0 0 1 -298.3333 395.1161)" class="st0" style="font-family:'MyriadPro-Regular'; font-size:89px; letter-spacing:-2;">Qui</text>
<g>
	<path class="st0" d="M-448.5,435.3c7.4,4.8,20.4,9.9,32.8,9.9c18.1,0,26.6-9.1,26.6-20.4c0-11.9-7.1-18.4-25.5-25.2
		c-24.6-8.8-36.2-22.4-36.2-38.8c0-22.1,17.8-40.2,47.3-40.2c13.9,0,26,4,33.7,8.5l-6.2,18.1c-5.4-3.4-15.3-7.9-28-7.9
		c-14.7,0-22.9,8.5-22.9,18.7c0,11.3,8.2,16.4,26,23.2c23.8,9.1,35.9,20.9,35.9,41.3c0,24.1-18.7,41-51.2,41
		c-15,0-28.9-3.7-38.5-9.3L-448.5,435.3z"/>
</g>
<g>
	<path class="st2" d="M1002,620.3c7.4,4.8,20.4,9.9,32.8,9.9c18.1,0,26.6-9.1,26.6-20.4c0-11.9-7.1-18.4-25.5-25.2
		c-24.6-8.8-36.2-22.4-36.2-38.8c0-22.1,17.8-40.2,47.3-40.2c13.9,0,26,4,33.7,8.5l-6.2,18.1c-5.4-3.4-15.3-7.9-28-7.9
		c-14.7,0-22.9,8.5-22.9,18.7c0,11.3,8.2,16.4,26,23.2c23.8,9.1,35.9,20.9,35.9,41.3c0,24.1-18.7,41-51.2,41
		c-15,0-28.9-3.7-38.5-9.3L1002,620.3z"/>
</g>
<g>
	<path class="st2" d="M-325.9,535.3c7.4,4.8,20.4,9.9,32.8,9.9c18.1,0,26.6-9.1,26.6-20.4c0-11.9-7.1-18.4-25.5-25.2
		c-24.6-8.8-36.2-22.4-36.2-38.8c0-22.1,17.8-40.2,47.3-40.2c13.9,0,26,4,33.7,8.5l-6.2,18.1c-5.4-3.4-15.3-7.9-28-7.9
		c-14.7,0-22.9,8.5-22.9,18.7c0,11.3,8.2,16.4,26,23.2c23.8,9.1,35.9,20.9,35.9,41.3c0,24.1-18.7,41-51.2,41
		c-15,0-28.9-3.7-38.5-9.3L-325.9,535.3z"/>
</g>
<rect x="-339.3" y="244.9" style="fill:none;" width="142" height="85.5"/>
<text transform="matrix(1 0 0 1 -339.3 308.1132)" style="font-family:'MyriadPro-Regular'; font-size:89px; letter-spacing:-2;">ui</text>
<g>
	<path class="st2" d="M289.8,3.6H0.8v289h289V3.6z"/>
	<g>
		<g>
			<g>
				<path class="st0" d="M187,332.1c7.4,4.8,20.4,9.9,32.8,9.9c18.1,0,26.6-9.1,26.6-20.4c0-11.9-7.1-18.4-25.5-25.2
					c-24.6-8.8-36.2-22.4-36.2-38.8c0-22.1,17.8-40.2,47.3-40.2c13.9,0,26,4,33.7,8.5l-6.2,18.1c-5.4-3.4-15.3-7.9-28-7.9
					c-14.7,0-22.9,8.5-22.9,18.7c0,11.3,8.2,16.4,26,23.2c23.8,9.1,35.9,20.9,35.9,41.3c0,24.1-18.7,41-51.2,41
					c-15,0-28.9-3.7-38.5-9.3L187,332.1z"/>
			</g>
			<path class="st0" d="M289.8,291.6H0.8v289h289V291.6z"/>
		</g>
		<g>
			<defs>
				<path id="SVGID_1_" d="M270.2,290.6h-289v289h289V290.6z"/>
			</defs>
			<clipPath id="SVGID_2_">
				<use xlink:href="#SVGID_1_"  style="overflow:visible;"/>
			</clipPath>
			<g class="st3">
				<path class="st2" d="M186.7,331.8c7.4,4.8,20.4,9.9,32.8,9.9c18.1,0,26.6-9.1,26.6-20.4c0-11.9-7.1-18.4-25.5-25.2
					c-24.6-8.8-36.2-22.4-36.2-38.8c0-22.1,17.8-40.2,47.3-40.2c13.9,0,26,4,33.7,8.5l-6.2,18.1c-5.4-3.4-15.3-7.9-28-7.9
					c-14.7,0-22.9,8.5-22.9,18.7c0,11.3,8.2,16.4,26,23.2c23.8,9.1,35.9,20.9,35.9,41.3c0,24.1-18.7,41-51.2,41
					c-15,0-28.9-3.7-38.5-9.3L186.7,331.8z"/>
			</g>
		</g>
		<g>
			<path class="st0" d="M72,299.1c-8.1-2.1-16-4.5-23-6.9c-1.2-0.4-2.5-0.9-3.6-0.9c-14.2-0.5-26.4-11-26.4-30.4
				c0-19.2,11.7-31.6,27.9-31.6c16.3,0,26.9,12.6,26.9,30.4c0,15.4-7.1,25.3-17.1,28.7v0.4c6,1.5,12.5,2.9,17.5,3.8L72,299.1z
				 M65.6,260c0-12-6.2-24.4-19-24.4c-13.1,0-19.5,12.1-19.4,25.1c-0.1,12.7,6.9,24.2,19,24.2C58.7,285,65.6,273.7,65.6,260z"/>
		</g>
		<g>
			<defs>
				<path id="SVGID_3_" d="M290.8,291.6H1.8v289h289V291.6z"/>
			</defs>
			<clipPath id="SVGID_4_">
				<use xlink:href="#SVGID_3_"  style="overflow:visible;"/>
			</clipPath>
			<g class="st4">
				<path class="st2" d="M72.2,300c-8.1-2.1-16-4.5-23-6.9c-1.2-0.4-2.5-0.9-3.6-0.9c-14.2-0.5-26.4-11-26.4-30.4
					c0-19.2,11.7-31.6,27.9-31.6c16.3,0,26.9,12.6,26.9,30.4c0,15.4-7.1,25.3-17.1,28.7v0.4c6,1.5,12.5,2.9,17.5,3.8L72.2,300z
					 M65.8,260.9c0-12-6.2-24.4-19-24.4c-13.1,0-19.5,12.1-19.4,25.1c-0.1,12.7,6.9,24.2,19,24.2C58.8,285.9,65.8,274.6,65.8,260.9z
					"/>
				<path class="st2" d="M117.2,279.4c0,4.5,0.1,8.4,0.4,11.7h-6.9l-0.4-7H110c-2,3.5-6.6,8-14.2,8c-6.8,0-14.9-3.7-14.9-18.9v-25.2
					h7.8V272c0,8.2,2.5,13.7,9.6,13.7c5.3,0,8.9-3.6,10.3-7.1c0.4-1.2,0.7-2.6,0.7-4v-26.4h7.8V279.4z"/>
				<path class="st2" d="M136.1,236c0.1,2.7-1.9,4.8-5,4.8c-2.8,0-4.7-2.1-4.7-4.8c0-2.8,2-4.9,4.9-4.9
					C134.2,231.1,136.1,233.2,136.1,236z M127.3,291.2v-43.1h7.8v43.1H127.3z"/>
			</g>
		</g>
		<g>
			<path class="st0" d="M120.2,280c0,4.5,0.1,8.4,0.4,11.7h-6.9l-0.4-7H113c-2,3.5-6.6,8-14.2,8c-6.8,0-14.9-3.7-14.9-18.9v-25.2
				h7.8v23.9c0,8.2,2.5,13.7,9.6,13.7c5.3,0,8.9-3.6,10.3-7.1c0.4-1.2,0.7-2.6,0.7-4v-26.4h7.8V280z"/>
			<path class="st0" d="M139.1,236.5c0.1,2.7-1.9,4.8-5,4.8c-2.8,0-4.7-2.1-4.7-4.8c0-2.8,2-4.9,4.9-4.9
				C137.2,231.6,139.1,233.8,139.1,236.5z M130.3,291.7v-43.1h7.8v43.1H130.3z"/>
		</g>
		<g>
			<path class="st2" d="M87.8,315.6c1.3,0.9,3.6,1.8,5.8,1.8c3.2,0,4.7-1.6,4.7-3.6c0-2.1-1.3-3.3-4.5-4.5c-4.4-1.6-6.4-4-6.4-6.9
				c0-3.9,3.2-7.1,8.4-7.1c2.5,0,4.6,0.7,6,1.5l-1.1,3.2c-1-0.6-2.7-1.4-5-1.4c-2.6,0-4.1,1.5-4.1,3.3c0,2,1.5,2.9,4.6,4.1
				c4.2,1.6,6.4,3.7,6.4,7.3c0,4.3-3.3,7.3-9.1,7.3c-2.7,0-5.1-0.7-6.8-1.7L87.8,315.6z"/>
			<path class="st2" d="M126.9,313.5c0,2.5,0,4.7,0.2,6.6h-3.9l-0.3-4h-0.1c-1.2,2-3.7,4.5-8,4.5c-3.8,0-8.4-2.1-8.4-10.6v-14.2h4.4
				v13.5c0,4.6,1.4,7.7,5.4,7.7c3,0,5-2.1,5.8-4c0.3-0.7,0.4-1.5,0.4-2.3v-14.9h4.4V313.5z"/>
			<path class="st2" d="M137.4,289c0.1,1.5-1.1,2.7-2.8,2.7c-1.6,0-2.7-1.2-2.7-2.7c0-1.6,1.2-2.8,2.8-2.8
				C136.3,286.2,137.4,287.4,137.4,289z M132.4,320.1v-24.3h4.4v24.3H132.4z"/>
			<path class="st2" d="M141.8,315.6c1.3,0.9,3.6,1.8,5.8,1.8c3.2,0,4.7-1.6,4.7-3.6c0-2.1-1.3-3.3-4.5-4.5c-4.4-1.6-6.4-4-6.4-6.9
				c0-3.9,3.2-7.1,8.4-7.1c2.5,0,4.6,0.7,6,1.5l-1.1,3.2c-1-0.6-2.7-1.4-5-1.4c-2.6,0-4.1,1.5-4.1,3.3c0,2,1.5,2.9,4.6,4.1
				c4.2,1.6,6.4,3.7,6.4,7.3c0,4.3-3.3,7.3-9.1,7.3c-2.7,0-5.1-0.7-6.8-1.7L141.8,315.6z"/>
			<path class="st2" d="M170.8,304.9v3.3h-12.4v-3.3H170.8z"/>
			<path class="st2" d="M168.3,327.1c2-0.2,3.8-0.7,4.8-1.9c1.2-1.4,1.7-3.3,1.7-9.1v-20.3h4.4v22c0,4.7-0.8,7.8-2.9,10
				c-2,2-5.2,2.8-7.5,2.8L168.3,327.1z M179.7,289c0.1,1.5-1,2.7-2.8,2.7c-1.7,0-2.7-1.3-2.7-2.7c0-1.6,1.2-2.8,2.8-2.8
				C178.6,286.2,179.7,287.4,179.7,289z"/>
			<path class="st2" d="M186.8,308.7c0.1,6,3.9,8.4,8.3,8.4c3.2,0,5.1-0.6,6.7-1.3l0.8,3.2c-1.6,0.7-4.2,1.5-8.1,1.5
				c-7.5,0-11.9-4.9-11.9-12.3c0-7.3,4.3-13.1,11.4-13.1c7.9,0,10,7,10,11.4c0,0.9-0.1,1.6-0.2,2.1H186.8z M199.7,305.6
				c0.1-2.8-1.2-7.2-6.1-7.2c-4.5,0-6.4,4.1-6.8,7.2H199.7z"/>
		</g>
		<path class="st2" d="M179.9,396.2c-8.6,0-14.7-6.6-14.7-14.9c0-8.6,6.4-15.2,15.2-15.2c9.1,0,14.9,6.6,14.9,15.2
			C195.7,389.5,189.6,396.2,179.9,396.2"/>
	</g>
</g>
<g>
	<defs>
		<path id="SVGID_5_" d="M-239.8,313.5c7.4,4.8,20.4,9.9,32.8,9.9c18.1,0,26.6-9.1,26.6-20.4c0-11.9-7.1-18.4-25.5-25.2
			c-24.6-8.8-36.2-22.4-36.2-38.8c0-22.1,17.8-40.2,47.3-40.2c13.9,0,26,4,33.7,8.5l-6.2,18.1c-5.4-3.4-15.3-7.9-28-7.9
			c-14.7,0-22.9,8.5-22.9,18.7c0,11.3,8.2,16.4,26,23.2c23.8,9.1,35.9,20.9,35.9,41.3c0,24.1-18.7,41-51.2,41
			c-15,0-28.9-3.7-38.5-9.3L-239.8,313.5z"/>
	</defs>
	<clipPath id="SVGID_6_">
		<use xlink:href="#SVGID_5_"  style="overflow:visible;"/>
	</clipPath>
	<g class="st5">
		<path class="st0" d="M-349.6,319c1.6,1,4.3,2.1,7,2.1c3.9,0,5.7-1.9,5.7-4.3c0-2.5-1.5-3.9-5.4-5.4c-5.2-1.9-7.7-4.8-7.7-8.3
			c0-4.7,3.8-8.6,10.1-8.6c3,0,5.6,0.8,7.2,1.8l-1.3,3.9c-1.1-0.7-3.3-1.7-6-1.7c-3.1,0-4.9,1.8-4.9,4c0,2.4,1.7,3.5,5.5,4.9
			c5.1,1.9,7.7,4.5,7.7,8.8c0,5.1-4,8.7-10.9,8.7c-3.2,0-6.2-0.8-8.2-2L-349.6,319z"/>
		<path class="st0" d="M-302.7,316.5c0,3,0.1,5.7,0.2,8h-4.7l-0.3-4.8h-0.1c-1.4,2.4-4.5,5.4-9.7,5.4c-4.6,0-10.1-2.5-10.1-12.8
			v-17.1h5.3v16.2c0,5.6,1.7,9.3,6.5,9.3c3.6,0,6-2.5,7-4.8c0.3-0.8,0.5-1.7,0.5-2.7v-17.9h5.3V316.5z"/>
		<path class="st0" d="M-290,287c0.1,1.8-1.3,3.3-3.4,3.3c-1.9,0-3.2-1.4-3.2-3.3c0-1.9,1.4-3.3,3.3-3.3
			C-291.3,283.7-290,285.2-290,287z M-296,324.4v-29.2h5.3v29.2H-296z"/>
		<path class="st0" d="M-284.7,319c1.6,1,4.3,2.1,7,2.1c3.9,0,5.7-1.9,5.7-4.3c0-2.5-1.5-3.9-5.4-5.4c-5.2-1.9-7.7-4.8-7.7-8.3
			c0-4.7,3.8-8.6,10.1-8.6c3,0,5.6,0.8,7.2,1.8l-1.3,3.9c-1.1-0.7-3.3-1.7-6-1.7c-3.1,0-4.9,1.8-4.9,4c0,2.4,1.7,3.5,5.5,4.9
			c5.1,1.9,7.7,4.5,7.7,8.8c0,5.1-4,8.7-10.9,8.7c-3.2,0-6.2-0.8-8.2-2L-284.7,319z"/>
		<path class="st0" d="M-249.9,306.2v3.9h-14.9v-3.9H-249.9z"/>
		<path class="st0" d="M-252.9,332.9c2.4-0.2,4.5-0.8,5.8-2.2c1.4-1.7,2-4,2-11v-24.4h5.3v26.5c0,5.7-0.9,9.4-3.5,12
			c-2.4,2.4-6.2,3.3-9,3.3L-252.9,332.9z M-239.2,287c0.1,1.7-1.2,3.3-3.3,3.3c-2,0-3.3-1.5-3.3-3.3c0-1.9,1.4-3.3,3.4-3.3
			C-240.5,283.7-239.2,285.2-239.2,287z"/>
		<path class="st0" d="M-230.7,310.8c0.1,7.2,4.7,10.1,10,10.1c3.8,0,6.1-0.7,8.1-1.5l0.9,3.8c-1.9,0.8-5.1,1.8-9.7,1.8
			c-9,0-14.4-5.9-14.4-14.7c0-8.8,5.2-15.7,13.7-15.7c9.5,0,12.1,8.4,12.1,13.8c0,1.1-0.1,1.9-0.2,2.5H-230.7z M-215.1,307
			c0.1-3.4-1.4-8.6-7.4-8.6c-5.4,0-7.7,4.9-8.1,8.6H-215.1z"/>
	</g>
</g>
</svg>
