<?xml version="1.0" encoding="utf-8"?>
<!-- Generator: Adobe Illustrator 22.0.1, SVG Export Plug-In . SVG Version: 6.00 Build 0)  -->
<svg version="1.1" id="Calque_1" xmlns="http://www.w3.org/2000/svg" xmlns:xlink="http://www.w3.org/1999/xlink" x="0px" y="0px"
	 viewBox="0 0 181.3 146" style="enable-background:new 0 0 181.3 146;" xml:space="preserve">
<style type="text/css">
	.st0{fill:#A3D9EA;}
</style>
<path class="st0" d="M99.4,145.7c-0.3-2.1-0.4-4.1-0.4-6.2c0-22.9,16.4-40.5,40.2-40.5c23.8,0,40.4,17.5,40.4,40.5
	c0,2.1-0.1,4.3-0.4,6.2H99.4z M153.9,145.7c0.3-2.1,0.4-4.1,0.4-6.2c0-9.7-3.7-21.3-15.3-21.3c-11.6,0-15.1,11.6-15.1,21.3
	c0,2.1,0.1,4.1,0.4,6.2"/>
<path class="st0" d="M0.1,118.5c1,20.2,13.5,26.7,32.5,26.7c13.5,0,27.5-4.8,27.5-17.6c0-15.1-24.5-18-49.3-25.1
	c-3.5-1-7.2-2.1-10.7-3.4L0.1,118.5z M0.1,145.7L0,5.4c9.8-3.1,20.4-4.5,30.5-4.5c34.2,0,68.6,16.6,68.9,55.3H54.6
	c0.7-15.7-13.9-20.7-27.8-20.7c-9.7,0-21.7,3.4-21.7,14.7c0,13.2,24.8,15.7,49.8,22.6c24.8,7,49.8,18.5,49.8,49.6
	c0,9.1-1.6,16.7-4.4,23.3H0.1z"/>
</svg>
