<?xml version="1.0" encoding="utf-8"?>
<!-- Generator: Adobe Illustrator 22.0.1, SVG Export Plug-In . SVG Version: 6.00 Build 0)  -->
<svg version="1.1" id="Calque_1" xmlns="http://www.w3.org/2000/svg" xmlns:xlink="http://www.w3.org/1999/xlink" x="0px" y="0px"
	 viewBox="0 0 181.3 146" style="enable-background:new 0 0 181.3 146;" xml:space="preserve">
<style type="text/css">
	.st0{fill:#FFFFFF;}
</style>
<path class="st0" d="M99.7,146c-0.3-2.2-0.4-4.2-0.4-6.4c0-23.6,16.8-41.8,41.1-41.8s41.3,18,41.3,41.8c0,2.2-0.1,4.4-0.4,6.4H99.7z
	 M155.3,146c0.3-2.2,0.4-4.2,0.4-6.4c0-10-3.8-22-15.6-22c-11.9,0-15.4,12-15.4,22c0,2.2,0.1,4.2,0.4,6.4"/>
<path class="st0" d="M0.1,99c3.5,1.3,7.2,2.4,10.7,3.4c24.8,7.2,49.3,10.1,49.3,25.3c0,12.9-14,17.8-27.5,17.8
	c-19,0-31.5-6.6-32.5-26.9v-2l0,4v-1.8c0,0,0,2,0,2l0,25.2h100.2c2.8-6.7,4.4-14.3,4.4-23.5c0-31.4-25-43-49.8-50
	c-25-7-49.8-9.5-49.8-22.8c0-11.4,12-14.8,21.7-14.8c13.9,0,28.5,5,27.8,20.9h44.8c-0.3-39-34.7-55.8-68.9-55.8
	C20.4-0.1,9.8,1.3,0,4.4"/>
</svg>
