<?xml version="1.0" encoding="utf-8"?>
<!-- Generator: Adobe Illustrator 22.1.0, SVG Export Plug-In . SVG Version: 6.00 Build 0)  -->
<svg version="1.1" id="Calque_1" xmlns="http://www.w3.org/2000/svg" xmlns:xlink="http://www.w3.org/1999/xlink" x="0px" y="0px"
	 viewBox="0 0 358.9 161.8" style="enable-background:new 0 0 358.9 161.8;" xml:space="preserve">
<style type="text/css">
	.st0{fill:#2D3C43;}
	.st1{fill:#78C8CF;}
	.st2{fill:#FFFFFF;}
</style>
<title>so6print</title>
<g>
	<polygon class="st0" points="6.8,5 33.2,0 197.3,0 197.3,161.8 0,161.8 0,6.8 	"/>
	<path class="st1" d="M358.9,0.1H197.4v162.5h161.5V0.1z"/>
	<path class="st2" d="M156.3,109.1c-18,0-32.2,8.9-39.8,22.6c-2.4-31.3-28.9-43.5-55.1-50.9C33.6,73.1,6,70.2,6,55.5
		C6,42.8,19.4,39,30.1,39c15.5,0,31.7,5.5,30.9,23.2h49.7C110.5,18.8,72.2,0.1,34.2,0.1c-11.5,0-22.9,1.7-40,7l0.1,105.1
		c9.9-0.6,14.1,0.7,17.9,1.8c27.6,8,54.8,11.2,54.8,28.1c0,14.4-15.6,19.8-30.5,19.8c-21.1,0-35.1-7.3-36.2-29.9v30.5h201.4
		c0.3-2.4,0.4-4.7,0.4-7.1C202.3,129.2,183.3,109.1,156.3,109.1z M173,162.6h-33.5c-0.3-2.4-0.4-4.7-0.4-7.1
		c0-11.1,4-24.5,17.1-24.5c13.1,0,17.4,13.4,17.4,24.5C173.6,157.9,173.4,160.3,173,162.6z"/>
	<path class="st2" d="M234.4,127.4c0,6.2-1.4,11.1-4.2,14.9c-2.6,3.6-6.9,5.7-11.3,5.5c-3.5,0.1-6.8-1.4-9.1-4v18.7h-12.3v-55.3
		h11.7l0.3,3.7c2.2-2.9,5.7-4.6,9.4-4.5c4.5-0.2,8.8,1.9,11.4,5.5c2.7,3.7,4.1,8.6,4.1,15V127.4z M221.9,126.6
		c0-7.1-2.1-10.6-6.2-10.7c-3,0-4.9,1-6,3.2v15.7c1,2.2,3.1,3.3,6,3.3c4,0,6-3.4,6.1-10.3v-1.3L221.9,126.6z"/>
	<path class="st2" d="M260.2,119.3l-4.1-0.3c-3.9,0-6.4,1.3-7.6,3.7v25.3h-12.4V108h11.7l0.5,5.2c2-3.9,5.1-5.8,8.7-5.8
		c1.2,0,2.3,0.1,3.4,0.5L260.2,119.3z"/>
	<path class="st2" d="M288.4,107.8l0.5,4.7c2.7-3.7,6.5-5.4,11.4-5.4c4.1,0,7.2,1.3,9.3,3.8c2,2.5,3.1,6.2,3.2,11.2v25.8h-12.6
		v-25.2c0.1-1.6-0.3-3.2-1.3-4.5c-0.8-0.9-2.3-1.4-4.5-1.4c-2.2-0.1-4.3,1-5.4,2.9v28.2h-12.4v-40.1H288.4z"/>
	<path class="st2" d="M331.8,97.3v10h6.5v8.6h-6.5v18.3c-0.1,1.1,0.2,2.2,0.8,3.1c0.9,0.7,2.1,1,3.2,0.9c1,0,2.1-0.1,3.1-0.2v8.9
		c-2.3,0.7-4.6,1-7,1c-4.2,0-7.4-1-9.5-3c-2.1-2-3.1-5.1-3.1-9.2v-19.9h-5.1v-8.6h5.1v-10H331.8z"/>
	<path class="st2" d="M261.2,97.6c0-1.7,0.7-3.3,1.9-4.4c1.4-1.2,3.2-1.8,5.1-1.7c1.8-0.1,3.6,0.5,5.1,1.7c2.4,2.1,2.6,5.8,0.5,8.2
		c-0.1,0.2-0.3,0.3-0.5,0.5c-1.4,1.2-3.2,1.8-5.1,1.7c-1.8,0.1-3.6-0.5-5.1-1.7C261.9,100.9,261.2,99.3,261.2,97.6z M274.5,147.9
		H262v-40h12.5L274.5,147.9z"/>
</g>
</svg>
