<svg xmlns="http://www.w3.org/2000/svg" viewBox="0 0 368.5 448"><defs><style>.cls-1{fill:#beb0d3;}.cls-2{fill:#664f4b;}.cls-3{fill:#c8999d;}.cls-4{fill:#c09195;}.cls-5{fill:#bc8a8b;}.cls-6{fill:#c59494;}.cls-7{fill:#be928d;}.cls-8{fill:#bb9994;}.cls-9{fill:none;}.cls-10{fill:#d7a7ab;}.cls-11{fill:#bb8f8e;}.cls-12{fill:#bf9796;}.cls-13{fill:#c79999;}.cls-14{fill:#6c5554;}.cls-15{fill:#ab8784;}.cls-16{fill:#d3a09e;}.cls-17{fill:#c2938d;}.cls-18{fill:#9c7674;}.cls-19{fill:#826166;}.cls-20{fill:#8e6164;}.cls-21{fill:#987979;}.cls-22{fill:#714749;}.cls-23{fill:#b1a3c6;}.cls-24{fill:#927278;}.cls-25{fill:#867596;}.cls-26{fill:#9f8cab;}.cls-27{fill:#b39db9;}.cls-28{fill:#9f7a79;}.cls-29{fill:#896a62;}.cls-30{fill:#a07c73;}.cls-31{fill:#94726f;}.cls-32{fill:#ad827c;}.cls-33{fill:#b4b9dd;}.cls-34{fill:#b4b2d7;}.cls-35{fill:#c09fb0;}.cls-36{fill:#977672;}.cls-37{fill:#a78387;}.cls-38{fill:#bf989a;}.cls-39{fill:#bd8c8c;}.cls-40{fill:#cd9b9b;}.cls-41{fill:#d29c9d;}.cls-42{fill:#c39292;}.cls-43{fill:#e3b2b6;}.cls-44{fill:#ca989b;}.cls-45{fill:#986b72;}.cls-46{fill:#e2b4b5;}.cls-47{fill:#997975;}.cls-48{fill:#aa9ab6;}.cls-49{fill:#968db5;}.cls-50{fill:#c6afc8;}.cls-51{fill:#c7bfde;}.cls-52{fill:#c2accc;}.cls-53{fill:#9b93b9;}.cls-54{fill:#aca9d2;}.cls-55{fill:#7678b0;}.cls-56{fill:#c39094;}.cls-57{fill:#5d4541;}.cls-58{fill:#cd9a99;}.cls-59{fill:#9a7a71;}.cls-60{fill:#ab8881;}.cls-61{fill:#946468;}.cls-62{fill:#936365;}.cls-63{fill:#564945;}.cls-64{fill:#4b3d3a;}.cls-65{fill:#8c6160;}.cls-66{fill:#ae8a85;}.cls-67{fill:#867571;}.cls-68{fill:#866961;}.cls-69{fill:#92696b;}.cls-70{fill:#4b3a35;}.cls-71{fill:#7b625b;}.cls-72{fill:#aa8e86;}.cls-73{fill:#8c7064;}.cls-74{fill:#8d5d61;}.cls-75{fill:#8e6564;}.cls-76{fill:#ae808a;}.cls-77{fill:#b98d96;}.cls-78{fill:#97746c;}.cls-79{fill:#262424;}.cls-80{fill:#886a5e;}.cls-81{fill:#3f3433;}.cls-82{fill:#352d2c;}.cls-83{fill:#7d6f65;}.cls-84{fill:#7b6d5f;}.cls-85{fill:#d7cec4;}.cls-86{fill:#81716a;}.cls-87{fill:#66564e;}.cls-88{fill:#524641;}.cls-89{fill:#5a4e43;}.cls-90{fill:#5c473c;}.cls-91{fill:#574137;}.cls-92{fill:#463936;}.cls-93{fill:#2a2727;}.cls-94{fill:#272625;}.cls-95{fill:#c9a99d;}.cls-96{fill:#947a78;}.cls-97{fill:#c89d98;}.cls-98{fill:#af9286;}.cls-99{fill:#a48178;}.cls-100{fill:#2e292c;}.cls-101{fill:#806a67;}.cls-102{fill:#d69ba7;}.cls-103{fill:#9d6a70;}.cls-104{fill:#b79794;}.cls-105{fill:#8c625d;}.cls-106{fill:#6c575a;}.cls-107{fill:#594948;}.cls-108{fill:#584f58;}.cls-109{fill:#544446;}.cls-110{fill:#685858;}.cls-111{fill:#c6b6b2;}.cls-112{fill:#726062;}.cls-113{fill:#76676a;}.cls-114{fill:#6f5f5a;}.cls-115{fill:#69524c;}.cls-116{fill:#7d645d;}.cls-117{fill:#cf9897;}.cls-118{fill:#ac867d;}.cls-119{fill:#604d4e;}.cls-120{fill:#d6a7ad;}.cls-121{fill:#c7a4af;}.cls-122{fill:#be9a96;}.cls-123{fill:#bb9690;}.cls-124{fill:#ddacaf;}.cls-125{fill:#d8aca8;}.cls-126{fill:#8a6362;}.cls-127{fill:#d3a3a3;}.cls-128{fill:#b48b85;}.cls-129{fill:#b8908b;}.cls-130{fill:#b38a84;}.cls-131{fill:#b68d8a;}.cls-132{fill:#947673;}.cls-133{fill:#dea7ab;}.cls-134{fill:#d6a4a7;}.cls-135{fill:#c69795;}.cls-136{fill:#775f5d;}.cls-137{fill:#755d5d;}.cls-138{fill:#ae7d81;}.cls-139{fill:#cf9b9c;}.cls-140{fill:#746873;}.cls-141{fill:#78696e;}.cls-142{fill:#816a79;}.cls-143{fill:#9b8ba9;}.cls-144{fill:#7e6f7c;}.cls-145{fill:#665f85;}.cls-146{fill:#888bc1;}.cls-147{fill:#372a2c;}.cls-148{fill:#bd8f93;}</style></defs><title>Fichier 4</title><g id="Calque_2" data-name="Calque 2"><g id="Calque_3" data-name="Calque 3"><rect class="cls-1" width="368" height="447"/><polyline class="cls-2" points="83 209 84.5 187.5 85 198 94 252 79 211"/><polygon class="cls-3" points="122 253 131 247 156 225 163 233 193 244 184 257 140.25 259.5 137 260 123 262 122 253"/><polygon class="cls-4" points="193 244 220.5 227.5 239.5 255.5 201.06 255.5 191.5 257.5 184.5 256.5 187.17 251.24 193 244"/><polygon class="cls-5" points="222 220 265.75 255.88 276 240 280 227 280 201 278 201 261 214 240 217 222 216 222 220"/><polyline class="cls-6" points="220 227 240 256 266 255.5 222 220 220 227"/><polyline class="cls-7" points="266 255 235 255 211 272 232.65 305.06 266 255"/><polyline class="cls-8" points="84 186 85 198 92.94 245.67 114 229 94.08 211.7 84.08 186.7 85 189"/><polyline class="cls-9" points="121 230 142 227 120 254 123 261 156.98 225.06 156 223 124 230"/><polyline class="cls-10" points="92 246 112.16 228.67 123.69 229.25 143.37 226.16 122.37 253.16 93.64 246.27 92 246"/><polyline class="cls-11" points="98.01 263.44 92.94 245.67 122 253 98.01 263.44"/><polygon class="cls-12" points="98 263 110 290 124 300 150.47 265.44 122 253 98 263 98 263"/><polygon class="cls-13" points="150 266 176 276 124 300 150 266"/><path class="cls-14" d="M242,173c0-.31,6,0,6,0l6,8-9.5,1.13L242,174h0"/><polygon class="cls-15" points="209 158 209 165 235 167 267 149 252.13 148.25 235 149 220 152 209 158"/><polyline class="cls-16" points="206.07 194.61 214 208 226 216 229 195.88 206.07 194.61 206.07 194.61"/><polyline class="cls-17" points="246 197 265 210 277 200 246 197"/><polyline class="cls-18" points="155 324 172 334 207 331 231 306 225 327 194 350 166 350 155 341 155 324"/><polygon class="cls-9" points="180 201 184 235 200 224 180 201"/><path class="cls-19" d="M172,178c.16,0-.25,14,0,14h4.88L182,181h12l5,10,6-3-2-6-.69-8,2.69-7,4.5-2-.33-6-9.88,3.84-9,5L178,168l-12-4-1,2,5,5,2,6"/><polygon class="cls-20" points="172 192 171 196 166 211 169 214 176.88 192 172 192"/><polyline class="cls-21" points="178 166.31 190 165 204 157 211 159 190 168 178 168 178 166.31"/><polygon class="cls-22" points="210 201 206 202 199 191 205 188 210 201"/><polygon class="cls-23" points="209 165 235 167 221 171 209 165"/><polyline class="cls-24" points="220 178 205 188 205.69 190.41 208 195 221 183 220 180"/><polygon class="cls-1" points="205 167 213 172 220 176 221 171 221 171 209 165 205 167"/><polygon class="cls-25" points="213 183.2 219.99 179.14 220.17 176.03 213 172 213 183.2"/><polygon class="cls-26" points="202 174 203 182 213 172 202 174"/><polygon class="cls-23" points="213 172 202 174 205 167 213 172"/><polygon class="cls-27" points="205 188 203 182 213 172 213 183 205 188"/><polyline class="cls-28" points="227 178 231 196 208 195 226 178"/><polyline class="cls-29" points="262 177 278 202 283 182 267 177 262 177"/><polygon class="cls-30" points="245.56 182 243 190 259 192 269 187 262 177 246 182 245.56 182"/><polygon class="cls-31" points="246 182 244 190 230 196 227 184 237 185 244 182 246 182"/><polygon class="cls-32" points="243.85 190.04 259 191 246 197 229 196 243.85 190.04"/><polyline class="cls-9" points="171 196 169 202 134 201 111 190 114 184 169 196"/><polyline class="cls-9" points="132.21 200.57 111.97 224.57 100 213 132.21 200.57"/><polygon class="cls-33" points="155 172 139.37 162.23 139 162 139 172 155 172"/><polyline class="cls-9" points="170 172 172 178 172 187 161 187 169 172"/><polygon class="cls-9" points="172 188 172 187 160.71 186.85 158.96 182.06 158.96 182.06 169.91 174.31 172 188"/><polygon class="cls-34" points="160 177 167.96 171 155 172 155 186 160 177"/><polyline class="cls-35" points="149 186 169 202 172 193 172 186 149 186"/><polyline class="cls-9" points="113.35 183.24 101.35 210.38 95.19 190.08 108.41 184 113.35 183.24"/><polygon class="cls-36" points="139 164 139 169 120 173 111 190 104 180 115 170 139 164"/><polygon class="cls-37" points="129 185 121 186 115 190 161 195 149 186 145 188 133 188 129 185"/><polygon class="cls-38" points="134 191 110 190 133.67 200.57 161 195 134 191"/><polyline class="cls-39" points="197 187 193 215.95 200 224 210 209 197 186 197 187 197.74 186.38"/><polygon class="cls-40" points="183.5 181 193 216 197.6 187 194.16 180.52 183.5 181"/><polyline class="cls-41" points="169 214 176 193 182 181 184 181 193 216 169 214"/><polyline class="cls-42" points="210 209 200 224 209 227 217 225 220 228 223 219 210 209"/><polyline class="cls-43" points="184 215 193 216 193 230 182 230 183.93 215.5"/><polyline class="cls-44" points="193 230 200 224 193 216 193 230"/><path class="cls-45" d="M144.37,225.16,157,224s-25.18,22.79-25,23-9,5-9,5l21.37-26.84"/><polyline class="cls-46" points="99 213 112 225 132.21 200.57 99 213"/><polyline class="cls-47" points="114 183 121 186 115.61 190.23 111 190 114 184"/><polyline class="cls-48" points="162 167 165 172 155 172 162 167"/><polyline class="cls-49" points="150.5 169.19 150.61 169.13 155 167 158.64 169.4 155 172 150.4 169.13"/><polyline class="cls-50" points="139 162 150 163 143.76 164.98 139 162"/><polygon class="cls-51" points="143.92 165.07 155 167 150.6 169.25 143.92 165.07"/><polygon class="cls-52" points="155 167 150.33 163.21 150 163 144 165 155 167"/><polyline class="cls-52" points="162 167 158 170 150 163 162 167"/><polygon class="cls-53" points="157 187 161 187 168 171 160 177 155 186 157 187"/><polygon class="cls-54" points="146 172 155 178 155 172 146 172"/><polyline class="cls-55" points="140 172 146 179 138 177 139 172"/><polygon class="cls-56" points="156 225 169 214 193 244 163.66 233.62 156 225"/><polygon class="cls-57" points="229 171 232 170 249 170 252 165 259 162 254 170 262 177 254 182 248 173 232 173 230 175 229 171"/><polygon class="cls-58" points="246 197 267 210 255 213 237 217 224.41 216.33 246 197"/><polygon class="cls-59" points="259 162 265 150 233 168 259 162"/><polyline class="cls-9" points="245 197 268 188 278 202 282 182 267 177 226 178"/><polyline class="cls-9" points="208.5 158.5 202 170 202.5 183.5 206 192 209.5 200.5 213.5 207.5 225.5 215.5 240.5 215.5 265.5 209.5 276.5 199.5 282.5 176.5 281.5 161.5 272.5 149.5 255.5 147.5 231.5 151.5 208.5 158.5"/><path class="cls-9" d="M93.5,168.5c-1,0,32.4-10.12,32.4-10.12l11.61,1,14,1.16,12,4,7,7,2,13L164,212l-10.23,9.25L123.5,227.5l-12-3-12-11L107,189l.52-1.5-20-7,1-6Z"/><path class="cls-9" d="M116.22,296.77l6.28,6.73L140,307l34.5,21.5,21.82-4a1.42,1.42,0,0,0,.35-.11L228.5,309.5l3-3,7-11,37.32-54.29,4.64-14.09-2-26.18-13,11.56-9,4-20,2h-14l-2,9-26.24,16-4.35,0-28.41-11-5-9-33,7-10-1-10-8-9-9L85,186l-3,23,6,23,11.5,36.5,9,20Z"/><path class="cls-60" d="M112,190s-13,23-13,24-12-35-12-35Z"/><polygon class="cls-9" points="180.5 181.5 168 213 156.5 223.5 161.5 232.5 192.5 244.5 220.5 227.5 222.5 218.5 210.5 209.5 194.5 180.5 180.5 181.5"/><polygon class="cls-61" points="159.65 229.18 169 229 184.5 239.5 182 240 164 234 159.65 229.18"/><polygon class="cls-62" points="216.5 224.5 220.83 227.42 199 241 209 227 216.5 224.5"/><polygon class="cls-63" points="206.5 156.5 231.5 146.5 268.68 143.97 291 145 291.5 154.5 286.5 158.5 284.5 151.5 273.5 149.5 255 149 231.5 151.5 208.5 158.5 204.5 157.5 206.5 156.5"/><polygon class="cls-64" points="279 165 279 181 281 186 287 165 287 160 284.5 151.5 273 149 265 149 279 165"/><polygon class="cls-65" points="210 201 214 207 225.5 215.5 240.5 215.5 236.5 218.5 222 219 210 209 206 202 210 201"/><polygon class="cls-66" points="265.5 209.5 276.5 199.5 278.5 201.5 265.5 212.5 256.5 216.5 236.5 218.5 240.5 215.5 255 213 265.5 209.5"/><polygon class="cls-67" points="77 165 84.5 164 90.5 163 96 169 93 173 90 181 82 181 78.5 177 75 172 77 165"/><polygon class="cls-68" points="99.5 213.5 106.5 219.5 113 226 112.5 228.5 103.5 221.5 94.5 212.5 86.5 194.5 82.5 180.5 86.5 180.5 87.5 180.5 97.5 208.5 99.5 213.5"/><path class="cls-69" d="M113.5,229.5l9.46.95a3.83,3.83,0,0,0,1.07-.06l13.47-2.89L154,225h3l12-11-3-3-11,10-16.5,3.5L123,227l-5-1-6.5-1.5,1,4Z"/><polygon class="cls-63" points="97.5 167.5 109.5 163.5 125.5 158.5 140 161 151 161 165 166 166 164 178 168 178 166 150.5 156.5 135.5 155.5 120.5 155.5 101.5 160.5 90.5 163.5 93.5 168.5 97.5 167.5"/><polygon class="cls-70" points="83.5 208.5 82.5 207.5 79.5 204.5 80.78 179.21 82.5 180.5 84.5 187.5 83.5 208.5"/><polygon class="cls-71" points="94.5 251.5 87.5 248.5 83.5 231.5 79.5 216.5 79.5 204.5 83.5 208.5 90.5 236.5 94.5 251.5"/><polygon class="cls-72" points="100.5 150.5 130.5 139.5 165 146 164.5 141.5 147.5 134.5 126.5 135.5 100.5 150.5"/><polygon class="cls-73" points="206 143 222.5 133.5 258.12 134.48 268.12 140.48 230.5 141.5 206 143"/><polygon class="cls-74" points="137 260 151.5 258.5 152.5 262.5 151.19 262.29 137 260"/><polygon class="cls-75" points="212 267 229 255 244 256 212 267"/><polygon class="cls-76" points="151.5 258.5 184.5 256.5 191.5 257.5 200.5 255.5 229 255 220.5 261.5 205.5 265.5 193.5 264.5 182 264 152.5 262.5 151.5 258.5"/><polygon class="cls-77" points="143.33 263.4 167.84 273.82 211.5 272.5 231 258 221.27 261 205.5 265.5 193.5 264.5 180 269 143.33 263.4"/><polygon class="cls-78" points="249.5 244 239.5 254 242.5 244 249.5 244"/><polygon class="cls-79" points="87.5 254.5 92.5 271.5 101.5 291.5 116 306 118.5 315.5 120.5 335.5 141.5 409.5 126.5 388.5 103.5 353.5 93.5 330.5 74.5 305.5 72.5 219.5 80.54 251.02 87.5 254.5"/><polygon class="cls-80" points="152.5 70.5 114.5 98.5 103.5 126.5 99.5 144.5 96.5 138.5 83.5 164.5 100.5 108.5 87 114 106.5 97.5 152.5 70.5"/><polygon class="cls-81" points="82.5 306.5 84.5 367.5 97 386 107.5 397.5 118.5 397.5 134 385 127.5 396.5 111.5 407.5 101.5 407.5 78 394 81.5 302.5 82.5 306.5"/><polygon class="cls-82" points="78 397 100.5 415.5 114.5 419.5 127.5 408.5 114.5 411.5 105 407 78 393 78 397"/><polygon class="cls-83" points="81.71 89.12 65 124 51.5 169.5 55.5 141.5 58.5 121.5 81.71 89.12"/><polygon class="cls-84" points="79.87 82.55 60.15 118.84 82 90 79.87 82.55"/><polygon class="cls-85" points="82 81 59.5 108.5 49.5 149.5 57.5 107.5 70.5 85.5 82 81"/><polygon class="cls-85" points="87.5 75.5 71 85 78.5 83.5 87.5 75.5"/><polygon class="cls-86" points="58.5 150.5 58.44 153.5 57.5 198.5 56.5 218.5 48.5 245.5 37.5 283.5 35.5 296.5 42.5 318.5 47 352 45.5 309.5 39.5 291.5 48 260 59 224 64.5 125.5 57.63 147.03 58.5 150.5"/><polygon class="cls-87" points="90.5 72.5 110.5 44.5 135.5 30.5 144.5 14.5 165.5 3.5 153.5 17.5 151.5 23.5 152.5 70.5 106.5 97.5 90.5 113.5 64.5 124.5 77.5 95.5 81.65 89.23 79.5 82.61 90.5 72.5"/><polygon class="cls-88" points="48 362 46 335.5 45 310 39 292 46 263.5 57.05 220.85 64 124 101 108 84 164.5 77 165.5 76 172.5 79 177.5 81.5 180 80 205.5 80 217.5 81.97 303.5 79.8 369.83 78 398 48 362"/><polygon class="cls-89" points="153.5 72.5 200 146 181.5 79.5 228 133.67 220.5 117.5 232.5 126.5 215.5 90.5 255.5 134.5 267.5 140.5 270.11 144.52 291.65 145.34 289.05 107.31 265.5 67.5 213.5 16.5 190.5 4.5 168.5 1.5 165.5 3.5 153.5 15.5 151.5 23.5 152.5 70.5 153.5 72.5"/><polyline class="cls-90" points="286 180.5 287 160.5 286 158 291 154.5 288.51 106.69 292 110.5 304 154.5 307 187.5 306 212.5 304 228 288 288 254 322 261 293.5 260 280.5 272 254.5 278 230.5 278 201.5 282.98 190.83 285 186.5"/><polygon class="cls-91" points="303.5 235.5 313.5 266.5 319.5 300.5 313.5 328.5 307.5 354.5 275 372 298.5 349.5 307.5 317.5 287.5 287.5 287.5 287.5 304.04 227.18 303.5 235.5"/><polygon class="cls-92" points="262.5 316.5 254.5 352.5 251.5 365.5 267.5 367.5 269.5 378.5 275.5 374.5 276.5 370.5 298.5 349.5 307.5 317.5 287.5 287.5 280.03 295.19 263.5 312.5 262.5 316.5"/><polygon class="cls-93" points="231 306 249.5 295.5 255.5 299.5 260.42 297.84 254.5 321.5 263.53 312.2 251.5 365.5 202.5 372.5 225 327 231 306"/><polygon class="cls-94" points="168.5 447.5 202.5 372.5 251.5 365.5 267.5 367.5 269.5 378.5 275.5 374.5 276.5 370.5 307.5 354.5 313.88 326.74 335.5 335.5 368.5 356.5 368.5 447.5 168.5 447.5"/><polygon class="cls-79" points="40.5 319.5 0.5 340.5 0.5 447.5 159.5 447.5 148.17 405.33 133.5 385.5 127.5 396.5 111.5 407.5 103.5 407.5 114.5 411.5 127.5 408.5 114.5 419.5 100.5 415.5 76.5 395.5 48.5 362.5 44.58 332.5 42.68 319.5 41.56 315.54 40.5 319.5"/><polygon class="cls-95" points="149.5 72.5 119 95 114 98 103.5 126.5 99.5 144.5 100.5 150.5 126.5 135.5 147.5 134.5 154.13 73.5 152.5 70.5 149.5 72.5"/><polygon class="cls-96" points="165 146 162.5 160.5 150.5 156.5 120.5 155.5 90.5 163.5 83.5 164.5 96.5 138.5 99.5 144.5 100.5 150.5 130.5 139.5 165 146"/><polygon class="cls-97" points="153 72 198.56 143.41 181 79 227.5 133.5 222.5 133.5 206.5 142.5 267.5 140.5 271 145 230.83 146.76 204.5 157.5 190.5 165.5 178.5 166.5 162.5 160.5 164.5 141.5 147.33 134.5 153 72"/><polyline class="cls-98" points="215 89 254.5 133.4 255.5 134.5 227.5 133.5 220 117 232.5 126.5 216.5 92.62 216.5 92.62 216.5 92.62"/><polygon class="cls-99" points="271.5 256.5 260.5 280.5 249.5 295.5 231 306 235.5 299.5 265.5 255.5 276 240 272.5 254.5 271.5 256.5"/><polygon class="cls-100" points="93.5 317.5 100.5 327.5 110.5 350.5 133.5 385.5 125 393 118.5 397.5 107.5 397.5 97.5 387.5 84.5 367.5 82 303 93.5 317.5"/><polyline class="cls-92" points="249 296.42 261 280 262.4 292.26 261 298 255 300 249 296.42"/><polygon class="cls-101" points="227 184.5 236 186 245 182 235 184 226 182 227 184.5"/><polygon class="cls-102" points="189 282 212 272 190 273 166 273 189 282"/><polygon class="cls-103" points="174.7 263.58 194 264.48 181 269 144 264 137 260 174.7 263.58"/><polygon class="cls-104" points="123 303 155 324 157 343 151 398 128.81 337.11 125 313 123 303"/><polygon class="cls-105" points="171 448 151.49 397.66 128 335 158 448 171 448"/><polygon class="cls-106" points="232 173 226 178 226.11 182.27 235 184 238 179 236 173 232 173"/><polygon class="cls-107" points="242 173 245 180 245 182 235 184 232 179 236 173 242 173"/><polygon class="cls-106" points="146 179 149 186 145 188 139 188 136 183 138 177 146 179"/><polygon class="cls-108" points="134 177 128 185 132 188 138 188 141.06 183.1 138 177 134 177"/><polygon class="cls-109" points="232 175 230 179 238 179 236 175 232 175"/><polygon class="cls-109" points="232 183 230 179 238 179 236 183 232 183"/><polygon class="cls-110" points="236 177 235 180 233 180 233 179 234 176 236 177"/><rect class="cls-111" x="240" y="175" width="1" height="2"/><polyline class="cls-112" points="221 171 235 167 229.35 170.77 229 171 230 175 220 176 221 171"/><polygon class="cls-113" points="220 180 221 183 230 175 220 176 220 180"/><polygon class="cls-9" points="273 151 283 163 281 185 262 170 263.05 155.23 273 151"/><polyline class="cls-114" points="287 165 283 163 282 182 278 202 287 184 287 164"/><polygon class="cls-115" points="261 177 267.21 177 276.81 162.5 265 149 254 170 261 177"/><polygon class="cls-116" points="279 181 267 177 277 162 279 165 279 181"/><polygon class="cls-117" points="229 196 246 197 226 215 229 196"/><polygon class="cls-118" points="245 197 277 200 269 187 245 197"/><polygon class="cls-119" points="139 172 139 168 120 172 114 177 108 180 112 182 121 186 121 177 138 177 139 172"/><polygon class="cls-120" points="132.21 200.57 112 225 124 228 155 221 132.21 200.57"/><polygon class="cls-121" points="115 170 139 160 139 164 115 170"/><polygon class="cls-122" points="115 170 105 182 95 168 126 158 139 160 115 170"/><polygon class="cls-123" points="111 190 96 168 92 173 90 181 111 190"/><polygon class="cls-124" points="169 202 132.21 200.57 155 221 166 211 169 202"/><polygon class="cls-125" points="133.2 200.41 99 213 111 190 133.2 200.41"/><polygon class="cls-126" points="110 290 123 303 171 334 208 331 231 306 208 327 172 329 125 299 110 290"/><polygon class="cls-127" points="175 276 190 282 171 329 125 299 175 276"/><polygon class="cls-128" points="153.1 385.49 182 418 170.19 445.92 151 396 153.21 384.25 153.1 385.49"/><polygon class="cls-129" points="157 342.64 166 350 151 394 157 342.64"/><polygon class="cls-130" points="166 350 182 418 153.1 385.49 166 350"/><polygon class="cls-131" points="166 350 194 350 182 418 166 350"/><polygon class="cls-132" points="225.38 326.74 181 420 194 350 225.38 326.74"/><polygon class="cls-133" points="190 282 208 327 171 329 190 282"/><polygon class="cls-134" points="191.07 281.1 212 272 208 327 190 282 191.07 281.1"/><polygon class="cls-135" points="209.32 325.8 233 304 212 272 208 327 209.32 325.8"/><polygon class="cls-136" points="249 164 234.25 167.5 229 171 249 164"/><polygon class="cls-137" points="231 170 248 164.35 259 162 252 165 249 170 231 170"/><polygon class="cls-138" points="200.25 223.62 193 230 182 230 193 244 199 241 209 227 200.25 223.62"/><polygon class="cls-139" points="169 214 182 230 184 215 169 214"/><polygon class="cls-109" points="136 179 134 182.5 142 182.5 140 179 136 179"/><polygon class="cls-109" points="136 186 134 182.5 142 182.5 140 186 136 186"/><polygon class="cls-140" points="137 184 140 184 139 180 137 180 137 182 137 184"/><polygon class="cls-141" points="121 177 134 177 128 185 120.66 186.26 121 178 121 177"/><polygon class="cls-142" points="139 160 151 161 165 166 170.09 171 172 177 172 181 169.75 175.91 168 171 165 172 162 167 150 163 139 162 139 160"/><polygon class="cls-143" points="168 171 172 181 172 187.29 161 187 168 171"/><polygon class="cls-144" points="146 179 152 181 154 186 149 186 146 179"/><polyline class="cls-145" points="140 172 148 179 146 179 155 178 155 186 154 186 151.84 181.43 146 179"/><path class="cls-146" d="M140,172h6c.47,0,9,6,9,6l-7,1Z"/><polygon class="cls-147" points="80 227 80 251 87 254 92 271 101 291 116 306 120 336 134.7 387.12 146 402.07 130 339.7 124 304 111 290 98.01 263.44 95 252 80 216 80 227"/><polygon class="cls-148" points="133.09 200.57 160.67 194.98 169 202 133.09 200.57"/></g></g></svg>