<?xml version="1.0" encoding="utf-8"?>
<!-- Generator: Adobe Illustrator 22.1.0, SVG Export Plug-In . SVG Version: 6.00 Build 0)  -->
<svg version="1.1" id="Calque_1" xmlns="http://www.w3.org/2000/svg" xmlns:xlink="http://www.w3.org/1999/xlink" x="0px" y="0px"
	 viewBox="0 0 412.2 303.5" style="enable-background:new 0 0 412.2 303.5;" xml:space="preserve">
<style type="text/css">
	.st0{fill:#2D3C43;}
	.st1{fill:#B34C1A;}
	.st2{fill:#F28C5B;}
	.st3{fill:#EF7B43;}
	.st4{fill:#13B1A4;}
	.st5{fill:#78C8CF;}
	.st6{fill:#FFFFFF;}
	.st7{fill:#A3D9EA;}
	.st8{enable-background:new    ;}
	.st9{opacity:0.58;}
</style>
<rect x="-0.5" y="-0.6" class="st0" width="419.8" height="311.6"/>
<g>
	<path class="st1" d="M249.6-0.3H200v49.9h49.6V-0.3z"/>
	<path class="st2" d="M249.1,63.2h-49.6v49.9h49.6V63.2z"/>
	<path class="st3" d="M248.6,126.7H199v49.9h49.6V126.7z"/>
	<path class="st4" d="M248.1,190.2h-49.6v49.9h49.6V190.2z"/>
	<path class="st5" d="M247.7,253.7h-49.6v49.9h49.6L247.7,253.7z"/>
</g>
<title>Fichier 6</title>
<path class="st6" d="M153.8,251c-17.9,0-32.1,8.9-39.6,22.5c-2.4-31.2-28.8-43.3-54.9-50.7c-27.7-7.7-55.1-10.5-55.1-25.2
	c0-12.6,13.3-16.4,24-16.4c15.4,0,31.6,5.5,30.8,23.1h49.5c-0.3-43.2-38.4-61.8-76.3-61.8c-11.4,0-22.8,1.7-39.8,7l0.1,104.6
	c9.9-0.6,14,0.7,17.8,1.8c27.5,8,54.6,11.2,54.6,28c0,14.3-15.5,19.7-30.4,19.7c-21,0-34.9-7.3-36-29.8v30.4H199
	c0.3-2.4,0.4-4.7,0.4-7.1C199.6,271,180.7,251,153.8,251z M170.4,304.3H137c-0.3-2.4-0.4-4.7-0.4-7.1c0-11.1,4-24.4,17-24.4
	s17.3,13.3,17.3,24.4C171,299.6,170.8,302,170.4,304.3z"/>
<rect x="-264.5" y="-1.5" class="st0" width="97" height="305.1"/>
<rect x="-268.2" y="133.1" class="st7" width="127.3" height="127.9"/>
<g>
	<path class="st6" d="M197.9,286.7h4.7v1.6l0,0c0.8-1.2,2.1-1.9,3.6-1.9c4.1,0,5.8,3.6,5.8,7.3c0,3.4-1.8,6.7-5.5,6.7
		c-1.5,0-2.9-0.6-3.7-1.8l0,0v5.8h-4.9L197.9,286.7L197.9,286.7z M202.6,293.2c0,2.3,0.7,3.8,2.6,3.8s2.6-2,2.6-3.8
		s-0.7-3.6-2.5-3.6C204.1,289.6,202.6,290.5,202.6,293.2z"/>
	<path class="st6" d="M212.7,282h4.3v6.8l0,0c0.7-1.4,2.4-2.2,4-2.2c4.3,0,4.7,3.2,4.7,5.1v8.5h-4.3v-6.5c0-1.8,0.2-3.6-2.1-3.6
		c-1.6,0-2.3,1.4-2.3,2.8v7.2h-4.2L212.7,282L212.7,282z"/>
	<path class="st6" d="M231.1,285.3h-4.3V282h4.3V285.3z M226.8,287h4.3v13.2h-4.3V287z"/>
	<path class="st6" d="M236.2,294.3c0,1.8,1.1,3,3,3c1,0,2-0.5,2.4-1.5h4c-0.8,3.1-3.5,4.4-6.5,4.4c-4.2,0-7.1-2.6-7.1-7.1
		c0-4.1,3.2-6.9,7.1-6.9c4.7,0,7,3.6,6.8,8.1H236.2L236.2,294.3z M241.5,291.9c0-1.5-1.1-2.7-2.5-2.7c-1.5,0-2.5,1.1-2.8,2.7H241.5z
		"/>
</g>
<g class="st8">
	<path class="st0" d="M-232.2,407.5h-1.2v-17.7c0-2.6-0.6-4.6-1.6-5.8c-1.1-1.3-2.6-1.9-4.9-1.9c-2.6,0-4.7,1.3-6.4,3.8
		c-1,1.5-1.7,3.2-2,5.1v16.6h-1.2v-26.4h1.2v6.3c0.8-2.2,2-3.8,3.4-5c1.5-1.2,3.1-1.7,5-1.7c2,0,3.6,0.4,4.9,1.4
		c1.3,1,2.1,2.6,2.5,4.8c0.7-1.9,1.9-3.5,3.4-4.5c1.6-1.1,3.3-1.7,5.3-1.7c2.5,0,4.5,0.8,5.8,2.4s1.9,4,1.9,7.2v17.2h-1.2v-17.1
		c0-2.9-0.5-5-1.6-6.4s-2.7-2.1-4.9-2.1c-2.9,0-5.2,1.3-6.8,3.8c-1,1.4-1.5,2.8-1.6,4.2L-232.2,407.5L-232.2,407.5L-232.2,407.5z"/>
	<path class="st0" d="M-196.4,407.5c-0.3-1.1-0.4-2.7-0.4-4.9c-1,1.7-2.2,3-3.8,3.9c-1.7,1-3.4,1.4-5.5,1.4c-2.2,0-4-0.6-5.3-1.9
		c-1.4-1.3-2.1-3-2.1-5.2c0-2.4,1-4.3,2.9-5.8c2-1.5,4.6-2.2,7.8-2.3h5.9v-3.9c0-2.2-0.6-3.9-1.9-5.1c-1.3-1.2-3-1.8-5.4-1.8
		c-2.2,0-4,0.6-5.5,1.8c-1.5,1.2-2.2,2.7-2.2,4.5h-1.2c0-2.2,0.9-4,2.5-5.4c1.7-1.5,3.8-2.3,6.3-2.3s4.6,0.8,6.2,2.2
		c1.5,1.4,2.2,3.5,2.3,5.9v12.5c0,2.9,0.2,4.9,0.6,5.8v0.2h-1.5v0.4L-196.4,407.5L-196.4,407.5z M-206.2,406.6
		c2.2,0,4.1-0.5,5.8-1.6c1.6-1.1,2.8-2.6,3.6-4.6v-6.3h-5.6c-3.4,0-6,0.8-7.8,2.3c-1.5,1.2-2.2,2.7-2.2,4.5c0,1.6,0.6,2.9,1.8,4.1
		S-207.9,406.6-206.2,406.6z"/>
	<path class="st0" d="M-192,394c0-4.2,0.8-7.5,2.4-9.8c1.6-2.4,3.8-3.6,6.6-3.6c1.8,0,3.3,0.4,4.7,1.3s2.4,2.3,3.3,4v-4.8h1.2v25.8
		c0,3.5-0.8,6.2-2.4,8.1c-1.7,1.9-3.8,2.9-6.6,2.9c-1.6,0-3-0.4-4.4-1.2c-1.4-0.8-2.4-1.8-3.4-3.2l0.9-0.9c0.9,1.3,2,2.3,3,2.9
		c1.1,0.6,2.3,1.1,3.9,1.1c2.4,0,4.4-0.9,5.7-2.5s2.1-4,2.2-6.9v-4c-0.8,1.5-2,2.6-3.3,3.5c-1.4,0.9-3,1.2-4.8,1.2
		c-2.7,0-4.9-1.2-6.6-3.6c-1.6-2.4-2.4-5.7-2.4-9.9L-192,394L-192,394z M-190.8,394.5c0,3.8,0.7,6.7,2.1,8.9
		c1.4,2.2,3.2,3.2,5.7,3.2c2.1,0,3.7-0.5,5.1-1.5c1.4-1.1,2.4-2.5,3-4.3v-11.9c-1.3-4.5-4-6.8-8.1-6.8c-2.4,0-4.3,1.1-5.7,3.1
		C-190.2,387.3-190.8,390.4-190.8,394.5z"/>
	<path class="st0" d="M-170.3,394c0-4.2,0.8-7.5,2.4-9.8c1.6-2.4,3.8-3.6,6.6-3.6c1.8,0,3.3,0.4,4.7,1.3s2.4,2.3,3.3,4v-4.8h1.2
		v25.8c0,3.5-0.8,6.2-2.4,8.1c-1.7,1.9-3.8,2.9-6.6,2.9c-1.6,0-3-0.4-4.4-1.2c-1.4-0.8-2.4-1.8-3.4-3.2l0.9-0.9c0.9,1.3,2,2.3,3,2.9
		s2.3,1.1,3.9,1.1c2.4,0,4.4-0.9,5.7-2.5s2.1-4,2.2-6.9v-4c-0.8,1.5-2,2.6-3.3,3.5c-1.4,0.9-3,1.2-4.8,1.2c-2.7,0-4.9-1.2-6.6-3.6
		c-1.6-2.4-2.4-5.7-2.4-9.9L-170.3,394L-170.3,394z M-169.1,394.5c0,3.8,0.7,6.7,2.1,8.9c1.4,2.2,3.2,3.2,5.7,3.2
		c2.1,0,3.7-0.5,5.1-1.5c1.4-1.1,2.4-2.5,3-4.3v-11.9c-1.3-4.5-4-6.8-8.1-6.8c-2.4,0-4.3,1.1-5.7,3.1
		C-168.4,387.3-169.1,390.4-169.1,394.5z"/>
	<path class="st0" d="M-147.7,372.9c0-0.3,0.1-0.6,0.4-1c0.2-0.2,0.5-0.4,0.9-0.4c0.3,0,0.6,0.1,0.9,0.4c0.2,0.2,0.4,0.5,0.4,1
		c0,0.3-0.1,0.6-0.4,1c-0.2,0.2-0.5,0.4-0.9,0.4c-0.3,0-0.6-0.1-0.9-0.4C-147.6,373.7-147.7,373.3-147.7,372.9z M-146,407.5h-1.2
		v-26.4h1.2V407.5z"/>
	<path class="st0" d="M-142.8,393.8c0-2.5,0.4-4.8,1.3-6.8c0.9-1.9,2.2-3.6,3.7-4.6c1.6-1.1,3.4-1.7,5.4-1.7s3.8,0.5,5.4,1.6
		s2.8,2.6,3.7,4.6c0.9,1.9,1.4,4.2,1.4,6.7v1.2c0,2.5-0.4,4.8-1.3,6.8c-0.9,1.9-2.1,3.6-3.7,4.6c-1.6,1.1-3.4,1.7-5.4,1.7
		s-3.8-0.5-5.4-1.6c-1.6-1.1-2.8-2.6-3.7-4.6c-0.9-2.1-1.4-4.2-1.4-6.7L-142.8,393.8L-142.8,393.8z M-141.7,394.8
		c0,2.2,0.4,4.2,1.2,6.1c0.8,1.8,1.9,3.2,3.3,4.2c1.4,1,3,1.5,4.8,1.5c2.7,0,4.9-1.1,6.6-3.3c1.8-2.3,2.5-5.2,2.5-8.6v-0.8
		c0-2.2-0.4-4.1-1.2-5.9c-0.8-1.8-1.9-3.2-3.3-4.3c-1.4-1.1-3-1.5-4.8-1.5c-2.7,0-4.9,1.2-6.6,3.5c-1.8,2.3-2.5,5.2-2.5,8.6V394.8z"
		/>
</g>
<text transform="matrix(1 0 0 1 133.6167 -240.9969)" style="font-family:'ArialMT'; font-size:12px;">Lorem ipsum</text>
<g class="st8">
	<path class="st6" d="M138.3,103.6h-1.2V87.2c0-2.4-0.6-4.3-1.6-5.4c-1.1-1.2-2.7-1.8-5-1.8c-2.7,0-4.8,1.2-6.5,3.5
		c-1,1.4-1.7,3-2,4.7v15.4h-1.2V79.2h1.2V85c0.8-2,2-3.5,3.5-4.6s3.2-1.6,5.1-1.6c2,0,3.7,0.5,5,1.3c1.3,0.9,2.1,2.4,2.6,4.4
		c0.7-1.8,1.9-3.2,3.5-4.2s3.4-1.6,5.4-1.6c2.6,0,4.6,0.7,5.9,2.2s1.9,3.7,1.9,6.7v15.9h-1.2V87.7c0-2.7-0.5-4.6-1.6-5.9
		s-2.8-1.9-5-1.9c-3,0-5.3,1.2-7,3.5c-1,1.3-1.5,2.6-1.6,3.9v16.3C138.5,103.6,138.3,103.6,138.3,103.6z"/>
	<path class="st6" d="M174.2,103.6c-0.3-1-0.4-2.5-0.4-4.5c-1,1.6-2.3,2.8-3.9,3.6c-1.7,0.9-3.5,1.3-5.6,1.3c-2.2,0-4.1-0.6-5.4-1.8
		c-1.4-1.2-2.1-2.8-2.1-4.8c0-2.2,1-4,3-5.4c2-1.3,4.7-2,8-2.1h6v-3.6c0-2-0.6-3.6-1.9-4.7s-3.1-1.7-5.5-1.7c-2.2,0-4.1,0.6-5.6,1.7
		s-2.2,2.5-2.2,4.2h-1.2c0-2,0.9-3.7,2.6-5s3.9-2.1,6.4-2.1c2.6,0,4.7,0.7,6.3,2c1.5,1.3,2.3,3.2,2.4,5.5v11.6
		c0,2.7,0.2,4.5,0.6,5.4v0.2h-1.5L174.2,103.6L174.2,103.6z M164.2,102.8c2.3,0,4.2-0.5,5.9-1.5c1.6-1,2.9-2.5,3.7-4.3v-5.8h-5.6
		c-3.5,0-6.1,0.7-8,2.1c-1.5,1.1-2.2,2.5-2.2,4.2c0,1.5,0.6,2.7,1.8,3.8C160.9,102.3,162.4,102.8,164.2,102.8z"/>
	<path class="st6" d="M178,91.1c0-3.9,0.8-6.9,2.5-9.1c1.6-2.2,3.9-3.3,6.7-3.3c1.8,0,3.4,0.4,4.8,1.2c1.4,0.8,2.5,2.1,3.4,3.7v-4.4
		h1.2v23.9c0,3.2-0.8,5.7-2.5,7.5s-3.9,2.7-6.7,2.7c-1.6,0-3.1-0.4-4.5-1.1s-2.5-1.7-3.5-3l0.9-0.8c0.9,1.2,2,2.1,3.1,2.7s2.4,1,4,1
		c2.5,0,4.5-0.8,5.8-2.3c1.4-1.5,2.1-3.7,2.2-6.4v-3.7c-0.8,1.4-2,2.4-3.4,3.2c-1.4,0.7-3.1,1.1-4.9,1.1c-2.8,0-5-1.1-6.7-3.3
		c-1.6-2.2-2.5-5.3-2.5-9.2L178,91.1L178,91.1L178,91.1z M179.3,91.6c0,3.5,0.7,6.2,2.1,8.2s3.3,3,5.8,3c2.1,0,3.8-0.5,5.2-1.4
		s2.5-2.3,3.1-4v-11c-1.3-4.2-4.1-6.3-8.3-6.3c-2.5,0-4.4,1-5.8,2.9C180,84.9,179.3,87.8,179.3,91.6z"/>
	<path class="st6" d="M199.7,91.1c0-3.9,0.8-6.9,2.5-9.1c1.6-2.2,3.9-3.3,6.7-3.3c1.8,0,3.4,0.4,4.8,1.2c1.4,0.8,2.5,2.1,3.4,3.7
		v-4.4h1.2v23.9c0,3.2-0.8,5.7-2.5,7.5s-3.9,2.7-6.7,2.7c-1.6,0-3.1-0.4-4.5-1.1s-2.5-1.7-3.5-3l0.9-0.8c0.9,1.2,2,2.1,3.1,2.7
		s2.4,1,4,1c2.5,0,4.5-0.8,5.8-2.3c1.4-1.5,2.1-3.7,2.2-6.4v-3.7c-0.8,1.4-2,2.4-3.4,3.2c-1.4,0.7-3.1,1.1-4.9,1.1
		c-2.8,0-5-1.1-6.7-3.3c-1.6-2.2-2.5-5.3-2.5-9.2L199.7,91.1L199.7,91.1L199.7,91.1z M200.9,91.6c0,3.5,0.7,6.2,2.1,8.2s3.3,3,5.8,3
		c2.1,0,3.8-0.5,5.2-1.4s2.5-2.3,3.1-4v-11c-1.3-4.2-4.1-6.3-8.3-6.3c-2.5,0-4.4,1-5.8,2.9C201.6,84.9,200.9,87.8,200.9,91.6z"/>
	<path class="st6" d="M222.1,71.6c0-0.3,0.1-0.6,0.4-0.9s0.5-0.4,0.9-0.4c0.3,0,0.6,0.1,0.9,0.4c0.2,0.2,0.4,0.5,0.4,0.9
		c0,0.3-0.1,0.6-0.4,0.9c-0.2,0.2-0.5,0.4-0.9,0.4c-0.3,0-0.6-0.1-0.9-0.4C222.2,72.3,222.1,72,222.1,71.6z M223.9,103.6h-1.2V79.2
		h1.2V103.6z"/>
	<path class="st6" d="M226.4,90.9c0-2.3,0.4-4.4,1.3-6.3s2.2-3.3,3.8-4.3s3.5-1.6,5.5-1.6s3.9,0.5,5.5,1.5s2.9,2.4,3.8,4.3
		c0.9,1.8,1.4,3.9,1.4,6.2v1.1c0,2.3-0.4,4.4-1.3,6.3c-0.9,1.8-2.1,3.3-3.8,4.3s-3.5,1.6-5.5,1.6c-2.1,0-3.9-0.5-5.5-1.5
		s-2.9-2.4-3.8-4.3c-0.9-1.8-1.4-3.9-1.4-6.2V90.9z M227.6,91.9c0,2,0.4,3.9,1.2,5.6s1.9,3,3.4,3.9c1.4,0.9,3.1,1.4,4.9,1.4
		c2.8,0,5-1,6.8-3.1c1.7-2.1,2.6-4.8,2.6-8V91c0-2-0.4-3.8-1.2-5.5s-1.9-3-3.4-4c-1.4-1-3.1-1.4-4.9-1.4c-2.8,0-5,1.1-6.8,3.2
		s-2.6,4.8-2.6,8V91.9z"/>
</g>
<g class="st9">
	<path class="st5" d="M343.8,293.8c-0.3,0-0.6-0.1-0.9-0.3c-0.3-0.2-0.3-0.5-0.3-0.9c0-0.3,0.1-0.6,0.3-0.9c0.2-0.3,0.5-0.3,0.9-0.3
		c0.3,0,0.6,0.1,0.9,0.3c0.2,0.3,0.3,0.5,0.3,0.9s-0.1,0.6-0.3,0.9C344.4,293.7,344.1,293.8,343.8,293.8z M374,292v1.1h-23V292H374z
		"/>
	<path class="st5" d="M356.3,284.6c-1.8-0.7-3.2-1.8-4.2-3.3c-1.1-1.4-1.6-3.1-1.6-4.8c0-2.4,0.7-4.3,2.1-5.5s3.5-1.8,6.3-1.8h15
		v1.1h-15c-2.4,0-4.3,0.5-5.5,1.5s-1.8,2.6-1.8,4.7c0,2,0.7,3.7,2.1,5.1c1.4,1.5,3.2,2.4,5.5,3h14.7v1.1h-23v-1.1L356.3,284.6
		L356.3,284.6z"/>
	<path class="st5" d="M374,261.6h-21.8v4h-1.1v-4h-3.4c-2.1,0-3.8-0.5-4.9-1.6c-1.2-1.1-1.8-2.5-1.8-4.4c0-1.1,0.1-2,0.3-2.7
		l1.1,0.2c-0.2,0.7-0.3,1.6-0.3,2.5c0,1.5,0.5,2.7,1.4,3.6c1,0.9,2.4,1.3,4.2,1.3h3.3v-6.1h1.1v6.1h21.8L374,261.6L374,261.6z"/>
	<path class="st5" d="M362.1,252.6c-2.2,0-4.2-0.4-5.9-1.3c-1.8-0.9-3.1-2-4.1-3.6c-1-1.5-1.4-3.3-1.4-5.2s0.5-3.6,1.5-5.2
		c0.9-1.5,2.3-2.7,4-3.6c1.7-0.9,3.7-1.3,5.9-1.3h1c2.2,0,4.2,0.4,5.9,1.3c1.7,0.9,3.1,2,4.1,3.6c1,1.5,1.4,3.3,1.4,5.2
		s-0.5,3.7-1.5,5.2s-2.3,2.7-4,3.6c-1.7,0.9-3.7,1.3-5.9,1.3H362.1z M362.9,251.5c1.9,0,3.7-0.4,5.3-1.1c1.6-0.7,2.8-1.8,3.8-3.2
		c0.9-1.3,1.3-2.9,1.3-4.6c0-2.6-1-4.7-3-6.4s-4.5-2.5-7.6-2.5H362c-1.9,0-3.6,0.4-5.2,1.1c-1.6,0.8-2.8,1.8-3.8,3.2
		c-0.9,1.4-1.3,2.9-1.3,4.6c0,2.6,1,4.7,3,6.4s4.5,2.5,7.5,2.5H362.9z"/>
	<path class="st5" d="M362.3,229.4c-3.7,0-6.5-0.8-8.6-2.3s-3.1-3.7-3.1-6.3c0-1.7,0.4-3.2,1.2-4.5c0.8-1.3,1.9-2.4,3.4-3.2H351
		v-1.2h22.6c3,0,5.4,0.8,7.1,2.3c1.7,1.6,2.6,3.7,2.6,6.3c0,1.5-0.3,3-1,4.2s-1.6,2.4-2.9,3.3l-0.8-0.8c1.1-0.9,2-1.8,2.6-2.9
		c0.6-1.1,0.9-2.3,0.9-3.8c0-2.4-0.7-4.2-2.2-5.5c-1.4-1.3-3.4-2-6.1-2h-3.5c1.3,0.8,2.3,1.8,3,3.2s1.1,2.9,1.1,4.6
		c0,2.6-1.1,4.7-3.2,6.3c-2.1,1.5-5,2.3-8.7,2.3L362.3,229.4L362.3,229.4z M362.7,228.2c3.3,0,5.9-0.7,7.7-2s2.8-3.1,2.8-5.5
		c0-1.9-0.5-3.6-1.3-4.9c-0.9-1.4-2.2-2.3-3.8-2.9h-10.4c-4,1.3-6,3.8-6,7.8c0,2.4,0.9,4.2,2.8,5.5S359.1,228.2,362.7,228.2z"/>
	<path class="st5" d="M351.9,195.6l-0.1,1.5c0,2,0.7,3.6,1.9,4.9c1.3,1.3,3,2.2,5.3,2.6h15v1.1h-23v-1.1h4.8
		c-1.6-0.6-2.9-1.6-3.8-2.8c-0.9-1.3-1.4-2.8-1.4-4.7c0-0.7,0.1-1.2,0.3-1.6L351.9,195.6z"/>
	<path class="st5" d="M374,178.5c-1,0.3-2.4,0.4-4.2,0.4c1.4,0.9,2.6,2.2,3.4,3.7s1.2,3.4,1.2,5.3c0,2.1-0.6,3.8-1.7,5.1
		c-1.2,1.3-2.6,1.9-4.5,1.9c-2.1,0-3.8-0.9-5.1-2.8c-1.3-1.9-1.9-4.4-1.9-7.6v-5.7h-3.4c-1.9,0-3.4,0.6-4.5,1.8
		c-1.1,1.3-1.6,3-1.6,5.2c0,2.1,0.5,3.8,1.6,5.3c1.1,1.4,2.4,2.1,4,2.1l-0.1,1.1c-1.8,0-3.4-0.8-4.7-2.4s-2-3.6-2-6.1
		s0.6-4.4,1.8-5.9c1.3-1.4,3-2.2,5.2-2.2h11c2.5,0,4.2-0.2,5.1-0.6h0.2L374,178.5L374,178.5z M373.3,188c0-2.2-0.5-4-1.4-5.5
		c-1-1.6-2.3-2.7-4.1-3.5h-5.5v5.3c0,3.3,0.7,5.8,2,7.5c1.1,1.4,2.4,2.1,4,2.1c1.4,0,2.6-0.5,3.6-1.6S373.3,189.7,373.3,188z"/>
	<path class="st5" d="M362.8,154.1c3.6,0,6.5,0.8,8.6,2.3s3.2,3.6,3.2,6.3c0,1.7-0.3,3.3-1.1,4.7c-0.7,1.4-1.7,2.4-2.9,3.2h12.3v1.1
		h-31.8v-1.1h4.1c-1.4-0.8-2.6-1.8-3.4-3.2c-0.8-1.3-1.2-2.9-1.2-4.6c0-2.7,1.1-4.8,3.1-6.3s4.9-2.3,8.7-2.3L362.8,154.1
		L362.8,154.1z M362.3,155.3c-3.3,0-5.9,0.7-7.7,2c-1.8,1.3-2.8,3.2-2.8,5.5c0,1.9,0.5,3.6,1.5,4.9c1,1.3,2.4,2.3,4.3,2.9h10.7
		c1.6-0.6,2.8-1.6,3.7-2.9s1.3-3,1.3-4.9c0-2.4-0.9-4.2-2.8-5.5S365.9,155.3,362.3,155.3z"/>
	<path class="st5" d="M356.4,148.1c-1.8-0.7-3.2-1.8-4.2-3.3c-1.1-1.4-1.6-3.1-1.6-4.8c0-2.4,0.7-4.3,2.1-5.5s3.5-1.8,6.3-1.8h15
		v1.1h-15c-2.4,0-4.3,0.5-5.5,1.5s-1.8,2.6-1.8,4.7c0,2,0.7,3.7,2.1,5.1c1.4,1.5,3.2,2.4,5.5,3H374v1.1h-32.6v-1.1H356.4
		L356.4,148.1z"/>
	<path class="st5" d="M343.9,127c-0.3,0-0.6-0.1-0.9-0.3s-0.3-0.5-0.3-0.9s0.1-0.6,0.3-0.9s0.5-0.3,0.9-0.3c0.3,0,0.6,0.1,0.9,0.3
		c0.2,0.3,0.3,0.5,0.3,0.9c0,0.3-0.1,0.6-0.3,0.9C344.5,126.9,344.2,127,343.9,127z M374.1,125.3v1.1h-23v-1.1H374.1z"/>
	<path class="st5" d="M368.4,104.9c-2.8,0-4.7,2.4-5.7,7.1c-0.6,2.8-1.4,4.9-2.4,6s-2.2,1.6-4,1.6c-1.7,0-3.1-0.7-4.2-2.1
		c-1.1-1.5-1.6-3.3-1.6-5.5c0-2.5,0.6-4.5,1.8-6c1.2-1.5,2.8-2.2,4.8-2.2v1.2c-1.5,0-2.8,0.7-3.9,2s-1.6,3-1.6,5.1
		c0,2,0.5,3.6,1.3,4.8c0.9,1.2,2,1.8,3.3,1.8c1.1,0,1.8-0.2,2.4-0.7s1.1-1.2,1.6-2.2s0.9-2.4,1.4-4.3s1-3.4,1.6-4.5s1.3-1.9,2.1-2.4
		c0.8-0.5,1.8-0.7,3-0.7c1.8,0,3.3,0.7,4.3,2.2c1.1,1.5,1.6,3.4,1.6,5.9c0,2.6-0.6,4.7-1.8,6.3c-1.2,1.6-2.7,2.4-4.5,2.4v-1.1
		c1.6-0.1,2.9-0.9,3.8-2.1c0.9-1.3,1.3-3.1,1.3-5.3c0-2-0.5-3.7-1.4-5C371,105.6,369.8,104.9,368.4,104.9z"/>
	<path class="st5" d="M344.9,96.1h6.2v-5.2h1.1v5.2h16.3c1.6,0,2.8-0.3,3.6-0.8c0.8-0.5,1.2-1.4,1.2-2.6c0-0.6-0.1-1.4-0.2-2.2
		l1.1-0.2c0.2,0.5,0.3,1.3,0.3,2.4c0,1.6-0.5,2.9-1.4,3.6s-2.4,1.1-4.4,1.1h-16.5v4.2h-1.1v-4.2h-6.2V96.1z"/>
	<path class="st5" d="M374.5,78c0,1.8-0.5,3.6-1.5,5.1c-1,1.6-2.4,2.8-4.1,3.6c-1.7,0.9-3.7,1.3-5.8,1.3h-1c-2.1,0-4.1-0.4-5.9-1.3
		s-3.2-2-4.1-3.5c-1-1.5-1.5-3.1-1.5-4.9c0-2.6,0.9-4.7,2.8-6.3c1.8-1.6,4.2-2.4,7.2-2.4h1.2v17.2h1.3c1.8,0,3.6-0.4,5.2-1.2
		c1.6-0.8,2.8-1.8,3.8-3.2c0.9-1.4,1.4-2.9,1.4-4.5c0-1.5-0.3-2.8-0.8-4c-0.5-1.1-1.3-2-2.4-2.9l0.6-0.8
		C373.2,72.1,374.5,74.7,374.5,78z M351.8,78.4c0,2.2,0.9,4.2,2.5,5.7c1.6,1.6,3.8,2.4,6.4,2.8v-16h-0.3c-1.6,0-3,0.3-4.3,1
		s-2.4,1.6-3.1,2.7C352.2,75.7,351.8,77,351.8,78.4z"/>
</g>
<g class="st9">
	<path class="st5" d="M303.9,237.9l4.6-1.2l-19.8-6.1v-1.1l19.7-6.4l-4.6-1.2l-15.2-4.3v-1.2l21.4,6.1v1l-16,5.4l-3.9,1l3.9,1.1
		l16.1,5.1v1l-21.3,6.3v-1.2L303.9,237.9z"/>
	<path class="st5" d="M310.3,204.6c0,1.7-0.5,3.3-1.4,4.8s-2.2,2.6-3.8,3.4s-3.4,1.2-5.4,1.3h-0.9c-2,0-3.8-0.3-5.5-1.1
		s-2.9-1.9-3.9-3.2c-0.9-1.4-1.4-2.9-1.4-4.5c0-2.4,0.8-4.4,2.5-5.8c1.7-1.5,3.9-2.3,6.7-2.3h1.1l0.1,16h1.2c1.7,0,3.4-0.4,4.8-1.1
		c1.5-0.7,2.6-1.7,3.5-3s1.3-2.7,1.3-4.2c0-1.4-0.3-2.6-0.8-3.7c-0.5-1-1.2-1.9-2.2-2.7l0.5-0.7
		C309.1,199.1,310.3,201.5,310.3,204.6z M289.2,205.1c0,2.1,0.8,3.9,2.4,5.3c1.5,1.5,3.5,2.2,6,2.5l-0.1-14.9h-0.2
		c-1.5,0-2.8,0.3-4,0.9s-2.2,1.5-2.9,2.5C289.6,202.5,289.2,203.8,289.2,205.1z"/>
	<path class="st5" d="M299.3,176.8c3.3,0,6,0.7,8,2.1c2,1.4,3,3.4,3,5.9c0,1.6-0.3,3.1-1,4.3c-0.7,1.3-1.6,2.3-2.7,3h3.4v1
		l-30.3,0.2v-1l12.9-0.1c-1.4-0.7-2.5-1.7-3.2-3c-0.7-1.2-1.1-2.6-1.1-4.3c0-2.5,1-4.5,2.8-5.9c1.9-1.4,4.6-2.2,8.1-2.2H299.3z
		 M298.9,177.9c-3.1,0-5.4,0.6-7.2,1.9c-1.7,1.2-2.6,3-2.5,5.1c0,1.8,0.5,3.3,1.4,4.5s2.3,2.1,4.1,2.7l9.8-0.1
		c1.5-0.6,2.7-1.5,3.5-2.7s1.2-2.8,1.2-4.6c0-2.2-0.9-3.9-2.7-5.1C304.7,178.5,302.2,177.9,298.9,177.9z"/>
	<path class="st5" d="M298.9,173.3c-3.4,0-6.1-0.7-8-2.1c-1.9-1.4-2.9-3.4-2.9-5.9c0-1.6,0.4-3,1.1-4.2s1.8-2.2,3.2-3l-12.9,0.1v-1
		l30.3-0.2v1h-3.4c1.2,0.7,2.2,1.7,2.8,3c0.7,1.3,1,2.7,1,4.3c0,2.4-1,4.4-2.9,5.9c-2,1.4-4.6,2.2-8.1,2.2L298.9,173.3L298.9,173.3z
		 M299.2,172.1c3,0,5.4-0.6,7.2-1.8c1.8-1.2,2.6-2.9,2.6-5.1c0-1.8-0.4-3.2-1.2-4.5c-0.8-1.2-2-2.2-3.4-2.7l-10,0.1
		c-3.6,1.2-5.4,3.7-5.4,7.3c0,2.2,0.9,3.9,2.6,5.1C293.3,171.6,295.9,172.1,299.2,172.1z"/>
	<path class="st5" d="M310,143.6c0,1.7-0.5,3.3-1.4,4.8s-2.2,2.6-3.8,3.4s-3.4,1.2-5.4,1.3h-0.9c-2,0-3.8-0.3-5.5-1.1
		s-2.9-1.9-3.9-3.2c-0.9-1.4-1.4-2.9-1.4-4.5c0-2.4,0.8-4.4,2.5-5.8c1.7-1.5,3.9-2.3,6.7-2.3h1.1l0.1,16h1.2c1.7,0,3.4-0.4,4.8-1.1
		c1.5-0.7,2.6-1.7,3.5-3s1.3-2.7,1.3-4.2c0-1.4-0.3-2.6-0.8-3.7c-0.5-1-1.2-1.9-2.2-2.7l0.5-0.7C308.8,138.1,310,140.5,310,143.6z
		 M288.9,144.1c0,2.1,0.8,3.9,2.4,5.3c1.5,1.5,3.5,2.2,6,2.5l-0.1-14.9H297c-1.5,0-2.8,0.3-4,0.9c-1.2,0.6-2.2,1.5-2.9,2.5
		C289.3,141.6,288.9,142.8,288.9,144.1z"/>
	<path class="st5" d="M304.2,119c-2.6,0-4.3,2.2-5.2,6.6c-0.5,2.6-1.3,4.5-2.2,5.6s-2.1,1.5-3.7,1.6c-1.6,0-2.9-0.7-3.9-1.9
		c-1-1.3-1.5-3.1-1.6-5.1c0-2.3,0.5-4.2,1.6-5.6s2.6-2.1,4.5-2.1v1.1c-1.4,0-2.6,0.6-3.6,1.9s-1.5,2.8-1.4,4.7
		c0,1.9,0.4,3.4,1.2,4.5s1.8,1.6,3.1,1.6c1,0,1.7-0.2,2.3-0.6c0.5-0.4,1-1.1,1.5-2s0.8-2.3,1.3-4c0.4-1.8,0.9-3.2,1.4-4.2
		s1.2-1.8,1.9-2.2c0.7-0.4,1.7-0.7,2.8-0.7c1.7,0,3.1,0.7,4.1,2.1s1.5,3.2,1.6,5.4c0,2.4-0.5,4.4-1.6,5.8c-1.1,1.5-2.5,2.2-4.2,2.2
		v-1c1.5-0.1,2.7-0.8,3.5-2c0.9-1.2,1.2-2.9,1.2-5c0-1.9-0.4-3.4-1.4-4.6C306.5,119.6,305.5,119,304.2,119z"/>
	<path class="st5" d="M281.4,113.7c-0.3,0-0.6-0.1-0.8-0.3c-0.2-0.2-0.3-0.5-0.3-0.8s0.1-0.6,0.3-0.8c0.2-0.2,0.5-0.3,0.8-0.3
		s0.6,0.1,0.8,0.3c0.2,0.2,0.3,0.5,0.3,0.8s-0.1,0.6-0.3,0.8S281.7,113.7,281.4,113.7z M309.4,111.9v1L288,113v-1L309.4,111.9z"/>
	<path class="st5" d="M298.5,107.2c-3.4,0-6.1-0.7-8-2.1s-2.9-3.4-2.9-5.9c0-1.6,0.4-3,1.1-4.2s1.8-2.2,3.2-3H288v-1.1l21-0.1
		c2.8,0,5,0.7,6.6,2.1c1.6,1.5,2.4,3.4,2.4,5.9c0,1.4-0.3,2.8-0.9,3.9c-0.6,1.2-1.5,2.2-2.7,3.1l-0.7-0.7c1-0.9,1.8-1.7,2.4-2.7
		c0.5-1,0.8-2.1,0.8-3.5c0-2.2-0.7-3.9-2-5.1c-1.4-1.2-3.2-1.8-5.6-1.9h-3.2c1.2,0.7,2.2,1.7,2.8,3c0.7,1.3,1,2.7,1,4.3
		c0,2.4-1,4.4-2.9,5.9c-2,1.4-4.6,2.2-8.1,2.2L298.5,107.2L298.5,107.2z M298.9,106.1c3.1,0,5.4-0.6,7.2-1.9
		c1.7-1.2,2.6-2.9,2.6-5.1c0-1.8-0.4-3.3-1.2-4.6c-0.8-1.3-2-2.1-3.6-2.7l-9.7,0.1c-3.7,1.2-5.6,3.6-5.5,7.3c0,2.2,0.9,3.9,2.6,5.1
		S295.6,106.1,298.9,106.1z"/>
	<path class="st5" d="M292.9,84.2c-1.7-0.7-2.9-1.7-3.9-3s-1.5-2.9-1.5-4.5c0-2.3,0.7-4,1.9-5.1c1.3-1.1,3.2-1.7,5.9-1.7l14-0.1v1
		l-14,0.1c-2.3,0-4,0.5-5.1,1.4s-1.6,2.4-1.6,4.4c0,1.8,0.7,3.4,2,4.8c1.3,1.3,3,2.3,5.1,2.7l13.7-0.1v1L288,85.2v-1L292.9,84.2
		L292.9,84.2z"/>
</g>
<text transform="matrix(1 0 0 1 903.1624 -179.892)" class="st4" style="font-family:'ArialMT'; font-size:66px;">infographiste</text>
<text transform="matrix(1 0 0 1 483.6005 -116.4061)" style="opacity:0.58;fill:#78C8CF;enable-background:new    ; font-family:'ArialMT'; font-size:66px;">webdesign</text>
<text transform="matrix(1 0 0 1 472.5996 -112.3945)" style="font-family:'ArialMT'; font-size:66px;">Lorem ipsum</text>
<text transform="matrix(1 0 0 1 907.5774 -121.3942)" style="font-family:'ArialMT'; font-size:66px;">Lorem ipsum</text>
</svg>
