<?xml version="1.0" encoding="utf-8"?>
<!-- Generator: Adobe Illustrator 22.0.1, SVG Export Plug-In . SVG Version: 6.00 Build 0)  -->
<svg version="1.1" id="Calque_1" xmlns="http://www.w3.org/2000/svg" xmlns:xlink="http://www.w3.org/1999/xlink" x="0px" y="0px"
	 viewBox="0 0 1315.3 379.8" style="enable-background:new 0 0 1315.3 379.8;" xml:space="preserve">
<style type="text/css">
	.st0{fill:#2D3C43;}
	.st1{fill:#FFFFFF;}
	.st2{fill:#A3D9EA;}
	.st3{enable-background:new    ;}
</style>
<title>Fichier 6</title>
<rect x="150" class="st0" width="1165.3" height="304.1"/>
<path class="st1" d="M304.3,253c-17.9,0-32.1,8.9-39.6,22.5c-2.4-31.2-28.8-43.3-54.9-50.7c-27.7-7.7-55.1-10.5-55.1-25.2
	c0-12.6,13.3-16.4,24-16.4c15.4,0,31.6,5.5,30.8,23.1H259c-0.3-43.2-38.4-61.8-76.3-61.8c-11.4,0-22.8,1.7-39.8,7l0.1,104.6
	c9.9-0.6,14,0.7,17.8,1.8c27.5,8,54.6,11.2,54.6,28c0,14.3-15.5,19.7-30.4,19.7c-21,0-34.9-7.3-36-29.8v30.4h200.5
	c0.3-2.4,0.4-4.7,0.4-7.1C350.1,273,331.2,253,304.3,253z M320.9,306.3h-33.4c-0.3-2.4-0.4-4.7-0.4-7.1c0-11.1,4-24.4,17-24.4
	s17.3,13.3,17.3,24.4C321.5,301.6,321.3,304,320.9,306.3z"/>
<rect y="-0.5" class="st0" width="97" height="305.1"/>
<rect x="346.6" y="214.4" class="st2" width="127.3" height="127.9"/>
<path class="st1" d="M346.6,279h9.6v3.2h0.1c1.6-2.5,4.4-4,7.4-4c8.5,0,12,7.4,12,15c0,7.1-3.7,13.7-11.3,13.7
	c-3,0.1-5.9-1.3-7.6-3.8h-0.1v12h-10.1V279z M356.4,292.3c0,4.8,1.4,7.8,5.3,7.8s5.3-4.2,5.3-7.8s-1.4-7.4-5.2-7.4
	C359.5,285,356.4,286.7,356.4,292.3z"/>
<path class="st1" d="M377.1,269.2h8.8v14h0.1c1.4-2.8,5-4.5,8.2-4.5c8.9,0,9.6,6.5,9.6,10.5v17.5H395v-13.3c0-3.8,0.4-7.5-4.4-7.5
	c-3.3,0-4.8,2.8-4.8,5.8v14.9h-8.7V269.2z"/>
<path class="st1" d="M414.9,276h-8.8v-6.8h8.8V276z M406.1,279.5h8.8v27.2h-8.8V279.5z"/>
<path class="st1" d="M425.5,294.6c0.1,3.8,2.3,6.2,6.1,6.2c2.1,0.1,4.1-1.1,5-3h8.2c-1.6,6.4-7.3,9.1-13.3,9.1
	c-8.7,0-14.7-5.4-14.7-14.6c0-8.4,6.5-14.3,14.6-14.3c9.6,0,14.4,7.4,14,16.6L425.5,294.6L425.5,294.6z M436.4,289.6
	c-0.1-3-2.3-5.6-5.2-5.6c-3.1,0-5.2,2.3-5.7,5.6H436.4z"/>
<g class="st3">
	<path class="st0" d="M363.7,369.3h-1.2v-17.7c0-2.6-0.6-4.6-1.6-5.8c-1.1-1.3-2.6-1.9-4.9-1.9c-2.6,0-4.7,1.3-6.4,3.8
		c-1,1.5-1.7,3.2-2,5.1v16.6h-1.2V343h1.2v6.3c0.8-2.2,2-3.8,3.4-5c1.5-1.2,3.1-1.7,5-1.7c2,0,3.6,0.4,4.9,1.4
		c1.3,1,2.1,2.6,2.5,4.8c0.7-1.9,1.9-3.5,3.4-4.5s3.3-1.7,5.3-1.7c2.5,0,4.5,0.8,5.8,2.4s1.9,4,1.9,7.2v17.2h-1.2v-17.1
		c0-2.9-0.5-5-1.6-6.4c-1.1-1.4-2.7-2.1-4.9-2.1c-2.9,0-5.2,1.3-6.8,3.8c-1,1.4-1.5,2.8-1.6,4.2v17.6H363.7z"/>
	<path class="st0" d="M399.5,369.3c-0.3-1.1-0.4-2.7-0.4-4.9c-1,1.7-2.2,3-3.8,3.9c-1.7,1-3.4,1.4-5.5,1.4c-2.2,0-4-0.6-5.3-1.9
		c-1.4-1.3-2.1-3-2.1-5.2c0-2.4,1-4.3,2.9-5.8c2-1.5,4.6-2.2,7.8-2.3h5.9v-3.9c0-2.2-0.6-3.9-1.9-5.1s-3-1.8-5.4-1.8
		c-2.2,0-4,0.6-5.5,1.8s-2.2,2.7-2.2,4.5h-1.2c0-2.2,0.9-4,2.5-5.4c1.7-1.5,3.8-2.3,6.3-2.3c2.5,0,4.6,0.8,6.2,2.2
		c1.5,1.4,2.2,3.5,2.3,5.9v12.5c0,2.9,0.2,4.9,0.6,5.8v0.2h-1.5V369.3z M389.7,368.5c2.2,0,4.1-0.5,5.8-1.6c1.6-1.1,2.8-2.6,3.6-4.6
		v-6.3h-5.6c-3.4,0-6,0.8-7.8,2.3c-1.5,1.2-2.2,2.7-2.2,4.5c0,1.6,0.6,2.9,1.8,4.1S388,368.5,389.7,368.5z"/>
	<path class="st0" d="M403.9,355.8c0-4.2,0.8-7.5,2.4-9.8c1.6-2.4,3.8-3.6,6.6-3.6c1.8,0,3.3,0.4,4.7,1.3c1.4,0.9,2.4,2.3,3.3,4V343
		h1.2v25.8c0,3.5-0.8,6.2-2.4,8.1c-1.7,1.9-3.8,2.9-6.6,2.9c-1.6,0-3-0.4-4.4-1.2s-2.4-1.8-3.4-3.2l0.9-0.9c0.9,1.3,2,2.3,3,2.9
		s2.3,1.1,3.9,1.1c2.4,0,4.4-0.9,5.7-2.5c1.3-1.6,2.1-4,2.2-6.9v-4c-0.8,1.5-2,2.6-3.3,3.5c-1.4,0.9-3,1.2-4.8,1.2
		c-2.7,0-4.9-1.2-6.6-3.6c-1.6-2.4-2.4-5.7-2.4-9.9L403.9,355.8L403.9,355.8z M405.1,356.4c0,3.8,0.7,6.7,2.1,8.9
		c1.4,2.2,3.2,3.2,5.7,3.2c2.1,0,3.7-0.5,5.1-1.5c1.4-1.1,2.4-2.5,3-4.3v-11.9c-1.3-4.5-4-6.8-8.1-6.8c-2.4,0-4.3,1.1-5.7,3.1
		S405.1,352.2,405.1,356.4z"/>
	<path class="st0" d="M425.6,355.8c0-4.2,0.8-7.5,2.4-9.8c1.6-2.4,3.8-3.6,6.6-3.6c1.8,0,3.3,0.4,4.7,1.3c1.4,0.9,2.4,2.3,3.3,4V343
		h1.2v25.8c0,3.5-0.8,6.2-2.4,8.1s-3.8,2.9-6.6,2.9c-1.6,0-3-0.4-4.4-1.2s-2.4-1.8-3.4-3.2l0.9-0.9c0.9,1.3,2,2.3,3,2.9
		s2.3,1.1,3.9,1.1c2.4,0,4.4-0.9,5.7-2.5s2.1-4,2.2-6.9v-4c-0.8,1.5-2,2.6-3.3,3.5c-1.4,0.9-3,1.2-4.8,1.2c-2.7,0-4.9-1.2-6.6-3.6
		c-1.6-2.4-2.4-5.7-2.4-9.9L425.6,355.8L425.6,355.8z M426.8,356.4c0,3.8,0.7,6.7,2.1,8.9c1.4,2.2,3.2,3.2,5.7,3.2
		c2.1,0,3.7-0.5,5.1-1.5c1.4-1.1,2.4-2.5,3-4.3v-11.9c-1.3-4.5-4-6.8-8.1-6.8c-2.4,0-4.3,1.1-5.7,3.1
		C427.5,349.1,426.8,352.2,426.8,356.4z"/>
	<path class="st0" d="M448.2,334.7c0-0.3,0.1-0.6,0.4-1c0.2-0.2,0.5-0.4,0.9-0.4c0.3,0,0.6,0.1,0.9,0.4c0.2,0.2,0.4,0.5,0.4,1
		c0,0.3-0.1,0.6-0.4,1c-0.2,0.2-0.5,0.4-0.9,0.4c-0.3,0-0.6-0.1-0.9-0.4C448.3,335.5,448.2,335.2,448.2,334.7z M449.9,369.3h-1.2
		V343h1.2V369.3z"/>
	<path class="st0" d="M453.1,355.6c0-2.5,0.4-4.8,1.3-6.8c0.9-1.9,2.2-3.6,3.7-4.6c1.6-1.1,3.4-1.7,5.4-1.7c2,0,3.8,0.5,5.4,1.6
		s2.8,2.6,3.7,4.6c0.9,1.9,1.4,4.2,1.4,6.7v1.2c0,2.5-0.4,4.8-1.3,6.8c-0.9,1.9-2.1,3.6-3.7,4.6c-1.6,1.1-3.4,1.7-5.4,1.7
		c-2,0-3.8-0.5-5.4-1.6c-1.6-1.1-2.8-2.6-3.7-4.6c-0.9-2.1-1.4-4.2-1.4-6.7V355.6z M454.2,356.7c0,2.2,0.4,4.2,1.2,6.1
		c0.8,1.8,1.9,3.2,3.3,4.2c1.4,1,3,1.5,4.8,1.5c2.7,0,4.9-1.1,6.6-3.3c1.8-2.3,2.5-5.2,2.5-8.6v-0.8c0-2.2-0.4-4.1-1.2-5.9
		s-1.9-3.2-3.3-4.3c-1.4-1.1-3-1.5-4.8-1.5c-2.7,0-4.9,1.2-6.6,3.5c-1.8,2.3-2.5,5.2-2.5,8.6V356.7z"/>
</g>
<text transform="matrix(1 0 0 1 136.6167 -239.9969)" style="font-family:'ArialMT'; font-size:12px;">Lorem ipsum</text>
</svg>
