<!-- Generator: Adobe Illustrator 22.0.1, SVG Export Plug-In  -->
<svg version="1.1"
	 xmlns="http://www.w3.org/2000/svg" 
     xmlns:xlink="http://www.w3.org/1999/xlink" 
     xmlns:a="http://ns.adobe.com/AdobeSVGViewerExtensions/3.0/"
	 x="0px" y="0px" 
     width="181.6px" height="146.1px" 
     viewBox="0 0 181.6 146.1" 
     style="enable-background:new 0 0 181.6 146.1;"
	 xml:space="preserve">
<style type="text/css">
	.st0{fill:#2D3C43;}
	.st1{fill:#FFFFFF;}
</style>
<defs>
</defs>
<path class="st0" d="M28.1,0C18.6,0.2,9.1,1.7,0,4.6V0H28.1z"/>

<path class="st0" d="M0.1,99.1c3.5,1.3,7.2,2.4,10.7,3.4c24.8,7.2,49.3,10.1,49.3,25.3c0,12.9-14,17.8-27.5,17.8
	c-19,0-31.5-6.6-32.5-26.9"/>
<path class="st0" d="M155.8,140.5c0,1.9-0.1,3.8-0.3,5.6l-30.5,0c-0.2-1.8-0.3-3.7-0.3-5.5c0,0,0-0.1,0-0.1
	c0-10.3,3.6-22.8,15.4-22.8c11.5,0,15.4,11.6,15.6,21.7v0.3C155.8,140,155.8,140.2,155.8,140.5z"/>
<path class="st0" d="M181.6,0v139.7c0-23.8-17-41.8-41.3-41.8c-16.2,0-29,8-35.8,20.3c-2.2-28.2-26-39.1-49.6-45.8
	c-25-7-49.8-9.5-49.8-22.8c0-11.4,12-14.8,21.7-14.8c13.9,0,28.5,5,27.8,20.9h44.8C99.1,17.5,66,0.7,32.5,0H181.6z"/>
<path class="st0" d="M181.2,146.1c0.3-2,0.4-4,0.4-5.9v5.9H181.2z"/>
<path class="st1" d="M180.6,130.1c-1.6-7.9-5.3-14.8-10.5-20.1c-0.2-0.2-0.5-0.5-0.7-0.7c-7.2-7.1-17.3-11.3-29.1-11.3
			c-16.2,0-29,8-35.8,20.3c0,0,0,0,0,0c-0.2-2.2-0.5-4.3-0.9-6.3c-1.8-8.4-5.7-15-11-20.4c-2.5-2.6-5.4-4.8-8.4-6.8c0,0,0,0,0,0
			c-8.6-5.6-19-9.4-29.3-12.3C35.4,67.1,16,64.4,8.4,57.1c-1.7-1.6-2.7-3.4-3.1-5.5c-0.1-0.6-0.2-1.2-0.2-1.8
			c0-11.4,12-14.8,21.7-14.8c8.5,0,17.2,1.9,22.6,7c0.1,0.1,0.3,0.3,0.4,0.4c2.2,2.2,3.8,5,4.5,8.5c0.3,1.5,0.4,3.2,0.3,5h44.8
			c0-4.9-0.6-9.4-1.6-13.6c-0.3-1-0.5-2.1-0.9-3.1c-0.2-0.5-0.3-1-0.5-1.5c-0.2-0.5-0.4-1-0.5-1.5c0,0,0,0,0,0
			c-0.2-0.5-0.4-0.9-0.6-1.4c-0.2-0.5-0.4-0.9-0.6-1.3c0-0.1-0.1-0.1-0.1-0.2c-0.2-0.4-0.4-0.8-0.6-1.2c-0.7-1.3-1.4-2.6-2.2-3.9
			c0-0.1-0.1-0.1-0.1-0.2c-0.2-0.4-0.5-0.7-0.7-1.1c0,0,0-0.1-0.1-0.1c-0.3-0.4-0.5-0.8-0.8-1.2c-0.3-0.4-0.5-0.7-0.8-1.1
			c0-0.1-0.1-0.1-0.1-0.2c-0.3-0.3-0.6-0.7-0.8-1c-0.3-0.4-0.6-0.8-0.9-1.1s-0.6-0.7-1-1.1c-0.3-0.3-0.6-0.6-0.9-0.9
			c-0.4-0.4-0.9-0.9-1.3-1.3c-0.2-0.2-0.5-0.4-0.7-0.6c-0.7-0.6-1.3-1.2-2-1.8c-0.3-0.2-0.5-0.4-0.8-0.7c-0.4-0.3-0.8-0.7-1.3-1
			c-0.3-0.3-0.7-0.5-1-0.8c-1.5-1.1-3-2.1-4.6-3c-0.3-0.2-0.6-0.4-0.9-0.5c-1.5-0.9-3-1.7-4.6-2.4c-0.5-0.2-0.9-0.4-1.4-0.6
			c-0.9-0.4-1.8-0.8-2.8-1.2c-0.9-0.4-1.9-0.7-2.8-1.1c-0.5-0.2-1-0.3-1.4-0.5C51.6,1.8,42.5,0.3,33.3,0c-0.9,0-1.9,0-2.8,0
			C20.2,0,9.9,1.5,0,4.5l0.1,94.5c3.5,1.3,7.2,2.4,10.7,3.4c24.8,7.2,49.3,10.1,49.3,25.3c0,12.9-14,17.8-27.5,17.8
			c-19,0-31.5-6.6-32.5-26.9v27.4h99.6c0,0,0,0,0,0l25.3,0l30.5,0l25.7,0c0.3-2.1,0.4-4.3,0.4-6.4
			C181.6,136.4,181.3,133.2,180.6,130.1z M155.3,146.1h-30.2c-0.3-1.8-0.4-3.7-0.4-5.5c0,0,0-0.1,0-0.1c0-0.3,0-0.5,0-0.8
			c0-10,3.6-22,15.4-22c11.7,0,15.6,11.8,15.6,21.7v0.3C155.8,141.9,155.6,144,155.3,146.1z"/>
</svg>
