<?xml version="1.0" encoding="utf-8"?>
<!-- Generator: Adobe Illustrator 22.1.0, SVG Export Plug-In . SVG Version: 6.00 Build 0)  -->
<svg version="1.1" id="Calque_1" xmlns="http://www.w3.org/2000/svg" xmlns:xlink="http://www.w3.org/1999/xlink" x="0px" y="0px"
	 viewBox="0 0 1861.8 303.5" style="enable-background:new 0 0 1861.8 303.5;" xml:space="preserve">
<style type="text/css">
	.st0{fill:#2D3C43;}
	.st1{fill:#78C8CF;}
	.st2{fill:#B34C1A;}
	.st3{fill:#F28C5B;}
	.st4{fill:#EF7B43;}
	.st5{fill:#FFFFFF;}
	.st6{fill:#A3D9EA;}
	.st7{enable-background:new    ;}
	.st8{opacity:0.58;}
	.st9{fill:#13B1A4;}
</style>
<rect y="-1.5" class="st0" width="1861.8" height="305.1"/>
<path class="st1" d="M691.1,475.2h-138v138.9h138V475.2z"/>
<path class="st2" d="M349.1-109.2h-67.1v67.5h67.1V-109.2z"/>
<path class="st3" d="M141.4-213.6H74.3v67.5h67.1V-213.6z"/>
<path class="st4" d="M2046.8,419.9h-135.6v136.4h135.6V419.9z"/>
<path class="st1" d="M936.7,378.7h-67.1v67.5h67.1V378.7z"/>
<path class="st0" d="M483.6,230.4h-71.9v72.4h71.9V230.4z"/>
<title>Fichier 6</title>
<path class="st5" d="M301.4,200.3c-35.8,0-64.2,17.8-79.3,45c-4.7-62.4-57.7-86.6-109.9-101.4C56.9,128.6,2.1,123,2.1,93.6
	c0-25.2,26.6-32.8,48-32.8c30.8,0,63.1,10.9,61.6,46.2h99C210.1,20.5,133.9-16.7,58.1-16.7c-22.7,0-45.6,3.3-79.5,14l0.1,209.3
	c19.9-1.2,28,1.4,35.7,3.6c54.9,16,109.2,22.4,109.2,56c0,28.6-31.1,39.4-60.8,39.4c-42,0-69.8-14.7-72.1-59.6v60.8h401.2
	c0.6-4.7,0.9-9.3,0.9-14.2C393.1,240.3,355.2,200.3,301.4,200.3z M334.7,306.9h-66.9c-0.6-4.7-0.9-9.3-0.9-14.2
	c0-22.2,8.1-48.8,33.9-48.8s34.7,26.6,34.7,48.8C335.8,297.6,335.4,302.3,334.7,306.9z"/>
<rect x="392.8" y="164.2" class="st6" width="139.2" height="139.9"/>
<g class="st7">
	<path class="st0" d="M-232.2,407.5h-1.2v-17.7c0-2.6-0.6-4.6-1.6-5.8c-1.1-1.3-2.6-1.9-4.9-1.9c-2.6,0-4.7,1.3-6.4,3.8
		c-1,1.5-1.7,3.2-2,5.1v16.6h-1.2v-26.4h1.2v6.3c0.8-2.2,2-3.8,3.4-5c1.5-1.2,3.1-1.7,5-1.7c2,0,3.6,0.4,4.9,1.4
		c1.3,1,2.1,2.6,2.5,4.8c0.7-1.9,1.9-3.5,3.4-4.5c1.6-1.1,3.3-1.7,5.3-1.7c2.5,0,4.5,0.8,5.8,2.4s1.9,4,1.9,7.2v17.2h-1.2v-17.1
		c0-2.9-0.5-5-1.6-6.4s-2.7-2.1-4.9-2.1c-2.9,0-5.2,1.3-6.8,3.8c-1,1.4-1.5,2.8-1.6,4.2L-232.2,407.5L-232.2,407.5L-232.2,407.5z"/>
	<path class="st0" d="M-196.4,407.5c-0.3-1.1-0.4-2.7-0.4-4.9c-1,1.7-2.2,3-3.8,3.9c-1.7,1-3.4,1.4-5.5,1.4c-2.2,0-4-0.6-5.3-1.9
		c-1.4-1.3-2.1-3-2.1-5.2c0-2.4,1-4.3,2.9-5.8c2-1.5,4.6-2.2,7.8-2.3h5.9v-3.9c0-2.2-0.6-3.9-1.9-5.1c-1.3-1.2-3-1.8-5.4-1.8
		c-2.2,0-4,0.6-5.5,1.8c-1.5,1.2-2.2,2.7-2.2,4.5h-1.2c0-2.2,0.9-4,2.5-5.4c1.7-1.5,3.8-2.3,6.3-2.3s4.6,0.8,6.2,2.2
		c1.5,1.4,2.2,3.5,2.3,5.9v12.5c0,2.9,0.2,4.9,0.6,5.8v0.2h-1.5v0.4L-196.4,407.5L-196.4,407.5z M-206.2,406.6
		c2.2,0,4.1-0.5,5.8-1.6c1.6-1.1,2.8-2.6,3.6-4.6v-6.3h-5.6c-3.4,0-6,0.8-7.8,2.3c-1.5,1.2-2.2,2.7-2.2,4.5c0,1.6,0.6,2.9,1.8,4.1
		S-207.9,406.6-206.2,406.6z"/>
	<path class="st0" d="M-192,394c0-4.2,0.8-7.5,2.4-9.8c1.6-2.4,3.8-3.6,6.6-3.6c1.8,0,3.3,0.4,4.7,1.3s2.4,2.3,3.3,4v-4.8h1.2v25.8
		c0,3.5-0.8,6.2-2.4,8.1c-1.7,1.9-3.8,2.9-6.6,2.9c-1.6,0-3-0.4-4.4-1.2c-1.4-0.8-2.4-1.8-3.4-3.2l0.9-0.9c0.9,1.3,2,2.3,3,2.9
		c1.1,0.6,2.3,1.1,3.9,1.1c2.4,0,4.4-0.9,5.7-2.5s2.1-4,2.2-6.9v-4c-0.8,1.5-2,2.6-3.3,3.5c-1.4,0.9-3,1.2-4.8,1.2
		c-2.7,0-4.9-1.2-6.6-3.6c-1.6-2.4-2.4-5.7-2.4-9.9L-192,394L-192,394z M-190.8,394.5c0,3.8,0.7,6.7,2.1,8.9
		c1.4,2.2,3.2,3.2,5.7,3.2c2.1,0,3.7-0.5,5.1-1.5c1.4-1.1,2.4-2.5,3-4.3v-11.9c-1.3-4.5-4-6.8-8.1-6.8c-2.4,0-4.3,1.1-5.7,3.1
		C-190.2,387.3-190.8,390.4-190.8,394.5z"/>
	<path class="st0" d="M-170.3,394c0-4.2,0.8-7.5,2.4-9.8c1.6-2.4,3.8-3.6,6.6-3.6c1.8,0,3.3,0.4,4.7,1.3s2.4,2.3,3.3,4v-4.8h1.2
		v25.8c0,3.5-0.8,6.2-2.4,8.1c-1.7,1.9-3.8,2.9-6.6,2.9c-1.6,0-3-0.4-4.4-1.2c-1.4-0.8-2.4-1.8-3.4-3.2l0.9-0.9c0.9,1.3,2,2.3,3,2.9
		s2.3,1.1,3.9,1.1c2.4,0,4.4-0.9,5.7-2.5s2.1-4,2.2-6.9v-4c-0.8,1.5-2,2.6-3.3,3.5c-1.4,0.9-3,1.2-4.8,1.2c-2.7,0-4.9-1.2-6.6-3.6
		c-1.6-2.4-2.4-5.7-2.4-9.9L-170.3,394L-170.3,394z M-169.1,394.5c0,3.8,0.7,6.7,2.1,8.9c1.4,2.2,3.2,3.2,5.7,3.2
		c2.1,0,3.7-0.5,5.1-1.5c1.4-1.1,2.4-2.5,3-4.3v-11.9c-1.3-4.5-4-6.8-8.1-6.8c-2.4,0-4.3,1.1-5.7,3.1
		C-168.4,387.3-169.1,390.4-169.1,394.5z"/>
	<path class="st0" d="M-147.7,372.9c0-0.3,0.1-0.6,0.4-1c0.2-0.2,0.5-0.4,0.9-0.4c0.3,0,0.6,0.1,0.9,0.4c0.2,0.2,0.4,0.5,0.4,1
		c0,0.3-0.1,0.6-0.4,1c-0.2,0.2-0.5,0.4-0.9,0.4c-0.3,0-0.6-0.1-0.9-0.4C-147.6,373.7-147.7,373.3-147.7,372.9z M-146,407.5h-1.2
		v-26.4h1.2V407.5z"/>
	<path class="st0" d="M-142.8,393.8c0-2.5,0.4-4.8,1.3-6.8c0.9-1.9,2.2-3.6,3.7-4.6c1.6-1.1,3.4-1.7,5.4-1.7s3.8,0.5,5.4,1.6
		s2.8,2.6,3.7,4.6c0.9,1.9,1.4,4.2,1.4,6.7v1.2c0,2.5-0.4,4.8-1.3,6.8c-0.9,1.9-2.1,3.6-3.7,4.6c-1.6,1.1-3.4,1.7-5.4,1.7
		s-3.8-0.5-5.4-1.6c-1.6-1.1-2.8-2.6-3.7-4.6c-0.9-2.1-1.4-4.2-1.4-6.7L-142.8,393.8L-142.8,393.8z M-141.7,394.8
		c0,2.2,0.4,4.2,1.2,6.1c0.8,1.8,1.9,3.2,3.3,4.2c1.4,1,3,1.5,4.8,1.5c2.7,0,4.9-1.1,6.6-3.3c1.8-2.3,2.5-5.2,2.5-8.6v-0.8
		c0-2.2-0.4-4.1-1.2-5.9c-0.8-1.8-1.9-3.2-3.3-4.3c-1.4-1.1-3-1.5-4.8-1.5c-2.7,0-4.9,1.2-6.6,3.5c-1.8,2.3-2.5,5.2-2.5,8.6V394.8z"
		/>
</g>
<text transform="matrix(1 0 0 1 133.6167 -240.9969)" style="font-family:'ArialMT'; font-size:12px;">Lorem ipsum</text>
<g class="st7">
	<path class="st5" d="M157.9,487.7h-1.2v-16.4c0-2.4-0.6-4.3-1.6-5.4c-1.1-1.2-2.7-1.8-5-1.8c-2.7,0-4.8,1.2-6.5,3.5
		c-1,1.4-1.7,3-2,4.7v15.4h-1.2v-24.4h1.2v5.8c0.8-2,2-3.5,3.5-4.6s3.2-1.6,5.1-1.6c2,0,3.7,0.5,5,1.3c1.3,0.9,2.1,2.4,2.6,4.4
		c0.7-1.8,1.9-3.2,3.5-4.2s3.4-1.6,5.4-1.6c2.6,0,4.6,0.7,5.9,2.2s1.9,3.7,1.9,6.7v15.9h-1.2v-15.8c0-2.7-0.5-4.6-1.6-5.9
		c-1.1-1.3-2.8-1.9-5-1.9c-3,0-5.3,1.2-7,3.5c-1,1.3-1.5,2.6-1.6,3.9v16.3C158.1,487.7,157.9,487.7,157.9,487.7z"/>
	<path class="st5" d="M193.8,487.7c-0.3-1-0.4-2.5-0.4-4.5c-1,1.6-2.3,2.8-3.9,3.6c-1.7,0.9-3.5,1.3-5.6,1.3c-2.2,0-4.1-0.6-5.4-1.8
		c-1.4-1.2-2.1-2.8-2.1-4.8c0-2.2,1-4,3-5.4c2-1.3,4.7-2,8-2.1h6v-3.6c0-2-0.6-3.6-1.9-4.7c-1.3-1.1-3.1-1.7-5.5-1.7
		c-2.2,0-4.1,0.6-5.6,1.7c-1.5,1.1-2.2,2.5-2.2,4.2H177c0-2,0.9-3.7,2.6-5c1.7-1.3,3.9-2.1,6.4-2.1c2.6,0,4.7,0.7,6.3,2
		c1.5,1.3,2.3,3.2,2.4,5.5v11.6c0,2.7,0.2,4.5,0.6,5.4v0.2h-1.5L193.8,487.7L193.8,487.7z M183.8,486.9c2.3,0,4.2-0.5,5.9-1.5
		c1.6-1,2.9-2.5,3.7-4.3v-5.8h-5.6c-3.5,0-6.1,0.7-8,2.1c-1.5,1.1-2.2,2.5-2.2,4.2c0,1.5,0.6,2.7,1.8,3.8
		C180.5,486.4,182,486.9,183.8,486.9z"/>
	<path class="st5" d="M197.6,475.2c0-3.9,0.8-6.9,2.5-9.1c1.6-2.2,3.9-3.3,6.7-3.3c1.8,0,3.4,0.4,4.8,1.2c1.4,0.8,2.5,2.1,3.4,3.7
		v-4.4h1.2v23.9c0,3.2-0.8,5.7-2.5,7.5c-1.7,1.8-3.9,2.7-6.7,2.7c-1.6,0-3.1-0.4-4.5-1.1c-1.4-0.7-2.5-1.7-3.5-3l0.9-0.8
		c0.9,1.2,2,2.1,3.1,2.7s2.4,1,4,1c2.5,0,4.5-0.8,5.8-2.3c1.4-1.5,2.1-3.7,2.2-6.4v-3.7c-0.8,1.4-2,2.4-3.4,3.2
		c-1.4,0.7-3.1,1.1-4.9,1.1c-2.8,0-5-1.1-6.7-3.3c-1.6-2.2-2.5-5.3-2.5-9.2L197.6,475.2L197.6,475.2L197.6,475.2z M198.9,475.7
		c0,3.5,0.7,6.2,2.1,8.2s3.3,3,5.8,3c2.1,0,3.8-0.5,5.2-1.4c1.4-0.9,2.5-2.3,3.1-4v-11c-1.3-4.2-4.1-6.3-8.3-6.3
		c-2.5,0-4.4,1-5.8,2.9C199.6,469,198.9,471.9,198.9,475.7z"/>
	<path class="st5" d="M219.3,475.2c0-3.9,0.8-6.9,2.5-9.1c1.6-2.2,3.9-3.3,6.7-3.3c1.8,0,3.4,0.4,4.8,1.2c1.4,0.8,2.5,2.1,3.4,3.7
		v-4.4h1.2v23.9c0,3.2-0.8,5.7-2.5,7.5c-1.7,1.8-3.9,2.7-6.7,2.7c-1.6,0-3.1-0.4-4.5-1.1c-1.4-0.7-2.5-1.7-3.5-3l0.9-0.8
		c0.9,1.2,2,2.1,3.1,2.7s2.4,1,4,1c2.5,0,4.5-0.8,5.8-2.3c1.4-1.5,2.1-3.7,2.2-6.4v-3.7c-0.8,1.4-2,2.4-3.4,3.2
		c-1.4,0.7-3.1,1.1-4.9,1.1c-2.8,0-5-1.1-6.7-3.3c-1.6-2.2-2.5-5.3-2.5-9.2L219.3,475.2L219.3,475.2L219.3,475.2z M220.5,475.7
		c0,3.5,0.7,6.2,2.1,8.2s3.3,3,5.8,3c2.1,0,3.8-0.5,5.2-1.4c1.4-0.9,2.5-2.3,3.1-4v-11c-1.3-4.2-4.1-6.3-8.3-6.3
		c-2.5,0-4.4,1-5.8,2.9C221.2,469,220.5,471.9,220.5,475.7z"/>
	<path class="st5" d="M241.7,455.7c0-0.3,0.1-0.6,0.4-0.9c0.3-0.3,0.5-0.4,0.9-0.4c0.3,0,0.6,0.1,0.9,0.4c0.2,0.2,0.4,0.5,0.4,0.9
		c0,0.3-0.1,0.6-0.4,0.9c-0.2,0.2-0.5,0.4-0.9,0.4c-0.3,0-0.6-0.1-0.9-0.4C241.8,456.4,241.7,456.1,241.7,455.7z M243.5,487.7h-1.2
		v-24.4h1.2V487.7z"/>
	<path class="st5" d="M246,475c0-2.3,0.4-4.4,1.3-6.3c0.9-1.9,2.2-3.3,3.8-4.3s3.5-1.6,5.5-1.6s3.9,0.5,5.5,1.5s2.9,2.4,3.8,4.3
		c0.9,1.8,1.4,3.9,1.4,6.2v1.1c0,2.3-0.4,4.4-1.3,6.3c-0.9,1.8-2.1,3.3-3.8,4.3c-1.7,1-3.5,1.6-5.5,1.6c-2.1,0-3.9-0.5-5.5-1.5
		s-2.9-2.4-3.8-4.3c-0.9-1.8-1.4-3.9-1.4-6.2V475z M247.2,476c0,2,0.4,3.9,1.2,5.6c0.8,1.7,1.9,3,3.4,3.9c1.4,0.9,3.1,1.4,4.9,1.4
		c2.8,0,5-1,6.8-3.1c1.7-2.1,2.6-4.8,2.6-8v-0.7c0-2-0.4-3.8-1.2-5.5c-0.8-1.7-1.9-3-3.4-4c-1.4-1-3.1-1.4-4.9-1.4
		c-2.8,0-5,1.1-6.8,3.2s-2.6,4.8-2.6,8V476z"/>
</g>
<g class="st8">
	<path class="st5" d="M1259.4,367.3c0-0.7,0.3-1.2,0.7-1.8c0.4-0.5,1.1-0.7,1.8-0.7s1.2,0.3,1.8,0.7c0.5,0.4,0.7,1.1,0.7,1.8
		s-0.3,1.2-0.7,1.8c-0.5,0.4-1.1,0.7-1.8,0.7s-1.2-0.3-1.8-0.7C1259.7,368.6,1259.4,368,1259.4,367.3z M1263.1,429.3h-2.3v-47.2h2.3
		V429.3z"/>
	<path class="st4" d="M1277.4,381.7c1-2.3,2.4-4.2,4.3-5.5c1.9-1.4,4.1-2.1,6.3-2.1c3.2,0,5.6,1,7.2,2.8c1.6,1.8,2.3,4.6,2.4,8.3
		v19.7h-1.5v-19.7c0-3.2-0.7-5.6-2-7.2c-1.3-1.6-3.4-2.3-6.2-2.3c-2.6,0-4.8,1-6.8,2.8s-3.2,4.2-3.9,7.2v19.3h-1.5v-30.2h1.5
		L1277.4,381.7L1277.4,381.7L1277.4,381.7z"/>
	<path class="st4" d="M1307.7,404.9v-28.7h-5.3v-1.5h5.3v-4.4c0-2.8,0.7-4.9,2.1-6.5c1.4-1.6,3.3-2.3,5.8-2.3c1.4,0,2.6,0.2,3.5,0.4
		l-0.3,1.5c-1-0.3-2.1-0.4-3.3-0.4c-2,0-3.5,0.6-4.7,1.9c-1.1,1.3-1.7,3.1-1.7,5.5v4.3h8v1.5h-8v28.7H1307.7L1307.7,404.9z"/>
	<path class="st4" d="M1319.4,389.2c0-2.9,0.5-5.5,1.6-7.8c1.1-2.3,2.7-4.1,4.7-5.4c2-1.3,4.3-1.9,6.8-1.9c2.5,0,4.8,0.6,6.8,1.9
		c2,1.2,3.5,3,4.7,5.3c1.1,2.3,1.7,4.8,1.7,7.7v1.3c0,2.9-0.5,5.5-1.6,7.8c-1.1,2.3-2.7,4.1-4.7,5.4c-2,1.3-4.3,1.9-6.8,1.9
		c-2.5,0-4.8-0.6-6.8-1.9c-2-1.3-3.5-3-4.7-5.3s-1.6-4.8-1.7-7.7V389.2z M1320.9,390.4c0,2.5,0.5,4.8,1.5,6.9c1,2.1,2.4,3.7,4.2,4.9
		c1.7,1.2,3.8,1.7,6.1,1.7c3.5,0,6.2-1.3,8.4-3.9c2.2-2.6,3.3-5.9,3.3-10v-0.9c0-2.5-0.5-4.8-1.5-6.8c-1-2.1-2.4-3.7-4.2-4.9
		c-1.8-1.2-3.8-1.7-6.1-1.7c-3.5,0-6.2,1.3-8.4,3.9c-2.2,2.6-3.3,5.9-3.3,9.9V390.4z"/>
	<path class="st4" d="M1350,389.5c0-4.8,1-8.6,3-11.3c2-2.7,4.8-4.1,8.3-4.1c2.3,0,4.2,0.5,6,1.6c1.7,1,3.1,2.5,4.2,4.5v-5.5h1.6
		v29.7c0,4-1,7.1-3,9.4c-2.1,2.3-4.8,3.4-8.3,3.4c-2,0-3.9-0.4-5.5-1.3c-1.6-0.9-3.1-2.2-4.3-3.8l1-1c1.2,1.5,2.4,2.6,3.8,3.4
		c1.4,0.8,3,1.2,4.9,1.2c3.1,0,5.5-1,7.3-2.9c1.7-1.9,2.6-4.5,2.7-8v-4.6c-1,1.7-2.4,3-4.2,4c-1.8,1-3.8,1.4-6.1,1.4
		c-3.5,0-6.2-1.4-8.3-4.2c-2-2.8-3-6.6-3-11.4V389.5L1350,389.5z M1351.6,390.1c0,4.3,0.9,7.7,2.6,10.1c1.7,2.4,4.1,3.7,7.2,3.7
		c2.5,0,4.7-0.6,6.5-1.7c1.8-1.2,3-2.9,3.8-5v-13.7c-1.6-5.2-5-7.9-10.2-7.9c-3.1,0-5.5,1.2-7.3,3.6
		C1352.4,381.7,1351.6,385.3,1351.6,390.1z"/>
	<path class="st4" d="M1394.3,375.8l-2-0.2c-2.6,0-4.7,0.9-6.4,2.5c-1.7,1.6-2.9,4-3.4,7v19.7h-1.5v-30.2h1.5v6.3
		c0.8-2.1,2.1-3.8,3.7-5c1.6-1.2,3.7-1.8,6.1-1.8c0.9,0,1.6,0.1,2.1,0.3L1394.3,375.8z"/>
	<path class="st4" d="M1416.8,404.9c-0.3-1.3-0.5-3.1-0.5-5.5c-1.2,1.9-2.9,3.5-4.8,4.5c-2,1-4.4,1.6-7,1.6c-2.8,0-5-0.8-6.8-2.3
		c-1.7-1.6-2.5-3.5-2.5-5.9c0-2.8,1.2-5,3.7-6.7c2.5-1.6,5.8-2.5,10-2.5h7.4v-4.5c0-2.5-0.8-4.5-2.4-5.9c-1.6-1.4-3.9-2.1-6.8-2.1
		c-2.8,0-5,0.7-6.9,2.1c-1.8,1.4-2.8,3.2-2.8,5.3l-1.5-0.1c0-2.4,1-4.5,3.2-6.2c2.2-1.7,4.8-2.6,8-2.6c3.3,0,5.8,0.8,7.8,2.4
		c1.9,1.6,2.9,3.9,2.9,6.8v14.5c0,3.3,0.3,5.5,0.8,6.8v0.3L1416.8,404.9L1416.8,404.9L1416.8,404.9z M1404.4,404
		c2.9,0,5.3-0.6,7.3-1.9c2.1-1.3,3.5-3,4.6-5.4v-7.2h-7c-4.3,0-7.6,0.9-9.9,2.6c-1.8,1.4-2.8,3.1-2.8,5.2c0,1.8,0.7,3.4,2.2,4.7
		S1402.1,404,1404.4,404z"/>
	<path class="st4" d="M1448.9,390.1c0,4.7-1,8.5-3,11.3s-4.8,4.2-8.3,4.2c-2.3,0-4.3-0.4-6.1-1.4c-1.8-1-3.2-2.3-4.2-3.8v16.2h-1.5
		v-41.8h1.5v5.4c1-1.9,2.4-3.4,4.2-4.4c1.7-1,3.8-1.6,6.1-1.6c3.5,0,6.3,1.4,8.3,4.1c2,2.7,3,6.5,3,11.4L1448.9,390.1L1448.9,390.1z
		 M1447.3,389.5c0-4.3-0.9-7.7-2.6-10.1c-1.7-2.4-4.2-3.6-7.3-3.6c-2.5,0-4.7,0.7-6.4,2c-1.7,1.3-3,3.2-3.8,5.6v14.1
		c0.8,2.1,2.1,3.7,3.8,4.8c1.7,1.1,3.9,1.7,6.5,1.7c3.1,0,5.5-1.2,7.2-3.7C1446.4,397.8,1447.3,394.2,1447.3,389.5z"/>
	<path class="st4" d="M1456.8,381.7c1-2.3,2.4-4.2,4.3-5.5c1.9-1.4,4.1-2.1,6.3-2.1c3.2,0,5.6,1,7.2,2.8c1.6,1.8,2.3,4.6,2.4,8.3
		v19.7h-1.5v-19.7c0-3.2-0.7-5.6-2-7.2c-1.3-1.6-3.4-2.3-6.2-2.3c-2.6,0-4.8,1-6.8,2.8c-1.9,1.8-3.2,4.2-3.9,7.2v19.3h-1.5V362h1.5
		L1456.8,381.7L1456.8,381.7L1456.8,381.7z"/>
	<path class="st4" d="M1484.5,365.3c0-0.4,0.2-0.8,0.4-1.1c0.3-0.3,0.7-0.4,1.1-0.4c0.4,0,0.8,0.2,1.1,0.4c0.3,0.3,0.4,0.7,0.4,1.1
		c0,0.4-0.2,0.8-0.4,1.1c-0.3,0.3-0.7,0.4-1.1,0.4c-0.4,0-0.8-0.2-1.1-0.4C1484.6,366,1484.5,365.7,1484.5,365.3z M1486.8,404.9
		h-1.5v-30.2h1.5V404.9z"/>
	<path class="st4" d="M1513.5,397.5c0-3.6-3.1-6.1-9.4-7.4c-3.7-0.8-6.4-1.8-7.9-3.1c-1.5-1.3-2.2-2.9-2.2-5.2s1-4.1,2.8-5.5
		c1.9-1.5,4.3-2.2,7.3-2.2c3.3,0,5.9,0.8,7.9,2.3c2,1.6,2.9,3.6,2.9,6.3h-1.6c0-2-0.9-3.7-2.6-5.1c-1.7-1.4-4-2.1-6.7-2.1
		s-4.8,0.6-6.3,1.7s-2.3,2.6-2.3,4.3c0,1.4,0.3,2.4,0.9,3.2c0.6,0.8,1.6,1.5,2.9,2.1c1.3,0.6,3.2,1.2,5.7,1.8
		c2.5,0.6,4.5,1.3,5.9,2.1c1.4,0.8,2.5,1.7,3.1,2.8c0.7,1,1,2.3,1,3.9c0,2.4-1,4.3-2.9,5.7c-2,1.4-4.5,2.2-7.7,2.2
		c-3.4,0-6.1-0.8-8.2-2.3c-2.1-1.6-3.1-3.5-3.1-5.9h1.5c0.2,2.1,1.1,3.8,2.8,4.9c1.7,1.2,4.1,1.7,7,1.7c2.7,0,4.8-0.6,6.6-1.9
		C1512.7,400.8,1513.5,399.3,1513.5,397.5z"/>
	<path class="st4" d="M1525.1,366.6v8.1h6.8v1.5h-6.8v21.5c0,2.2,0.3,3.7,1,4.8c0.7,1,1.9,1.6,3.5,1.6c0.8,0,1.8-0.1,2.9-0.3
		l0.3,1.4c-0.6,0.3-1.6,0.3-3.1,0.3c-2.2,0-3.8-0.6-4.7-1.8c-0.9-1.2-1.5-3.1-1.5-5.8v-21.6h-5.5v-1.5h5.5v-8.1H1525.1z"/>
	<path class="st4" d="M1548.9,405.4c-2.4,0-4.7-0.7-6.8-2c-2.1-1.3-3.6-3.1-4.8-5.4c-1.1-2.3-1.7-4.8-1.7-7.6v-1.3
		c0-2.8,0.5-5.4,1.6-7.7c1.1-2.3,2.7-4.2,4.6-5.5c2-1.3,4.1-2,6.4-2c3.4,0,6.1,1.2,8.2,3.6c2.1,2.4,3.2,5.5,3.2,9.4v1.6h-22.6v1.6
		c0,2.4,0.5,4.8,1.6,6.8c1,2.1,2.4,3.7,4.2,4.9c1.8,1.2,3.8,1.8,5.9,1.8c2,0,3.7-0.3,5.2-1c1.4-0.7,2.7-1.7,3.8-3.1l1,0.8
		C1556.7,403.8,1553.3,405.4,1548.9,405.4z M1548.3,375.6c-2.9,0-5.5,1.1-7.4,3.3c-2.1,2.2-3.2,4.9-3.6,8.4h21V387
		c0-2.1-0.4-4-1.3-5.7c-0.9-1.7-2.1-3.1-3.5-4.1C1551.9,376.2,1550.2,375.6,1548.3,375.6z"/>
</g>
<g>
	<path class="st1" d="M1118.2,777.5l-5.3,1.1l15-47.4l6.6-15.7l15,76.4l-1-24.3l10.4-36.4h2.9l-15,51.2h-2.5l-12.6-38.4l-2.3-9.2
		l-2.6,9.2l-12.5,38.4h-2.5l-14.8-51.2l11-15.1L1118.2,777.5z"/>
	<path class="st1" d="M1177.2,636.2c-2.8,0-5.5-0.8-7.9-2.2c-2.4-1.4-4.3-3.4-5.6-5.9c-1.3-2.5-2-5.3-2-8.3v-1.3
		c0-3,0.6-5.9,1.9-8.4c1.3-2.6,3.1-4.5,5.4-6c2.3-1.4,4.8-2.2,7.5-2.2c4,0,7.2,1.3,9.6,4c2.5,2.7,3.7,6.1,3.7,10.3v1.7h-26.4v1.8
		c0,2.7,0.6,5.2,1.8,7.5s2.8,4.1,5,5.4c2.1,1.3,4.5,2,6.9,2c2.3,0,4.4-0.4,6.1-1.1s3.1-1.9,4.5-3.4l1.2,0.9
		C1186.3,634.5,1182.4,636.2,1177.2,636.2z M1176.5,603.7c-3.4,0-6.4,1.2-8.7,3.6c-2.4,2.4-3.7,5.4-4.3,9.2h24.6v-0.4
		c0-2.3-0.5-4.4-1.5-6.3c-1-1.9-2.4-3.4-4.2-4.5C1180.8,604.2,1178.8,603.7,1176.5,603.7z"/>
	<path class="st1" d="M1223.2,619.3c0,5.1-1.2,9.3-3.5,12.3c-2.3,3-5.6,4.5-9.7,4.5c-2.6,0-5.1-0.5-7.1-1.5c-2.1-1-3.7-2.5-5-4.3
		v5.2h-1.7v-46.9h1.7v19.9c1.2-2.2,2.8-3.8,5-4.9c2-1.1,4.4-1.7,7.1-1.7c4.2,0,7.4,1.5,9.7,4.5s3.5,7.1,3.5,12.5V619.3z
		 M1221.4,618.8c0-4.7-1-8.4-3-11.1c-2-2.7-4.9-4-8.4-4c-2.9,0-5.5,0.8-7.5,2.2c-2,1.4-3.5,3.5-4.5,6.3v15.2
		c0.9,2.4,2.4,4.2,4.5,5.4c2,1.2,4.6,1.9,7.6,1.9c3.6,0,6.5-1.3,8.4-4.1C1220.4,627.9,1221.4,623.9,1221.4,618.8z"/>
	<path class="st1" d="M1229.1,618.8c0-5.3,1.2-9.4,3.5-12.3s5.7-4.5,9.7-4.5c2.6,0,5,0.6,7,1.7c2,1.1,3.6,2.7,5,5v-19.9h1.7v46.9
		h-1.7v-5.3c-1.2,1.9-2.8,3.3-5,4.4s-4.5,1.5-7.1,1.5c-4.1,0-7.3-1.5-9.7-4.5c-2.3-3-3.5-7.2-3.5-12.5v-0.5H1229.1L1229.1,618.8z
		 M1231,619.3c0,4.6,1,8.3,2.9,11.1c2,2.7,4.8,4.1,8.4,4.1c2.9,0,5.4-0.6,7.5-1.8c2-1.2,3.6-3,4.6-5.3v-15.4
		c-2-5.6-6.1-8.3-12.1-8.3c-3.6,0-6.4,1.3-8.4,4C1232,610.3,1231,614.3,1231,619.3z"/>
	<path class="st1" d="M1278.1,636.2c-2.8,0-5.5-0.8-7.9-2.2c-2.4-1.4-4.3-3.4-5.6-5.9c-1.3-2.5-2-5.3-2-8.3v-1.3
		c0-3,0.6-5.9,1.9-8.4c1.3-2.6,3.1-4.5,5.4-6c2.3-1.4,4.8-2.2,7.5-2.2c4,0,7.2,1.3,9.6,4c2.5,2.7,3.7,6.1,3.7,10.3v1.7h-26.4v1.8
		c0,2.7,0.6,5.2,1.8,7.5s2.8,4.1,5,5.4c2.1,1.3,4.5,2,6.9,2c2.3,0,4.4-0.4,6.1-1.1s3.1-1.9,4.5-3.4l1.2,0.9
		C1287.2,634.5,1283.3,636.2,1278.1,636.2z M1277.4,603.7c-3.4,0-6.4,1.2-8.7,3.6c-2.4,2.4-3.7,5.4-4.3,9.2h24.6v-0.4
		c0-2.3-0.5-4.4-1.5-6.3c-1-1.9-2.4-3.4-4.2-4.5C1281.6,604.2,1279.7,603.7,1277.4,603.7z"/>
	<path class="st1" d="M1318.9,627.6c0-4-3.6-6.7-10.9-8.1c-4.4-0.9-7.5-2-9.2-3.4s-2.5-3.2-2.5-5.7c0-2.5,1.1-4.5,3.2-6
		c2.2-1.6,5.1-2.4,8.5-2.4c3.9,0,6.9,0.9,9.2,2.6c2.3,1.7,3.4,4,3.4,6.9h-1.8c0-2.2-1-4.1-3-5.6s-4.7-2.3-7.8-2.3
		c-3.1,0-5.6,0.7-7.4,1.9s-2.7,2.8-2.7,4.7c0,1.5,0.3,2.7,1,3.5s1.8,1.6,3.3,2.3c1.5,0.7,3.7,1.3,6.7,2s5.3,1.4,6.9,2.3
		c1.6,0.9,2.9,1.9,3.6,3c0.7,1.1,1.1,2.6,1.1,4.3c0,2.7-1.1,4.7-3.4,6.3c-2.3,1.5-5.3,2.4-9,2.4c-4,0-7.2-0.9-9.6-2.6
		c-2.4-1.7-3.6-3.9-3.6-6.4h1.7c0.2,2.3,1.3,4.2,3.2,5.4c2,1.3,4.8,1.9,8.2,1.9c3.1,0,5.7-0.7,7.7-2.1
		C1317.9,631.2,1318.9,629.6,1318.9,627.6z"/>
	<path class="st1" d="M1327.9,592.2c0-0.5,0.2-0.9,0.5-1.2s0.8-0.5,1.3-0.5s0.9,0.2,1.3,0.5c0.4,0.3,0.5,0.8,0.5,1.2
		c0,0.5-0.2,0.9-0.5,1.2c-0.4,0.3-0.8,0.5-1.3,0.5s-0.9-0.2-1.3-0.5C1328,593.1,1327.9,592.7,1327.9,592.2z M1330.5,635.7h-1.7
		v-33.1h1.7V635.7z"/>
	<path class="st1" d="M1338.4,618.8c0-5.3,1.2-9.4,3.5-12.3s5.7-4.5,9.7-4.5c2.6,0,5,0.6,7,1.7c2,1.1,3.6,2.7,5,4.9v-6.1h1.8v32.5
		c0,4.4-1.2,7.8-3.5,10.2c-2.4,2.5-5.7,3.7-9.7,3.7c-2.3,0-4.6-0.5-6.5-1.4c-1.9-0.9-3.6-2.4-5.1-4.2l1.2-1.1
		c1.4,1.6,2.8,2.8,4.5,3.7c1.6,0.9,3.5,1.3,5.8,1.3c3.6,0,6.5-1,8.5-3.1s3-4.9,3.1-8.7v-5c-1.2,1.9-2.8,3.3-5,4.4
		c-2.1,1-4.5,1.5-7.1,1.5c-4.1,0-7.3-1.5-9.7-4.5c-2.3-3-3.5-7.2-3.5-12.5V618.8L1338.4,618.8z M1340.3,619.3c0,4.7,1,8.4,3,11.1
		c2,2.7,4.8,4.1,8.4,4.1c2.9,0,5.5-0.7,7.6-1.9c2.1-1.2,3.5-3.1,4.5-5.5v-15c-1.9-5.7-5.9-8.6-12-8.6c-3.6,0-6.5,1.3-8.5,4
		C1341.3,610.3,1340.3,614.3,1340.3,619.3z"/>
	<path class="st1" d="M1376.5,610.3c1.1-2.6,2.8-4.5,5.1-6.1c2.2-1.5,4.8-2.3,7.4-2.3c3.7,0,6.6,1,8.4,3c1.8,2,2.7,5,2.8,9.1v21.6
		h-1.7v-21.6c0-3.5-0.8-6.2-2.3-7.9s-4-2.6-7.3-2.6c-3,0-5.7,1-7.9,3c-2.2,2-3.7,4.6-4.6,7.9v21.1h-1.7v-33.1h1.7v7.7H1376.5
		L1376.5,610.3z"/>
</g>
<text transform="matrix(1 0 0 1 903.1624 -179.892)" class="st9" style="font-family:'ArialMT'; font-size:66px;">infographiste</text>
<text transform="matrix(1 0 0 1 483.6005 -116.4061)" style="opacity:0.58;fill:#78C8CF;enable-background:new    ; font-family:'ArialMT'; font-size:66px;">webdesign</text>
<text transform="matrix(1 0 0 1 472.5996 -112.3945)" style="font-family:'ArialMT'; font-size:66px;">Lorem ipsum</text>
<text transform="matrix(1 0 0 1 907.5774 -121.3942)" style="font-family:'ArialMT'; font-size:66px;">Lorem ipsum</text>
<g class="st7">
	<path class="st5" d="M467.8,191.6h-1.3v-17.6c0-2.6-0.6-4.6-1.7-5.8c-1.2-1.3-2.9-1.9-5.4-1.9c-2.9,0-5.1,1.3-7,3.7
		c-1.1,1.5-1.8,3.2-2.1,5v16.5H449v-26.1h1.3v6.2c0.9-2.1,2.1-3.7,3.7-4.9c1.6-1.2,3.4-1.7,5.5-1.7c2.1,0,4,0.5,5.4,1.4
		c1.4,1,2.2,2.6,2.8,4.7c0.8-1.9,2-3.4,3.7-4.5s3.6-1.7,5.8-1.7c2.8,0,4.9,0.7,6.3,2.4c1.4,1.6,2,4,2,7.2v17h-1.3v-16.9
		c0-2.9-0.5-4.9-1.7-6.3c-1.2-1.4-3-2-5.4-2c-3.2,0-5.7,1.3-7.5,3.7c-1.1,1.4-1.6,2.8-1.7,4.2v17.5
		C468,191.6,467.8,191.6,467.8,191.6z"/>
	<path class="st5" d="M506.2,191.6c-0.3-1.1-0.4-2.7-0.4-4.8c-1.1,1.7-2.5,3-4.2,3.9c-1.8,1-3.7,1.4-6,1.4c-2.4,0-4.4-0.6-5.8-1.9
		c-1.5-1.3-2.2-3-2.2-5.1c0-2.4,1.1-4.3,3.2-5.8c2.1-1.4,5-2.1,8.6-2.2h6.4v-3.9c0-2.1-0.6-3.9-2-5c-1.4-1.2-3.3-1.8-5.9-1.8
		c-2.4,0-4.4,0.6-6,1.8c-1.6,1.2-2.4,2.7-2.4,4.5h-1.3c0-2.1,1-4,2.8-5.4c1.8-1.4,4.2-2.2,6.9-2.2c2.8,0,5,0.7,6.7,2.1
		c1.6,1.4,2.5,3.4,2.6,5.9v12.4c0,2.9,0.2,4.8,0.6,5.8v0.2h-1.6L506.2,191.6L506.2,191.6z M495.5,190.8c2.5,0,4.5-0.5,6.3-1.6
		c1.7-1.1,3.1-2.7,4-4.6v-6.2h-6c-3.7,0-6.5,0.7-8.6,2.2c-1.6,1.2-2.4,2.7-2.4,4.5c0,1.6,0.6,2.9,1.9,4.1
		C492,190.3,493.6,190.8,495.5,190.8z"/>
	<path class="st5" d="M510.3,178.3c0-4.2,0.9-7.4,2.7-9.7c1.7-2.4,4.2-3.5,7.2-3.5c1.9,0,3.6,0.4,5.1,1.3c1.5,0.9,2.7,2.2,3.6,4
		v-4.7h1.3v25.6c0,3.4-0.9,6.1-2.7,8s-4.2,2.9-7.2,2.9c-1.7,0-3.3-0.4-4.8-1.2c-1.5-0.7-2.7-1.8-3.7-3.2l1-0.9
		c1,1.3,2.1,2.2,3.3,2.9c1.2,0.6,2.6,1.1,4.3,1.1c2.7,0,4.8-0.9,6.2-2.5c1.5-1.6,2.3-4,2.4-6.9v-4c-0.9,1.5-2.1,2.6-3.6,3.4
		c-1.5,0.7-3.3,1.2-5.2,1.2c-3,0-5.4-1.2-7.2-3.5c-1.7-2.4-2.7-5.7-2.7-9.9L510.3,178.3L510.3,178.3L510.3,178.3z M511.7,178.8
		c0,3.7,0.8,6.6,2.3,8.8s3.5,3.2,6.2,3.2c2.2,0,4.1-0.5,5.6-1.5s2.7-2.5,3.3-4.3v-11.8c-1.4-4.5-4.4-6.7-8.9-6.7
		c-2.7,0-4.7,1.1-6.2,3.1C512.5,171.6,511.7,174.7,511.7,178.8z"/>
	<path class="st5" d="M533.6,178.3c0-4.2,0.9-7.4,2.7-9.7c1.7-2.4,4.2-3.5,7.2-3.5c1.9,0,3.6,0.4,5.1,1.3c1.5,0.9,2.7,2.2,3.6,4
		v-4.7h1.3v25.6c0,3.4-0.9,6.1-2.7,8s-4.2,2.9-7.2,2.9c-1.7,0-3.3-0.4-4.8-1.2c-1.5-0.7-2.7-1.8-3.8-3.2l1-0.9
		c1,1.3,2.1,2.2,3.3,2.9c1.2,0.6,2.6,1.1,4.3,1.1c2.7,0,4.8-0.9,6.2-2.5c1.5-1.6,2.3-4,2.4-6.9v-4c-0.9,1.5-2.1,2.6-3.6,3.4
		c-1.5,0.7-3.3,1.2-5.2,1.2c-3,0-5.4-1.2-7.2-3.5c-1.7-2.4-2.7-5.7-2.7-9.9L533.6,178.3L533.6,178.3L533.6,178.3z M534.8,178.8
		c0,3.7,0.7,6.6,2.2,8.8s3.5,3.2,6.2,3.2c2.3,0,4.1-0.5,5.6-1.5c1.5-1,2.7-2.5,3.3-4.3v-11.8c-1.4-4.5-4.4-6.7-8.9-6.7
		c-2.7,0-4.7,1.1-6.2,3.1C535.6,171.6,534.8,174.7,534.8,178.8z"/>
	<path class="st5" d="M557.6,157.4c0-0.3,0.1-0.6,0.4-1c0.3-0.3,0.5-0.4,1-0.4c0.3,0,0.6,0.1,1,0.4c0.2,0.2,0.4,0.5,0.4,1
		c0,0.3-0.1,0.6-0.4,1c-0.2,0.2-0.5,0.4-1,0.4c-0.3,0-0.6-0.1-1-0.4C557.7,158.1,557.6,157.8,557.6,157.4z M559.5,191.6h-1.3v-26.1
		h1.3V191.6z"/>
	<path class="st5" d="M562.2,178c0-2.5,0.4-4.7,1.4-6.7c1-2,2.4-3.5,4.1-4.6c1.7-1.1,3.8-1.7,5.9-1.7s4.2,0.5,5.9,1.6
		c1.7,1.1,3.1,2.6,4.1,4.6c1,1.9,1.5,4.2,1.5,6.6v1.2c0,2.5-0.4,4.7-1.4,6.7c-1,1.9-2.2,3.5-4.1,4.6c-1.8,1.1-3.8,1.7-5.9,1.7
		c-2.3,0-4.2-0.5-5.9-1.6c-1.7-1.1-3.1-2.6-4.1-4.6c-1-1.9-1.5-4.2-1.5-6.6V178z M563.4,179.1c0,2.1,0.4,4.2,1.3,6
		c0.9,1.8,2,3.2,3.6,4.2c1.5,1,3.3,1.5,5.2,1.5c3,0,5.4-1.1,7.3-3.3c1.8-2.2,2.8-5.1,2.8-8.6v-0.8c0-2.1-0.4-4.1-1.3-5.9
		c-0.9-1.8-2-3.2-3.6-4.3c-1.5-1.1-3.3-1.5-5.2-1.5c-3,0-5.4,1.2-7.3,3.4c-1.9,2.2-2.8,5.1-2.8,8.6V179.1z"/>
</g>
<path class="st4" d="M2123.7,282.4h-67.1v67.5h67.1V282.4z"/>
<path class="st9" d="M553.1,439.6h-139v139.9h139V439.6z"/>
<path class="st0" d="M460.8,235.2h-67.1v67.5h67.1V235.2z"/>
<path class="st1" d="M973.7,455.7H841.5v133h132.2V455.7z"/>
<path class="st0" d="M908.5,521.2h-67.1v67.5h67.1V521.2z"/>
<path class="st5" d="M732.6,472.1L725,494l15-47.4l4.8-16l16.9,48.3l-1.2,4.1l10.4-36.4h2.9l-15,51.2h-2.5l-12.6-38.4l-2.3-9.2
	l-2.6,9.2l-12.5,38.4h-2.5L709,446.6l11-15.1L732.6,472.1z"/>
<path class="st1" d="M798.1,378.7c-2.8,0-5.5-0.8-7.9-2.2c-2.4-1.4-4.3-3.4-5.6-5.9s-2-5.3-2-8.3V361c0-3,0.6-5.9,1.9-8.4
	s3.1-4.5,5.4-6c2.3-1.4,4.8-2.2,7.5-2.2c4,0,7.2,1.3,9.6,4c2.5,2.7,3.7,6.1,3.7,10.3v1.7h-26.4v1.8c0,2.7,0.6,5.2,1.8,7.5
	c1.2,2.3,2.8,4.1,5,5.4c2.1,1.3,4.5,2,6.9,2c2.3,0,4.4-0.4,6.1-1.1c1.7-0.8,3.1-1.9,4.5-3.4l1.2,0.9
	C807.1,377,803.2,378.7,798.1,378.7z M797.3,346.2c-3.4,0-6.4,1.2-8.7,3.6c-2.4,2.4-3.7,5.4-4.3,9.2H809v-0.4c0-2.3-0.5-4.4-1.5-6.3
	c-1-1.9-2.4-3.4-4.2-4.5C801.6,346.7,799.6,346.2,797.3,346.2z"/>
<path class="st1" d="M914.7,429.9c0,4.5-1.1,8.2-3.1,10.9s-4.9,4-8.6,4c-2.3,0-4.5-0.4-6.3-1.3c-1.9-0.9-3.3-2.2-4.4-3.8v4.6h-1.5
	v-41.7h1.5v17.7c1.1-1.9,2.5-3.4,4.4-4.4c1.8-1,3.9-1.5,6.3-1.5c3.7,0,6.6,1.3,8.6,4s3.1,6.3,3.1,11.1V429.9z M913.1,429.5
	c0-4.2-0.9-7.5-2.7-9.8s-4.3-3.5-7.5-3.5c-2.6,0-4.9,0.7-6.7,1.9s-3.1,3.1-4,5.6v13.5c0.8,2.1,2.2,3.7,4,4.8s4,1.7,6.7,1.7
	c3.2,0,5.8-1.2,7.5-3.6C912.2,437.5,913.1,433.9,913.1,429.5z"/>
<path class="st1" d="M923.5,408.9c0-5.3,1.2-9.4,3.5-12.3s5.7-4.5,9.7-4.5c2.6,0,5,0.6,7,1.7c2,1.1,3.6,2.7,5,5V379h1.7v46.9h-1.7
	v-5.3c-1.2,1.9-2.8,3.3-5,4.4c-2.1,1-4.5,1.5-7.1,1.5c-4.1,0-7.3-1.5-9.7-4.5c-2.3-3-3.5-7.2-3.5-12.5v-0.5H923.5L923.5,408.9z
	 M925.4,409.4c0,4.6,1,8.3,2.9,11.1c2,2.7,4.8,4.1,8.4,4.1c2.9,0,5.4-0.6,7.5-1.8c2-1.2,3.6-3,4.6-5.3V402c-2-5.6-6.1-8.3-12.1-8.3
	c-3.6,0-6.4,1.3-8.4,4C926.3,400.4,925.4,404.4,925.4,409.4z"/>
<path class="st1" d="M963.4,444.9c-2.5,0-4.9-0.7-7-1.9c-2.2-1.3-3.8-3-4.9-5.2c-1.2-2.2-1.8-4.7-1.8-7.4v-1.2
	c0-2.7,0.5-5.2,1.7-7.5c1.2-2.3,2.8-4,4.8-5.3c2.1-1.3,4.2-1.9,6.7-1.9c3.5,0,6.4,1.2,8.5,3.5c2.2,2.4,3.3,5.4,3.3,9.2v1.5h-23.5
	v1.6c0,2.4,0.5,4.6,1.6,6.6c1.1,2,2.5,3.6,4.4,4.8c1.9,1.2,4,1.8,6.1,1.8c2.1,0,3.9-0.3,5.4-1s2.8-1.7,4-3l1.1,0.8
	C971.5,443.3,968.1,444.9,963.4,444.9z M962.8,416c-3.1,0-5.7,1.1-7.7,3.2c-2.2,2.1-3.3,4.8-3.8,8.2h21.9V427c0-2-0.4-3.9-1.3-5.6
	c-0.9-1.7-2.2-3-3.7-4C966.5,416.4,964.8,416,962.8,416z"/>
<path class="st1" d="M1013.4,441.5c0-4-3.6-6.7-10.9-8.1c-4.4-0.9-7.5-2-9.2-3.4c-1.7-1.4-2.5-3.2-2.5-5.7s1.1-4.5,3.2-6
	c2.2-1.6,5.1-2.4,8.5-2.4c3.9,0,6.9,0.9,9.2,2.6c2.3,1.7,3.4,4,3.4,6.9h-1.8c0-2.2-1-4.1-3-5.6c-2-1.5-4.7-2.3-7.8-2.3
	s-5.6,0.7-7.4,1.9c-1.8,1.2-2.7,2.8-2.7,4.7c0,1.5,0.3,2.7,1,3.5c0.7,0.9,1.8,1.6,3.3,2.3c1.5,0.7,3.7,1.3,6.7,2
	c2.9,0.7,5.3,1.4,6.9,2.3c1.6,0.9,2.9,1.9,3.6,3c0.7,1.1,1.1,2.6,1.1,4.3c0,2.7-1.1,4.7-3.4,6.3c-2.3,1.5-5.3,2.4-9,2.4
	c-4,0-7.2-0.9-9.6-2.6c-2.4-1.7-3.6-3.9-3.6-6.4h1.7c0.2,2.3,1.3,4.2,3.2,5.4c2,1.3,4.8,1.9,8.2,1.9c3.1,0,5.7-0.7,7.7-2.1
	C1012.3,445.1,1013.4,443.5,1013.4,441.5z"/>
<path class="st1" d="M1022.2,382.3c0-0.5,0.2-0.9,0.5-1.2c0.3-0.4,0.8-0.5,1.3-0.5s0.9,0.2,1.3,0.5s0.5,0.8,0.5,1.2
	s-0.2,0.9-0.5,1.2c-0.4,0.3-0.8,0.5-1.3,0.5s-0.9-0.2-1.3-0.5C1022.3,383.1,1022.2,382.7,1022.2,382.3z M1024.9,425.8h-1.7v-33.1
	h1.7V425.8z"/>
<path class="st1" d="M1032.9,432.8c0-5.3,1.2-9.4,3.5-12.3s5.7-4.5,9.7-4.5c2.6,0,5,0.6,7,1.7s3.6,2.7,5,4.9v-6.1h1.8v32.5
	c0,4.4-1.2,7.8-3.5,10.2c-2.4,2.5-5.7,3.7-9.7,3.7c-2.3,0-4.6-0.5-6.5-1.4c-1.9-0.9-3.6-2.4-5.1-4.2l1.2-1.1
	c1.4,1.6,2.8,2.8,4.5,3.7c1.6,0.9,3.5,1.3,5.8,1.3c3.6,0,6.5-1,8.5-3.1c2-2.1,3-4.9,3.1-8.7v-5c-1.2,1.9-2.8,3.3-5,4.4
	c-2.1,1-4.5,1.5-7.1,1.5c-4.1,0-7.3-1.5-9.7-4.5c-2.3-3-3.5-7.2-3.5-12.5L1032.9,432.8L1032.9,432.8z M1034.7,433.3
	c0,4.7,1,8.4,3,11.1s4.8,4.1,8.4,4.1c2.9,0,5.5-0.7,7.6-1.9s3.5-3.1,4.5-5.5v-15c-1.9-5.7-5.9-8.6-12-8.6c-3.6,0-6.5,1.3-8.5,4
	C1035.7,424.3,1034.7,428.3,1034.7,433.3z"/>
<path class="st1" d="M1071,424.3c1.1-2.6,2.8-4.5,5.1-6.1c2.2-1.5,4.8-2.3,7.4-2.3c3.7,0,6.6,1,8.4,3s2.7,5,2.8,9.1v21.6h-1.7v-21.6
	c0-3.5-0.8-6.2-2.3-7.9c-1.5-1.7-4-2.6-7.3-2.6c-3,0-5.7,1-7.9,3c-2.2,2-3.7,4.6-4.6,7.9v21.1h-1.7v-33.1h1.7v7.7H1071L1071,424.3z"
	/>
<g>
	<path class="st5" d="M394.1,241.9h6.5v2.2l0,0c1.1-1.7,2.9-2.6,5-2.6c5.7,0,8,5,8,10.1c0,4.7-2.5,9.3-7.6,9.3c-2.1,0-4-0.8-5.1-2.5
		l0,0v8h-6.8V241.9L394.1,241.9z M400.6,250.8c0,3.2,1,5.3,3.6,5.3s3.6-2.8,3.6-5.3s-1-5-3.5-5C402.6,245.9,400.6,247.1,400.6,250.8
		z"/>
	<path class="st5" d="M414.5,235.3h5.9v9.4l0,0c1-1.9,3.3-3,5.5-3c5.9,0,6.5,4.4,6.5,7.1v11.8h-5.9v-9c0-2.5,0.3-5-2.9-5
		c-2.2,0-3.2,1.9-3.2,3.9v10h-5.8L414.5,235.3L414.5,235.3z"/>
	<path class="st5" d="M440,239.9H434v-4.6h5.9V239.9z M434,242.3h5.9v18.3H434V242.3z"/>
	<path class="st5" d="M447,252.4c0,2.5,1.5,4.1,4.1,4.1c1.4,0,2.8-0.7,3.3-2.1h5.5c-1.1,4.3-4.8,6.1-9,6.1c-5.8,0-9.8-3.6-9.8-9.8
		c0-5.7,4.4-9.5,9.8-9.5c6.5,0,9.7,5,9.4,11.2H447L447,252.4z M454.4,249c0-2.1-1.5-3.7-3.5-3.7c-2.1,0-3.5,1.5-3.9,3.7H454.4z"/>
</g>
</svg>
