<svg xmlns="http://www.w3.org/2000/svg" viewBox="0 0 1315.3 327.84"><defs><style>.cls-1,.cls-4{fill:#2d3c43;}.cls-2{fill:#fff;}.cls-3{fill:#a3d9ea;}.cls-4{isolation:isolate;font-size:46.05px;font-family:Roboto-Thin, Roboto;letter-spacing:-0.08em;}</style></defs><title>Fichier 6</title><g id="Calque_2" data-name="Calque 2"><g id="Calque_1-2" data-name="Calque 1"><rect class="cls-1" x="150" width="1165.3" height="252.1"/><path class="cls-2" d="M304.3,201c-17.9,0-32.1,8.9-39.6,22.5-2.4-31.2-28.8-43.3-54.9-50.7-27.7-7.7-55.1-10.5-55.1-25.2,0-12.6,13.3-16.4,24-16.4,15.4,0,31.6,5.5,30.8,23.1H259c-.3-43.2-38.4-61.8-76.3-61.8a117.73,117.73,0,0,0-33.8,5l.1,104.6c3.9,1.4,8,2.7,11.8,3.8,27.5,8,54.6,11.2,54.6,28,0,14.3-15.5,19.7-30.4,19.7-21,0-34.9-7.3-36-29.8v30.4H349.5a56.33,56.33,0,0,0,.4-7.1C350.1,221,331.2,201,304.3,201Zm16.6,53.3H287.5a56.33,56.33,0,0,1-.4-7.1c0-11.1,4-24.4,17-24.4s17.3,13.3,17.3,24.4A33,33,0,0,1,320.9,254.3Z"/><rect class="cls-1" y="1.2" width="97" height="252.1"/><rect class="cls-3" x="346.6" y="162.4" width="127.3" height="127.9"/><path class="cls-2" d="M346.6,227h9.6v3.2h.1a8.66,8.66,0,0,1,7.4-4c8.5,0,12,7.4,12,15,0,7.1-3.7,13.7-11.3,13.7a8.82,8.82,0,0,1-7.6-3.8h-.1v12H346.6Zm9.8,13.3c0,4.8,1.4,7.8,5.3,7.8s5.3-4.2,5.3-7.8-1.4-7.4-5.2-7.4C359.5,233,356.4,234.7,356.4,240.3Z"/><path class="cls-2" d="M377.1,217.2h8.8v14h.1c1.4-2.8,5-4.5,8.2-4.5,8.9,0,9.6,6.5,9.6,10.5v17.5H395V241.4c0-3.8.4-7.5-4.4-7.5-3.3,0-4.8,2.8-4.8,5.8v14.9h-8.7V217.2Z"/><path class="cls-2" d="M414.9,224h-8.8v-6.8h8.8Zm-8.8,3.5h8.8v27.2h-8.8Z"/><path class="cls-2" d="M425.5,242.6c.1,3.8,2.3,6.2,6.1,6.2a5.3,5.3,0,0,0,5-3h8.2c-1.6,6.4-7.3,9.1-13.3,9.1-8.7,0-14.7-5.4-14.7-14.6,0-8.4,6.5-14.3,14.6-14.3,9.6,0,14.4,7.4,14,16.6Zm10.9-5c-.1-3-2.3-5.6-5.2-5.6-3.1,0-5.2,2.3-5.7,5.6Z"/><text class="cls-4" transform="translate(343.23 315.36)">maggio</text></g></g></svg>