<?xml version="1.0" encoding="utf-8"?>
<!-- Generator: Adobe Illustrator 22.0.1, SVG Export Plug-In . SVG Version: 6.00 Build 0)  -->
<svg version="1.1" id="Calque_1" xmlns="http://www.w3.org/2000/svg" xmlns:xlink="http://www.w3.org/1999/xlink" x="0px" y="0px"
	 viewBox="0 0 474.9 379.8" style="enable-background:new 0 0 474.9 379.8;" xml:space="preserve">
<style type="text/css">
	.st0{fill:#2D3C43;}
	.st1{fill:#FFFFFF;}
	.st2{fill:#A3D9EA;}
	.st3{enable-background:new    ;}
</style>
<title>Fichier 6</title>
<g id="Calque_1-2">
	<g>
		<rect x="103" y="0" class="st0" width="371.9" height="304.1"/>
	</g>
	<g>
		<path class="st1" d="M292.6,239.3c-22.5,0-40.3,11.2-49.8,28.3c-3-39.2-36.2-54.4-69-63.7c-34.8-9.7-69.2-13.2-69.2-31.7
			c0-15.8,16.7-20.6,30.2-20.6c19.3,0,39.7,6.9,38.7,29h62.2c-0.4-54.3-48.2-77.7-95.9-77.7c-14.4,0-28.7,2.1-42.5,6.3l0.1,131.4
			c4.9,1.8,10.1,3.4,14.8,4.8c34.6,10.1,68.6,14.1,68.6,35.2c0,18-19.5,24.8-38.2,24.8c-26.4,0-43.8-9.2-45.2-37.4v38.2h251.9
			c0.4-3,0.5-5.9,0.5-8.9C350.1,264.5,326.4,239.3,292.6,239.3z M313.4,306.3h-42c-0.4-3-0.5-5.9-0.5-8.9c0-13.9,5-30.7,21.4-30.7
			s21.7,16.7,21.7,30.7C314.2,300.4,314,303.4,313.4,306.3z"/>
	</g>
	<g>
		<rect y="0.2" class="st0" width="50" height="305.1"/>
	</g>
	<g>
		<rect x="346.6" y="214.4" class="st2" width="127.3" height="127.9"/>
	</g>
	<g>
		<path class="st1" d="M346.6,279h9.6v3.2h0.1c1.6-2.5,4.4-4,7.4-4c8.5,0,12,7.4,12,15c0,7.1-3.7,13.7-11.3,13.7
			c-3,0.1-5.9-1.3-7.6-3.8h-0.1v12h-10.1V279z M356.4,292.3c0,4.8,1.4,7.8,5.3,7.8c3.9,0,5.3-4.2,5.3-7.8s-1.4-7.4-5.2-7.4
			C359.5,285,356.4,286.7,356.4,292.3z"/>
	</g>
	<g>
		<path class="st1" d="M377.1,269.2h8.8v14h0.1c1.4-2.8,5-4.5,8.2-4.5c8.9,0,9.6,6.5,9.6,10.5v17.5H395v-13.3c0-3.8,0.4-7.5-4.4-7.5
			c-3.3,0-4.8,2.8-4.8,5.8v14.9h-8.7V269.2z"/>
	</g>
	<g>
		<path class="st1" d="M414.9,276h-8.8v-6.8h8.8V276z M406.1,279.5h8.8v27.2h-8.8V279.5z"/>
	</g>
	<g>
		<path class="st1" d="M425.5,294.6c0.1,3.8,2.3,6.2,6.1,6.2c2.1,0.1,4.1-1.1,5-3h8.2c-1.6,6.4-7.3,9.1-13.3,9.1
			c-8.7,0-14.7-5.4-14.7-14.6c0-8.4,6.5-14.3,14.6-14.3c9.6,0,14.4,7.4,14,16.6H425.5z M436.4,289.6c-0.1-3-2.3-5.6-5.2-5.6
			c-3.1,0-5.2,2.3-5.7,5.6H436.4z"/>
	</g>
	<g class="st3">
		<path class="st0" d="M364.5,367.4h-1.2V351c0-2.4-0.6-4.3-1.6-5.4c-1.1-1.2-2.7-1.8-5-1.8c-2.7,0-4.8,1.2-6.5,3.5
			c-1,1.4-1.7,3-2,4.7v15.4h-1.2V343h1.2v5.8c0.8-2,2-3.5,3.5-4.6c1.5-1.1,3.2-1.6,5.1-1.6c2,0,3.7,0.5,5,1.3
			c1.3,0.9,2.1,2.4,2.6,4.4c0.7-1.8,1.9-3.2,3.5-4.2c1.6-1,3.4-1.6,5.4-1.6c2.6,0,4.6,0.7,5.9,2.2s1.9,3.7,1.9,6.7v15.9h-1.2v-15.8
			c0-2.7-0.5-4.6-1.6-5.9s-2.8-1.9-5-1.9c-3,0-5.3,1.2-7,3.5c-1,1.3-1.5,2.6-1.6,3.9V367.4z"/>
		<path class="st0" d="M400.4,367.4c-0.3-1-0.4-2.5-0.4-4.5c-1,1.6-2.3,2.8-3.9,3.6c-1.7,0.9-3.5,1.3-5.6,1.3
			c-2.2,0-4.1-0.6-5.4-1.8c-1.4-1.2-2.1-2.8-2.1-4.8c0-2.2,1-4,3-5.4c2-1.3,4.7-2,8-2.1h6v-3.6c0-2-0.6-3.6-1.9-4.7
			c-1.3-1.1-3.1-1.7-5.5-1.7c-2.2,0-4.1,0.6-5.6,1.7c-1.5,1.1-2.2,2.5-2.2,4.2l-1.2,0c0-2,0.9-3.7,2.6-5s3.9-2.1,6.4-2.1
			c2.6,0,4.7,0.7,6.3,2c1.5,1.3,2.3,3.2,2.4,5.5v11.6c0,2.7,0.2,4.5,0.6,5.4v0.2H400.4z M390.4,366.6c2.3,0,4.2-0.5,5.9-1.5
			c1.6-1,2.9-2.5,3.7-4.3V355h-5.6c-3.5,0-6.1,0.7-8,2.1c-1.5,1.1-2.2,2.5-2.2,4.2c0,1.5,0.6,2.7,1.8,3.8
			C387.1,366.1,388.6,366.6,390.4,366.6z"/>
		<path class="st0" d="M404.2,354.9c0-3.9,0.8-6.9,2.5-9.1c1.6-2.2,3.9-3.3,6.7-3.3c1.8,0,3.4,0.4,4.8,1.2c1.4,0.8,2.5,2.1,3.4,3.7
			V343h1.2v23.9c0,3.2-0.8,5.7-2.5,7.5s-3.9,2.7-6.7,2.7c-1.6,0-3.1-0.4-4.5-1.1c-1.4-0.7-2.5-1.7-3.5-3l0.9-0.8
			c0.9,1.2,2,2.1,3.1,2.7c1.1,0.6,2.4,1,4,1c2.5,0,4.5-0.8,5.8-2.3c1.4-1.5,2.1-3.7,2.2-6.4v-3.7c-0.8,1.4-2,2.4-3.4,3.2
			c-1.4,0.7-3.1,1.1-4.9,1.1c-2.8,0-5-1.1-6.7-3.3c-1.6-2.2-2.5-5.3-2.5-9.2V354.9z M405.5,355.4c0,3.5,0.7,6.2,2.1,8.2
			c1.4,2,3.3,3,5.8,3c2.1,0,3.8-0.5,5.2-1.4s2.5-2.3,3.1-4v-11c-1.3-4.2-4.1-6.3-8.3-6.3c-2.5,0-4.4,1-5.8,2.9
			C406.2,348.7,405.5,351.6,405.5,355.4z"/>
		<path class="st0" d="M425.9,354.9c0-3.9,0.8-6.9,2.5-9.1c1.6-2.2,3.9-3.3,6.7-3.3c1.8,0,3.4,0.4,4.8,1.2c1.4,0.8,2.5,2.1,3.4,3.7
			V343h1.2v23.9c0,3.2-0.8,5.7-2.5,7.5s-3.9,2.7-6.7,2.7c-1.6,0-3.1-0.4-4.5-1.1c-1.4-0.7-2.5-1.7-3.5-3l0.9-0.8
			c0.9,1.2,2,2.1,3.1,2.7c1.1,0.6,2.4,1,4,1c2.5,0,4.5-0.8,5.8-2.3c1.4-1.5,2.1-3.7,2.2-6.4v-3.7c-0.8,1.4-2,2.4-3.4,3.2
			c-1.4,0.7-3.1,1.1-4.9,1.1c-2.8,0-5-1.1-6.7-3.3c-1.6-2.2-2.5-5.3-2.5-9.2V354.9z M427.1,355.4c0,3.5,0.7,6.2,2.1,8.2
			c1.4,2,3.3,3,5.8,3c2.1,0,3.8-0.5,5.2-1.4s2.5-2.3,3.1-4v-11c-1.3-4.2-4.1-6.3-8.3-6.3c-2.5,0-4.4,1-5.8,2.9
			C427.8,348.7,427.1,351.6,427.1,355.4z"/>
		<path class="st0" d="M448.3,335.4c0-0.3,0.1-0.6,0.4-0.9s0.5-0.4,0.9-0.4c0.3,0,0.6,0.1,0.9,0.4c0.2,0.2,0.4,0.5,0.4,0.9
			c0,0.3-0.1,0.6-0.4,0.9c-0.2,0.2-0.5,0.4-0.9,0.4c-0.3,0-0.6-0.1-0.9-0.4C448.4,336.1,448.3,335.8,448.3,335.4z M450.1,367.4h-1.2
			V343h1.2V367.4z"/>
		<path class="st0" d="M452.6,354.7c0-2.3,0.4-4.4,1.3-6.3c0.9-1.9,2.2-3.3,3.8-4.3c1.6-1,3.5-1.6,5.5-1.6c2,0,3.9,0.5,5.5,1.5
			c1.6,1,2.9,2.4,3.8,4.3c0.9,1.8,1.4,3.9,1.4,6.2v1.1c0,2.3-0.4,4.4-1.3,6.3c-0.9,1.8-2.1,3.3-3.8,4.3s-3.5,1.6-5.5,1.6
			c-2.1,0-3.9-0.5-5.5-1.5s-2.9-2.4-3.8-4.3c-0.9-1.8-1.4-3.9-1.4-6.2V354.7z M453.8,355.7c0,2,0.4,3.9,1.2,5.6s1.9,3,3.4,3.9
			c1.4,0.9,3.1,1.4,4.9,1.4c2.8,0,5-1,6.8-3.1c1.7-2.1,2.6-4.8,2.6-8v-0.7c0-2-0.4-3.8-1.2-5.5c-0.8-1.7-1.9-3-3.4-4
			c-1.4-1-3.1-1.4-4.9-1.4c-2.8,0-5,1.1-6.8,3.2c-1.8,2.1-2.6,4.8-2.6,8V355.7z"/>
	</g>
</g>
<text transform="matrix(1 0 0 1 136.6167 -239.9969)" style="font-family:'MyriadPro-Regular'; font-size:12px;">Lorem ipsum</text>
</svg>
