<?xml version="1.0" encoding="utf-8"?>
<!-- Generator: Adobe Illustrator 22.1.0, SVG Export Plug-In . SVG Version: 6.00 Build 0)  -->
<svg version="1.1" id="Calque_1" xmlns="http://www.w3.org/2000/svg" xmlns:xlink="http://www.w3.org/1999/xlink" x="0px" y="0px"
	 viewBox="0 0 342.3 303.5" style="enable-background:new 0 0 342.3 303.5;" xml:space="preserve">
<style type="text/css">
	.st0{fill:#B34C1A;}
	.st1{fill:#F28C5B;}
	.st2{fill:#EF7B43;}
	.st3{fill:#13B1A4;}
	.st4{fill:#2D3C43;}
	.st5{fill:#A3D9EA;}
	.st6{enable-background:new    ;}
	.st7{fill:#78C8CF;}
	.st8{fill:#FFFFFF;}
</style>
<path class="st0" d="M763.8-376.6H622.1v142.5h141.6V-376.6z"/>
<path class="st1" d="M762.3-195.2H620.7v142.5h141.6V-195.2z"/>
<path class="st2" d="M760.9-13.9H619.3v142.5h141.6V-13.9z"/>
<path class="st3" d="M759.5,167.5H617.8V310h141.6V167.5z"/>
<title>Fichier 6</title>
<rect x="-264.5" y="-1.5" class="st4" width="97" height="305.1"/>
<rect x="-268.2" y="133.1" class="st5" width="127.3" height="127.9"/>
<g class="st6">
	<path class="st4" d="M-232.2,407.5h-1.2v-17.7c0-2.6-0.6-4.6-1.6-5.8c-1.1-1.3-2.6-1.9-4.9-1.9c-2.6,0-4.7,1.3-6.4,3.8
		c-1,1.5-1.7,3.2-2,5.1v16.6h-1.2v-26.4h1.2v6.3c0.8-2.2,2-3.8,3.4-5c1.5-1.2,3.1-1.7,5-1.7c2,0,3.6,0.4,4.9,1.4
		c1.3,1,2.1,2.6,2.5,4.8c0.7-1.9,1.9-3.5,3.4-4.5c1.6-1.1,3.3-1.7,5.3-1.7c2.5,0,4.5,0.8,5.8,2.4s1.9,4,1.9,7.2v17.2h-1.2v-17.1
		c0-2.9-0.5-5-1.6-6.4s-2.7-2.1-4.9-2.1c-2.9,0-5.2,1.3-6.8,3.8c-1,1.4-1.5,2.8-1.6,4.2L-232.2,407.5L-232.2,407.5L-232.2,407.5z"/>
	<path class="st4" d="M-196.4,407.5c-0.3-1.1-0.4-2.7-0.4-4.9c-1,1.7-2.2,3-3.8,3.9c-1.7,1-3.4,1.4-5.5,1.4c-2.2,0-4-0.6-5.3-1.9
		c-1.4-1.3-2.1-3-2.1-5.2c0-2.4,1-4.3,2.9-5.8c2-1.5,4.6-2.2,7.8-2.3h5.9v-3.9c0-2.2-0.6-3.9-1.9-5.1c-1.3-1.2-3-1.8-5.4-1.8
		c-2.2,0-4,0.6-5.5,1.8c-1.5,1.2-2.2,2.7-2.2,4.5h-1.2c0-2.2,0.9-4,2.5-5.4c1.7-1.5,3.8-2.3,6.3-2.3s4.6,0.8,6.2,2.2
		c1.5,1.4,2.2,3.5,2.3,5.9v12.5c0,2.9,0.2,4.9,0.6,5.8v0.2h-1.5v0.4L-196.4,407.5L-196.4,407.5z M-206.2,406.6
		c2.2,0,4.1-0.5,5.8-1.6c1.6-1.1,2.8-2.6,3.6-4.6v-6.3h-5.6c-3.4,0-6,0.8-7.8,2.3c-1.5,1.2-2.2,2.7-2.2,4.5c0,1.6,0.6,2.9,1.8,4.1
		S-207.9,406.6-206.2,406.6z"/>
	<path class="st4" d="M-192,394c0-4.2,0.8-7.5,2.4-9.8c1.6-2.4,3.8-3.6,6.6-3.6c1.8,0,3.3,0.4,4.7,1.3s2.4,2.3,3.3,4v-4.8h1.2v25.8
		c0,3.5-0.8,6.2-2.4,8.1c-1.7,1.9-3.8,2.9-6.6,2.9c-1.6,0-3-0.4-4.4-1.2c-1.4-0.8-2.4-1.8-3.4-3.2l0.9-0.9c0.9,1.3,2,2.3,3,2.9
		c1.1,0.6,2.3,1.1,3.9,1.1c2.4,0,4.4-0.9,5.7-2.5s2.1-4,2.2-6.9v-4c-0.8,1.5-2,2.6-3.3,3.5c-1.4,0.9-3,1.2-4.8,1.2
		c-2.7,0-4.9-1.2-6.6-3.6c-1.6-2.4-2.4-5.7-2.4-9.9L-192,394L-192,394z M-190.8,394.5c0,3.8,0.7,6.7,2.1,8.9
		c1.4,2.2,3.2,3.2,5.7,3.2c2.1,0,3.7-0.5,5.1-1.5c1.4-1.1,2.4-2.5,3-4.3v-11.9c-1.3-4.5-4-6.8-8.1-6.8c-2.4,0-4.3,1.1-5.7,3.1
		C-190.2,387.3-190.8,390.4-190.8,394.5z"/>
	<path class="st4" d="M-170.3,394c0-4.2,0.8-7.5,2.4-9.8c1.6-2.4,3.8-3.6,6.6-3.6c1.8,0,3.3,0.4,4.7,1.3s2.4,2.3,3.3,4v-4.8h1.2
		v25.8c0,3.5-0.8,6.2-2.4,8.1c-1.7,1.9-3.8,2.9-6.6,2.9c-1.6,0-3-0.4-4.4-1.2c-1.4-0.8-2.4-1.8-3.4-3.2l0.9-0.9c0.9,1.3,2,2.3,3,2.9
		s2.3,1.1,3.9,1.1c2.4,0,4.4-0.9,5.7-2.5s2.1-4,2.2-6.9v-4c-0.8,1.5-2,2.6-3.3,3.5c-1.4,0.9-3,1.2-4.8,1.2c-2.7,0-4.9-1.2-6.6-3.6
		c-1.6-2.4-2.4-5.7-2.4-9.9L-170.3,394L-170.3,394z M-169.1,394.5c0,3.8,0.7,6.7,2.1,8.9c1.4,2.2,3.2,3.2,5.7,3.2
		c2.1,0,3.7-0.5,5.1-1.5c1.4-1.1,2.4-2.5,3-4.3v-11.9c-1.3-4.5-4-6.8-8.1-6.8c-2.4,0-4.3,1.1-5.7,3.1
		C-168.4,387.3-169.1,390.4-169.1,394.5z"/>
	<path class="st4" d="M-147.7,372.9c0-0.3,0.1-0.6,0.4-1c0.2-0.2,0.5-0.4,0.9-0.4c0.3,0,0.6,0.1,0.9,0.4c0.2,0.2,0.4,0.5,0.4,1
		c0,0.3-0.1,0.6-0.4,1c-0.2,0.2-0.5,0.4-0.9,0.4c-0.3,0-0.6-0.1-0.9-0.4C-147.6,373.7-147.7,373.3-147.7,372.9z M-146,407.5h-1.2
		v-26.4h1.2V407.5z"/>
	<path class="st4" d="M-142.8,393.8c0-2.5,0.4-4.8,1.3-6.8c0.9-1.9,2.2-3.6,3.7-4.6c1.6-1.1,3.4-1.7,5.4-1.7s3.8,0.5,5.4,1.6
		s2.8,2.6,3.7,4.6c0.9,1.9,1.4,4.2,1.4,6.7v1.2c0,2.5-0.4,4.8-1.3,6.8c-0.9,1.9-2.1,3.6-3.7,4.6c-1.6,1.1-3.4,1.7-5.4,1.7
		s-3.8-0.5-5.4-1.6c-1.6-1.1-2.8-2.6-3.7-4.6c-0.9-2.1-1.4-4.2-1.4-6.7L-142.8,393.8L-142.8,393.8z M-141.7,394.8
		c0,2.2,0.4,4.2,1.2,6.1c0.8,1.8,1.9,3.2,3.3,4.2c1.4,1,3,1.5,4.8,1.5c2.7,0,4.9-1.1,6.6-3.3c1.8-2.3,2.5-5.2,2.5-8.6v-0.8
		c0-2.2-0.4-4.1-1.2-5.9c-0.8-1.8-1.9-3.2-3.3-4.3c-1.4-1.1-3-1.5-4.8-1.5c-2.7,0-4.9,1.2-6.6,3.5c-1.8,2.3-2.5,5.2-2.5,8.6V394.8z"
		/>
</g>
<text transform="matrix(1 0 0 1 133.6167 -240.9969)" style="font-family:'ArialMT'; font-size:12px;">Lorem ipsum</text>
<text transform="matrix(1 0 0 1 903.1624 -179.892)" class="st3" style="font-family:'Roboto-Thin'; font-size:66px;">infographiste</text>
<text transform="matrix(1 0 0 1 483.6005 -116.4061)" style="opacity:0.58;fill:#78C8CF;enable-background:new    ; font-family:'Roboto-Thin'; font-size:66px;">webdesign</text>
<text transform="matrix(1 0 0 1 472.5996 -112.3945)" style="font-family:'Roboto-Thin'; font-size:66px;">Lorem ipsum</text>
<text transform="matrix(1 0 0 1 907.5774 -121.3942)" style="font-family:'Roboto-Thin'; font-size:66px;">Lorem ipsum</text>
<text transform="matrix(1 0 0 1 -268.1998 142.5001)" style="font-family:'Roboto-Black'; font-size:66px; letter-spacing:-1;">print</text>
<g>
	<path class="st7" d="M342.3,161.8H200.7v142.5h141.6L342.3,161.8z"/>
	<path class="st8" d="M153.8,251c-17.9,0-32.1,8.9-39.6,22.5c-2.4-31.2-28.8-43.3-54.9-50.7c-27.7-7.7-55.1-10.5-55.1-25.2
		c0-12.6,13.3-16.4,24-16.4c15.4,0,31.6,5.5,30.8,23.1h49.5c-0.3-43.2-38.4-61.8-76.3-61.8c-11.4,0-22.8,1.7-39.8,7l0.1,104.6
		c9.9-0.6,14,0.7,17.8,1.8c27.5,8,54.6,11.2,54.6,28c0,14.3-15.5,19.7-30.4,19.7c-21,0-34.9-7.3-36-29.8v30.4H199
		c0.3-2.4,0.4-4.7,0.4-7.1C199.6,271,180.7,251,153.8,251z M170.4,304.3H137c-0.3-2.4-0.4-4.7-0.4-7.1c0-11.1,4-24.4,17-24.4
		s17.3,13.3,17.3,24.4C171,299.6,170.8,302,170.4,304.3z"/>
	<g>
		<path class="st8" d="M237.3,269.4c0,6.1-1.4,11-4.2,14.7c-2.7,3.6-6.5,5.4-11.2,5.4c-3.6,0-6.6-1.4-9-4v18.5h-12.2v-54.7h11.6
			l0.3,3.6c2.4-2.9,5.4-4.4,9.3-4.4c4.9,0,8.6,1.8,11.3,5.4s4.1,8.5,4.1,14.8C237.3,268.9,237.3,269.4,237.3,269.4z M224.9,268.6
			c0-7-2-10.5-6.1-10.5c-2.9,0-4.9,1-5.9,3.2v15.5c1,2.2,3.1,3.3,5.9,3.3c4,0,5.9-3.4,6-10.2v-1.2H224.9z"/>
		<path class="st8" d="M263.3,260.6l-4.1-0.3c-3.9,0-6.3,1.2-7.5,3.6v25h-12.2v-39.5h11.6l0.5,5.1c2-3.9,5-5.8,8.6-5.8
			c1.4,0,2.5,0.1,3.4,0.5L263.3,260.6z"/>
		<path class="st8" d="M264.5,239.2c0-1.7,0.7-3.2,1.9-4.3s2.9-1.7,5-1.7c2,0,3.6,0.6,5,1.7c1.2,1.1,1.9,2.6,1.9,4.3
			s-0.7,3.2-1.9,4.3s-2.9,1.7-5,1.7c-2,0-3.6-0.6-5-1.7C265.2,242.3,264.5,241,264.5,239.2z M277.6,288.9h-12.4v-39.5h12.4V288.9z"
			/>
		<path class="st8" d="M293.3,249.4l0.5,4.6c2.7-3.6,6.5-5.3,11.3-5.3c4.1,0,7.1,1.2,9.2,3.7c2,2.5,3.1,6.1,3.2,11.1V289h-12.5
			v-24.9c0-2-0.5-3.5-1.2-4.4c-0.8-0.9-2.3-1.4-4.4-1.4c-2.4,0-4.2,0.9-5.3,2.8V289h-12.2v-39.7H293.3z"/>
		<path class="st8" d="M335.3,239.6v9.9h6.5v8.5h-6.5v18.1c0,1.5,0.2,2.5,0.8,3.1s1.6,0.9,3.2,0.9c1.2,0,2.3-0.1,3.1-0.2v8.8
			c-2.3,0.7-4.5,1-6.9,1c-4.2,0-7.4-1-9.4-2.9c-2-2-3.1-5-3.1-9.1V258h-5v-8.5h5v-9.9H335.3z"/>
	</g>
</g>
</svg>
