<!-- Generator: Adobe Illustrator 22.0.1, SVG Export Plug-In  -->
<svg version="1.1"
	 xmlns="http://www.w3.org/2000/svg" xmlns:xlink="http://www.w3.org/1999/xlink" xmlns:a="http://ns.adobe.com/AdobeSVGViewerExtensions/3.0/"
	 x="0px" y="0px" width="181.6px" height="146.1px" viewBox="0 0 181.6 146.1" style="enable-background:new 0 0 181.6 146.1;"
	 xml:space="preserve">
<style type="text/css">
	.st0{fill:#2D3C43;}
	.st1{fill:#FFFFFF;}
</style>
<rect x="0" y="0" class="st0" width="181.6" height="146.1"/>
<path class="st1" d="M140.3,98c-16.2,0-29,8-35.8,20.3c-2.2-28.2-26-39.1-49.6-45.8c-25-7-49.8-9.5-49.8-22.8
			c0-11.4,12-14.8,21.7-14.8c13.9,0,28.5,5,27.8,20.9h44.8C99.1,16.8,64.7,0,30.5,0C20.2,0,9.9,1.5,0,4.5l0.1,94.5
			c3.5,1.3,7.2,2.4,10.7,3.4c24.8,7.2,49.3,10.1,49.3,25.3c0,12.9-14,17.8-27.5,17.8c-19,0-31.5-6.6-32.5-26.9v27.4h99.6
			c0,0,0,0,0,0l81.5,0c0.3-2.1,0.4-4.3,0.4-6.4C181.6,116,164.6,98,140.3,98z M155.3,146.1h-30.2c-0.3-2.1-0.4-4.3-0.4-6.4
			c0-10,3.6-22,15.4-22s15.6,12,15.6,22C155.8,141.9,155.6,144,155.3,146.1z"/>
</svg>
