<?xml version="1.0" encoding="utf-8"?>
<!-- Generator: Adobe Illustrator 22.0.1, SVG Export Plug-In . SVG Version: 6.00 Build 0)  -->
<svg version="1.1" id="Calque_1" xmlns="http://www.w3.org/2000/svg" xmlns:xlink="http://www.w3.org/1999/xlink" x="0px" y="0px"
	 viewBox="0 0 1315.3 323.6" style="enable-background:new 0 0 1315.3 323.6;" xml:space="preserve">
<style type="text/css">
	.st0{fill:#2D3C43;}
	.st1{fill:#A3D9EA;}
	.st2{fill:#FFFFFF;}
	.st3{font-family:'Roboto-Thin';}
	.st4{font-size:46.0498px;}
	.st5{letter-spacing:-3;}
</style>
<g>
	<path class="st0" d="M-690.5-83.2h3l0.3,3h0.1c0.6-1.1,1.2-1.9,2-2.6s1.8-1,3.1-1c2.3,0,3.8,1.3,4.3,4c0.7-1.2,1.4-2.2,2.3-2.9
		c0.8-0.7,1.9-1.1,3.2-1.1c1.6,0,2.8,0.6,3.7,1.8c0.9,1.2,1.3,3,1.3,5.3v16.4h-3.7v-16c0-2.7-0.8-4.1-2.5-4.1
		c-0.8,0-1.5,0.3-2.1,0.9s-1.2,1.5-1.8,2.7v16.6h-3.1v-16.1c0-2.7-0.9-4.1-2.6-4.1c-0.8,0-1.5,0.3-2.1,0.9c-0.6,0.6-1.1,1.5-1.7,2.7
		v16.6h-3.7L-690.5-83.2L-690.5-83.2z"/>
	<path class="st0" d="M-666.3-66.2c0-1.3,0.3-2.4,0.9-3.4c0.6-1,1.6-1.8,2.9-2.5s3.1-1.3,5.2-1.7c2.1-0.4,4.6-0.8,7.6-1
		c0-0.8-0.2-1.5-0.4-2.2s-0.6-1.3-1-1.8c-0.5-0.5-1.1-0.9-1.9-1.3c-0.8-0.3-1.7-0.5-2.8-0.5c-1.5,0-3,0.3-4.3,0.9
		c-1.4,0.6-2.6,1.2-3.7,1.9l-1.5-2.6c0.6-0.4,1.2-0.8,2-1.2c0.8-0.4,1.6-0.7,2.5-1.1c0.9-0.3,1.8-0.6,2.8-0.8c1-0.2,2-0.3,3-0.3
		c3.1,0,5.5,0.9,7,2.6s2.3,4,2.3,6.9v14.1h-3.2l-0.3-3.1h-0.1c-1.3,1-2.7,1.9-4.3,2.6c-1.6,0.7-3.2,1.1-4.8,1.1
		c-1.1,0-2.1-0.1-3-0.4s-1.8-0.7-2.5-1.3c-0.7-0.6-1.3-1.2-1.7-2C-666.1-64.2-666.3-65.1-666.3-66.2z M-662.5-66.4
		c0,0.7,0.1,1.2,0.4,1.7s0.7,0.8,1.1,1.1c0.5,0.3,1,0.5,1.6,0.7c0.6,0.1,1.3,0.2,1.9,0.2c1.3,0,2.6-0.3,3.9-0.9
		c1.3-0.6,2.6-1.4,3.9-2.5v-6c-2.5,0.2-4.5,0.5-6.2,0.8c-1.7,0.3-3,0.8-4,1.3s-1.7,1-2.1,1.7C-662.3-67.9-662.5-67.2-662.5-66.4z"/>
	<path class="st0" d="M-645.3-55.3c0-1,0.3-1.9,1-2.9c0.7-0.9,1.7-1.8,3-2.6V-61c-0.7-0.4-1.3-0.9-1.8-1.5s-0.8-1.5-0.8-2.5
		c0-0.8,0.2-1.6,0.8-2.4c0.5-0.8,1.2-1.5,2.2-2.2v-0.2c-0.8-0.6-1.5-1.5-2.1-2.5c-0.6-1.1-0.9-2.3-0.9-3.8c0-1.3,0.3-2.5,0.8-3.6
		s1.2-2,2.1-2.7c0.9-0.8,1.9-1.3,3-1.8c1.2-0.4,2.4-0.6,3.7-0.6c1.3,0,2.5,0.2,3.6,0.6h10.1v3.2h-6.5c0.6,0.6,1.1,1.3,1.6,2.2
		c0.5,0.9,0.7,1.8,0.7,2.9c0,1.3-0.2,2.5-0.7,3.5s-1.2,1.9-2,2.6c-0.9,0.7-1.9,1.3-3,1.7c-1.2,0.4-2.4,0.6-3.7,0.6
		c-0.6,0-1.3-0.1-2-0.2c-0.7-0.2-1.4-0.4-2.1-0.7c-1.3,0.8-1.9,1.7-1.9,2.8c0,1,0.4,1.7,1.3,2.1c0.9,0.5,2.1,0.7,3.7,0.7h5.5
		c3.1,0,5.5,0.4,7,1.3s2.3,2.3,2.3,4.4c0,1.1-0.3,2.2-1,3.3c-0.6,1-1.5,1.9-2.7,2.7c-1.2,0.8-2.6,1.4-4.3,1.9
		c-1.7,0.5-3.5,0.7-5.6,0.7c-3.6,0-6.3-0.6-8.3-1.8C-644.4-51.5-645.3-53.2-645.3-55.3z M-641.8-55.7c0,1.3,0.7,2.3,2,3.1
		c1.4,0.8,3.3,1.2,5.9,1.2c1.4,0,2.7-0.1,3.8-0.4c1.1-0.3,2.1-0.7,2.9-1.1c0.8-0.5,1.4-1,1.8-1.6s0.6-1.2,0.6-1.9
		c0-1.2-0.5-2-1.4-2.4s-2.3-0.6-4.2-0.6h-4.8c-0.7,0-1.4,0-2-0.1c-0.6,0-1.2-0.2-1.7-0.3c-1.2,0.6-2,1.3-2.4,2
		C-641.6-57.1-641.8-56.4-641.8-55.7z M-634.4-70.2c1.6,0,2.9-0.5,4-1.6c1.1-1,1.6-2.4,1.6-4.2c0-0.8-0.2-1.6-0.5-2.3
		c-0.3-0.7-0.7-1.3-1.2-1.8s-1.1-0.9-1.8-1.2c-0.7-0.3-1.4-0.4-2.2-0.4c-0.8,0-1.5,0.1-2.2,0.4c-0.7,0.3-1.3,0.7-1.8,1.2
		s-0.9,1.1-1.2,1.8c-0.3,0.7-0.5,1.5-0.5,2.3c0,1.8,0.6,3.2,1.7,4.2C-637.2-70.8-635.9-70.2-634.4-70.2z"/>
	<path class="st0" d="M-620.7-55.3c0-1,0.3-1.9,1-2.9c0.7-0.9,1.7-1.8,3-2.6V-61c-0.7-0.4-1.3-0.9-1.8-1.5s-0.8-1.5-0.8-2.5
		c0-0.8,0.2-1.6,0.8-2.4c0.5-0.8,1.2-1.5,2.2-2.2v-0.2c-0.8-0.6-1.5-1.5-2.1-2.5c-0.6-1.1-0.9-2.3-0.9-3.8c0-1.3,0.3-2.5,0.8-3.6
		s1.2-2,2.1-2.7c0.9-0.8,1.9-1.3,3-1.8c1.2-0.4,2.4-0.6,3.7-0.6s2.5,0.2,3.6,0.6h10v3.2h-6.5c0.6,0.6,1.1,1.3,1.6,2.2
		c0.5,0.9,0.7,1.8,0.7,2.9c0,1.3-0.2,2.5-0.7,3.5s-1.2,1.9-2,2.6c-0.9,0.7-1.9,1.3-3,1.7c-1.2,0.4-2.4,0.6-3.7,0.6
		c-0.6,0-1.3-0.1-2-0.2c-0.7-0.2-1.4-0.4-2.1-0.7c-1.3,0.8-1.9,1.7-1.9,2.8c0,1,0.4,1.7,1.3,2.1c0.9,0.5,2.1,0.7,3.7,0.7h5.5
		c3.1,0,5.5,0.4,7,1.3s2.3,2.3,2.3,4.4c0,1.1-0.3,2.2-1,3.3c-0.6,1-1.5,1.9-2.7,2.7c-1.2,0.8-2.6,1.4-4.3,1.9
		c-1.7,0.5-3.5,0.7-5.6,0.7c-3.6,0-6.3-0.6-8.3-1.8C-619.8-51.5-620.7-53.2-620.7-55.3z M-617.2-55.7c0,1.3,0.7,2.3,2,3.1
		c1.4,0.8,3.3,1.2,5.9,1.2c1.4,0,2.7-0.1,3.8-0.4c1.1-0.3,2.1-0.7,2.9-1.1c0.8-0.5,1.4-1,1.8-1.6c0.4-0.6,0.6-1.2,0.6-1.9
		c0-1.2-0.5-2-1.4-2.4c-0.9-0.4-2.3-0.6-4.2-0.6h-4.8c-0.7,0-1.4,0-2-0.1c-0.6,0-1.2-0.2-1.7-0.3c-1.2,0.6-2,1.3-2.4,2
		C-617-57.1-617.2-56.4-617.2-55.7z M-609.8-70.2c1.6,0,2.9-0.5,4-1.6c1.1-1,1.6-2.4,1.6-4.2c0-0.8-0.2-1.6-0.5-2.3
		c-0.3-0.7-0.7-1.3-1.2-1.8s-1.1-0.9-1.8-1.2c-0.7-0.3-1.4-0.4-2.2-0.4c-0.8,0-1.5,0.1-2.2,0.4c-0.7,0.3-1.3,0.7-1.8,1.2
		s-0.9,1.1-1.2,1.8c-0.3,0.7-0.5,1.5-0.5,2.3c0,1.8,0.6,3.2,1.7,4.2C-612.6-70.8-611.3-70.2-609.8-70.2z"/>
	<path class="st0" d="M-585.9-71.6c0-1.9,0.3-3.6,0.9-5.1c0.6-1.5,1.4-2.8,2.5-3.8c1-1,2.2-1.8,3.6-2.4c1.4-0.5,2.8-0.8,4.3-0.8
		s3,0.3,4.3,0.8s2.6,1.3,3.6,2.4c1,1,1.9,2.3,2.5,3.8c0.6,1.5,0.9,3.2,0.9,5.1s-0.3,3.6-0.9,5.1c-0.6,1.5-1.4,2.8-2.5,3.8
		c-1,1-2.2,1.8-3.6,2.3s-2.8,0.8-4.3,0.8s-3-0.3-4.3-0.8c-1.4-0.5-2.6-1.3-3.6-2.3s-1.9-2.3-2.5-3.8
		C-585.6-68.1-585.9-69.7-585.9-71.6z M-581.9-71.6c0,1.3,0.2,2.5,0.5,3.6s0.8,2,1.5,2.8c0.6,0.8,1.4,1.4,2.3,1.8s1.9,0.6,3,0.6
		s2.1-0.2,3-0.6s1.7-1,2.3-1.8s1.1-1.7,1.5-2.8c0.3-1.1,0.5-2.3,0.5-3.6s-0.2-2.5-0.5-3.6s-0.8-2-1.5-2.8c-0.6-0.8-1.4-1.4-2.3-1.8
		s-1.9-0.6-3-0.6s-2.1,0.2-3,0.6s-1.7,1-2.3,1.8s-1.1,1.7-1.5,2.8C-581.7-74.2-581.9-73-581.9-71.6z"/>
	<path class="st0" d="M-597.3-71.6h8.1v22.9h-3.9v-19.8h-4.2V-71.6z M-591.6-76.3c-0.9,0-1.7-0.3-2.2-0.8c-0.6-0.5-0.9-1.3-0.9-2.2
		s0.3-1.6,0.9-2.2c0.6-0.5,1.3-0.8,2.2-0.8c0.9,0,1.6,0.3,2.2,0.8c0.6,0.6,0.9,1.3,0.9,2.2s-0.3,1.6-0.9,2.2
		C-590-76.6-590.7-76.3-591.6-76.3z"/>
</g>
<text transform="matrix(1 0 0 1 -1038.5544 3.3242)" class="st2" style="font-family:'ITCFranklinGothicStd-BkXCp'; font-size:51px;">ma</text>
<text transform="matrix(1 0 0 1 -1004.0544 14.8242)" class="st2" style="font-family:'ITCFranklinGothicStd-BkXCp'; font-size:65px;">gg</text>
<text transform="matrix(1 0 0 1 -968.9545 3.3242)" class="st2" style="font-family:'ITCFranklinGothicStd-BkXCp'; font-size:51px;">io</text>
<path class="st1" d="M-454,286.6v49.8h-4.2v-49.8H-454z"/>
<path class="st0" d="M-817.9,55.6h-3.3v-19c0-1.5,0-3.3-2-3.3c-1.7,0-2.1,1.1-2.1,2.1v20.2h-3.3v-19c0-1.6,0.1-3.3-1.9-3.3
	c-1.9,0-2.2,1.2-2.2,2.1v20.2h-3.3V30.5h2.9v2.7c0.3-0.7,1.1-2.9,3.9-2.9c2.7,0,3.3,2,3.5,2.7c1-2.3,3-2.7,3.9-2.7
	c2,0,3,1.2,3.3,1.8c0.7,1.2,0.7,2.8,0.7,4.5v19H-817.9z"/>
<path class="st0" d="M-804.5,51.3c0,1.3,0,3.7,0.5,4.3h-3.1c-0.3-0.8-0.4-1.6-0.4-2.3c-0.8,2-2.4,2.7-3.9,2.7
	c-4.4,0-4.7-5.6-4.7-7.6c0-4.2,1.4-8.3,5.9-8.3c0.9,0,1.3,0.1,2.5,0.4v-0.9c0-4.3,0-6.5-2.3-6.5c-2.6,0-2.6,3.2-2.6,4.1l-3.1-0.4
	c0.3-3.7,2.2-6.6,6-6.6c1.9,0,3.8,0.9,4.5,2.5c0.7,1.7,0.7,3.1,0.7,6.5L-804.5,51.3L-804.5,51.3z M-807.6,43.3
	c-1.2-0.4-2-0.4-2.3-0.4c-1.7,0-3,1-3,5.8c0,1,0,4.2,2.2,4.2c2.3,0,3.1-3.6,3.1-5.6V43.3z"/>
<g>
	<path class="st2" d="M-798.2,155.4c-0.4,0-1-0.1-1.9-0.1c-2.1,0-4.5,0.4-4.1,4.1c3.2,3.7,4.1,8.8,4.1,14.1
		c0,10.2-4.3,17.5-12.3,17.5c-0.2,0-0.7,0-2.6-0.8c7.7,7.6-7.9,0.5-6.3,5.4c0.8,2.4,5.4,3.7,10,4.4c4.3,0.7,14.9,2.2,14.9,15
		c0,10.6-7.3,16-16,16c-9.9,0-15.1-6.5-15.1-14c0-6.3,4.1-10,7.4-11.9c-5.8-2.6-6.2-6.6-6.2-8.3c0-3.2,2.1-6.3,6.2-9.1
		c-4.5-3.7-5.3-10.2-5.3-15c0-11.6,5.4-17.8,12.3-17.8c1.7,0,3.6,0.4,5.2,1.3c-0.3-4.9,2.9-6.7,3.7-7.1c2.1-1.1,3.8-1,6.2-0.9v7.2
		H-798.2z M-820.6,215.9c0,4.1,2.5,8.8,8.7,8.8c3.5,0,8.3-1.8,8.3-8.8c0-5.4-3-7.9-5.7-8.6c-0.9-0.2-5.6-0.8-6.6-1
		C-817.6,208-820.6,211.5-820.6,215.9z M-806.9,172.9c0-5.6-1.1-11.4-5.9-11.4c-4.6,0-5.7,5-5.7,11.8c0,3,0.2,11.4,5.8,11.4
		C-807.7,184.6-806.9,179-806.9,172.9z"/>
	<path class="st2" d="M-767.9,155.4c-0.4,0-1-0.1-1.9-0.1c-2.1,0-4.5,0.4-4.1,4.1c3.2,3.7,4.1,8.8,4.1,14.1
		c0,10.2-4.3,17.5-12.3,17.5c-0.2,0-2.5,0-4.4-0.8c-3,1.8-3.4,3.2-3.4,4.4c0,4.1,4.1,4.7,8.7,5.4c4.3,0.7,14.9,2.2,14.9,15
		c0,10.6-7.3,16-16,16c-9.9,0-15.1-6.5-15.1-14c0-6.3,4.1-10,7.4-11.9c-5.8-2.6-6.2-6.6-6.2-8.3c0-3.2,2.1-6.3,6.2-9.1
		c-4.5-3.7-5.3-10.2-5.3-15c0-11.6,5.4-17.8,12.3-17.8c1.7,0,3.6,0.4,5.2,1.3c-0.3-4.9,2.9-6.7,3.7-7.1c2.1-1.1,3.8-1,6.2-0.9
		L-767.9,155.4L-767.9,155.4z M-790.3,215.9c0,4.1,2.5,8.8,8.7,8.8c3.5,0,8.3-1.8,8.3-8.8c0-5.4-3-7.9-5.7-8.6
		c-0.9-0.2-5.6-0.8-6.6-1C-787.4,208-790.3,211.5-790.3,215.9z M-776.7,172.9c0-5.6-1.1-11.4-5.9-11.4c-4.6,0-5.7,5-5.7,11.8
		c0,3,0.2,11.4,5.8,11.4C-777.4,184.6-776.7,179-776.7,172.9z"/>
	<path class="st2" d="M-766.1,139.6v-7.5h5.6v7.5H-766.1z M-766.1,190.8v-43.3h5.6v43.3H-766.1z"/>
	<path class="st2" d="M-746.3,146.8c7.2,0,10.3,5.4,10.3,22.8c0,18.4-4,21.7-10.2,21.7c-7.4,0-10.5-4.5-10.5-22.5
		C-756.7,154.7-754.7,146.8-746.3,146.8z M-749.9,183.6c0.4,1.1,1.1,3,3.5,3s3.2-1.8,3.5-3c0.9-2.9,1-11.7,1-15.1
		c0-3.2-0.1-10.9-1-13.8c-0.3-1.2-1.1-3-3.4-3c-1.3,0-2.4,0.7-2.9,1.5c-1.7,2.6-1.7,11.8-1.7,15.9
		C-750.8,171.8-750.8,180.2-749.9,183.6z"/>
</g>
<g>
	<path class="st0" d="M-932.9-145.4h-3.3v-19c0-1.5,0-3.3-2-3.3c-1.7,0-2.1,1.1-2.1,2.1v20.2h-3.3v-19c0-1.6,0.1-3.3-1.9-3.3
		c-1.9,0-2.2,1.2-2.2,2.1v20.2h-3.3v-25.1h2.9v2.7c0.3-0.7,1.1-2.9,3.9-2.9c2.7,0,3.3,2,3.5,2.7c1-2.3,3-2.7,3.9-2.7
		c2,0,3,1.2,3.3,1.8c0.7,1.2,0.7,2.8,0.7,4.5v19H-932.9z"/>
	<path class="st0" d="M-919.5-149.7c0,1.3,0,3.7,0.5,4.3h-3.1c-0.3-0.8-0.4-1.6-0.4-2.3c-0.8,2-2.4,2.7-3.9,2.7
		c-4.4,0-4.7-5.6-4.7-7.6c0-4.2,1.4-8.3,5.9-8.3c0.9,0,1.3,0.1,2.5,0.4v-0.9c0-4.3,0-6.5-2.3-6.5c-2.6,0-2.6,3.2-2.6,4.1l-3.1-0.4
		c0.3-3.7,2.2-6.6,6-6.6c1.9,0,3.8,0.9,4.5,2.5c0.7,1.7,0.7,3.1,0.7,6.5L-919.5-149.7L-919.5-149.7z M-922.6-157.7
		c-1.2-0.4-2-0.4-2.3-0.4c-1.7,0-3,1-3,5.8c0,1,0,4.2,2.2,4.2c2.3,0,3.1-3.6,3.1-5.6V-157.7z"/>
	<path class="st0" d="M-900.1-165.9c-0.3,0-0.6-0.1-1.1-0.1c-1.2,0-2.6,0.3-2.4,2.4c1.9,2.1,2.4,5.1,2.4,8.2
		c0,5.9-2.5,10.1-7.2,10.1c-0.1,0-0.4,0-1.5-0.5c4.5,4.4-4.6,0.3-3.7,3.1c0.5,1.4,3.1,2.2,5.8,2.5c2.5,0.4,8.6,1.3,8.6,8.7
		c0,6.2-4.2,9.3-9.3,9.3c-5.7,0-8.8-3.8-8.8-8.1c0-3.6,2.4-5.8,4.3-6.9c-3.4-1.5-3.6-3.8-3.6-4.8c0-1.9,1.2-3.6,3.6-5.3
		c-2.6-2.1-3.1-5.9-3.1-8.7c0-6.8,3.1-10.3,7.2-10.3c1,0,2.1,0.3,3,0.8c-0.2-2.9,1.7-3.9,2.1-4.1c1.2-0.7,2.2-0.6,3.6-0.5v4.2
		H-900.1z M-913.1-130.8c0,2.4,1.4,5.1,5.1,5.1c2,0,4.8-1,4.8-5.1c0-3.1-1.8-4.6-3.3-5c-0.5-0.1-3.3-0.5-3.8-0.6
		C-911.4-135.4-913.1-133.4-913.1-130.8z M-905.2-155.8c0-3.3-0.7-6.6-3.4-6.6s-3.3,2.9-3.3,6.8c0,1.8,0.1,6.6,3.4,6.6
		C-905.6-149-905.2-152.2-905.2-155.8z"/>
	<path class="st0" d="M-882.6-165.9c-0.3,0-0.6-0.1-1.1-0.1c-1.2,0-2.6,0.3-2.4,2.4c1.9,2.1,2.4,5.1,2.4,8.2
		c0,5.9-2.5,10.1-7.2,10.1c-0.1,0-1.4,0-2.5-0.5c-1.8,1-2,1.9-2,2.5c0,2.4,2.4,2.7,5.1,3.1c2.5,0.4,8.6,1.3,8.6,8.7
		c0,6.2-4.2,9.3-9.3,9.3c-5.7,0-8.8-3.8-8.8-8.1c0-3.6,2.4-5.8,4.3-6.9c-3.4-1.5-3.6-3.8-3.6-4.8c0-1.9,1.2-3.6,3.6-5.3
		c-2.6-2.1-3.1-5.9-3.1-8.7c0-6.8,3.1-10.3,7.2-10.3c1,0,2.1,0.3,3,0.8c-0.2-2.9,1.7-3.9,2.1-4.1c1.2-0.7,2.2-0.6,3.6-0.5v4.2
		H-882.6z M-895.6-130.8c0,2.4,1.4,5.1,5.1,5.1c2,0,4.8-1,4.8-5.1c0-3.1-1.8-4.6-3.3-5c-0.5-0.1-3.3-0.5-3.8-0.6
		C-893.9-135.4-895.6-133.4-895.6-130.8z M-887.6-155.8c0-3.3-0.7-6.6-3.4-6.6s-3.3,2.9-3.3,6.8c0,1.8,0.1,6.6,3.4,6.6
		C-888.1-149-887.6-152.2-887.6-155.8z"/>
	<path class="st0" d="M-881.5-175.1v-4.3h3.3v4.3H-881.5z M-881.5-145.4v-25.1h3.3v25.1H-881.5z"/>
	<path class="st0" d="M-870-170.9c4.2,0,6,3.1,6,13.3c0,10.7-2.3,12.6-5.9,12.6c-4.3,0-6.1-2.6-6.1-13.1
		C-876-166.3-874.9-170.9-870-170.9z M-872.1-149.6c0.2,0.7,0.7,1.7,2,1.7s1.8-1,2-1.7c0.5-1.7,0.6-6.8,0.6-8.8c0-1.9-0.1-6.3-0.6-8
		c-0.2-0.7-0.7-1.7-2-1.7c-0.8,0-1.4,0.4-1.7,0.9c-1,1.5-1,6.8-1,9.2C-872.6-156.4-872.6-151.5-872.1-149.6z"/>
</g>
<path class="st0" d="M-869.5-82.9h-3.3v-19c0-1.5,0-3.3-2-3.3c-1.7,0-2.1,1.1-2.1,2.1v20.2h-3.3v-19c0-1.6,0.1-3.3-1.9-3.3
	c-1.9,0-2.2,1.2-2.2,2.1v20.2h-3.3V-108h2.9v2.7c0.3-0.7,1.1-2.9,3.9-2.9c2.7,0,3.3,2,3.5,2.7c1-2.3,3-2.7,3.9-2.7
	c2,0,3,1.2,3.3,1.8c0.7,1.2,0.7,2.8,0.7,4.5v19H-869.5z"/>
<path class="st0" d="M-856.1-87.3c0,1.3,0,3.7,0.5,4.3h-3.1c-0.3-0.8-0.4-1.6-0.4-2.3c-0.8,2-2.4,2.7-3.9,2.7
	c-4.4,0-4.7-5.6-4.7-7.6c0-4.2,1.4-8.3,5.9-8.3c0.9,0,1.3,0.1,2.5,0.4V-99c0-4.3,0-6.5-2.3-6.5c-2.6,0-2.6,3.2-2.6,4.1l-3.1-0.4
	c0.3-3.7,2.2-6.6,6-6.6c1.9,0,3.8,0.9,4.5,2.5c0.7,1.7,0.7,3.1,0.7,6.5L-856.1-87.3L-856.1-87.3z M-859.2-95.3
	c-1.2-0.4-2-0.4-2.3-0.4c-1.7,0-3,1-3,5.8c0,1,0,4.2,2.2,4.2c2.3,0,3.1-3.6,3.1-5.6V-95.3z"/>
<path class="st0" d="M-836.7-103.5c-0.3,0-0.6-0.1-1.1-0.1c-1.2,0-2.6,0.3-2.4,2.4c1.9,2.1,2.4,5.1,2.4,8.2c0,5.9-2.5,10.1-7.2,10.1
	c-0.1,0-0.4,0-1.5-0.5c4.5,4.4-4.6,0.3-3.7,3.1c0.5,1.4,3.1,2.2,5.8,2.5c2.5,0.4,8.6,1.3,8.6,8.7c0,6.2-4.2,9.3-9.3,9.3
	c-5.7,0-8.8-3.8-8.8-8.1c0-3.6,2.4-5.8,4.3-6.9c-3.4-1.5-3.6-3.8-3.6-4.8c0-1.9,1.2-3.6,3.6-5.3c-2.6-2.1-3.1-5.9-3.1-8.7
	c0-6.8,3.1-10.3,7.2-10.3c1,0,2.1,0.3,3,0.8c-0.2-2.9,1.7-3.9,2.1-4.1c1.2-0.7,2.2-0.6,3.6-0.5v4.2H-836.7z M-849.7-68.4
	c0,2.4,1.4,5.1,5.1,5.1c2,0,4.8-1,4.8-5.1c0-3.1-1.8-4.6-3.3-5c-0.5-0.1-3.3-0.5-3.8-0.6C-848-72.9-849.7-70.9-849.7-68.4z
	 M-841.8-93.3c0-3.3-0.7-6.6-3.4-6.6s-3.3,2.9-3.3,6.8c0,1.8,0.1,6.6,3.4,6.6C-842.2-86.5-841.8-89.7-841.8-93.3z"/>
<path class="st0" d="M-819.2-103.5c-0.3,0-0.6-0.1-1.1-0.1c-1.2,0-2.6,0.3-2.4,2.4c1.9,2.1,2.4,5.1,2.4,8.2c0,5.9-2.5,10.1-7.2,10.1
	c-0.1,0-1.4,0-2.5-0.5c-1.8,1-2,1.9-2,2.5c0,2.4,2.4,2.7,5.1,3.1c2.5,0.4,8.6,1.3,8.6,8.7c0,6.2-4.2,9.3-9.3,9.3
	c-5.7,0-8.8-3.8-8.8-8.1c0-3.6,2.4-5.8,4.3-6.9c-3.4-1.5-3.6-3.8-3.6-4.8c0-1.9,1.2-3.6,3.6-5.3c-2.6-2.1-3.1-5.9-3.1-8.7
	c0-6.8,3.1-10.3,7.2-10.3c1,0,2.1,0.3,3,0.8c-0.2-2.9,1.7-3.9,2.1-4.1c1.2-0.7,2.2-0.6,3.6-0.5v4.2H-819.2z M-832.2-68.4
	c0,2.4,1.4,5.1,5.1,5.1c2,0,4.8-1,4.8-5.1c0-3.1-1.8-4.6-3.3-5c-0.5-0.1-3.3-0.5-3.8-0.6C-830.5-72.9-832.2-70.9-832.2-68.4z
	 M-824.2-93.3c0-3.3-0.7-6.6-3.4-6.6s-3.3,2.9-3.3,6.8c0,1.8,0.1,6.6,3.4,6.6C-824.7-86.5-824.2-89.7-824.2-93.3z"/>
<path class="st2" d="M-907.8,108.8h-3.3v-19c0-1.5,0-3.3-2-3.3c-1.7,0-2.1,1.1-2.1,2.1v20.2h-3.3v-19c0-1.6,0.1-3.3-1.9-3.3
	c-1.9,0-2.2,1.2-2.2,2.1v20.2h-3.3V83.7h2.9v2.7c0.3-0.7,1.1-2.9,3.9-2.9c2.7,0,3.3,2,3.5,2.7c1-2.3,3-2.7,3.9-2.7
	c2,0,3,1.2,3.3,1.8c0.7,1.2,0.7,2.8,0.7,4.5v19H-907.8z"/>
<path class="st2" d="M-894.4,104.5c0,1.3,0,3.7,0.5,4.3h-3.1c-0.3-0.8-0.4-1.6-0.4-2.3c-0.8,2-2.4,2.7-3.9,2.7
	c-4.4,0-4.7-5.6-4.7-7.6c0-4.2,1.4-8.3,5.9-8.3c0.9,0,1.3,0.1,2.5,0.4v-0.9c0-4.3,0-6.5-2.3-6.5c-2.6,0-2.6,3.2-2.6,4.1l-3.1-0.4
	c0.3-3.7,2.2-6.6,6-6.6c1.9,0,3.8,0.9,4.5,2.5c0.7,1.7,0.7,3.1,0.7,6.5L-894.4,104.5L-894.4,104.5z M-897.5,96.5
	c-1.2-0.4-2-0.4-2.3-0.4c-1.7,0-3,1-3,5.8c0,1,0,4.2,2.2,4.2c2.3,0,3.1-3.6,3.1-5.6V96.5z"/>
<g>
	<path class="st1" d="M-987.8,157.9c-0.3,0-0.8-0.1-1.5-0.1c-1.6,0-3.4,0.3-3.2,3.2c2.5,2.8,3.2,6.7,3.2,10.7
		c0,7.8-3.2,13.3-9.4,13.3c-0.2,0-1.9,0-3.3-0.6c-2.3,1.4-2.6,2.5-2.6,3.3c0,3.2,3.2,3.6,6.7,4.1c3.2,0.5,11.3,1.7,11.3,11.4
		c0,8.1-5.5,12.2-12.2,12.2c-7.5,0-11.5-4.9-11.5-10.7c0-4.8,3.2-7.6,5.6-9c-4.4-2-4.7-5-4.7-6.3c0-2.5,1.6-4.8,4.7-6.9
		c-3.4-2.8-4-7.8-4-11.4c0-8.9,4.1-13.6,9.4-13.6c1.3,0,2.7,0.3,3.9,1c-0.3-3.8,2.2-5.1,2.8-5.4c1.6-0.9,2.9-0.8,4.7-0.7
		L-987.8,157.9L-987.8,157.9z M-1004.9,204c0,3.2,1.9,6.7,6.7,6.7c2.6,0,6.3-1.4,6.3-6.7c0-4.1-2.3-6.1-4.3-6.6
		c-0.7-0.2-4.3-0.6-5-0.8C-1002.6,198-1004.9,200.6-1004.9,204z M-994.5,171.2c0-4.3-0.9-8.7-4.5-8.7c-3.5,0-4.3,3.8-4.3,9
		c0,2.3,0.2,8.7,4.4,8.7C-995.1,180.2-994.5,175.9-994.5,171.2z"/>
	<g>
		<g>
			<path class="st1" d="M-1024.7,186.1h-4.2v-24.7c0-1.9,0-4.3-2.6-4.3c-2.2,0-2.8,1.4-2.8,2.8v26.2h-4.2v-24.7
				c0-2.1,0.1-4.3-2.5-4.3c-2.5,0-2.9,1.5-2.9,2.8v26.2h-4.2v-32.6h3.7v3.4c0.3-0.9,1.5-3.7,5-3.7c3.4,0,4.3,2.6,4.6,3.4
				c1.3-3,3.8-3.4,5-3.4c2.6,0,3.8,1.6,4.3,2.3c0.9,1.5,0.9,3.6,0.9,5.9v24.7H-1024.7z"/>
			<path class="st1" d="M-1008.3,180.3c0,1.7,0,4.8,0.6,5.6h-4c-0.3-1-0.5-2.1-0.5-3c-1,2.6-3.2,3.5-5,3.5c-5.8,0-6.2-7.3-6.2-9.9
				c0-5.4,1.9-10.8,7.7-10.8c1.1,0,1.7,0.1,3.3,0.5v-1.1c0-5.6,0-8.4-3-8.4c-3.4,0-3.4,4.1-3.4,5.3l-4-0.5c0.4-4.8,2.8-8.5,7.7-8.5
				c2.4,0,5,1.2,5.8,3.2c0.9,2.2,0.9,4,0.9,8.4v15.7H-1008.3z M-1012.4,170c-1.6-0.5-2.6-0.5-3-0.5c-2.2,0-3.9,1.3-3.9,7.5
				c0,1.3,0,5.5,2.9,5.5c3,0,4-4.7,4-7.2V170z"/>
		</g>
		<path class="st1" d="M-971.4,144.9V141h4.4v5.2L-971.4,144.9z M-971.4,186.1v-33.6h4.4v33.6H-971.4z"/>
		<path class="st1" d="M-958.4,152.5c5.2,0,7.4,4.1,7.4,17.3c0,13.9-2.9,16.4-7.3,16.4c-5.3,0-7.6-3.4-7.6-17
			C-966,158.5-964.5,152.5-958.4,152.5z M-961,180.3c0.3,0.9,0.8,2.3,2.5,2.3s2.3-1.3,2.5-2.3c0.6-2.2,0.7-8.9,0.7-11.5
			c0-2.5-0.1-8.3-0.7-10.5c-0.3-0.9-0.8-2.3-2.5-2.3c-0.9,0-1.7,0.5-2.1,1.1c-1.2,2-1.2,8.9-1.2,12.1
			C-961.7,171.4-961.7,177.8-961,180.3z"/>
		<path class="st1" d="M-969.7,157.9c-0.3,0-0.8-0.1-1.5-0.1c-1.6,0-3.4,0.3-3.2,3.2c2.5,2.8,3.2,6.7,3.2,10.7
			c0,7.8-3.2,13.3-9.4,13.3c-0.2,0-1.9,0-3.3-0.6c-2.3,1.4-2.6,2.5-2.6,3.3c0,3.2,3.2,3.6,6.7,4.1c3.2,0.5,11.3,1.7,11.3,11.4
			c0,8.1-5.5,12.2-12.2,12.2c-7.5,0-11.5-4.9-11.5-10.7c0-4.8,3.2-7.6,5.6-9c-4.4-2-4.7-5-4.7-6.3c0-2.5,1.6-4.8,4.7-6.9
			c-3.4-2.8-4-7.8-4-11.4c0-8.9,4.1-13.6,9.4-13.6c1.3,0,2.7,0.3,3.9,1c-0.3-3.8,2.2-5.1,2.8-5.4c1.6-0.9,2.9-0.8,4.7-0.7
			L-969.7,157.9L-969.7,157.9z M-986.8,204c0,3.2,1.9,6.7,6.7,6.7c2.6,0,6.3-1.4,6.3-6.7c0-4.1-2.3-6.1-4.3-6.6
			c-0.7-0.2-4.3-0.6-5-0.8C-984.6,198-986.8,200.6-986.8,204z M-976.4,171.2c0-4.3-0.9-8.7-4.5-8.7c-3.5,0-4.3,3.8-4.3,9
			c0,2.3,0.2,8.7,4.4,8.7C-977,180.2-976.4,175.9-976.4,171.2z"/>
	</g>
</g>
<path class="st2" d="M-806.5,79.1v-4.3h3.3v4.3H-806.5z M-806.5,108.8V83.7h3.3v25.1C-803.2,108.8-806.5,108.8-806.5,108.8z"/>
<path class="st2" d="M-794.9,83.3c4.2,0,6,3.1,6,13.3c0,10.7-2.3,12.6-5.9,12.6c-4.3,0-6.1-2.6-6.1-13.1
	C-801,87.9-799.8,83.3-794.9,83.3z M-797,104.6c0.2,0.7,0.7,1.7,2,1.7s1.8-1,2-1.7c0.5-1.7,0.6-6.8,0.6-8.8c0-1.9-0.1-6.3-0.6-8
	c-0.2-0.7-0.7-1.7-2-1.7c-0.8,0-1.4,0.4-1.7,0.9c-1,1.5-1,6.8-1,9.2C-797.6,97.8-797.6,102.7-797,104.6z"/>
<text transform="matrix(1 0 0 1 -747.599 316.5227)" class="st0" style="font-family:'SourceCodePro-Regular'; font-size:51.4152px; letter-spacing:-5;">maggio</text>
<path class="st1" d="M-618.3,56.2c-1,0-1.8-0.3-2.4-0.9c-0.6-0.6-1-1.4-1-2.4s0.3-1.8,1-2.4c0.6-0.6,1.4-0.9,2.4-0.9
	s1.8,0.3,2.4,0.9c0.7,0.6,1,1.4,1,2.4s-0.3,1.8-1,2.4S-617.3,56.2-618.3,56.2z"/>
<path class="st1" d="M-976.4,5.4c-1,0-1.8-0.3-2.4-0.9c-0.6-0.6-1-1.4-1-2.4s0.3-1.8,1-2.4c0.6-0.6,1.4-0.9,2.4-0.9s1.8,0.3,2.4,0.9
	c0.7,0.6,1,1.4,1,2.4s-0.3,1.8-1,2.4S-975.4,5.4-976.4,5.4z"/>
<path class="st1" d="M-650.7,154.9c-1,0-1.8-0.3-2.4-0.9c-0.6-0.6-1-1.4-1-2.4s0.3-1.8,1-2.4c0.6-0.6,1.4-0.9,2.4-0.9
	s1.8,0.3,2.4,0.9c0.7,0.6,1,1.4,1,2.4s-0.3,1.8-1,2.4S-649.8,154.9-650.7,154.9z"/>
<path class="st1" d="M-820.5,327.8h-11.6v21.5h-4.2v-25h15.8V327.8z M-836.2,318.3c-0.7-0.6-1-1.4-1-2.4s0.3-1.8,1-2.4
	s1.5-0.9,2.4-0.9c1,0,1.8,0.3,2.4,0.9c0.6,0.6,1,1.4,1,2.4s-0.3,1.8-1,2.4c-0.6,0.6-1.4,0.9-2.4,0.9
	C-834.7,319.2-835.5,318.9-836.2,318.3z"/>
<g>
	<path class="st0" d="M-1021.5-69.5h3l0.3,3h0.1c0.6-1.1,1.2-1.9,2-2.6s1.8-1,3.1-1c2.3,0,3.8,1.3,4.3,4c0.7-1.2,1.4-2.2,2.3-2.9
		c0.8-0.7,1.9-1.1,3.2-1.1c1.6,0,2.8,0.6,3.7,1.8c0.9,1.2,1.3,3,1.3,5.3v16.5h-3.7v-16.1c0-2.7-0.8-4.1-2.5-4.1
		c-0.8,0-1.5,0.3-2.1,0.9s-1.2,1.5-1.8,2.7v16.6h-3.1v-16.1c0-2.7-0.9-4.1-2.6-4.1c-0.8,0-1.5,0.3-2.1,0.9s-1.1,1.5-1.7,2.7v16.6
		h-3.7V-69.5z"/>
	<path class="st0" d="M-997.3-52.5c0-1.3,0.3-2.4,0.9-3.4c0.6-1,1.6-1.8,2.9-2.5c1.3-0.7,3.1-1.3,5.2-1.7c2.1-0.4,4.6-0.8,7.6-1
		c0-0.8-0.2-1.5-0.4-2.2s-0.6-1.3-1-1.8c-0.5-0.5-1.1-0.9-1.9-1.3c-0.8-0.3-1.7-0.5-2.8-0.5c-1.5,0-3,0.3-4.3,0.9
		c-1.4,0.6-2.6,1.2-3.7,1.9l-1.5-2.6c0.6-0.4,1.2-0.8,2-1.2c0.8-0.4,1.6-0.7,2.5-1.1c0.9-0.3,1.8-0.6,2.8-0.8c1-0.2,2-0.3,3-0.3
		c3.1,0,5.5,0.9,7,2.6s2.3,4,2.3,6.9v14.1h-3.2l-0.3-3.1h-0.1c-1.3,1-2.7,1.9-4.3,2.6s-3.2,1.1-4.8,1.1c-1.1,0-2.1-0.1-3-0.4
		s-1.8-0.7-2.5-1.3c-0.7-0.6-1.3-1.2-1.7-2C-997.1-50.5-997.3-51.4-997.3-52.5z M-993.6-52.7c0,0.7,0.1,1.2,0.4,1.7
		c0.3,0.5,0.7,0.8,1.1,1.1c0.5,0.3,1,0.5,1.6,0.7c0.6,0.1,1.3,0.2,1.9,0.2c1.3,0,2.6-0.3,3.9-0.9c1.3-0.6,2.6-1.4,3.9-2.5v-6
		c-2.5,0.2-4.5,0.5-6.2,0.8s-3,0.8-4,1.3s-1.7,1-2.1,1.7C-993.4-54.2-993.6-53.5-993.6-52.7z"/>
	<path class="st0" d="M-976.4-41.6c0-1,0.3-1.9,1-2.9c0.7-0.9,1.7-1.8,3-2.6v-0.2c-0.7-0.4-1.3-0.9-1.8-1.5s-0.8-1.5-0.8-2.5
		c0-0.8,0.3-1.6,0.8-2.4s1.2-1.5,2.2-2.2v-0.2c-0.8-0.6-1.5-1.5-2.1-2.5c-0.6-1.1-0.9-2.3-0.9-3.8c0-1.3,0.3-2.5,0.8-3.6
		s1.2-2,2.1-2.7c0.9-0.8,1.9-1.3,3-1.8s2.4-0.6,3.7-0.6s2.5,0.2,3.6,0.6h10.1v3.2h-6.5c0.6,0.6,1.1,1.3,1.6,2.2
		c0.5,0.9,0.7,1.8,0.7,2.9c0,1.3-0.2,2.5-0.7,3.5s-1.2,1.9-2,2.6c-0.9,0.7-1.9,1.3-3,1.7c-1.2,0.4-2.4,0.6-3.7,0.6
		c-0.6,0-1.3-0.1-2-0.2c-0.7-0.2-1.4-0.4-2.1-0.7c-1.3,0.8-1.9,1.7-1.9,2.8c0,1,0.4,1.7,1.3,2.1c0.9,0.5,2.1,0.7,3.7,0.7h5.5
		c3.1,0,5.5,0.4,7,1.3s2.3,2.3,2.3,4.4c0,1.1-0.3,2.2-1,3.3c-0.6,1-1.5,1.9-2.7,2.7c-1.2,0.8-2.6,1.4-4.3,1.9s-3.5,0.7-5.6,0.7
		c-3.6,0-6.3-0.6-8.3-1.8C-975.4-37.8-976.4-39.5-976.4-41.6z M-972.8-42c0,1.3,0.7,2.3,2,3.1c1.4,0.8,3.3,1.2,5.9,1.2
		c1.4,0,2.7-0.1,3.8-0.4s2.1-0.7,2.9-1.1c0.8-0.5,1.4-1,1.8-1.6c0.4-0.6,0.6-1.2,0.6-1.9c0-1.2-0.5-2-1.4-2.4s-2.3-0.6-4.2-0.6h-4.8
		c-0.7,0-1.4,0-2-0.1c-0.6,0-1.2-0.2-1.7-0.3c-1.2,0.6-2,1.3-2.4,2C-972.6-43.4-972.8-42.7-972.8-42z M-965.4-56.5
		c1.6,0,2.9-0.5,4-1.6c1.1-1,1.6-2.4,1.6-4.2c0-0.8-0.2-1.6-0.5-2.3c-0.3-0.7-0.7-1.3-1.2-1.8s-1.1-0.9-1.8-1.2
		c-0.7-0.3-1.4-0.4-2.2-0.4s-1.5,0.1-2.2,0.4s-1.3,0.7-1.8,1.2s-0.9,1.1-1.2,1.8c-0.3,0.7-0.5,1.5-0.5,2.3c0,1.8,0.6,3.2,1.7,4.2
		C-968.3-57.1-967-56.5-965.4-56.5z"/>
	<path class="st0" d="M-951.8-41.6c0-1,0.3-1.9,1-2.9c0.7-0.9,1.7-1.8,3-2.6v-0.2c-0.7-0.4-1.3-0.9-1.8-1.5s-0.8-1.5-0.8-2.5
		c0-0.8,0.2-1.6,0.8-2.4c0.5-0.8,1.2-1.5,2.2-2.2v-0.2c-0.8-0.6-1.5-1.5-2.1-2.5c-0.6-1.1-0.9-2.3-0.9-3.8c0-1.3,0.3-2.5,0.8-3.6
		s1.2-2,2.1-2.7c0.9-0.8,1.9-1.3,3-1.8c1.1-0.5,2.4-0.6,3.7-0.6c1.3,0,2.5,0.2,3.6,0.6h10.1v3.2h-6.5c0.6,0.6,1.1,1.3,1.6,2.2
		c0.5,0.9,0.7,1.8,0.7,2.9c0,1.3-0.2,2.5-0.7,3.5s-1.2,1.9-2,2.6c-0.9,0.7-1.9,1.3-3,1.7c-1.2,0.4-2.4,0.6-3.7,0.6
		c-0.6,0-1.3-0.1-2-0.2c-0.7-0.2-1.4-0.4-2.1-0.7c-1.3,0.8-1.9,1.7-1.9,2.8c0,1,0.4,1.7,1.3,2.1c0.9,0.5,2.1,0.7,3.7,0.7h5.5
		c3.1,0,5.5,0.4,7,1.3s2.3,2.3,2.3,4.4c0,1.1-0.3,2.2-1,3.3c-0.6,1-1.5,1.9-2.7,2.7c-1.2,0.8-2.6,1.4-4.3,1.9s-3.5,0.7-5.6,0.7
		c-3.6,0-6.3-0.6-8.3-1.8C-950.8-37.8-951.8-39.5-951.8-41.6z M-948.3-42c0,1.3,0.7,2.3,2,3.1c1.4,0.8,3.3,1.2,5.9,1.2
		c1.4,0,2.7-0.1,3.8-0.4c1.1-0.3,2.1-0.7,2.9-1.1c0.8-0.5,1.4-1,1.8-1.6c0.4-0.6,0.6-1.2,0.6-1.9c0-1.2-0.5-2-1.4-2.4
		c-0.9-0.4-2.3-0.6-4.2-0.6h-4.8c-0.7,0-1.4,0-2-0.1c-0.6,0-1.2-0.2-1.7-0.3c-1.2,0.6-2,1.3-2.4,2C-948-43.4-948.3-42.7-948.3-42z
		 M-940.8-56.5c1.6,0,2.9-0.5,4-1.6c1.1-1,1.6-2.4,1.6-4.2c0-0.8-0.2-1.6-0.5-2.3c-0.3-0.7-0.7-1.3-1.2-1.8s-1.1-0.9-1.8-1.2
		c-0.7-0.3-1.4-0.4-2.2-0.4c-0.8,0-1.5,0.1-2.2,0.4s-1.3,0.7-1.8,1.2s-0.9,1.1-1.2,1.8c-0.3,0.7-0.5,1.5-0.5,2.3
		c0,1.8,0.6,3.2,1.7,4.2C-943.7-57.1-942.4-56.5-940.8-56.5z"/>
	<path class="st0" d="M-917-57.9c0-1.9,0.3-3.6,0.9-5.1c0.6-1.5,1.4-2.8,2.5-3.8c1-1,2.2-1.8,3.6-2.4c1.4-0.5,2.8-0.8,4.3-0.8
		s3,0.3,4.3,0.8c1.4,0.5,2.6,1.3,3.6,2.4s1.9,2.3,2.5,3.8c0.6,1.5,0.9,3.2,0.9,5.1s-0.3,3.6-0.9,5.1c-0.6,1.5-1.4,2.8-2.5,3.8
		c-1,1-2.2,1.8-3.6,2.3s-2.8,0.8-4.3,0.8s-3-0.3-4.3-0.8c-1.4-0.5-2.6-1.3-3.6-2.3s-1.9-2.3-2.5-3.8C-916.7-54.3-917-56-917-57.9z
		 M-913-57.9c0,1.3,0.2,2.5,0.5,3.6s0.8,2,1.5,2.8c0.6,0.8,1.4,1.4,2.3,1.8s1.9,0.6,3,0.6s2.1-0.2,3-0.6s1.7-1,2.3-1.8
		s1.1-1.7,1.5-2.8c0.3-1.1,0.5-2.3,0.5-3.6s-0.2-2.5-0.5-3.6s-0.8-2-1.5-2.8c-0.6-0.8-1.4-1.4-2.3-1.8s-1.9-0.6-3-0.6
		s-2.1,0.2-3,0.6s-1.7,1-2.3,1.8c-0.6,0.8-1.1,1.7-1.5,2.8C-912.8-60.5-913-59.3-913-57.9z"/>
	<path class="st0" d="M-928.4-57.9h8.1V-35h-3.9v-19.8h-4.2V-57.9z M-922.6-62.6c-0.9,0-1.7-0.3-2.2-0.8c-0.6-0.5-0.9-1.3-0.9-2.2
		c0-0.9,0.3-1.6,0.9-2.2c0.6-0.5,1.3-0.8,2.2-0.8c0.9,0,1.6,0.3,2.2,0.8c0.6,0.6,0.9,1.3,0.9,2.2c0,0.9-0.3,1.6-0.9,2.2
		C-921-62.9-921.8-62.6-922.6-62.6z"/>
</g>
<text transform="matrix(1 0 0 1 -621.6676 49.6708)" class="st0" style="font-family:'SourceCodePro-Regular'; font-size:51.4152px; letter-spacing:-5;">infografiste</text>
<text transform="matrix(1.2302 0 0 1 -746.4 176)" class="st0 st3" style="font-size:82.1804px; letter-spacing:-5.7;">infografiste</text>
<g>
	<rect x="150" y="-1.2" class="st0" width="1165.3" height="252.1"/>
	<path class="st2" d="M304.3,199.8c-17.9,0-32.1,8.9-39.6,22.5c-2.4-31.2-28.8-43.3-54.9-50.7c-27.7-7.7-55.1-10.5-55.1-25.2
		c0-12.6,13.3-16.4,24-16.4c15.4,0,31.6,5.5,30.8,23.1H259c-0.3-43.2-38.4-61.8-76.3-61.8c-11.4,0-22.8,1.7-33.8,5l0.1,104.6
		c3.9,1.4,8,2.7,11.8,3.8c27.5,8,54.6,11.2,54.6,28c0,14.3-15.5,19.7-30.4,19.7c-21,0-34.9-7.3-36-29.8V253h110.3l0,0h90.2
		c0.3-2.3,0.4-4.8,0.4-7.1C350.1,219.8,331.2,199.8,304.3,199.8z M320.9,253.1h-33.4c-0.3-2.3-0.4-4.8-0.4-7.1
		c0-11.1,4-24.4,17-24.4c13.1,0,17.3,13.3,17.3,24.4C321.5,248.5,321.3,250.8,320.9,253.1z"/>
	<rect y="0" class="st0" width="97" height="252.1"/>
	<g>
		<rect x="346.6" y="161.2" class="st1" width="127.3" height="127.9"/>
		<g>
			<path class="st2" d="M346.6,225.8h9.6v3.2h0.1c1.7-2.6,4.4-4,7.4-4c8.5,0,12,7.4,12,15c0,7.1-3.7,13.7-11.3,13.7
				c-3.3,0-5.8-1.3-7.6-3.8h-0.1v12h-10.1V225.8z M356.4,239.1c0,4.8,1.4,7.8,5.3,7.8s5.3-4.2,5.3-7.8c0-3.5-1.4-7.4-5.2-7.4
				C359.5,231.8,356.4,233.5,356.4,239.1z"/>
			<path class="st2" d="M377.1,216h8.8v14h0.1c1.4-2.8,5-4.5,8.2-4.5c8.9,0,9.6,6.5,9.6,10.5v17.5H395v-13.3c0-3.8,0.4-7.5-4.4-7.5
				c-3.3,0-4.8,2.8-4.8,5.8v14.9h-8.7L377.1,216L377.1,216z"/>
			<path class="st2" d="M414.9,222.8h-8.8V216h8.8V222.8z M406.1,226.3h8.8v27.2h-8.8V226.3z"/>
			<path class="st2" d="M425.5,241.4c0.1,3.8,2.3,6.2,6.1,6.2c2.1,0,4.1-1,5-3h8.2c-1.6,6.4-7.3,9.1-13.3,9.1
				c-8.7,0-14.7-5.4-14.7-14.6c0-8.4,6.5-14.3,14.6-14.3c9.6,0,14.4,7.4,14,16.6H425.5z M436.4,236.4c-0.1-3-2.3-5.6-5.2-5.6
				c-3.1,0-5.2,2.3-5.7,5.6H436.4z"/>
		</g>
	</g>
	<text transform="matrix(1 0 0 1 343.2305 314.1613)" class="st0 st3 st4 st5">maggio</text>
</g>
<text transform="matrix(1 0 0 1 -727 79.1)" style="font-family:'MyriadPro-Regular'; font-size:12px;">Lorem ipsum</text>
</svg>
