<svg width="181" height="217" viewBox="0 0 181 217" fill="none" xmlns="http://www.w3.org/2000/svg">
<path d="M0.14684 117.631C1.17472 137.872 13.6561 144.325 32.5984 144.325C46.1077 144.325 60.0575 139.485 60.0575 126.725C60.0575 111.617 35.5352 108.684 10.7193 101.644C7.19515 100.617 3.52416 99.5903 -7.00187e-08 98.2702L0.14684 117.631ZM0.14684 144.765L-7.00187e-08 4.54683C9.83827 1.46672 20.4107 -2.23804e-06 30.5427 -2.23804e-06C64.7564 -2.23804e-06 99.1169 16.5739 99.4106 55.2953H54.6244C55.3586 39.6014 40.6746 34.6146 26.8717 34.6146C17.1803 34.6146 5.13939 37.988 5.13939 49.2818C5.13939 62.4823 29.9553 64.9757 54.9181 71.8693C79.734 78.9095 104.697 90.3499 104.697 121.444C104.697 130.538 103.082 138.165 100.292 144.765H0.14684Z" transform="translate(0 -5)" fill="white"/>
<path d="M0.440522 46.6417C0.146842 44.5883 -2.2406e-06 42.5349 -2.2406e-06 40.4815C-2.2406e-06 17.6006 16.4461 0 40.2341 0C64.0222 0 80.6151 17.454 80.6151 40.4815C80.6151 42.5349 80.4682 44.735 80.1746 46.6417H0.440522ZM54.9181 46.6417C55.2118 44.5883 55.3586 42.5349 55.3586 40.4815C55.3586 30.8011 51.6876 19.214 40.0873 19.214C28.4869 19.214 24.9628 30.8011 24.9628 40.4815C24.9628 42.5349 25.1096 44.5883 25.4033 46.6417" transform="translate(100 93)" fill="white"/>
<path d="M2.00116e-06 1.06529H11.9345V4.92692H12.0656C14.164 1.73108 17.4427 0 21.246 0C31.7379 0 36.0658 9.05489 36.0658 18.6424C36.0658 27.431 31.4756 35.6869 22.0329 35.6869C17.9673 35.6869 14.8198 34.089 12.5902 31.0263H12.4591V45.9402H2.00116e-06V1.06529ZM12.0656 17.5771C12.0656 23.4362 13.7706 27.2978 18.6231 27.2978C23.4755 27.2978 25.1805 22.1046 25.1805 17.5771C25.1805 13.316 23.4755 8.52224 18.7542 8.52224C15.8689 8.52224 12.0656 10.5196 12.0656 17.5771Z" transform="translate(1 171.06)" fill="white"/>
<path d="M4.00233e-06 -8.12745e-06H10.8853V17.3108H11.0164C12.7214 13.8486 17.1804 11.7181 21.1149 11.7181C32.1313 11.7181 33.0494 19.8409 33.0494 24.7678V46.4729H22.164V30.0942C22.164 25.4336 22.6887 20.773 16.787 20.773C12.7214 20.773 10.8853 24.2351 10.8853 27.9636V46.3397H4.00233e-06V-8.12745e-06Z" transform="translate(38.6645 161)" fill="white"/>
<path d="M10.8853 8.38908H-4.00233e-06V-8.12745e-06H10.8853V8.38908ZM-4.00233e-06 12.6502H10.8853V46.3397H-4.00233e-06V12.6502Z" transform="translate(74.5991 161)" fill="white"/>
<path d="M10.8853 20.5067C11.0165 25.1673 13.6394 28.2299 18.3608 28.2299C20.9837 28.2299 23.4755 27.0315 24.5247 24.5015H34.7543C32.7871 32.3579 25.705 35.6869 18.2296 35.6869C7.47544 35.6869 0 29.0289 0 17.7103C0 7.32381 8.13119 -4.06373e-06 17.9673 -4.06373e-06C29.9018 -4.06373e-06 35.8035 9.0549 35.2789 20.5067H10.8853ZM24.3936 14.2481C24.2624 10.5196 21.6395 7.3238 17.9673 7.3238C14.164 7.3238 11.541 10.1202 10.8853 14.2481H24.3936Z" transform="translate(87.689 170.902)" fill="white"/>
</svg>
