<svg xmlns="http://www.w3.org/2000/svg" xmlns:xlink="http://www.w3.org/1999/xlink" version="1.1" x="0px" y="0px" viewBox="0 0 100 125" enable-background="new 0 0 100 100" xml:space="preserve"><g><path fill="#000000" d="M7.28,38.943c0-0.05-0.004-0.1-0.004-0.15h0.008c0.162-15.212,12.538-27.496,27.79-27.496   c14.982,0,27.19,11.855,27.77,26.696c0.006,0.048,0.027,0.089,0.027,0.138v7.729H44.663v-6.766c0-5.547-4.041-9.795-9.589-9.795   c-5.497,0-9.51,4.173-9.583,9.645c0.073,5.465,4.08,9.434,9.571,9.438h9.601h18.208h4.822v-6.541c0-0.217,0.116-0.417,0.305-0.522   s0.421-0.103,0.605,0.01l25.832,15.644c0.18,0.109,0.289,0.304,0.289,0.514s-0.109,0.404-0.289,0.514L68.604,73.646   c-0.095,0.058-0.203,0.086-0.311,0.086c-0.102,0-0.203-0.025-0.295-0.077c-0.188-0.106-0.305-0.306-0.305-0.522V66.59h-4.822   H44.663H33.632c-0.104,0-0.2-0.029-0.295-0.06C18.895,65.64,7.439,53.724,7.284,39.094H7.276C7.276,39.044,7.28,38.994,7.28,38.943   z"/><path fill="#000000" d="M62.871,89.65c0,0.553-0.447,1-1,1H45.663c-0.553,0-1-0.447-1-1V69.067h18.208V89.65z"/></g><text x="0" y="115" fill="#000000" font-size="5px" font-weight="bold" font-family="'Helvetica Neue', Helvetica, Arial-Unicode, Arial, Sans-serif">Created by mungang kim</text><text x="0" y="120" fill="#000000" font-size="5px" font-weight="bold" font-family="'Helvetica Neue', Helvetica, Arial-Unicode, Arial, Sans-serif">from the Noun Project</text></svg>