<svg width="105" height="145" viewBox="0 0 105 145" fill="none" xmlns="http://www.w3.org/2000/svg">
<path d="M0.14684 117.631C1.17472 137.872 13.6561 144.325 32.5984 144.325C46.1077 144.325 60.0575 139.485 60.0575 126.725C60.0575 111.617 35.5352 108.684 10.7193 101.644C7.19515 100.617 3.52416 99.5903 -7.00187e-08 98.2702L0.14684 117.631ZM0.14684 144.765L-7.00187e-08 4.54683C9.83827 1.46672 20.4107 -2.23804e-06 30.5427 -2.23804e-06C64.7564 -2.23804e-06 99.1169 16.5739 99.4106 55.2953H54.6244C55.3586 39.6014 40.6746 34.6146 26.8717 34.6146C17.1803 34.6146 5.13939 37.988 5.13939 49.2818C5.13939 62.4823 29.9553 64.9757 54.9181 71.8693C79.734 78.9095 104.697 90.3499 104.697 121.444C104.697 130.538 103.082 138.165 100.292 144.765H0.14684Z" fill="white"/>
</svg>
