<?xml version="1.0" encoding="utf-8"?>
<!-- Generator: Adobe Illustrator 22.0.1, SVG Export Plug-In . SVG Version: 6.00 Build 0)  -->
<svg version="1.1" id="Calque_1" xmlns="http://www.w3.org/2000/svg" xmlns:xlink="http://www.w3.org/1999/xlink" x="0px" y="0px"
	 viewBox="0 0 127.3 127.8" style="enable-background:new 0 0 127.3 127.8;" xml:space="preserve">
<style type="text/css">
	.st0{fill:#A3D9EA;}
	.st1{fill:#FFFFFF;}
</style>
<rect y="-0.1" class="st0" width="127.3" height="127.9"/>
<g>
	<path class="st1" d="M-336,54.9h11.9v3.9h0.1c2.1-3.2,5.4-4.9,9.2-4.9c10.5,0,14.8,9.1,14.8,18.6c0,8.8-4.6,17-14,17
		c-4.1,0-7.2-1.6-9.4-4.7h-0.1v14.9H-336V54.9z M-323.9,71.4c0,5.9,1.7,9.7,6.6,9.7c4.9,0,6.6-5.2,6.6-9.7c0-4.3-1.7-9.1-6.4-9.1
		C-320.1,62.4-323.9,64.4-323.9,71.4z"/>
	<path class="st1" d="M-298.3,43.8h10.9v17.3h0.1c1.7-3.5,6.2-5.6,10.1-5.6c11,0,11.9,8.1,11.9,13v21.7h-10.9V73.8
		c0-4.7,0.5-9.3-5.4-9.3c-4.1,0-5.9,3.5-5.9,7.2v18.4h-10.8V43.8z"/>
	<path class="st1" d="M-251.5,52.2h-10.9v-8.4h10.9V52.2z M-262.4,56.5h10.9v33.7h-10.9V56.5z"/>
	<path class="st1" d="M-238.4,74.2c0.1,4.7,2.8,7.7,7.5,7.7c2.6,0,5.1-1.2,6.2-3.7h10.2c-2,7.9-9,11.2-16.5,11.2
		c-10.8,0-18.2-6.7-18.2-18c0-10.4,8.1-17.7,18-17.7c11.9,0,17.8,9.1,17.3,20.5H-238.4z M-224.9,68c-0.1-3.7-2.8-6.9-6.4-6.9
		c-3.8,0-6.4,2.8-7.1,6.9H-224.9z"/>
</g>
<rect x="-340.5" y="99.3" style="fill:none;" width="131.3" height="66.9"/>
<text transform="matrix(1 0 0 1 -340.45 148.8449)" style="font-family:'Roboto-Black'; font-size:66px; letter-spacing:-2;">print</text>
<g>
	<path class="st1" d="M33.2,113.4l3.5-20.6h10.4l-8.2,34.9h-9.2L23.9,107l-5.8,20.7H8.9L0.7,92.9h10.4l3.4,21l5.5-21h7.6L33.2,113.4
		z"/>
	<path class="st1" d="M65,128.4c-5.3,0-9.7-1.6-13-4.8c-3.3-3.2-5-7.3-5-12.5v-0.9c0-3.6,0.7-6.7,2-9.4s3.2-4.8,5.8-6.3
		c2.5-1.5,5.5-2.2,9-2.2c4.9,0,8.8,1.5,11.6,4.6s4.3,7.3,4.3,12.7v4.2H58.1c0.4,2,1.2,3.5,2.5,4.6c1.3,1.1,3,1.7,5.1,1.7
		c3.4,0,6.1-1.2,8.1-3.6l5,5.9c-1.4,1.9-3.3,3.4-5.8,4.5C70.5,127.8,67.9,128.4,65,128.4z M63.8,100.6c-3.2,0-5.1,2.1-5.7,6.3h11
		v-0.8c0-1.7-0.4-3.1-1.3-4C66.8,101.1,65.5,100.6,63.8,100.6z"/>
	<path class="st1" d="M113.6,110.6c0,5.7-1.2,10.1-3.5,13.2c-2.4,3.1-5.7,4.6-10,4.6c-3.5,0-6.4-1.4-8.6-4.2l-0.5,3.6h-9.7V78.2
		h10.9v17.4c2-2.3,4.6-3.4,7.8-3.4c4.3,0,7.7,1.6,10.1,4.7c2.4,3.1,3.5,7.5,3.5,13.1V110.6z M102.7,109.9c0-3.3-0.4-5.7-1.3-7.2
		c-0.9-1.4-2.3-2.1-4.1-2.1c-2.4,0-4.1,0.9-5.1,2.8v13.8c0.9,1.8,2.6,2.8,5.2,2.8c2.6,0,4.2-1.2,4.9-3.7
		C102.5,115,102.7,112.9,102.7,109.9z"/>
</g>
</svg>
