<svg xmlns="http://www.w3.org/2000/svg" viewBox="0 0 1587.93 669.62"><defs><style>.cls-1{fill:#fff;}</style></defs><title>Logotype-2</title><g id="Calque_2" data-name="Calque 2"><g id="Alternative"><g id="Logotype"><g id="Wordmark"><path class="cls-1" d="M716.05,509.38H634.1v8.69c25.63,0,29.75,5.5,29.75,38v58.6c0,32.51-4.12,38.46-29.75,38.46-19.69-2.75-33-13.28-51.28-33.42l-21.06-22.89c28.39-5,43.49-22.9,43.49-43.05,0-25.17-21.51-44.4-61.8-44.4H462.87v8.69c25.63,0,29.75,5.5,29.75,38v58.6c0,32.51-4.12,38.46-29.75,38.46v8.69H554v-8.69c-25.64,0-29.76-5.95-29.76-38.46V598.2H532l50.82,63.63H716.05c65.47,0,93.86-34.79,93.86-76.46S781.52,509.38,716.05,509.38ZM524.22,584V523.11H543c20.6,0,29.76,14.19,29.76,30.67,0,16-9.16,30.22-29.76,30.22Zm193.2,63.64h-3.2c-16.48,0-18.77-4.12-18.77-25.18V523.11h22c47.62,0,56.32,34.79,56.32,61.81C773.74,612.85,765,647.64,717.42,647.64Z"/><path class="cls-1" d="M207.86,601l31.59-93.41c9.16-27,5-34.79-24.26-34.79v-9.16h86.07v9.16c-28.84,0-35.71,6.86-47.16,40.29L201.91,669.62H196L149.25,526.31,101.64,669.62h-6L44.87,513c-11-33.43-18.31-40.29-44.87-40.29v-9.16H101.64v9.16c-27,0-34.34,6.4-24.72,34.79L107.59,601l46.24-137.36h8.7Z"/><path class="cls-1" d="M363.52,667.79c-50.36,0-91.57-37.09-91.57-82.42,0-44.86,41.21-81.95,91.57-81.95s91.57,37.09,91.57,81.95C455.09,630.7,413.88,667.79,363.52,667.79Zm0-150.17c-42.12,0-56.78,38-56.78,67.75,0,30.22,14.66,67.77,56.78,67.77,42.58,0,57.23-37.55,57.23-67.77C420.75,555.62,406.1,517.62,363.52,517.62Z"/><path class="cls-1" d="M923,652.68v9.15H818.14v-9.15c30.68,0,36.17-7.78,36.17-53.57V525.86c0-45.79-5.49-53.11-36.17-53.11v-9.16h94.77c47.16,0,73.26,24.26,73.26,56.77,0,31.59-26.1,56.32-73.26,56.32H886.82v22.43C886.82,644.9,892.31,652.68,923,652.68ZM912.91,480.07H886.82v79.67h26.09c25.64,0,37.55-17.86,37.55-39.38C950.46,498.39,938.55,480.07,912.91,480.07Z"/><path class="cls-1" d="M1300.7,618.8l-2.29,8.24c-4.12,15.11-9.16,20.6-41.66,20.6h-6.42c-23.8,0-27.92-5.49-27.92-38V588.58c35.71,0,38.46,3.21,38.46,27h8.7V547.37h-8.7c0,23.81-2.75,27-38.46,27V523.11h25.18c32.51,0,37.54,5.5,41.66,20.6l2.29,8.7h7.32l-3.2-43h-134.6v8.69c25.63,0,29.75,5.5,29.75,38v58.6c0,29.74-3.5,37.23-23.71,38.3-19.21-2.94-32.4-13.42-50.45-33.26l-21.06-22.89c28.39-5,43.5-22.9,43.5-43.05,0-25.17-21.52-44.4-61.81-44.4H996.7v8.69c25.64,0,29.76,5.5,29.76,38v58.6c0,32.51-4.12,38.46-29.76,38.46v8.69h91.11v-8.69c-25.64,0-29.76-5.95-29.76-38.46V598.2h7.78l50.82,63.63h188.17l2.74-43ZM1058.05,584V523.11h18.77c20.6,0,29.76,14.19,29.76,30.67,0,16-9.16,30.22-29.76,30.22Z"/><path class="cls-1" d="M1393.64,667.79c-18.32,0-34.34-9.62-41.21-15.57-2.29,2.29-6.41,9.16-7.32,15.57h-8.7V604.61h9.15c3.67,30.21,24.73,48.07,51.74,48.07,14.65,0,26.56-8.24,26.56-22,0-11.9-10.54-21.06-29.31-29.75l-26.09-12.37c-18.32-8.7-32-23.81-32-44,0-22,20.6-40.75,49-40.75,15.11,0,27.92,5.5,35.71,11.9,2.29-1.83,4.57-6.87,6-12.36h8.7v54h-9.62c-3.2-21.52-15.1-39.38-39.37-39.38-12.82,0-24.73,7.33-24.73,18.78,0,11.9,9.62,18.31,31.6,28.38l25.18,12.36c22,10.53,30.67,27.48,30.67,41.21C1449.49,647.64,1424.31,667.79,1393.64,667.79Z"/><path class="cls-1" d="M1532.08,667.79c-18.32,0-34.34-9.62-41.21-15.57-2.29,2.29-6.41,9.16-7.32,15.57h-8.7V604.61H1484c3.67,30.21,24.72,48.07,51.74,48.07,14.65,0,26.55-8.24,26.55-22,0-11.9-10.53-21.06-29.3-29.75l-26.09-12.37c-18.32-8.7-32.05-23.81-32.05-44,0-22,20.6-40.75,49-40.75,15.11,0,27.92,5.5,35.71,11.9,2.28-1.83,4.57-6.87,6-12.36h8.7v54h-9.62c-3.21-21.52-15.11-39.38-39.37-39.38-12.82,0-24.73,7.33-24.73,18.78,0,11.9,9.62,18.31,31.6,28.38l25.17,12.36c22,10.53,30.68,27.48,30.68,41.21C1587.93,647.64,1562.75,667.79,1532.08,667.79Z"/></g><g id="W_Mark" data-name="W Mark"><path class="cls-1" d="M794,12.36A192.78,192.78,0,0,1,902.24,45.43a194.23,194.23,0,0,1,70.18,85.22,193.42,193.42,0,0,1-17.85,183.66,194.23,194.23,0,0,1-85.22,70.18,193.42,193.42,0,0,1-183.66-17.85,194.23,194.23,0,0,1-70.18-85.22A193.42,193.42,0,0,1,633.36,97.76a194.23,194.23,0,0,1,85.22-70.18A192.39,192.39,0,0,1,794,12.36M794,0c-113.79,0-206,92.24-206,206s92.25,206,206,206,206-92.25,206-206S907.75,0,794,0Z"/><path class="cls-1" d="M622.27,206A171.71,171.71,0,0,0,719,360.55l-81.9-224.4A171,171,0,0,0,622.27,206Zm287.6-8.66c0-21.23-7.62-35.92-14.15-47.35-8.71-14.15-16.87-26.12-16.87-40.27,0-15.78,12-30.47,28.84-30.47.76,0,1.48.09,2.22.14a171.66,171.66,0,0,0-259.4,32.3c4,.13,7.83.21,11,.21,18,0,45.76-2.18,45.76-2.18,9.25-.54,10.35,13.06,1.1,14.15,0,0-9.31,1.09-19.65,1.63l62.52,186,37.58-112.69-26.75-73.29c-9.25-.54-18-1.63-18-1.63-9.25-.55-8.17-14.69,1.09-14.15,0,0,28.35,2.18,45.22,2.18,18,0,45.77-2.18,45.77-2.18,9.25-.54,10.34,13.06,1.09,14.15,0,0-9.31,1.09-19.65,1.63l62,184.56L897.39,254C905.26,229.44,909.87,212.06,909.87,197.37ZM797,221.05,745.46,370.73A171.75,171.75,0,0,0,851,368a16.05,16.05,0,0,1-1.23-2.37Zm147.65-97.39a131.47,131.47,0,0,1,1.16,17.66c0,17.41-3.27,37-13.06,61.49L880.29,354.43a171.72,171.72,0,0,0,64.34-230.77Z"/></g></g></g></g></svg>