<svg xmlns="http://www.w3.org/2000/svg" viewBox="0 0 349.93 161.8"><defs><style>.cls-1{fill:#78c8cf;}.cls-2{fill:#fff;}</style></defs><title>soprint</title><g id="Calque_2" data-name="Calque 2"><g id="Calque_1-2" data-name="Calque 1"><path class="cls-1" d="M349.93,19.3H208.29V161.8H349.93Z"/><path class="cls-2" d="M161.4,108.5c-17.9,0-32.1,8.9-39.6,22.5C119.4,99.8,93,87.7,66.9,80.3,39.2,72.6,11.8,69.8,11.8,55.1c0-12.6,13.3-16.4,24-16.4,15.4,0,31.6,5.5,30.8,23.1h49.5C115.8,18.6,77.7,0,39.8,0,28.4,0,17,1.7,0,7L.1,111.6c9.9-.6,14,.7,17.8,1.8,27.5,8,54.6,11.2,54.6,28,0,14.3-15.5,19.7-30.4,19.7-21,0-34.9-7.3-36-29.8v30.4H206.6a56.33,56.33,0,0,0,.4-7.1C207.2,128.5,188.3,108.5,161.4,108.5ZM178,161.8H144.6a56.33,56.33,0,0,1-.4-7.1c0-11.1,4-24.4,17-24.4s17.3,13.3,17.3,24.4A33.48,33.48,0,0,1,178,161.8Z"/><path class="cls-2" d="M244.89,126.93c0,6.11-1.36,11-4.2,14.73a13.24,13.24,0,0,1-11.21,5.44,11.61,11.61,0,0,1-9-4V161.6H208.29V106.87h11.55l.34,3.63a11.33,11.33,0,0,1,9.3-4.42,13.33,13.33,0,0,1,11.33,5.43c2.72,3.63,4.08,8.5,4.08,14.85Zm-12.35-.8q0-10.53-6.12-10.54c-2.95,0-4.88,1-5.9,3.18v15.52c1,2.15,3.06,3.29,5.9,3.29,4,0,5.89-3.4,6-10.2v-1.25Z"/><path class="cls-2" d="M271,118.09l-4.08-.34c-3.85,0-6.35,1.24-7.48,3.62v25H247.15V106.87h11.56l.45,5.1c2-3.85,5-5.78,8.62-5.78a9.9,9.9,0,0,1,3.4.45Z"/><path class="cls-2" d="M272.08,96.67A5.68,5.68,0,0,1,274,92.36a7.21,7.21,0,0,1,5-1.69,7.41,7.41,0,0,1,5,1.69,5.78,5.78,0,0,1,0,8.62,7.22,7.22,0,0,1-5,1.7,7.41,7.41,0,0,1-5-1.7A5.52,5.52,0,0,1,272.08,96.67Zm13.15,49.75H272.88V106.87h12.35Z"/><path class="cls-2" d="M300.86,106.87l.46,4.64c2.72-3.62,6.46-5.32,11.33-5.32q6.12,0,9.18,3.74c2,2.49,3.06,6.12,3.17,11.1v25.5H312.54V121.6a6.66,6.66,0,0,0-1.25-4.42c-.79-.91-2.27-1.36-4.42-1.36a5.75,5.75,0,0,0-5.33,2.83v27.88H289.31V106.87Z"/><path class="cls-2" d="M342.9,97.12V107h6.46v8.5H342.9v18.13a4.31,4.31,0,0,0,.8,3.06,4.37,4.37,0,0,0,3.17.91,21.54,21.54,0,0,0,3.06-.23v8.84a23.74,23.74,0,0,1-6.91,1c-4.2,0-7.37-1-9.41-3s-3.06-5-3.06-9.06V115.48h-5V107h5V97.12Z"/></g></g></svg>